<?xml version="1.0" encoding="utf-8"?>
<svg xmlns="http://www.w3.org/2000/svg" xmlns:xlink="http://www.w3.org/1999/xlink" width="600" height="400" viewBox="0 0 2400 1600">
<defs>
  <clipPath id="clip780">
    <rect x="0" y="0" width="2400" height="1600"/>
  </clipPath>
</defs>
<path clip-path="url(#clip780)" d="
M0 1600 L2400 1600 L2400 0 L0 0  Z
  " fill="#ffffff" fill-rule="evenodd" fill-opacity="1"/>
<defs>
  <clipPath id="clip781">
    <rect x="480" y="0" width="1681" height="1600"/>
  </clipPath>
</defs>
<path clip-path="url(#clip780)" d="
M572.703 1552.76 L1827.3 1552.76 L1827.3 47.2441 L572.703 47.2441  Z
  " fill="#ffffff" fill-rule="evenodd" fill-opacity="1"/>
<defs>
  <clipPath id="clip782">
    <rect x="572" y="47" width="1256" height="1507"/>
  </clipPath>
</defs>
<polyline clip-path="url(#clip782)" style="stroke:#000000; stroke-linecap:butt; stroke-linejoin:round; stroke-width:4; stroke-opacity:1; fill:none" points="
  677.253,590.901 694.792,608.44 712.327,625.975 729.852,643.5 747.363,661.011 764.855,678.503 782.324,695.972 799.764,713.412 817.171,730.82 834.541,748.19 
  851.869,765.517 869.149,782.798 886.378,800.026 903.55,817.198 920.661,834.31 937.706,851.355 954.681,868.329 971.58,885.229 988.4,902.048 1005.13,918.783 
  1021.78,935.428 1038.33,951.979 1054.78,968.431 1071.13,984.78 1087.37,1001.02 1103.5,1017.15 1119.52,1033.16 1135.42,1049.07 1151.23,1064.87 1166.93,1080.58 
  1182.54,1096.19 1198.06,1111.71 1213.5,1127.15 1228.85,1142.5 1244.14,1157.78 1259.35,1172.99 1274.49,1188.14 1289.57,1203.22 1304.6,1218.25 1319.58,1233.22 
  1334.5,1248.15 1349.39,1263.04 1364.24,1277.89 1379.05,1292.7 1393.84,1307.49 1408.6,1322.25 1423.35,1337 1438.08,1351.73 1452.8,1366.45 1467.52,1381.17 
  
  "/>
<polyline clip-path="url(#clip782)" style="stroke:#000000; stroke-linecap:butt; stroke-linejoin:round; stroke-width:4; stroke-opacity:1; fill:none" points="
  1454.79,1342.98 1467.52,1381.17 1429.33,1368.44 
  "/>
<polyline clip-path="url(#clip782)" style="stroke:#000000; stroke-linecap:butt; stroke-linejoin:round; stroke-width:4; stroke-opacity:1; fill:none" points="
  1467.52,1381.17 1452.8,1366.45 
  "/>
<polyline clip-path="url(#clip782)" style="stroke:#000000; stroke-linecap:butt; stroke-linejoin:round; stroke-width:4; stroke-opacity:1; fill:none" points="
  677.253,590.901 699.207,582.12 721.154,573.341 743.089,564.567 765.006,555.8 786.898,547.043 808.759,538.299 830.583,529.569 852.363,520.857 874.095,512.164 
  895.77,503.494 917.384,494.849 938.93,486.23 960.402,477.642 981.793,469.085 1003.1,460.563 1024.31,452.078 1045.42,443.633 1066.43,435.229 1087.33,426.87 
  1108.11,418.559 1128.77,410.296 1149.29,402.085 1169.68,393.929 1189.93,385.83 1210.03,377.79 1229.98,369.809 1249.79,361.885 1269.47,354.015 1289.01,346.197 
  1308.43,338.429 1327.74,330.707 1346.93,323.03 1366.02,315.395 1385.01,307.8 1403.9,300.241 1422.71,292.718 1441.44,285.226 1460.1,277.764 1478.68,270.329 
  1497.21,262.919 1515.68,255.531 1534.1,248.163 1552.47,240.812 1570.81,233.476 1589.12,226.153 1607.41,218.839 1625.67,211.533 1643.93,204.231 1662.17,196.933 
  
  "/>
<polyline clip-path="url(#clip782)" style="stroke:#000000; stroke-linecap:butt; stroke-linejoin:round; stroke-width:4; stroke-opacity:1; fill:none" points="
  1622.06,193.59 1662.17,196.933 1635.43,227.015 
  "/>
<polyline clip-path="url(#clip782)" style="stroke:#000000; stroke-linecap:butt; stroke-linejoin:round; stroke-width:4; stroke-opacity:1; fill:none" points="
  1662.17,196.933 1643.93,204.231 
  "/>
<polyline clip-path="url(#clip782)" style="stroke:#000000; stroke-linecap:butt; stroke-linejoin:round; stroke-width:4; stroke-opacity:1; fill:none" points="
  1722.75,172.703 1718.37,198.963 1714,225.216 1709.62,251.456 1705.25,277.676 1700.89,303.87 1696.53,330.031 1692.17,356.152 1687.83,382.228 1683.49,408.251 
  1679.16,434.215 1674.85,460.114 1670.54,485.94 1666.25,511.688 1661.97,537.35 1657.71,562.92 1653.47,588.392 1649.24,613.759 1645.03,639.014 1640.84,664.151 
  1636.67,689.164 1632.52,714.045 1628.4,738.788 1624.3,763.387 1620.23,787.835 1616.18,812.125 1612.15,836.259 1608.16,860.241 1604.18,884.079 1600.23,907.779 
  1596.31,931.348 1592.4,954.793 1588.51,978.119 1584.64,1001.33 1580.79,1024.44 1576.96,1047.45 1573.14,1070.37 1569.33,1093.21 1565.54,1115.96 1561.76,1138.64 
  1557.99,1161.26 1554.23,1183.82 1550.48,1206.33 1546.73,1228.78 1543,1251.21 1539.27,1273.59 1535.54,1295.95 1531.82,1318.3 1528.09,1340.62 1524.37,1362.95 
  
  "/>
<polyline clip-path="url(#clip782)" style="stroke:#000000; stroke-linecap:butt; stroke-linejoin:round; stroke-width:4; stroke-opacity:1; fill:none" points="
  1548.05,1330.39 1524.37,1362.95 1512.54,1324.48 
  "/>
<polyline clip-path="url(#clip782)" style="stroke:#000000; stroke-linecap:butt; stroke-linejoin:round; stroke-width:4; stroke-opacity:1; fill:none" points="
  1524.37,1362.95 1528.09,1340.62 
  "/>
<path clip-path="url(#clip782)" d="
M1578.89 1427.3 L1578.68 1422.11 L1578.06 1416.96 L1577.04 1411.88 L1575.61 1406.89 L1573.8 1402.03 L1571.6 1397.33 L1569.03 1392.82 L1566.12 1388.53 L1562.88 1384.49 
  L1559.32 1380.71 L1555.47 1377.23 L1551.36 1374.06 L1547.01 1371.24 L1542.45 1368.76 L1537.71 1366.66 L1532.82 1364.94 L1527.8 1363.61 L1522.7 1362.69 L1517.54 1362.17 
  L1512.35 1362.07 L1507.17 1362.38 L1502.04 1363.1 L1496.97 1364.23 L1492.01 1365.75 L1487.19 1367.66 L1482.54 1369.95 L1478.08 1372.61 L1473.85 1375.61 L1469.87 1378.93 
  L1466.16 1382.56 L1462.76 1386.48 L1459.68 1390.65 L1456.93 1395.05 L1454.55 1399.66 L1452.54 1404.44 L1450.92 1409.37 L1449.69 1414.41 L1448.87 1419.53 L1448.46 1424.7 
  L1448.46 1429.89 L1448.87 1435.06 L1449.69 1440.18 L1450.92 1445.22 L1452.54 1450.15 L1454.55 1454.93 L1456.93 1459.54 L1459.68 1463.94 L1462.76 1468.12 L1466.16 1472.03 
  L1469.87 1475.66 L1473.85 1478.99 L1478.08 1481.99 L1482.54 1484.64 L1487.19 1486.93 L1492.01 1488.84 L1496.97 1490.37 L1502.04 1491.49 L1507.17 1492.21 L1512.35 1492.52 
  L1517.54 1492.42 L1522.7 1491.9 L1527.8 1490.98 L1532.82 1489.66 L1537.71 1487.94 L1542.45 1485.83 L1547.01 1483.36 L1551.36 1480.53 L1555.47 1477.36 L1559.32 1473.88 
  L1562.88 1470.11 L1566.12 1466.06 L1569.03 1461.77 L1571.6 1457.26 L1573.8 1452.56 L1575.61 1447.7 L1577.04 1442.72 L1578.06 1437.63 L1578.68 1432.48 L1578.89 1427.3 
  L1578.89 1427.3  Z
  " fill="#808080" fill-rule="evenodd" fill-opacity="1"/>
<polyline clip-path="url(#clip782)" style="stroke:#000000; stroke-linecap:butt; stroke-linejoin:round; stroke-width:4; stroke-opacity:1; fill:none" points="
  1578.89,1427.3 1578.68,1422.11 1578.06,1416.96 1577.04,1411.88 1575.61,1406.89 1573.8,1402.03 1571.6,1397.33 1569.03,1392.82 1566.12,1388.53 1562.88,1384.49 
  1559.32,1380.71 1555.47,1377.23 1551.36,1374.06 1547.01,1371.24 1542.45,1368.76 1537.71,1366.66 1532.82,1364.94 1527.8,1363.61 1522.7,1362.69 1517.54,1362.17 
  1512.35,1362.07 1507.17,1362.38 1502.04,1363.1 1496.97,1364.23 1492.01,1365.75 1487.19,1367.66 1482.54,1369.95 1478.08,1372.61 1473.85,1375.61 1469.87,1378.93 
  1466.16,1382.56 1462.76,1386.48 1459.68,1390.65 1456.93,1395.05 1454.55,1399.66 1452.54,1404.44 1450.92,1409.37 1449.69,1414.41 1448.87,1419.53 1448.46,1424.7 
  1448.46,1429.89 1448.87,1435.06 1449.69,1440.18 1450.92,1445.22 1452.54,1450.15 1454.55,1454.93 1456.93,1459.54 1459.68,1463.94 1462.76,1468.12 1466.16,1472.03 
  1469.87,1475.66 1473.85,1478.99 1478.08,1481.99 1482.54,1484.64 1487.19,1486.93 1492.01,1488.84 1496.97,1490.37 1502.04,1491.49 1507.17,1492.21 1512.35,1492.52 
  1517.54,1492.42 1522.7,1491.9 1527.8,1490.98 1532.82,1489.66 1537.71,1487.94 1542.45,1485.83 1547.01,1483.36 1551.36,1480.53 1555.47,1477.36 1559.32,1473.88 
  1562.88,1470.11 1566.12,1466.06 1569.03,1461.77 1571.6,1457.26 1573.8,1452.56 1575.61,1447.7 1577.04,1442.72 1578.06,1437.63 1578.68,1432.48 1578.89,1427.3 
  
  "/>
<path clip-path="url(#clip782)" d="
M742.492 590.901 L742.285 585.718 L741.668 580.567 L740.643 575.482 L739.218 570.495 L737.401 565.636 L735.203 560.937 L732.64 556.428 L729.726 552.136 L726.48 548.09 
  L722.923 544.314 L719.077 540.833 L714.967 537.668 L710.618 534.84 L706.059 532.366 L701.317 530.263 L696.423 528.542 L691.408 527.217 L686.304 526.293 L681.142 525.778 
  L675.956 525.675 L670.778 525.984 L665.64 526.704 L660.577 527.83 L655.618 529.354 L650.797 531.267 L646.143 533.558 L641.685 536.211 L637.452 539.21 L633.471 542.535 
  L629.767 546.166 L626.363 550.081 L623.28 554.253 L620.539 558.657 L618.157 563.265 L616.148 568.047 L614.525 572.974 L613.299 578.015 L612.478 583.137 L612.066 588.307 
  L612.066 593.495 L612.478 598.666 L613.299 603.788 L614.525 608.828 L616.148 613.755 L618.157 618.538 L620.539 623.145 L623.28 627.549 L626.363 631.722 L629.767 635.636 
  L633.471 639.267 L637.452 642.593 L641.685 645.591 L646.143 648.244 L650.797 650.535 L655.618 652.448 L660.577 653.973 L665.64 655.098 L670.778 655.818 L675.956 656.127 
  L681.142 656.024 L686.304 655.509 L691.408 654.586 L696.423 653.26 L701.317 651.54 L706.059 649.436 L710.618 646.962 L714.967 644.134 L719.077 640.97 L722.923 637.488 
  L726.48 633.713 L729.726 629.666 L732.64 625.375 L735.203 620.865 L737.401 616.166 L739.218 611.308 L740.643 606.32 L741.668 601.235 L742.285 596.084 L742.492 590.901 
  L742.492 590.901  Z
  " fill="#808080" fill-rule="evenodd" fill-opacity="1"/>
<polyline clip-path="url(#clip782)" style="stroke:#000000; stroke-linecap:butt; stroke-linejoin:round; stroke-width:4; stroke-opacity:1; fill:none" points="
  742.492,590.901 742.285,585.718 741.668,580.567 740.643,575.482 739.218,570.495 737.401,565.636 735.203,560.937 732.64,556.428 729.726,552.136 726.48,548.09 
  722.923,544.314 719.077,540.833 714.967,537.668 710.618,534.84 706.059,532.366 701.317,530.263 696.423,528.542 691.408,527.217 686.304,526.293 681.142,525.778 
  675.956,525.675 670.778,525.984 665.64,526.704 660.577,527.83 655.618,529.354 650.797,531.267 646.143,533.558 641.685,536.211 637.452,539.21 633.471,542.535 
  629.767,546.166 626.363,550.081 623.28,554.253 620.539,558.657 618.157,563.265 616.148,568.047 614.525,572.974 613.299,578.015 612.478,583.137 612.066,588.307 
  612.066,593.495 612.478,598.666 613.299,603.788 614.525,608.828 616.148,613.755 618.157,618.538 620.539,623.145 623.28,627.549 626.363,631.722 629.767,635.636 
  633.471,639.267 637.452,642.593 641.685,645.591 646.143,648.244 650.797,650.535 655.618,652.448 660.577,653.973 665.64,655.098 670.778,655.818 675.956,656.127 
  681.142,656.024 686.304,655.509 691.408,654.586 696.423,653.26 701.317,651.54 706.059,649.436 710.618,646.962 714.967,644.134 719.077,640.97 722.923,637.488 
  726.48,633.713 729.726,629.666 732.64,625.375 735.203,620.865 737.401,616.166 739.218,611.308 740.643,606.32 741.668,601.235 742.285,596.084 742.492,590.901 
  
  "/>
<path clip-path="url(#clip782)" d="
M1787.99 172.703 L1787.78 167.52 L1787.16 162.37 L1786.14 157.285 L1784.71 152.297 L1782.9 147.438 L1780.7 142.739 L1778.13 138.23 L1775.22 133.938 L1771.97 129.892 
  L1768.42 126.116 L1764.57 122.635 L1760.46 119.47 L1756.11 116.642 L1751.55 114.169 L1746.81 112.065 L1741.92 110.345 L1736.9 109.019 L1731.8 108.095 L1726.64 107.581 
  L1721.45 107.477 L1716.27 107.787 L1711.13 108.506 L1706.07 109.632 L1701.11 111.156 L1696.29 113.07 L1691.64 115.36 L1687.18 118.013 L1682.95 121.012 L1678.97 124.337 
  L1675.26 127.969 L1671.86 131.883 L1668.77 136.055 L1666.03 140.459 L1663.65 145.067 L1661.64 149.85 L1660.02 154.777 L1658.79 159.817 L1657.97 164.939 L1657.56 170.11 
  L1657.56 175.297 L1657.97 180.468 L1658.79 185.59 L1660.02 190.63 L1661.64 195.557 L1663.65 200.34 L1666.03 204.948 L1668.77 209.352 L1671.86 213.524 L1675.26 217.438 
  L1678.97 221.069 L1682.95 224.395 L1687.18 227.394 L1691.64 230.047 L1696.29 232.337 L1701.11 234.251 L1706.07 235.775 L1711.13 236.9 L1716.27 237.62 L1721.45 237.929 
  L1726.64 237.826 L1731.8 237.311 L1736.9 236.388 L1741.92 235.062 L1746.81 233.342 L1751.55 231.238 L1756.11 228.765 L1760.46 225.936 L1764.57 222.772 L1768.42 219.291 
  L1771.97 215.515 L1775.22 211.468 L1778.13 207.177 L1780.7 202.667 L1782.9 197.969 L1784.71 193.11 L1786.14 188.122 L1787.16 183.037 L1787.78 177.887 L1787.99 172.703 
  L1787.99 172.703  Z
  " fill="#808080" fill-rule="evenodd" fill-opacity="1"/>
<polyline clip-path="url(#clip782)" style="stroke:#000000; stroke-linecap:butt; stroke-linejoin:round; stroke-width:4; stroke-opacity:1; fill:none" points="
  1787.99,172.703 1787.78,167.52 1787.16,162.37 1786.14,157.285 1784.71,152.297 1782.9,147.438 1780.7,142.739 1778.13,138.23 1775.22,133.938 1771.97,129.892 
  1768.42,126.116 1764.57,122.635 1760.46,119.47 1756.11,116.642 1751.55,114.169 1746.81,112.065 1741.92,110.345 1736.9,109.019 1731.8,108.095 1726.64,107.581 
  1721.45,107.477 1716.27,107.787 1711.13,108.506 1706.07,109.632 1701.11,111.156 1696.29,113.07 1691.64,115.36 1687.18,118.013 1682.95,121.012 1678.97,124.337 
  1675.26,127.969 1671.86,131.883 1668.77,136.055 1666.03,140.459 1663.65,145.067 1661.64,149.85 1660.02,154.777 1658.79,159.817 1657.97,164.939 1657.56,170.11 
  1657.56,175.297 1657.97,180.468 1658.79,185.59 1660.02,190.63 1661.64,195.557 1663.65,200.34 1666.03,204.948 1668.77,209.352 1671.86,213.524 1675.26,217.438 
  1678.97,221.069 1682.95,224.395 1687.18,227.394 1691.64,230.047 1696.29,232.337 1701.11,234.251 1706.07,235.775 1711.13,236.9 1716.27,237.62 1721.45,237.929 
  1726.64,237.826 1731.8,237.311 1736.9,236.388 1741.92,235.062 1746.81,233.342 1751.55,231.238 1756.11,228.765 1760.46,225.936 1764.57,222.772 1768.42,219.291 
  1771.97,215.515 1775.22,211.468 1778.13,207.177 1780.7,202.667 1782.9,197.969 1784.71,193.11 1786.14,188.122 1787.16,183.037 1787.78,177.887 1787.99,172.703 
  
  "/>
<circle clip-path="url(#clip782)" cx="1513.65" cy="1427.3" r="1" fill="#808080" fill-rule="evenodd" fill-opacity="1" stroke="#000000" stroke-opacity="1" stroke-width="3.2"/>
<circle clip-path="url(#clip782)" cx="677.253" cy="590.901" r="1" fill="#808080" fill-rule="evenodd" fill-opacity="1" stroke="#000000" stroke-opacity="1" stroke-width="3.2"/>
<circle clip-path="url(#clip782)" cx="1722.75" cy="172.703" r="1" fill="#808080" fill-rule="evenodd" fill-opacity="1" stroke="#000000" stroke-opacity="1" stroke-width="3.2"/>
<path clip-path="url(#clip780)" d="M1495.43 1405.7 L1501.71 1405.7 L1513.69 1423.46 L1525.58 1405.7 L1531.86 1405.7 L1516.59 1428.32 L1516.59 1448.9 L1510.71 1448.9 L1510.71 1428.32 L1495.43 1405.7 Z" fill="#000000" fill-rule="evenodd" fill-opacity="1" /><path clip-path="url(#clip780)" d="M660.731 569.301 L667.01 569.301 L677.745 585.36 L688.538 569.301 L694.816 569.301 L680.928 590.048 L695.742 612.501 L689.463 612.501 L677.311 594.127 L665.071 612.501 L658.763 612.501 L674.186 589.44 L660.731 569.301 Z" fill="#000000" fill-rule="evenodd" fill-opacity="1" /><path clip-path="url(#clip780)" d="M1710.44 155.907 L1710.44 189.5 L1717.5 189.5 Q1726.44 189.5 1730.57 185.449 Q1734.74 181.398 1734.74 172.66 Q1734.74 163.98 1730.57 159.958 Q1726.44 155.907 1717.5 155.907 L1710.44 155.907 M1704.59 151.103 L1716.6 151.103 Q1729.16 151.103 1735.03 156.341 Q1740.9 161.549 1740.9 172.66 Q1740.9 183.829 1735 189.066 Q1729.1 194.303 1716.6 194.303 L1704.59 194.303 L1704.59 151.103 Z" fill="#000000" fill-rule="evenodd" fill-opacity="1" /></svg>
