<?xml version="1.0" encoding="utf-8"?>
<svg xmlns="http://www.w3.org/2000/svg" xmlns:xlink="http://www.w3.org/1999/xlink" width="600" height="400" viewBox="0 0 2400 1600">
<defs>
  <clipPath id="clip690">
    <rect x="0" y="0" width="2400" height="1600"/>
  </clipPath>
</defs>
<path clip-path="url(#clip690)" d="
M0 1600 L2400 1600 L2400 0 L0 0  Z
  " fill="#ffffff" fill-rule="evenodd" fill-opacity="1"/>
<defs>
  <clipPath id="clip691">
    <rect x="480" y="0" width="1681" height="1600"/>
  </clipPath>
</defs>
<path clip-path="url(#clip690)" d="
M47.2441 1129.36 L2352.76 1129.36 L2352.76 470.641 L47.2441 470.641  Z
  " fill="#ffffff" fill-rule="evenodd" fill-opacity="1"/>
<defs>
  <clipPath id="clip692">
    <rect x="47" y="470" width="2307" height="660"/>
  </clipPath>
</defs>
<polyline clip-path="url(#clip692)" style="stroke:#000000; stroke-linecap:butt; stroke-linejoin:round; stroke-width:4; stroke-opacity:1; fill:none" points="
  2023.4,800 1989.06,800 1954.74,800 1920.43,800 1886.14,800 1851.88,800 1817.65,800 1783.47,800 1749.34,800 1715.27,800 
  1681.27,800 1647.33,800 1613.48,800 1579.71,800 1546.04,800 1512.47,800 1479.01,800 1445.66,800 1412.44,800 1379.35,800 
  1346.39,800 1313.58,800 1280.93,800 1248.43,800 1216.1,800 1183.94,800 1151.96,800 1120.15,800 1088.49,800 1056.99,800 
  1025.63,800 994.408,800 963.319,800 932.352,800 901.502,800 870.76,800 840.12,800 809.575,800 779.116,800 748.738,800 
  718.431,800 688.191,800 658.008,800 627.876,800 597.787,800 567.735,800 537.712,800 507.711,800 477.724,800 447.744,800 
  
  "/>
<polyline clip-path="url(#clip692)" style="stroke:#000000; stroke-linecap:butt; stroke-linejoin:round; stroke-width:4; stroke-opacity:1; fill:none" points="
  483.744,818 447.744,800 483.744,782 
  "/>
<polyline clip-path="url(#clip692)" style="stroke:#000000; stroke-linecap:butt; stroke-linejoin:round; stroke-width:4; stroke-opacity:1; fill:none" points="
  447.744,800 477.724,800 
  "/>
<polyline clip-path="url(#clip692)" style="stroke:#000000; stroke-linecap:butt; stroke-linejoin:round; stroke-width:4; stroke-opacity:1; fill:none" points="
  376.603,800 411.473,800 446.33,800 481.162,800 515.956,800 550.7,800 585.38,800 619.984,800 654.501,800 688.916,800 
  723.217,800 757.392,800 791.428,800 825.312,800 859.033,800 892.576,800 925.93,800 959.081,800 992.018,800 1024.73,800 
  1057.2,800 1089.41,800 1121.37,800 1153.04,800 1184.42,800 1215.5,800 1246.28,800 1276.77,800 1306.98,800 1336.92,800 
  1366.61,800 1396.06,800 1425.28,800 1454.29,800 1483.1,800 1511.72,800 1540.16,800 1568.43,800 1596.56,800 1624.54,800 
  1652.4,800 1680.15,800 1707.79,800 1735.35,800 1762.83,800 1790.24,800 1817.61,800 1844.94,800 1872.24,800 1899.53,800 
  
  "/>
<polyline clip-path="url(#clip692)" style="stroke:#000000; stroke-linecap:butt; stroke-linejoin:round; stroke-width:4; stroke-opacity:1; fill:none" points="
  1863.53,782 1899.53,800 1863.53,818 
  "/>
<polyline clip-path="url(#clip692)" style="stroke:#000000; stroke-linecap:butt; stroke-linejoin:round; stroke-width:4; stroke-opacity:1; fill:none" points="
  1899.53,800 1872.24,800 
  "/>
<path clip-path="url(#clip692)" d="
M447.744 800 L447.52 794.348 L446.846 788.731 L445.729 783.186 L444.175 777.747 L442.193 772.449 L439.797 767.325 L437.001 762.407 L433.823 757.728 L430.284 753.315 
  L426.405 749.198 L422.211 745.402 L417.729 741.951 L412.987 738.867 L408.015 736.169 L402.844 733.875 L397.508 731.999 L392.039 730.553 L386.473 729.546 L380.844 728.985 
  L375.188 728.873 L369.542 729.21 L363.94 729.995 L358.418 731.222 L353.011 732.884 L347.753 734.971 L342.678 737.468 L337.817 740.361 L333.201 743.631 L328.86 747.258 
  L324.821 751.218 L321.108 755.486 L317.747 760.036 L314.758 764.838 L312.16 769.863 L309.969 775.078 L308.2 780.451 L306.863 785.948 L305.967 791.533 L305.518 797.172 
  L305.518 802.828 L305.967 808.467 L306.863 814.052 L308.2 819.549 L309.969 824.922 L312.16 830.137 L314.758 835.162 L317.747 839.964 L321.108 844.514 L324.821 848.782 
  L328.86 852.742 L333.201 856.369 L337.817 859.639 L342.678 862.532 L347.753 865.029 L353.011 867.116 L358.418 868.778 L363.94 870.005 L369.542 870.79 L375.188 871.127 
  L380.844 871.015 L386.473 870.454 L392.039 869.447 L397.508 868.001 L402.844 866.125 L408.015 863.831 L412.987 861.133 L417.729 858.049 L422.211 854.598 L426.405 850.802 
  L430.284 846.685 L433.823 842.272 L437.001 837.593 L439.797 832.675 L442.193 827.551 L444.175 822.253 L445.729 816.814 L446.846 811.269 L447.52 805.652 L447.744 800 
  L447.744 800  Z
  " fill="#e26f46" fill-rule="evenodd" fill-opacity="1"/>
<polyline clip-path="url(#clip692)" style="stroke:#000000; stroke-linecap:butt; stroke-linejoin:round; stroke-width:4; stroke-opacity:1; fill:none" points="
  447.744,800 447.52,794.348 446.846,788.731 445.729,783.186 444.175,777.747 442.193,772.449 439.797,767.325 437.001,762.407 433.823,757.728 430.284,753.315 
  426.405,749.198 422.211,745.402 417.729,741.951 412.987,738.867 408.015,736.169 402.844,733.875 397.508,731.999 392.039,730.553 386.473,729.546 380.844,728.985 
  375.188,728.873 369.542,729.21 363.94,729.995 358.418,731.222 353.011,732.884 347.753,734.971 342.678,737.468 337.817,740.361 333.201,743.631 328.86,747.258 
  324.821,751.218 321.108,755.486 317.747,760.036 314.758,764.838 312.16,769.863 309.969,775.078 308.2,780.451 306.863,785.948 305.967,791.533 305.518,797.172 
  305.518,802.828 305.967,808.467 306.863,814.052 308.2,819.549 309.969,824.922 312.16,830.137 314.758,835.162 317.747,839.964 321.108,844.514 324.821,848.782 
  328.86,852.742 333.201,856.369 337.817,859.639 342.678,862.532 347.753,865.029 353.011,867.116 358.418,868.778 363.94,870.005 369.542,870.79 375.188,871.127 
  380.844,871.015 386.473,870.454 392.039,869.447 397.508,868.001 402.844,866.125 408.015,863.831 412.987,861.133 417.729,858.049 422.211,854.598 426.405,850.802 
  430.284,846.685 433.823,842.272 437.001,837.593 439.797,832.675 442.193,827.551 444.175,822.253 445.729,816.814 446.846,811.269 447.52,805.652 447.744,800 
  
  "/>
<path clip-path="url(#clip692)" d="
M447.744 800 L447.52 794.348 L446.846 788.731 L445.729 783.186 L444.175 777.747 L442.193 772.449 L439.797 767.325 L437.001 762.407 L433.823 757.728 L430.284 753.315 
  L426.405 749.198 L422.211 745.402 L417.729 741.951 L412.987 738.867 L408.015 736.169 L402.844 733.875 L397.508 731.999 L392.039 730.553 L386.473 729.546 L380.844 728.985 
  L375.188 728.873 L369.542 729.21 L363.94 729.995 L358.418 731.222 L353.011 732.884 L347.753 734.971 L342.678 737.468 L337.817 740.361 L333.201 743.631 L328.86 747.258 
  L324.821 751.218 L321.108 755.486 L317.747 760.036 L314.758 764.838 L312.16 769.863 L309.969 775.078 L308.2 780.451 L306.863 785.948 L305.967 791.533 L305.518 797.172 
  L305.518 802.828 L305.967 808.467 L306.863 814.052 L308.2 819.549 L309.969 824.922 L312.16 830.137 L314.758 835.162 L317.747 839.964 L321.108 844.514 L324.821 848.782 
  L328.86 852.742 L333.201 856.369 L337.817 859.639 L342.678 862.532 L347.753 865.029 L353.011 867.116 L358.418 868.778 L363.94 870.005 L369.542 870.79 L375.188 871.127 
  L380.844 871.015 L386.473 870.454 L392.039 869.447 L397.508 868.001 L402.844 866.125 L408.015 863.831 L412.987 861.133 L417.729 858.049 L422.211 854.598 L426.405 850.802 
  L430.284 846.685 L433.823 842.272 L437.001 837.593 L439.797 832.675 L442.193 827.551 L444.175 822.253 L445.729 816.814 L446.846 811.269 L447.52 805.652 L447.744 800 
  L447.744 800  Z
  " fill="#e26f46" fill-rule="evenodd" fill-opacity="1"/>
<polyline clip-path="url(#clip692)" style="stroke:#000000; stroke-linecap:butt; stroke-linejoin:round; stroke-width:4; stroke-opacity:1; fill:none" points="
  447.744,800 447.52,794.348 446.846,788.731 445.729,783.186 444.175,777.747 442.193,772.449 439.797,767.325 437.001,762.407 433.823,757.728 430.284,753.315 
  426.405,749.198 422.211,745.402 417.729,741.951 412.987,738.867 408.015,736.169 402.844,733.875 397.508,731.999 392.039,730.553 386.473,729.546 380.844,728.985 
  375.188,728.873 369.542,729.21 363.94,729.995 358.418,731.222 353.011,732.884 347.753,734.971 342.678,737.468 337.817,740.361 333.201,743.631 328.86,747.258 
  324.821,751.218 321.108,755.486 317.747,760.036 314.758,764.838 312.16,769.863 309.969,775.078 308.2,780.451 306.863,785.948 305.967,791.533 305.518,797.172 
  305.518,802.828 305.967,808.467 306.863,814.052 308.2,819.549 309.969,824.922 312.16,830.137 314.758,835.162 317.747,839.964 321.108,844.514 324.821,848.782 
  328.86,852.742 333.201,856.369 337.817,859.639 342.678,862.532 347.753,865.029 353.011,867.116 358.418,868.778 363.94,870.005 369.542,870.79 375.188,871.127 
  380.844,871.015 386.473,870.454 392.039,869.447 397.508,868.001 402.844,866.125 408.015,863.831 412.987,861.133 417.729,858.049 422.211,854.598 426.405,850.802 
  430.284,846.685 433.823,842.272 437.001,837.593 439.797,832.675 442.193,827.551 444.175,822.253 445.729,816.814 446.846,811.269 447.52,805.652 447.744,800 
  
  "/>
<path clip-path="url(#clip692)" d="
M447.744 800 L447.52 794.348 L446.846 788.731 L445.729 783.186 L444.175 777.747 L442.193 772.449 L439.797 767.325 L437.001 762.407 L433.823 757.728 L430.284 753.315 
  L426.405 749.198 L422.211 745.402 L417.729 741.951 L412.987 738.867 L408.015 736.169 L402.844 733.875 L397.508 731.999 L392.039 730.553 L386.473 729.546 L380.844 728.985 
  L375.188 728.873 L369.542 729.21 L363.94 729.995 L358.418 731.222 L353.011 732.884 L347.753 734.971 L342.678 737.468 L337.817 740.361 L333.201 743.631 L328.86 747.258 
  L324.821 751.218 L321.108 755.486 L317.747 760.036 L314.758 764.838 L312.16 769.863 L309.969 775.078 L308.2 780.451 L306.863 785.948 L305.967 791.533 L305.518 797.172 
  L305.518 802.828 L305.967 808.467 L306.863 814.052 L308.2 819.549 L309.969 824.922 L312.16 830.137 L314.758 835.162 L317.747 839.964 L321.108 844.514 L324.821 848.782 
  L328.86 852.742 L333.201 856.369 L337.817 859.639 L342.678 862.532 L347.753 865.029 L353.011 867.116 L358.418 868.778 L363.94 870.005 L369.542 870.79 L375.188 871.127 
  L380.844 871.015 L386.473 870.454 L392.039 869.447 L397.508 868.001 L402.844 866.125 L408.015 863.831 L412.987 861.133 L417.729 858.049 L422.211 854.598 L426.405 850.802 
  L430.284 846.685 L433.823 842.272 L437.001 837.593 L439.797 832.675 L442.193 827.551 L444.175 822.253 L445.729 816.814 L446.846 811.269 L447.52 805.652 L447.744 800 
  L447.744 800  Z
  " fill="#e26f46" fill-rule="evenodd" fill-opacity="1"/>
<polyline clip-path="url(#clip692)" style="stroke:#000000; stroke-linecap:butt; stroke-linejoin:round; stroke-width:4; stroke-opacity:1; fill:none" points="
  447.744,800 447.52,794.348 446.846,788.731 445.729,783.186 444.175,777.747 442.193,772.449 439.797,767.325 437.001,762.407 433.823,757.728 430.284,753.315 
  426.405,749.198 422.211,745.402 417.729,741.951 412.987,738.867 408.015,736.169 402.844,733.875 397.508,731.999 392.039,730.553 386.473,729.546 380.844,728.985 
  375.188,728.873 369.542,729.21 363.94,729.995 358.418,731.222 353.011,732.884 347.753,734.971 342.678,737.468 337.817,740.361 333.201,743.631 328.86,747.258 
  324.821,751.218 321.108,755.486 317.747,760.036 314.758,764.838 312.16,769.863 309.969,775.078 308.2,780.451 306.863,785.948 305.967,791.533 305.518,797.172 
  305.518,802.828 305.967,808.467 306.863,814.052 308.2,819.549 309.969,824.922 312.16,830.137 314.758,835.162 317.747,839.964 321.108,844.514 324.821,848.782 
  328.86,852.742 333.201,856.369 337.817,859.639 342.678,862.532 347.753,865.029 353.011,867.116 358.418,868.778 363.94,870.005 369.542,870.79 375.188,871.127 
  380.844,871.015 386.473,870.454 392.039,869.447 397.508,868.001 402.844,866.125 408.015,863.831 412.987,861.133 417.729,858.049 422.211,854.598 426.405,850.802 
  430.284,846.685 433.823,842.272 437.001,837.593 439.797,832.675 442.193,827.551 444.175,822.253 445.729,816.814 446.846,811.269 447.52,805.652 447.744,800 
  
  "/>
<path clip-path="url(#clip692)" d="
M500.467 800 L500.076 790.159 L498.904 780.38 L496.958 770.725 L494.252 761.256 L490.802 752.031 L486.63 743.109 L481.762 734.548 L476.229 726.4 L470.067 718.717 
  L463.313 711.548 L456.012 704.939 L448.208 698.93 L439.952 693.56 L431.295 688.864 L422.292 684.87 L413.001 681.604 L403.479 679.086 L393.787 677.333 L383.987 676.356 
  L374.14 676.16 L364.309 676.747 L354.555 678.113 L344.941 680.25 L335.527 683.145 L326.373 686.777 L317.536 691.126 L309.073 696.163 L301.036 701.857 L293.478 708.171 
  L286.445 715.065 L279.981 722.497 L274.129 730.419 L268.925 738.78 L264.401 747.529 L260.587 756.609 L257.507 765.964 L255.179 775.533 L253.619 785.258 L252.836 795.076 
  L252.836 804.924 L253.619 814.742 L255.179 824.467 L257.507 834.036 L260.587 843.391 L264.401 852.471 L268.925 861.22 L274.129 869.581 L279.981 877.503 L286.445 884.935 
  L293.478 891.829 L301.036 898.143 L309.073 903.837 L317.536 908.874 L326.373 913.223 L335.527 916.855 L344.941 919.75 L354.555 921.887 L364.309 923.253 L374.14 923.84 
  L383.987 923.644 L393.787 922.667 L403.479 920.914 L413.001 918.396 L422.292 915.13 L431.295 911.136 L439.952 906.44 L448.208 901.07 L456.012 895.061 L463.313 888.452 
  L470.067 881.283 L476.229 873.6 L481.762 865.452 L486.63 856.891 L490.802 847.969 L494.252 838.744 L496.958 829.275 L498.904 819.62 L500.076 809.841 L500.467 800 
  L500.467 800  Z
  " fill="#e26f46" fill-rule="evenodd" fill-opacity="1"/>
<polyline clip-path="url(#clip692)" style="stroke:#000000; stroke-linecap:butt; stroke-linejoin:round; stroke-width:4; stroke-opacity:1; fill:none" points="
  500.467,800 500.076,790.159 498.904,780.38 496.958,770.725 494.252,761.256 490.802,752.031 486.63,743.109 481.762,734.548 476.229,726.4 470.067,718.717 
  463.313,711.548 456.012,704.939 448.208,698.93 439.952,693.56 431.295,688.864 422.292,684.87 413.001,681.604 403.479,679.086 393.787,677.333 383.987,676.356 
  374.14,676.16 364.309,676.747 354.555,678.113 344.941,680.25 335.527,683.145 326.373,686.777 317.536,691.126 309.073,696.163 301.036,701.857 293.478,708.171 
  286.445,715.065 279.981,722.497 274.129,730.419 268.925,738.78 264.401,747.529 260.587,756.609 257.507,765.964 255.179,775.533 253.619,785.258 252.836,795.076 
  252.836,804.924 253.619,814.742 255.179,824.467 257.507,834.036 260.587,843.391 264.401,852.471 268.925,861.22 274.129,869.581 279.981,877.503 286.445,884.935 
  293.478,891.829 301.036,898.143 309.073,903.837 317.536,908.874 326.373,913.223 335.527,916.855 344.941,919.75 354.555,921.887 364.309,923.253 374.14,923.84 
  383.987,923.644 393.787,922.667 403.479,920.914 413.001,918.396 422.292,915.13 431.295,911.136 439.952,906.44 448.208,901.07 456.012,895.061 463.313,888.452 
  470.067,881.283 476.229,873.6 481.762,865.452 486.63,856.891 490.802,847.969 494.252,838.744 496.958,829.275 498.904,819.62 500.076,809.841 500.467,800 
  
  "/>
<path clip-path="url(#clip692)" d="
M2147.26 800 L2146.87 790.159 L2145.7 780.38 L2143.75 770.725 L2141.05 761.256 L2137.6 752.031 L2133.42 743.109 L2128.56 734.548 L2123.02 726.4 L2116.86 718.717 
  L2110.11 711.548 L2102.81 704.939 L2095 698.93 L2086.75 693.56 L2078.09 688.864 L2069.09 684.87 L2059.79 681.604 L2050.27 679.086 L2040.58 677.333 L2030.78 676.356 
  L2020.93 676.16 L2011.1 676.747 L2001.35 678.113 L1991.74 680.25 L1982.32 683.145 L1973.17 686.777 L1964.33 691.126 L1955.87 696.163 L1947.83 701.857 L1940.27 708.171 
  L1933.24 715.065 L1926.78 722.497 L1920.92 730.419 L1915.72 738.78 L1911.2 747.529 L1907.38 756.609 L1904.3 765.964 L1901.97 775.533 L1900.41 785.258 L1899.63 795.076 
  L1899.63 804.924 L1900.41 814.742 L1901.97 824.467 L1904.3 834.036 L1907.38 843.391 L1911.2 852.471 L1915.72 861.22 L1920.92 869.581 L1926.78 877.503 L1933.24 884.935 
  L1940.27 891.829 L1947.83 898.143 L1955.87 903.837 L1964.33 908.874 L1973.17 913.223 L1982.32 916.855 L1991.74 919.75 L2001.35 921.887 L2011.1 923.253 L2020.93 923.84 
  L2030.78 923.644 L2040.58 922.667 L2050.27 920.914 L2059.79 918.396 L2069.09 915.13 L2078.09 911.136 L2086.75 906.44 L2095 901.07 L2102.81 895.061 L2110.11 888.452 
  L2116.86 881.283 L2123.02 873.6 L2128.56 865.452 L2133.42 856.891 L2137.6 847.969 L2141.05 838.744 L2143.75 829.275 L2145.7 819.62 L2146.87 809.841 L2147.26 800 
  L2147.26 800  Z
  " fill="#e26f46" fill-rule="evenodd" fill-opacity="1"/>
<polyline clip-path="url(#clip692)" style="stroke:#000000; stroke-linecap:butt; stroke-linejoin:round; stroke-width:4; stroke-opacity:1; fill:none" points="
  2147.26,800 2146.87,790.159 2145.7,780.38 2143.75,770.725 2141.05,761.256 2137.6,752.031 2133.42,743.109 2128.56,734.548 2123.02,726.4 2116.86,718.717 
  2110.11,711.548 2102.81,704.939 2095,698.93 2086.75,693.56 2078.09,688.864 2069.09,684.87 2059.79,681.604 2050.27,679.086 2040.58,677.333 2030.78,676.356 
  2020.93,676.16 2011.1,676.747 2001.35,678.113 1991.74,680.25 1982.32,683.145 1973.17,686.777 1964.33,691.126 1955.87,696.163 1947.83,701.857 1940.27,708.171 
  1933.24,715.065 1926.78,722.497 1920.92,730.419 1915.72,738.78 1911.2,747.529 1907.38,756.609 1904.3,765.964 1901.97,775.533 1900.41,785.258 1899.63,795.076 
  1899.63,804.924 1900.41,814.742 1901.97,824.467 1904.3,834.036 1907.38,843.391 1911.2,852.471 1915.72,861.22 1920.92,869.581 1926.78,877.503 1933.24,884.935 
  1940.27,891.829 1947.83,898.143 1955.87,903.837 1964.33,908.874 1973.17,913.223 1982.32,916.855 1991.74,919.75 2001.35,921.887 2011.1,923.253 2020.93,923.84 
  2030.78,923.644 2040.58,922.667 2050.27,920.914 2059.79,918.396 2069.09,915.13 2078.09,911.136 2086.75,906.44 2095,901.07 2102.81,895.061 2110.11,888.452 
  2116.86,881.283 2123.02,873.6 2128.56,865.452 2133.42,856.891 2137.6,847.969 2141.05,838.744 2143.75,829.275 2145.7,819.62 2146.87,809.841 2147.26,800 
  
  "/>
<path clip-path="url(#clip692)" d="
M500.467 800 L500.076 790.159 L498.904 780.38 L496.958 770.725 L494.252 761.256 L490.802 752.031 L486.63 743.109 L481.762 734.548 L476.229 726.4 L470.067 718.717 
  L463.313 711.548 L456.012 704.939 L448.208 698.93 L439.952 693.56 L431.295 688.864 L422.292 684.87 L413.001 681.604 L403.479 679.086 L393.787 677.333 L383.987 676.356 
  L374.14 676.16 L364.309 676.747 L354.555 678.113 L344.941 680.25 L335.527 683.145 L326.373 686.777 L317.536 691.126 L309.073 696.163 L301.036 701.857 L293.478 708.171 
  L286.445 715.065 L279.981 722.497 L274.129 730.419 L268.925 738.78 L264.401 747.529 L260.587 756.609 L257.507 765.964 L255.179 775.533 L253.619 785.258 L252.836 795.076 
  L252.836 804.924 L253.619 814.742 L255.179 824.467 L257.507 834.036 L260.587 843.391 L264.401 852.471 L268.925 861.22 L274.129 869.581 L279.981 877.503 L286.445 884.935 
  L293.478 891.829 L301.036 898.143 L309.073 903.837 L317.536 908.874 L326.373 913.223 L335.527 916.855 L344.941 919.75 L354.555 921.887 L364.309 923.253 L374.14 923.84 
  L383.987 923.644 L393.787 922.667 L403.479 920.914 L413.001 918.396 L422.292 915.13 L431.295 911.136 L439.952 906.44 L448.208 901.07 L456.012 895.061 L463.313 888.452 
  L470.067 881.283 L476.229 873.6 L481.762 865.452 L486.63 856.891 L490.802 847.969 L494.252 838.744 L496.958 829.275 L498.904 819.62 L500.076 809.841 L500.467 800 
  L500.467 800  Z
  " fill="#e26f46" fill-rule="evenodd" fill-opacity="1"/>
<polyline clip-path="url(#clip692)" style="stroke:#000000; stroke-linecap:butt; stroke-linejoin:round; stroke-width:4; stroke-opacity:1; fill:none" points="
  500.467,800 500.076,790.159 498.904,780.38 496.958,770.725 494.252,761.256 490.802,752.031 486.63,743.109 481.762,734.548 476.229,726.4 470.067,718.717 
  463.313,711.548 456.012,704.939 448.208,698.93 439.952,693.56 431.295,688.864 422.292,684.87 413.001,681.604 403.479,679.086 393.787,677.333 383.987,676.356 
  374.14,676.16 364.309,676.747 354.555,678.113 344.941,680.25 335.527,683.145 326.373,686.777 317.536,691.126 309.073,696.163 301.036,701.857 293.478,708.171 
  286.445,715.065 279.981,722.497 274.129,730.419 268.925,738.78 264.401,747.529 260.587,756.609 257.507,765.964 255.179,775.533 253.619,785.258 252.836,795.076 
  252.836,804.924 253.619,814.742 255.179,824.467 257.507,834.036 260.587,843.391 264.401,852.471 268.925,861.22 274.129,869.581 279.981,877.503 286.445,884.935 
  293.478,891.829 301.036,898.143 309.073,903.837 317.536,908.874 326.373,913.223 335.527,916.855 344.941,919.75 354.555,921.887 364.309,923.253 374.14,923.84 
  383.987,923.644 393.787,922.667 403.479,920.914 413.001,918.396 422.292,915.13 431.295,911.136 439.952,906.44 448.208,901.07 456.012,895.061 463.313,888.452 
  470.067,881.283 476.229,873.6 481.762,865.452 486.63,856.891 490.802,847.969 494.252,838.744 496.958,829.275 498.904,819.62 500.076,809.841 500.467,800 
  
  "/>
<path clip-path="url(#clip692)" d="
M500.467 800 L500.076 790.159 L498.904 780.38 L496.958 770.725 L494.252 761.256 L490.802 752.031 L486.63 743.109 L481.762 734.548 L476.229 726.4 L470.067 718.717 
  L463.313 711.548 L456.012 704.939 L448.208 698.93 L439.952 693.56 L431.295 688.864 L422.292 684.87 L413.001 681.604 L403.479 679.086 L393.787 677.333 L383.987 676.356 
  L374.14 676.16 L364.309 676.747 L354.555 678.113 L344.941 680.25 L335.527 683.145 L326.373 686.777 L317.536 691.126 L309.073 696.163 L301.036 701.857 L293.478 708.171 
  L286.445 715.065 L279.981 722.497 L274.129 730.419 L268.925 738.78 L264.401 747.529 L260.587 756.609 L257.507 765.964 L255.179 775.533 L253.619 785.258 L252.836 795.076 
  L252.836 804.924 L253.619 814.742 L255.179 824.467 L257.507 834.036 L260.587 843.391 L264.401 852.471 L268.925 861.22 L274.129 869.581 L279.981 877.503 L286.445 884.935 
  L293.478 891.829 L301.036 898.143 L309.073 903.837 L317.536 908.874 L326.373 913.223 L335.527 916.855 L344.941 919.75 L354.555 921.887 L364.309 923.253 L374.14 923.84 
  L383.987 923.644 L393.787 922.667 L403.479 920.914 L413.001 918.396 L422.292 915.13 L431.295 911.136 L439.952 906.44 L448.208 901.07 L456.012 895.061 L463.313 888.452 
  L470.067 881.283 L476.229 873.6 L481.762 865.452 L486.63 856.891 L490.802 847.969 L494.252 838.744 L496.958 829.275 L498.904 819.62 L500.076 809.841 L500.467 800 
  L500.467 800  Z
  " fill="#e26f46" fill-rule="evenodd" fill-opacity="1"/>
<polyline clip-path="url(#clip692)" style="stroke:#000000; stroke-linecap:butt; stroke-linejoin:round; stroke-width:4; stroke-opacity:1; fill:none" points="
  500.467,800 500.076,790.159 498.904,780.38 496.958,770.725 494.252,761.256 490.802,752.031 486.63,743.109 481.762,734.548 476.229,726.4 470.067,718.717 
  463.313,711.548 456.012,704.939 448.208,698.93 439.952,693.56 431.295,688.864 422.292,684.87 413.001,681.604 403.479,679.086 393.787,677.333 383.987,676.356 
  374.14,676.16 364.309,676.747 354.555,678.113 344.941,680.25 335.527,683.145 326.373,686.777 317.536,691.126 309.073,696.163 301.036,701.857 293.478,708.171 
  286.445,715.065 279.981,722.497 274.129,730.419 268.925,738.78 264.401,747.529 260.587,756.609 257.507,765.964 255.179,775.533 253.619,785.258 252.836,795.076 
  252.836,804.924 253.619,814.742 255.179,824.467 257.507,834.036 260.587,843.391 264.401,852.471 268.925,861.22 274.129,869.581 279.981,877.503 286.445,884.935 
  293.478,891.829 301.036,898.143 309.073,903.837 317.536,908.874 326.373,913.223 335.527,916.855 344.941,919.75 354.555,921.887 364.309,923.253 374.14,923.84 
  383.987,923.644 393.787,922.667 403.479,920.914 413.001,918.396 422.292,915.13 431.295,911.136 439.952,906.44 448.208,901.07 456.012,895.061 463.313,888.452 
  470.067,881.283 476.229,873.6 481.762,865.452 486.63,856.891 490.802,847.969 494.252,838.744 496.958,829.275 498.904,819.62 500.076,809.841 500.467,800 
  
  "/>
<path clip-path="url(#clip692)" d="
M500.467 800 L500.076 790.159 L498.904 780.38 L496.958 770.725 L494.252 761.256 L490.802 752.031 L486.63 743.109 L481.762 734.548 L476.229 726.4 L470.067 718.717 
  L463.313 711.548 L456.012 704.939 L448.208 698.93 L439.952 693.56 L431.295 688.864 L422.292 684.87 L413.001 681.604 L403.479 679.086 L393.787 677.333 L383.987 676.356 
  L374.14 676.16 L364.309 676.747 L354.555 678.113 L344.941 680.25 L335.527 683.145 L326.373 686.777 L317.536 691.126 L309.073 696.163 L301.036 701.857 L293.478 708.171 
  L286.445 715.065 L279.981 722.497 L274.129 730.419 L268.925 738.78 L264.401 747.529 L260.587 756.609 L257.507 765.964 L255.179 775.533 L253.619 785.258 L252.836 795.076 
  L252.836 804.924 L253.619 814.742 L255.179 824.467 L257.507 834.036 L260.587 843.391 L264.401 852.471 L268.925 861.22 L274.129 869.581 L279.981 877.503 L286.445 884.935 
  L293.478 891.829 L301.036 898.143 L309.073 903.837 L317.536 908.874 L326.373 913.223 L335.527 916.855 L344.941 919.75 L354.555 921.887 L364.309 923.253 L374.14 923.84 
  L383.987 923.644 L393.787 922.667 L403.479 920.914 L413.001 918.396 L422.292 915.13 L431.295 911.136 L439.952 906.44 L448.208 901.07 L456.012 895.061 L463.313 888.452 
  L470.067 881.283 L476.229 873.6 L481.762 865.452 L486.63 856.891 L490.802 847.969 L494.252 838.744 L496.958 829.275 L498.904 819.62 L500.076 809.841 L500.467 800 
  L500.467 800  Z
  " fill="#e26f46" fill-rule="evenodd" fill-opacity="1"/>
<polyline clip-path="url(#clip692)" style="stroke:#000000; stroke-linecap:butt; stroke-linejoin:round; stroke-width:4; stroke-opacity:1; fill:none" points="
  500.467,800 500.076,790.159 498.904,780.38 496.958,770.725 494.252,761.256 490.802,752.031 486.63,743.109 481.762,734.548 476.229,726.4 470.067,718.717 
  463.313,711.548 456.012,704.939 448.208,698.93 439.952,693.56 431.295,688.864 422.292,684.87 413.001,681.604 403.479,679.086 393.787,677.333 383.987,676.356 
  374.14,676.16 364.309,676.747 354.555,678.113 344.941,680.25 335.527,683.145 326.373,686.777 317.536,691.126 309.073,696.163 301.036,701.857 293.478,708.171 
  286.445,715.065 279.981,722.497 274.129,730.419 268.925,738.78 264.401,747.529 260.587,756.609 257.507,765.964 255.179,775.533 253.619,785.258 252.836,795.076 
  252.836,804.924 253.619,814.742 255.179,824.467 257.507,834.036 260.587,843.391 264.401,852.471 268.925,861.22 274.129,869.581 279.981,877.503 286.445,884.935 
  293.478,891.829 301.036,898.143 309.073,903.837 317.536,908.874 326.373,913.223 335.527,916.855 344.941,919.75 354.555,921.887 364.309,923.253 374.14,923.84 
  383.987,923.644 393.787,922.667 403.479,920.914 413.001,918.396 422.292,915.13 431.295,911.136 439.952,906.44 448.208,901.07 456.012,895.061 463.313,888.452 
  470.067,881.283 476.229,873.6 481.762,865.452 486.63,856.891 490.802,847.969 494.252,838.744 496.958,829.275 498.904,819.62 500.076,809.841 500.467,800 
  
  "/>
<circle clip-path="url(#clip692)" style="fill:#e26f46; stroke:none; fill-opacity:1" cx="376.603" cy="800" r="2"/>
<circle clip-path="url(#clip692)" style="fill:#e26f46; stroke:none; fill-opacity:1" cx="376.603" cy="800" r="2"/>
<circle clip-path="url(#clip692)" style="fill:#e26f46; stroke:none; fill-opacity:1" cx="376.603" cy="800" r="2"/>
<circle clip-path="url(#clip692)" style="fill:#e26f46; stroke:none; fill-opacity:1" cx="376.603" cy="800" r="2"/>
<circle clip-path="url(#clip692)" style="fill:#e26f46; stroke:none; fill-opacity:1" cx="2023.4" cy="800" r="2"/>
<circle clip-path="url(#clip692)" style="fill:#e26f46; stroke:none; fill-opacity:1" cx="376.603" cy="800" r="2"/>
<circle clip-path="url(#clip692)" style="fill:#e26f46; stroke:none; fill-opacity:1" cx="376.603" cy="800" r="2"/>
<circle clip-path="url(#clip692)" style="fill:#e26f46; stroke:none; fill-opacity:1" cx="376.603" cy="800" r="2"/>
<path clip-path="url(#clip690)" d="M360.793 782.72 L367.76 782.72 L376.58 806.238 L385.445 782.72 L392.413 782.72 L392.413 817.28 L387.853 817.28 L387.853 786.933 L378.941 810.637 L374.242 810.637 L365.33 786.933 L365.33 817.28 L360.793 817.28 L360.793 782.72 Z" fill="#000000" fill-rule="evenodd" fill-opacity="1" /><path clip-path="url(#clip690)" d="M366.753 786.563 L366.753 813.437 L372.402 813.437 Q379.554 813.437 382.864 810.197 Q386.198 806.956 386.198 799.965 Q386.198 793.021 382.864 789.803 Q379.554 786.563 372.402 786.563 L366.753 786.563 M362.078 782.72 L371.684 782.72 Q381.73 782.72 386.429 786.91 Q391.128 791.076 391.128 799.965 Q391.128 808.9 386.406 813.09 Q381.684 817.28 371.684 817.28 L362.078 817.28 L362.078 782.72 Z" fill="#000000" fill-rule="evenodd" fill-opacity="1" /><path clip-path="url(#clip690)" d="M362.031 782.72 L367.054 782.72 L376.638 796.933 L386.151 782.72 L391.175 782.72 L378.952 800.822 L378.952 817.28 L374.253 817.28 L374.253 800.822 L362.031 782.72 Z" fill="#000000" fill-rule="evenodd" fill-opacity="1" /><path clip-path="url(#clip690)" d="M349.936 782.72 L354.96 782.72 L363.547 795.567 L372.182 782.72 L377.205 782.72 L366.094 799.317 L377.946 817.28 L372.922 817.28 L363.2 802.581 L353.409 817.28 L348.362 817.28 L360.7 798.831 L349.936 782.72 Z" fill="#000000" fill-rule="evenodd" fill-opacity="1" /><path clip-path="url(#clip690)" d="M388.524 813.345 L404.844 813.345 L404.844 817.28 L382.899 817.28 L382.899 813.345 Q385.561 810.59 390.145 805.961 Q394.751 801.308 395.932 799.965 Q398.177 797.442 399.057 795.706 Q399.959 793.947 399.959 792.257 Q399.959 789.502 398.015 787.766 Q396.094 786.03 392.992 786.03 Q390.793 786.03 388.339 786.794 Q385.908 787.558 383.131 789.109 L383.131 784.387 Q385.955 783.252 388.408 782.674 Q390.862 782.095 392.899 782.095 Q398.269 782.095 401.464 784.78 Q404.658 787.465 404.658 791.956 Q404.658 794.086 403.848 796.007 Q403.061 797.905 400.955 800.498 Q400.376 801.169 397.274 804.387 Q394.172 807.581 388.524 813.345 Z" fill="#000000" fill-rule="evenodd" fill-opacity="1" /><path clip-path="url(#clip690)" d="M1996.26 782.72 L2001.28 782.72 L2009.87 795.567 L2018.5 782.72 L2023.52 782.72 L2012.41 799.317 L2024.27 817.28 L2019.24 817.28 L2009.52 802.581 L1999.73 817.28 L1994.68 817.28 L2007.02 798.831 L1996.26 782.72 Z" fill="#000000" fill-rule="evenodd" fill-opacity="1" /><path clip-path="url(#clip690)" d="M2044.98 798.646 Q2048.34 799.363 2050.21 801.632 Q2052.11 803.9 2052.11 807.234 Q2052.11 812.349 2048.59 815.15 Q2045.08 817.951 2038.59 817.951 Q2036.42 817.951 2034.1 817.511 Q2031.81 817.095 2029.36 816.238 L2029.36 811.724 Q2031.3 812.859 2033.62 813.437 Q2035.93 814.016 2038.45 814.016 Q2042.85 814.016 2045.14 812.28 Q2047.46 810.544 2047.46 807.234 Q2047.46 804.178 2045.31 802.465 Q2043.18 800.729 2039.36 800.729 L2035.33 800.729 L2035.33 796.887 L2039.54 796.887 Q2042.99 796.887 2044.82 795.521 Q2046.65 794.132 2046.65 791.539 Q2046.65 788.877 2044.75 787.465 Q2042.88 786.03 2039.36 786.03 Q2037.44 786.03 2035.24 786.447 Q2033.04 786.863 2030.4 787.743 L2030.4 783.576 Q2033.06 782.836 2035.38 782.465 Q2037.71 782.095 2039.77 782.095 Q2045.1 782.095 2048.2 784.526 Q2051.3 786.933 2051.3 791.053 Q2051.3 793.924 2049.66 795.914 Q2048.01 797.882 2044.98 798.646 Z" fill="#000000" fill-rule="evenodd" fill-opacity="1" /><path clip-path="url(#clip690)" d="M349.751 782.72 L354.774 782.72 L363.362 795.567 L371.996 782.72 L377.02 782.72 L365.909 799.317 L377.76 817.28 L372.737 817.28 L363.015 802.581 L353.223 817.28 L348.177 817.28 L360.515 798.831 L349.751 782.72 Z" fill="#000000" fill-rule="evenodd" fill-opacity="1" /><path clip-path="url(#clip690)" d="M385.121 813.345 L392.76 813.345 L392.76 786.979 L384.45 788.646 L384.45 784.387 L392.714 782.72 L397.39 782.72 L397.39 813.345 L405.029 813.345 L405.029 817.28 L385.121 817.28 L385.121 813.345 Z" fill="#000000" fill-rule="evenodd" fill-opacity="1" /><path clip-path="url(#clip690)" d="M349.254 782.72 L376.406 782.72 L376.406 786.285 L354.554 813.345 L376.939 813.345 L376.939 817.28 L348.721 817.28 L348.721 813.715 L370.573 786.655 L349.254 786.655 L349.254 782.72 Z" fill="#000000" fill-rule="evenodd" fill-opacity="1" /><path clip-path="url(#clip690)" d="M388.165 813.345 L404.485 813.345 L404.485 817.28 L382.54 817.28 L382.54 813.345 Q385.202 810.59 389.786 805.961 Q394.392 801.308 395.573 799.965 Q397.818 797.442 398.698 795.706 Q399.6 793.947 399.6 792.257 Q399.6 789.502 397.656 787.766 Q395.735 786.03 392.633 786.03 Q390.434 786.03 387.98 786.794 Q385.55 787.558 382.772 789.109 L382.772 784.387 Q385.596 783.252 388.05 782.674 Q390.503 782.095 392.54 782.095 Q397.911 782.095 401.105 784.78 Q404.3 787.465 404.3 791.956 Q404.3 794.086 403.489 796.007 Q402.702 797.905 400.596 800.498 Q400.017 801.169 396.915 804.387 Q393.813 807.581 388.165 813.345 Z" fill="#000000" fill-rule="evenodd" fill-opacity="1" /><path clip-path="url(#clip690)" d="M349.068 782.72 L376.221 782.72 L376.221 786.285 L354.369 813.345 L376.753 813.345 L376.753 817.28 L348.536 817.28 L348.536 813.715 L370.388 786.655 L349.068 786.655 L349.068 782.72 Z" fill="#000000" fill-rule="evenodd" fill-opacity="1" /><path clip-path="url(#clip690)" d="M384.763 813.345 L392.401 813.345 L392.401 786.979 L384.091 788.646 L384.091 784.387 L392.355 782.72 L397.031 782.72 L397.031 813.345 L404.67 813.345 L404.67 817.28 L384.763 817.28 L384.763 813.345 Z" fill="#000000" fill-rule="evenodd" fill-opacity="1" /></svg>
