<?xml version="1.0" encoding="utf-8"?>
<svg xmlns="http://www.w3.org/2000/svg" xmlns:xlink="http://www.w3.org/1999/xlink" width="600" height="400" viewBox="0 0 2400 1600">
<defs>
  <clipPath id="clip670">
    <rect x="0" y="0" width="2400" height="1600"/>
  </clipPath>
</defs>
<path clip-path="url(#clip670)" d="
M0 1600 L2400 1600 L2400 0 L0 0  Z
  " fill="#ffffff" fill-rule="evenodd" fill-opacity="1"/>
<defs>
  <clipPath id="clip671">
    <rect x="480" y="0" width="1681" height="1600"/>
  </clipPath>
</defs>
<path clip-path="url(#clip670)" d="
M170.857 1486.45 L2352.76 1486.45 L2352.76 47.2441 L170.857 47.2441  Z
  " fill="#ffffff" fill-rule="evenodd" fill-opacity="1"/>
<defs>
  <clipPath id="clip672">
    <rect x="170" y="47" width="2183" height="1440"/>
  </clipPath>
</defs>
<polyline clip-path="url(#clip672)" style="stroke:#000000; stroke-linecap:butt; stroke-linejoin:round; stroke-width:2; stroke-opacity:0.1; fill:none" points="
  290.866,1486.45 290.866,47.2441 
  "/>
<polyline clip-path="url(#clip672)" style="stroke:#000000; stroke-linecap:butt; stroke-linejoin:round; stroke-width:2; stroke-opacity:0.1; fill:none" points="
  776.336,1486.45 776.336,47.2441 
  "/>
<polyline clip-path="url(#clip672)" style="stroke:#000000; stroke-linecap:butt; stroke-linejoin:round; stroke-width:2; stroke-opacity:0.1; fill:none" points="
  1261.81,1486.45 1261.81,47.2441 
  "/>
<polyline clip-path="url(#clip672)" style="stroke:#000000; stroke-linecap:butt; stroke-linejoin:round; stroke-width:2; stroke-opacity:0.1; fill:none" points="
  1747.28,1486.45 1747.28,47.2441 
  "/>
<polyline clip-path="url(#clip672)" style="stroke:#000000; stroke-linecap:butt; stroke-linejoin:round; stroke-width:2; stroke-opacity:0.1; fill:none" points="
  2232.75,1486.45 2232.75,47.2441 
  "/>
<polyline clip-path="url(#clip670)" style="stroke:#000000; stroke-linecap:butt; stroke-linejoin:round; stroke-width:4; stroke-opacity:1; fill:none" points="
  170.857,1486.45 2352.76,1486.45 
  "/>
<polyline clip-path="url(#clip670)" style="stroke:#000000; stroke-linecap:butt; stroke-linejoin:round; stroke-width:4; stroke-opacity:1; fill:none" points="
  290.866,1486.45 290.866,1467.55 
  "/>
<polyline clip-path="url(#clip670)" style="stroke:#000000; stroke-linecap:butt; stroke-linejoin:round; stroke-width:4; stroke-opacity:1; fill:none" points="
  776.336,1486.45 776.336,1467.55 
  "/>
<polyline clip-path="url(#clip670)" style="stroke:#000000; stroke-linecap:butt; stroke-linejoin:round; stroke-width:4; stroke-opacity:1; fill:none" points="
  1261.81,1486.45 1261.81,1467.55 
  "/>
<polyline clip-path="url(#clip670)" style="stroke:#000000; stroke-linecap:butt; stroke-linejoin:round; stroke-width:4; stroke-opacity:1; fill:none" points="
  1747.28,1486.45 1747.28,1467.55 
  "/>
<polyline clip-path="url(#clip670)" style="stroke:#000000; stroke-linecap:butt; stroke-linejoin:round; stroke-width:4; stroke-opacity:1; fill:none" points="
  2232.75,1486.45 2232.75,1467.55 
  "/>
<path clip-path="url(#clip670)" d="M259.766 1532.02 L289.442 1532.02 L289.442 1535.95 L259.766 1535.95 L259.766 1532.02 Z" fill="#000000" fill-rule="evenodd" fill-opacity="1" /><path clip-path="url(#clip670)" d="M312.382 1518.36 L300.576 1536.81 L312.382 1536.81 L312.382 1518.36 M311.155 1514.29 L317.035 1514.29 L317.035 1536.81 L321.965 1536.81 L321.965 1540.7 L317.035 1540.7 L317.035 1548.85 L312.382 1548.85 L312.382 1540.7 L296.78 1540.7 L296.78 1536.19 L311.155 1514.29 Z" fill="#000000" fill-rule="evenodd" fill-opacity="1" /><path clip-path="url(#clip670)" d="M746.278 1532.02 L775.954 1532.02 L775.954 1535.95 L746.278 1535.95 L746.278 1532.02 Z" fill="#000000" fill-rule="evenodd" fill-opacity="1" /><path clip-path="url(#clip670)" d="M790.075 1544.91 L806.394 1544.91 L806.394 1548.85 L784.45 1548.85 L784.45 1544.91 Q787.112 1542.16 791.695 1537.53 Q796.301 1532.88 797.482 1531.53 Q799.727 1529.01 800.607 1527.27 Q801.51 1525.51 801.51 1523.82 Q801.51 1521.07 799.565 1519.33 Q797.644 1517.6 794.542 1517.6 Q792.343 1517.6 789.889 1518.36 Q787.459 1519.13 784.681 1520.68 L784.681 1515.95 Q787.505 1514.82 789.959 1514.24 Q792.412 1513.66 794.45 1513.66 Q799.82 1513.66 803.014 1516.35 Q806.209 1519.03 806.209 1523.52 Q806.209 1525.65 805.399 1527.57 Q804.612 1529.47 802.505 1532.07 Q801.926 1532.74 798.824 1535.95 Q795.723 1539.15 790.075 1544.91 Z" fill="#000000" fill-rule="evenodd" fill-opacity="1" /><path clip-path="url(#clip670)" d="M1261.81 1517.37 Q1258.2 1517.37 1256.37 1520.93 Q1254.56 1524.47 1254.56 1531.6 Q1254.56 1538.71 1256.37 1542.27 Q1258.2 1545.82 1261.81 1545.82 Q1265.44 1545.82 1267.25 1542.27 Q1269.08 1538.71 1269.08 1531.6 Q1269.08 1524.47 1267.25 1520.93 Q1265.44 1517.37 1261.81 1517.37 M1261.81 1513.66 Q1267.62 1513.66 1270.67 1518.27 Q1273.75 1522.85 1273.75 1531.6 Q1273.75 1540.33 1270.67 1544.94 Q1267.62 1549.52 1261.81 1549.52 Q1256 1549.52 1252.92 1544.94 Q1249.86 1540.33 1249.86 1531.6 Q1249.86 1522.85 1252.92 1518.27 Q1256 1513.66 1261.81 1513.66 Z" fill="#000000" fill-rule="evenodd" fill-opacity="1" /><path clip-path="url(#clip670)" d="M1741.93 1544.91 L1758.25 1544.91 L1758.25 1548.85 L1736.3 1548.85 L1736.3 1544.91 Q1738.97 1542.16 1743.55 1537.53 Q1748.16 1532.88 1749.34 1531.53 Q1751.58 1529.01 1752.46 1527.27 Q1753.37 1525.51 1753.37 1523.82 Q1753.37 1521.07 1751.42 1519.33 Q1749.5 1517.6 1746.4 1517.6 Q1744.2 1517.6 1741.74 1518.36 Q1739.31 1519.13 1736.54 1520.68 L1736.54 1515.95 Q1739.36 1514.82 1741.81 1514.24 Q1744.27 1513.66 1746.3 1513.66 Q1751.68 1513.66 1754.87 1516.35 Q1758.06 1519.03 1758.06 1523.52 Q1758.06 1525.65 1757.25 1527.57 Q1756.47 1529.47 1754.36 1532.07 Q1753.78 1532.74 1750.68 1535.95 Q1747.58 1539.15 1741.93 1544.91 Z" fill="#000000" fill-rule="evenodd" fill-opacity="1" /><path clip-path="url(#clip670)" d="M2235.76 1518.36 L2223.95 1536.81 L2235.76 1536.81 L2235.76 1518.36 M2234.53 1514.29 L2240.41 1514.29 L2240.41 1536.81 L2245.34 1536.81 L2245.34 1540.7 L2240.41 1540.7 L2240.41 1548.85 L2235.76 1548.85 L2235.76 1540.7 L2220.16 1540.7 L2220.16 1536.19 L2234.53 1514.29 Z" fill="#000000" fill-rule="evenodd" fill-opacity="1" /><polyline clip-path="url(#clip672)" style="stroke:#000000; stroke-linecap:butt; stroke-linejoin:round; stroke-width:2; stroke-opacity:0.1; fill:none" points="
  170.857,1445.72 2352.76,1445.72 
  "/>
<polyline clip-path="url(#clip672)" style="stroke:#000000; stroke-linecap:butt; stroke-linejoin:round; stroke-width:2; stroke-opacity:0.1; fill:none" points="
  170.857,1104.58 2352.76,1104.58 
  "/>
<polyline clip-path="url(#clip672)" style="stroke:#000000; stroke-linecap:butt; stroke-linejoin:round; stroke-width:2; stroke-opacity:0.1; fill:none" points="
  170.857,763.435 2352.76,763.435 
  "/>
<polyline clip-path="url(#clip672)" style="stroke:#000000; stroke-linecap:butt; stroke-linejoin:round; stroke-width:2; stroke-opacity:0.1; fill:none" points="
  170.857,422.294 2352.76,422.294 
  "/>
<polyline clip-path="url(#clip672)" style="stroke:#000000; stroke-linecap:butt; stroke-linejoin:round; stroke-width:2; stroke-opacity:0.1; fill:none" points="
  170.857,81.1535 2352.76,81.1535 
  "/>
<polyline clip-path="url(#clip670)" style="stroke:#000000; stroke-linecap:butt; stroke-linejoin:round; stroke-width:4; stroke-opacity:1; fill:none" points="
  170.857,1486.45 170.857,47.2441 
  "/>
<polyline clip-path="url(#clip670)" style="stroke:#000000; stroke-linecap:butt; stroke-linejoin:round; stroke-width:4; stroke-opacity:1; fill:none" points="
  170.857,1445.72 189.755,1445.72 
  "/>
<polyline clip-path="url(#clip670)" style="stroke:#000000; stroke-linecap:butt; stroke-linejoin:round; stroke-width:4; stroke-opacity:1; fill:none" points="
  170.857,1104.58 189.755,1104.58 
  "/>
<polyline clip-path="url(#clip670)" style="stroke:#000000; stroke-linecap:butt; stroke-linejoin:round; stroke-width:4; stroke-opacity:1; fill:none" points="
  170.857,763.435 189.755,763.435 
  "/>
<polyline clip-path="url(#clip670)" style="stroke:#000000; stroke-linecap:butt; stroke-linejoin:round; stroke-width:4; stroke-opacity:1; fill:none" points="
  170.857,422.294 189.755,422.294 
  "/>
<polyline clip-path="url(#clip670)" style="stroke:#000000; stroke-linecap:butt; stroke-linejoin:round; stroke-width:4; stroke-opacity:1; fill:none" points="
  170.857,81.1535 189.755,81.1535 
  "/>
<path clip-path="url(#clip670)" d="M122.913 1431.51 Q119.302 1431.51 117.473 1435.08 Q115.668 1438.62 115.668 1445.75 Q115.668 1452.86 117.473 1456.42 Q119.302 1459.96 122.913 1459.96 Q126.547 1459.96 128.353 1456.42 Q130.182 1452.86 130.182 1445.75 Q130.182 1438.62 128.353 1435.08 Q126.547 1431.51 122.913 1431.51 M122.913 1427.81 Q128.723 1427.81 131.779 1432.42 Q134.857 1437 134.857 1445.75 Q134.857 1454.48 131.779 1459.08 Q128.723 1463.67 122.913 1463.67 Q117.103 1463.67 114.024 1459.08 Q110.969 1454.48 110.969 1445.75 Q110.969 1437 114.024 1432.42 Q117.103 1427.81 122.913 1427.81 Z" fill="#000000" fill-rule="evenodd" fill-opacity="1" /><path clip-path="url(#clip670)" d="M82.7975 1087.3 L101.154 1087.3 L101.154 1091.23 L87.0799 1091.23 L87.0799 1099.7 Q88.0984 1099.36 89.1169 1099.19 Q90.1354 1099.01 91.1539 1099.01 Q96.941 1099.01 100.321 1102.18 Q103.7 1105.35 103.7 1110.77 Q103.7 1116.35 100.228 1119.45 Q96.7558 1122.53 90.4364 1122.53 Q88.2604 1122.53 85.9919 1122.16 Q83.7466 1121.79 81.3392 1121.04 L81.3392 1116.35 Q83.4225 1117.48 85.6447 1118.04 Q87.8669 1118.59 90.3438 1118.59 Q94.3484 1118.59 96.6863 1116.48 Q99.0243 1114.38 99.0243 1110.77 Q99.0243 1107.16 96.6863 1105.05 Q94.3484 1102.94 90.3438 1102.94 Q88.4688 1102.94 86.5938 1103.36 Q84.7419 1103.78 82.7975 1104.66 L82.7975 1087.3 Z" fill="#000000" fill-rule="evenodd" fill-opacity="1" /><path clip-path="url(#clip670)" d="M122.913 1090.37 Q119.302 1090.37 117.473 1093.94 Q115.668 1097.48 115.668 1104.61 Q115.668 1111.72 117.473 1115.28 Q119.302 1118.82 122.913 1118.82 Q126.547 1118.82 128.353 1115.28 Q130.182 1111.72 130.182 1104.61 Q130.182 1097.48 128.353 1093.94 Q126.547 1090.37 122.913 1090.37 M122.913 1086.67 Q128.723 1086.67 131.779 1091.28 Q134.857 1095.86 134.857 1104.61 Q134.857 1113.34 131.779 1117.94 Q128.723 1122.53 122.913 1122.53 Q117.103 1122.53 114.024 1117.94 Q110.969 1113.34 110.969 1104.61 Q110.969 1095.86 114.024 1091.28 Q117.103 1086.67 122.913 1086.67 Z" fill="#000000" fill-rule="evenodd" fill-opacity="1" /><path clip-path="url(#clip670)" d="M53.3995 776.779 L61.0384 776.779 L61.0384 750.414 L52.7282 752.08 L52.7282 747.821 L60.9921 746.155 L65.668 746.155 L65.668 776.779 L73.3068 776.779 L73.3068 780.715 L53.3995 780.715 L53.3995 776.779 Z" fill="#000000" fill-rule="evenodd" fill-opacity="1" /><path clip-path="url(#clip670)" d="M92.7512 749.233 Q89.1401 749.233 87.3114 752.798 Q85.5058 756.34 85.5058 763.469 Q85.5058 770.576 87.3114 774.141 Q89.1401 777.682 92.7512 777.682 Q96.3854 777.682 98.1909 774.141 Q100.02 770.576 100.02 763.469 Q100.02 756.34 98.1909 752.798 Q96.3854 749.233 92.7512 749.233 M92.7512 745.53 Q98.5613 745.53 101.617 750.136 Q104.696 754.719 104.696 763.469 Q104.696 772.196 101.617 776.803 Q98.5613 781.386 92.7512 781.386 Q86.941 781.386 83.8623 776.803 Q80.8068 772.196 80.8068 763.469 Q80.8068 754.719 83.8623 750.136 Q86.941 745.53 92.7512 745.53 Z" fill="#000000" fill-rule="evenodd" fill-opacity="1" /><path clip-path="url(#clip670)" d="M122.913 749.233 Q119.302 749.233 117.473 752.798 Q115.668 756.34 115.668 763.469 Q115.668 770.576 117.473 774.141 Q119.302 777.682 122.913 777.682 Q126.547 777.682 128.353 774.141 Q130.182 770.576 130.182 763.469 Q130.182 756.34 128.353 752.798 Q126.547 749.233 122.913 749.233 M122.913 745.53 Q128.723 745.53 131.779 750.136 Q134.857 754.719 134.857 763.469 Q134.857 772.196 131.779 776.803 Q128.723 781.386 122.913 781.386 Q117.103 781.386 114.024 776.803 Q110.969 772.196 110.969 763.469 Q110.969 754.719 114.024 750.136 Q117.103 745.53 122.913 745.53 Z" fill="#000000" fill-rule="evenodd" fill-opacity="1" /><path clip-path="url(#clip670)" d="M53.3995 435.639 L61.0384 435.639 L61.0384 409.273 L52.7282 410.94 L52.7282 406.681 L60.9921 405.014 L65.668 405.014 L65.668 435.639 L73.3068 435.639 L73.3068 439.574 L53.3995 439.574 L53.3995 435.639 Z" fill="#000000" fill-rule="evenodd" fill-opacity="1" /><path clip-path="url(#clip670)" d="M82.7975 405.014 L101.154 405.014 L101.154 408.949 L87.0799 408.949 L87.0799 417.421 Q88.0984 417.074 89.1169 416.912 Q90.1354 416.727 91.1539 416.727 Q96.941 416.727 100.321 419.898 Q103.7 423.069 103.7 428.486 Q103.7 434.065 100.228 437.167 Q96.7558 440.245 90.4364 440.245 Q88.2604 440.245 85.9919 439.875 Q83.7466 439.505 81.3392 438.764 L81.3392 434.065 Q83.4225 435.199 85.6447 435.755 Q87.8669 436.31 90.3438 436.31 Q94.3484 436.31 96.6863 434.204 Q99.0243 432.097 99.0243 428.486 Q99.0243 424.875 96.6863 422.769 Q94.3484 420.662 90.3438 420.662 Q88.4688 420.662 86.5938 421.079 Q84.7419 421.495 82.7975 422.375 L82.7975 405.014 Z" fill="#000000" fill-rule="evenodd" fill-opacity="1" /><path clip-path="url(#clip670)" d="M122.913 408.093 Q119.302 408.093 117.473 411.658 Q115.668 415.199 115.668 422.329 Q115.668 429.435 117.473 433 Q119.302 436.542 122.913 436.542 Q126.547 436.542 128.353 433 Q130.182 429.435 130.182 422.329 Q130.182 415.199 128.353 411.658 Q126.547 408.093 122.913 408.093 M122.913 404.389 Q128.723 404.389 131.779 408.995 Q134.857 413.579 134.857 422.329 Q134.857 431.056 131.779 435.662 Q128.723 440.245 122.913 440.245 Q117.103 440.245 114.024 435.662 Q110.969 431.056 110.969 422.329 Q110.969 413.579 114.024 408.995 Q117.103 404.389 122.913 404.389 Z" fill="#000000" fill-rule="evenodd" fill-opacity="1" /><path clip-path="url(#clip670)" d="M56.6171 94.4983 L72.9365 94.4983 L72.9365 98.4335 L50.9921 98.4335 L50.9921 94.4983 Q53.6541 91.7437 58.2375 87.1141 Q62.8439 82.4613 64.0245 81.1187 Q66.2698 78.5956 67.1494 76.8595 Q68.0522 75.1003 68.0522 73.4105 Q68.0522 70.6558 66.1078 68.9197 Q64.1865 67.1836 61.0847 67.1836 Q58.8856 67.1836 56.4319 67.9475 Q54.0014 68.7114 51.2236 70.2623 L51.2236 65.5401 Q54.0477 64.4059 56.5014 63.8272 Q58.955 63.2485 60.9921 63.2485 Q66.3624 63.2485 69.5568 65.9336 Q72.7513 68.6188 72.7513 73.1095 Q72.7513 75.2391 71.9411 77.1604 Q71.1541 79.0586 69.0476 81.6511 Q68.4689 82.3224 65.367 85.54 Q62.2652 88.7344 56.6171 94.4983 Z" fill="#000000" fill-rule="evenodd" fill-opacity="1" /><path clip-path="url(#clip670)" d="M92.7512 66.9522 Q89.1401 66.9522 87.3114 70.5169 Q85.5058 74.0586 85.5058 81.1882 Q85.5058 88.2946 87.3114 91.8594 Q89.1401 95.4011 92.7512 95.4011 Q96.3854 95.4011 98.1909 91.8594 Q100.02 88.2946 100.02 81.1882 Q100.02 74.0586 98.1909 70.5169 Q96.3854 66.9522 92.7512 66.9522 M92.7512 63.2485 Q98.5613 63.2485 101.617 67.8549 Q104.696 72.4382 104.696 81.1882 Q104.696 89.915 101.617 94.5214 Q98.5613 99.1048 92.7512 99.1048 Q86.941 99.1048 83.8623 94.5214 Q80.8068 89.915 80.8068 81.1882 Q80.8068 72.4382 83.8623 67.8549 Q86.941 63.2485 92.7512 63.2485 Z" fill="#000000" fill-rule="evenodd" fill-opacity="1" /><path clip-path="url(#clip670)" d="M122.913 66.9522 Q119.302 66.9522 117.473 70.5169 Q115.668 74.0586 115.668 81.1882 Q115.668 88.2946 117.473 91.8594 Q119.302 95.4011 122.913 95.4011 Q126.547 95.4011 128.353 91.8594 Q130.182 88.2946 130.182 81.1882 Q130.182 74.0586 128.353 70.5169 Q126.547 66.9522 122.913 66.9522 M122.913 63.2485 Q128.723 63.2485 131.779 67.8549 Q134.857 72.4382 134.857 81.1882 Q134.857 89.915 131.779 94.5214 Q128.723 99.1048 122.913 99.1048 Q117.103 99.1048 114.024 94.5214 Q110.969 89.915 110.969 81.1882 Q110.969 72.4382 114.024 67.8549 Q117.103 63.2485 122.913 63.2485 Z" fill="#000000" fill-rule="evenodd" fill-opacity="1" /><path clip-path="url(#clip672)" d="
M290.866 1432.07 L290.866 1445.72 L412.233 1445.72 L412.233 1432.07 L290.866 1432.07 L290.866 1432.07  Z
  " fill="#009af9" fill-rule="evenodd" fill-opacity="1"/>
<polyline clip-path="url(#clip672)" style="stroke:#000000; stroke-linecap:butt; stroke-linejoin:round; stroke-width:4; stroke-opacity:1; fill:none" points="
  290.866,1432.07 290.866,1445.72 412.233,1445.72 412.233,1432.07 290.866,1432.07 
  "/>
<path clip-path="url(#clip672)" d="
M412.233 1432.07 L412.233 1445.72 L533.601 1445.72 L533.601 1432.07 L412.233 1432.07 L412.233 1432.07  Z
  " fill="#009af9" fill-rule="evenodd" fill-opacity="1"/>
<polyline clip-path="url(#clip672)" style="stroke:#000000; stroke-linecap:butt; stroke-linejoin:round; stroke-width:4; stroke-opacity:1; fill:none" points="
  412.233,1432.07 412.233,1445.72 533.601,1445.72 533.601,1432.07 412.233,1432.07 
  "/>
<path clip-path="url(#clip672)" d="
M533.601 1404.78 L533.601 1445.72 L654.969 1445.72 L654.969 1404.78 L533.601 1404.78 L533.601 1404.78  Z
  " fill="#009af9" fill-rule="evenodd" fill-opacity="1"/>
<polyline clip-path="url(#clip672)" style="stroke:#000000; stroke-linecap:butt; stroke-linejoin:round; stroke-width:4; stroke-opacity:1; fill:none" points="
  533.601,1404.78 533.601,1445.72 654.969,1445.72 654.969,1404.78 533.601,1404.78 
  "/>
<path clip-path="url(#clip672)" d="
M654.969 1316.08 L654.969 1445.72 L776.336 1445.72 L776.336 1316.08 L654.969 1316.08 L654.969 1316.08  Z
  " fill="#009af9" fill-rule="evenodd" fill-opacity="1"/>
<polyline clip-path="url(#clip672)" style="stroke:#000000; stroke-linecap:butt; stroke-linejoin:round; stroke-width:4; stroke-opacity:1; fill:none" points="
  654.969,1316.08 654.969,1445.72 776.336,1445.72 776.336,1316.08 654.969,1316.08 
  "/>
<path clip-path="url(#clip672)" d="
M776.336 1172.8 L776.336 1445.72 L897.704 1445.72 L897.704 1172.8 L776.336 1172.8 L776.336 1172.8  Z
  " fill="#009af9" fill-rule="evenodd" fill-opacity="1"/>
<polyline clip-path="url(#clip672)" style="stroke:#000000; stroke-linecap:butt; stroke-linejoin:round; stroke-width:4; stroke-opacity:1; fill:none" points="
  776.336,1172.8 776.336,1445.72 897.704,1445.72 897.704,1172.8 776.336,1172.8 
  "/>
<path clip-path="url(#clip672)" d="
M897.704 777.08 L897.704 1445.72 L1019.07 1445.72 L1019.07 777.08 L897.704 777.08 L897.704 777.08  Z
  " fill="#009af9" fill-rule="evenodd" fill-opacity="1"/>
<polyline clip-path="url(#clip672)" style="stroke:#000000; stroke-linecap:butt; stroke-linejoin:round; stroke-width:4; stroke-opacity:1; fill:none" points="
  897.704,777.08 897.704,1445.72 1019.07,1445.72 1019.07,777.08 897.704,777.08 
  "/>
<path clip-path="url(#clip672)" d="
M1019.07 422.294 L1019.07 1445.72 L1140.44 1445.72 L1140.44 422.294 L1019.07 422.294 L1019.07 422.294  Z
  " fill="#009af9" fill-rule="evenodd" fill-opacity="1"/>
<polyline clip-path="url(#clip672)" style="stroke:#000000; stroke-linecap:butt; stroke-linejoin:round; stroke-width:4; stroke-opacity:1; fill:none" points="
  1019.07,422.294 1019.07,1445.72 1140.44,1445.72 1140.44,422.294 1019.07,422.294 
  "/>
<path clip-path="url(#clip672)" d="
M1140.44 176.673 L1140.44 1445.72 L1261.81 1445.72 L1261.81 176.673 L1140.44 176.673 L1140.44 176.673  Z
  " fill="#009af9" fill-rule="evenodd" fill-opacity="1"/>
<polyline clip-path="url(#clip672)" style="stroke:#000000; stroke-linecap:butt; stroke-linejoin:round; stroke-width:4; stroke-opacity:1; fill:none" points="
  1140.44,176.673 1140.44,1445.72 1261.81,1445.72 1261.81,176.673 1140.44,176.673 
  "/>
<path clip-path="url(#clip672)" d="
M1261.81 87.9763 L1261.81 1445.72 L1383.17 1445.72 L1383.17 87.9763 L1261.81 87.9763 L1261.81 87.9763  Z
  " fill="#009af9" fill-rule="evenodd" fill-opacity="1"/>
<polyline clip-path="url(#clip672)" style="stroke:#000000; stroke-linecap:butt; stroke-linejoin:round; stroke-width:4; stroke-opacity:1; fill:none" points="
  1261.81,87.9763 1261.81,1445.72 1383.17,1445.72 1383.17,87.9763 1261.81,87.9763 
  "/>
<path clip-path="url(#clip672)" d="
M1383.17 354.066 L1383.17 1445.72 L1504.54 1445.72 L1504.54 354.066 L1383.17 354.066 L1383.17 354.066  Z
  " fill="#009af9" fill-rule="evenodd" fill-opacity="1"/>
<polyline clip-path="url(#clip672)" style="stroke:#000000; stroke-linecap:butt; stroke-linejoin:round; stroke-width:4; stroke-opacity:1; fill:none" points="
  1383.17,354.066 1383.17,1445.72 1504.54,1445.72 1504.54,354.066 1383.17,354.066 
  "/>
<path clip-path="url(#clip672)" d="
M1504.54 968.119 L1504.54 1445.72 L1625.91 1445.72 L1625.91 968.119 L1504.54 968.119 L1504.54 968.119  Z
  " fill="#009af9" fill-rule="evenodd" fill-opacity="1"/>
<polyline clip-path="url(#clip672)" style="stroke:#000000; stroke-linecap:butt; stroke-linejoin:round; stroke-width:4; stroke-opacity:1; fill:none" points="
  1504.54,968.119 1504.54,1445.72 1625.91,1445.72 1625.91,968.119 1504.54,968.119 
  "/>
<path clip-path="url(#clip672)" d="
M1625.91 1118.22 L1625.91 1445.72 L1747.28 1445.72 L1747.28 1118.22 L1625.91 1118.22 L1625.91 1118.22  Z
  " fill="#009af9" fill-rule="evenodd" fill-opacity="1"/>
<polyline clip-path="url(#clip672)" style="stroke:#000000; stroke-linecap:butt; stroke-linejoin:round; stroke-width:4; stroke-opacity:1; fill:none" points="
  1625.91,1118.22 1625.91,1445.72 1747.28,1445.72 1747.28,1118.22 1625.91,1118.22 
  "/>
<path clip-path="url(#clip672)" d="
M1747.28 1336.55 L1747.28 1445.72 L1868.64 1445.72 L1868.64 1336.55 L1747.28 1336.55 L1747.28 1336.55  Z
  " fill="#009af9" fill-rule="evenodd" fill-opacity="1"/>
<polyline clip-path="url(#clip672)" style="stroke:#000000; stroke-linecap:butt; stroke-linejoin:round; stroke-width:4; stroke-opacity:1; fill:none" points="
  1747.28,1336.55 1747.28,1445.72 1868.64,1445.72 1868.64,1336.55 1747.28,1336.55 
  "/>
<path clip-path="url(#clip672)" d="
M1868.64 1425.25 L1868.64 1445.72 L1990.01 1445.72 L1990.01 1425.25 L1868.64 1425.25 L1868.64 1425.25  Z
  " fill="#009af9" fill-rule="evenodd" fill-opacity="1"/>
<polyline clip-path="url(#clip672)" style="stroke:#000000; stroke-linecap:butt; stroke-linejoin:round; stroke-width:4; stroke-opacity:1; fill:none" points="
  1868.64,1425.25 1868.64,1445.72 1990.01,1445.72 1990.01,1425.25 1868.64,1425.25 
  "/>
<path clip-path="url(#clip672)" d="
M1990.01 1445.72 L1990.01 1445.72 L2111.38 1445.72 L2111.38 1445.72 L1990.01 1445.72 L1990.01 1445.72  Z
  " fill="#009af9" fill-rule="evenodd" fill-opacity="1"/>
<polyline clip-path="url(#clip672)" style="stroke:#000000; stroke-linecap:butt; stroke-linejoin:round; stroke-width:4; stroke-opacity:1; fill:none" points="
  1990.01,1445.72 1990.01,1445.72 2111.38,1445.72 1990.01,1445.72 
  "/>
<path clip-path="url(#clip672)" d="
M2111.38 1438.89 L2111.38 1445.72 L2232.75 1445.72 L2232.75 1438.89 L2111.38 1438.89 L2111.38 1438.89  Z
  " fill="#009af9" fill-rule="evenodd" fill-opacity="1"/>
<polyline clip-path="url(#clip672)" style="stroke:#000000; stroke-linecap:butt; stroke-linejoin:round; stroke-width:4; stroke-opacity:1; fill:none" points="
  2111.38,1438.89 2111.38,1445.72 2232.75,1445.72 2232.75,1438.89 2111.38,1438.89 
  "/>
<circle clip-path="url(#clip672)" style="fill:#009af9; stroke:none; fill-opacity:0" cx="351.55" cy="1432.07" r="2"/>
<circle clip-path="url(#clip672)" style="fill:#009af9; stroke:none; fill-opacity:0" cx="472.917" cy="1432.07" r="2"/>
<circle clip-path="url(#clip672)" style="fill:#009af9; stroke:none; fill-opacity:0" cx="594.285" cy="1404.78" r="2"/>
<circle clip-path="url(#clip672)" style="fill:#009af9; stroke:none; fill-opacity:0" cx="715.652" cy="1316.08" r="2"/>
<circle clip-path="url(#clip672)" style="fill:#009af9; stroke:none; fill-opacity:0" cx="837.02" cy="1172.8" r="2"/>
<circle clip-path="url(#clip672)" style="fill:#009af9; stroke:none; fill-opacity:0" cx="958.388" cy="777.08" r="2"/>
<circle clip-path="url(#clip672)" style="fill:#009af9; stroke:none; fill-opacity:0" cx="1079.76" cy="422.294" r="2"/>
<circle clip-path="url(#clip672)" style="fill:#009af9; stroke:none; fill-opacity:0" cx="1201.12" cy="176.673" r="2"/>
<circle clip-path="url(#clip672)" style="fill:#009af9; stroke:none; fill-opacity:0" cx="1322.49" cy="87.9763" r="2"/>
<circle clip-path="url(#clip672)" style="fill:#009af9; stroke:none; fill-opacity:0" cx="1443.86" cy="354.066" r="2"/>
<circle clip-path="url(#clip672)" style="fill:#009af9; stroke:none; fill-opacity:0" cx="1565.23" cy="968.119" r="2"/>
<circle clip-path="url(#clip672)" style="fill:#009af9; stroke:none; fill-opacity:0" cx="1686.59" cy="1118.22" r="2"/>
<circle clip-path="url(#clip672)" style="fill:#009af9; stroke:none; fill-opacity:0" cx="1807.96" cy="1336.55" r="2"/>
<circle clip-path="url(#clip672)" style="fill:#009af9; stroke:none; fill-opacity:0" cx="1929.33" cy="1425.25" r="2"/>
<circle clip-path="url(#clip672)" style="fill:#009af9; stroke:none; fill-opacity:0" cx="2050.7" cy="1445.72" r="2"/>
<circle clip-path="url(#clip672)" style="fill:#009af9; stroke:none; fill-opacity:0" cx="2172.06" cy="1438.89" r="2"/>
<path clip-path="url(#clip670)" d="
M1985.16 198.898 L2280.03 198.898 L2280.03 95.2176 L1985.16 95.2176  Z
  " fill="#ffffff" fill-rule="evenodd" fill-opacity="1"/>
<polyline clip-path="url(#clip670)" style="stroke:#000000; stroke-linecap:butt; stroke-linejoin:round; stroke-width:4; stroke-opacity:1; fill:none" points="
  1985.16,198.898 2280.03,198.898 2280.03,95.2176 1985.16,95.2176 1985.16,198.898 
  "/>
<path clip-path="url(#clip670)" d="
M2009.41 167.794 L2154.87 167.794 L2154.87 126.322 L2009.41 126.322 L2009.41 167.794  Z
  " fill="#009af9" fill-rule="evenodd" fill-opacity="1"/>
<polyline clip-path="url(#clip670)" style="stroke:#000000; stroke-linecap:butt; stroke-linejoin:round; stroke-width:4; stroke-opacity:1; fill:none" points="
  2009.41,167.794 2154.87,167.794 2154.87,126.322 2009.41,126.322 2009.41,167.794 
  "/>
<path clip-path="url(#clip670)" d="M2192.95 166.745 Q2191.15 171.375 2189.43 172.787 Q2187.72 174.199 2184.85 174.199 L2181.45 174.199 L2181.45 170.634 L2183.95 170.634 Q2185.71 170.634 2186.68 169.8 Q2187.65 168.967 2188.83 165.865 L2189.6 163.921 L2179.11 138.412 L2183.62 138.412 L2191.72 158.689 L2199.83 138.412 L2204.34 138.412 L2192.95 166.745 Z" fill="#000000" fill-rule="evenodd" fill-opacity="1" /><path clip-path="url(#clip670)" d="M2211.63 160.402 L2219.27 160.402 L2219.27 134.037 L2210.96 135.703 L2210.96 131.444 L2219.22 129.778 L2223.9 129.778 L2223.9 160.402 L2231.54 160.402 L2231.54 164.338 L2211.63 164.338 L2211.63 160.402 Z" fill="#000000" fill-rule="evenodd" fill-opacity="1" /></svg>
