<?xml version="1.0" encoding="utf-8"?>
<svg xmlns="http://www.w3.org/2000/svg" xmlns:xlink="http://www.w3.org/1999/xlink" width="600" height="400" viewBox="0 0 2400 1600">
<defs>
  <clipPath id="clip860">
    <rect x="0" y="0" width="2400" height="1600"/>
  </clipPath>
</defs>
<path clip-path="url(#clip860)" d="
M0 1600 L2400 1600 L2400 0 L0 0  Z
  " fill="#ffffff" fill-rule="evenodd" fill-opacity="1"/>
<defs>
  <clipPath id="clip861">
    <rect x="480" y="0" width="1681" height="1600"/>
  </clipPath>
</defs>
<path clip-path="url(#clip860)" d="
M175.445 1423.18 L2352.76 1423.18 L2352.76 47.2441 L175.445 47.2441  Z
  " fill="#ffffff" fill-rule="evenodd" fill-opacity="1"/>
<defs>
  <clipPath id="clip862">
    <rect x="175" y="47" width="2178" height="1377"/>
  </clipPath>
</defs>
<polyline clip-path="url(#clip862)" style="stroke:#000000; stroke-linecap:butt; stroke-linejoin:round; stroke-width:2; stroke-opacity:0.1; fill:none" points="
  237.067,1423.18 237.067,47.2441 
  "/>
<polyline clip-path="url(#clip862)" style="stroke:#000000; stroke-linecap:butt; stroke-linejoin:round; stroke-width:2; stroke-opacity:0.1; fill:none" points="
  750.584,1423.18 750.584,47.2441 
  "/>
<polyline clip-path="url(#clip862)" style="stroke:#000000; stroke-linecap:butt; stroke-linejoin:round; stroke-width:2; stroke-opacity:0.1; fill:none" points="
  1264.1,1423.18 1264.1,47.2441 
  "/>
<polyline clip-path="url(#clip862)" style="stroke:#000000; stroke-linecap:butt; stroke-linejoin:round; stroke-width:2; stroke-opacity:0.1; fill:none" points="
  1777.62,1423.18 1777.62,47.2441 
  "/>
<polyline clip-path="url(#clip862)" style="stroke:#000000; stroke-linecap:butt; stroke-linejoin:round; stroke-width:2; stroke-opacity:0.1; fill:none" points="
  2291.13,1423.18 2291.13,47.2441 
  "/>
<polyline clip-path="url(#clip860)" style="stroke:#000000; stroke-linecap:butt; stroke-linejoin:round; stroke-width:4; stroke-opacity:1; fill:none" points="
  175.445,1423.18 2352.76,1423.18 
  "/>
<polyline clip-path="url(#clip860)" style="stroke:#000000; stroke-linecap:butt; stroke-linejoin:round; stroke-width:4; stroke-opacity:1; fill:none" points="
  237.067,1423.18 237.067,1404.28 
  "/>
<polyline clip-path="url(#clip860)" style="stroke:#000000; stroke-linecap:butt; stroke-linejoin:round; stroke-width:4; stroke-opacity:1; fill:none" points="
  750.584,1423.18 750.584,1404.28 
  "/>
<polyline clip-path="url(#clip860)" style="stroke:#000000; stroke-linecap:butt; stroke-linejoin:round; stroke-width:4; stroke-opacity:1; fill:none" points="
  1264.1,1423.18 1264.1,1404.28 
  "/>
<polyline clip-path="url(#clip860)" style="stroke:#000000; stroke-linecap:butt; stroke-linejoin:round; stroke-width:4; stroke-opacity:1; fill:none" points="
  1777.62,1423.18 1777.62,1404.28 
  "/>
<polyline clip-path="url(#clip860)" style="stroke:#000000; stroke-linecap:butt; stroke-linejoin:round; stroke-width:4; stroke-opacity:1; fill:none" points="
  2291.13,1423.18 2291.13,1404.28 
  "/>
<path clip-path="url(#clip860)" d="M207.009 1468.75 L236.685 1468.75 L236.685 1472.69 L207.009 1472.69 L207.009 1468.75 Z" fill="#000000" fill-rule="evenodd" fill-opacity="1" /><path clip-path="url(#clip860)" d="M250.806 1481.64 L267.125 1481.64 L267.125 1485.58 L245.181 1485.58 L245.181 1481.64 Q247.843 1478.89 252.426 1474.26 Q257.032 1469.61 258.213 1468.27 Q260.458 1465.74 261.338 1464.01 Q262.241 1462.25 262.241 1460.56 Q262.241 1457.8 260.296 1456.07 Q258.375 1454.33 255.273 1454.33 Q253.074 1454.33 250.62 1455.09 Q248.19 1455.86 245.412 1457.41 L245.412 1452.69 Q248.236 1451.55 250.69 1450.97 Q253.144 1450.39 255.181 1450.39 Q260.551 1450.39 263.745 1453.08 Q266.94 1455.77 266.94 1460.26 Q266.94 1462.39 266.13 1464.31 Q265.343 1466.2 263.236 1468.8 Q262.657 1469.47 259.556 1472.69 Q256.454 1475.88 250.806 1481.64 Z" fill="#000000" fill-rule="evenodd" fill-opacity="1" /><path clip-path="url(#clip860)" d="M720.341 1468.75 L750.017 1468.75 L750.017 1472.69 L720.341 1472.69 L720.341 1468.75 Z" fill="#000000" fill-rule="evenodd" fill-opacity="1" /><path clip-path="url(#clip860)" d="M760.919 1481.64 L768.558 1481.64 L768.558 1455.28 L760.248 1456.95 L760.248 1452.69 L768.512 1451.02 L773.188 1451.02 L773.188 1481.64 L780.827 1481.64 L780.827 1485.58 L760.919 1485.58 L760.919 1481.64 Z" fill="#000000" fill-rule="evenodd" fill-opacity="1" /><path clip-path="url(#clip860)" d="M1264.1 1454.1 Q1260.49 1454.1 1258.66 1457.66 Q1256.86 1461.2 1256.86 1468.33 Q1256.86 1475.44 1258.66 1479.01 Q1260.49 1482.55 1264.1 1482.55 Q1267.73 1482.55 1269.54 1479.01 Q1271.37 1475.44 1271.37 1468.33 Q1271.37 1461.2 1269.54 1457.66 Q1267.73 1454.1 1264.1 1454.1 M1264.1 1450.39 Q1269.91 1450.39 1272.97 1455 Q1276.04 1459.58 1276.04 1468.33 Q1276.04 1477.06 1272.97 1481.67 Q1269.91 1486.25 1264.1 1486.25 Q1258.29 1486.25 1255.21 1481.67 Q1252.16 1477.06 1252.16 1468.33 Q1252.16 1459.58 1255.21 1455 Q1258.29 1450.39 1264.1 1450.39 Z" fill="#000000" fill-rule="evenodd" fill-opacity="1" /><path clip-path="url(#clip860)" d="M1768 1481.64 L1775.64 1481.64 L1775.64 1455.28 L1767.33 1456.95 L1767.33 1452.69 L1775.59 1451.02 L1780.27 1451.02 L1780.27 1481.64 L1787.91 1481.64 L1787.91 1485.58 L1768 1485.58 L1768 1481.64 Z" fill="#000000" fill-rule="evenodd" fill-opacity="1" /><path clip-path="url(#clip860)" d="M2285.79 1481.64 L2302.11 1481.64 L2302.11 1485.58 L2280.16 1485.58 L2280.16 1481.64 Q2282.82 1478.89 2287.41 1474.26 Q2292.01 1469.61 2293.19 1468.27 Q2295.44 1465.74 2296.32 1464.01 Q2297.22 1462.25 2297.22 1460.56 Q2297.22 1457.8 2295.28 1456.07 Q2293.36 1454.33 2290.25 1454.33 Q2288.06 1454.33 2285.6 1455.09 Q2283.17 1455.86 2280.39 1457.41 L2280.39 1452.69 Q2283.22 1451.55 2285.67 1450.97 Q2288.12 1450.39 2290.16 1450.39 Q2295.53 1450.39 2298.73 1453.08 Q2301.92 1455.77 2301.92 1460.26 Q2301.92 1462.39 2301.11 1464.31 Q2300.32 1466.2 2298.22 1468.8 Q2297.64 1469.47 2294.54 1472.69 Q2291.43 1475.88 2285.79 1481.64 Z" fill="#000000" fill-rule="evenodd" fill-opacity="1" /><path clip-path="url(#clip860)" d="M941.089 1520.52 L971.135 1520.52 L971.135 1525.93 L947.518 1525.93 L947.518 1540 L970.148 1540 L970.148 1545.41 L947.518 1545.41 L947.518 1562.63 L971.708 1562.63 L971.708 1568.04 L941.089 1568.04 L941.089 1520.52 Z" fill="#000000" fill-rule="evenodd" fill-opacity="1" /><path clip-path="url(#clip860)" d="M1000.07 1518.52 L1000.07 1523.39 L994.465 1523.39 Q991.314 1523.39 990.073 1524.66 Q988.863 1525.93 988.863 1529.24 L988.863 1532.4 L998.507 1532.4 L998.507 1536.95 L988.863 1536.95 L988.863 1568.04 L982.975 1568.04 L982.975 1536.95 L977.373 1536.95 L977.373 1532.4 L982.975 1532.4 L982.975 1529.91 Q982.975 1523.96 985.744 1521.26 Q988.513 1518.52 994.529 1518.52 L1000.07 1518.52 Z" fill="#000000" fill-rule="evenodd" fill-opacity="1" /><path clip-path="url(#clip860)" d="M1023.02 1518.52 L1023.02 1523.39 L1017.41 1523.39 Q1014.26 1523.39 1013.02 1524.66 Q1011.81 1525.93 1011.81 1529.24 L1011.81 1532.4 L1021.46 1532.4 L1021.46 1536.95 L1011.81 1536.95 L1011.81 1568.04 L1005.92 1568.04 L1005.92 1536.95 L1000.32 1536.95 L1000.32 1532.4 L1005.92 1532.4 L1005.92 1529.91 Q1005.92 1523.96 1008.69 1521.26 Q1011.46 1518.52 1017.48 1518.52 L1023.02 1518.52 Z" fill="#000000" fill-rule="evenodd" fill-opacity="1" /><path clip-path="url(#clip860)" d="M1058.41 1548.76 L1058.41 1551.62 L1031.48 1551.62 Q1031.86 1557.67 1035.11 1560.85 Q1038.39 1564 1044.21 1564 Q1047.59 1564 1050.74 1563.17 Q1053.92 1562.35 1057.04 1560.69 L1057.04 1566.23 Q1053.89 1567.57 1050.58 1568.27 Q1047.27 1568.97 1043.86 1568.97 Q1035.33 1568.97 1030.34 1564 Q1025.37 1559.04 1025.37 1550.57 Q1025.37 1541.82 1030.08 1536.69 Q1034.82 1531.54 1042.84 1531.54 Q1050.04 1531.54 1054.21 1536.18 Q1058.41 1540.8 1058.41 1548.76 M1052.55 1547.04 Q1052.49 1542.23 1049.85 1539.37 Q1047.24 1536.5 1042.91 1536.5 Q1038.01 1536.5 1035.05 1539.27 Q1032.12 1542.04 1031.67 1547.07 L1052.55 1547.04 Z" fill="#000000" fill-rule="evenodd" fill-opacity="1" /><path clip-path="url(#clip860)" d="M1093.67 1533.76 L1093.67 1539.24 Q1091.19 1537.87 1088.68 1537.2 Q1086.19 1536.5 1083.65 1536.5 Q1077.95 1536.5 1074.8 1540.13 Q1071.65 1543.73 1071.65 1550.25 Q1071.65 1556.78 1074.8 1560.4 Q1077.95 1564 1083.65 1564 Q1086.19 1564 1088.68 1563.33 Q1091.19 1562.63 1093.67 1561.26 L1093.67 1566.68 Q1091.22 1567.82 1088.58 1568.39 Q1085.97 1568.97 1083.01 1568.97 Q1074.96 1568.97 1070.22 1563.91 Q1065.47 1558.85 1065.47 1550.25 Q1065.47 1541.53 1070.25 1536.53 Q1075.05 1531.54 1083.39 1531.54 Q1086.1 1531.54 1088.68 1532.11 Q1091.26 1532.65 1093.67 1533.76 Z" fill="#000000" fill-rule="evenodd" fill-opacity="1" /><path clip-path="url(#clip860)" d="M1109.65 1522.27 L1109.65 1532.4 L1121.72 1532.4 L1121.72 1536.95 L1109.65 1536.95 L1109.65 1556.3 Q1109.65 1560.66 1110.83 1561.9 Q1112.04 1563.14 1115.7 1563.14 L1121.72 1563.14 L1121.72 1568.04 L1115.7 1568.04 Q1108.92 1568.04 1106.34 1565.53 Q1103.76 1562.98 1103.76 1556.3 L1103.76 1536.95 L1099.47 1536.95 L1099.47 1532.4 L1103.76 1532.4 L1103.76 1522.27 L1109.65 1522.27 Z" fill="#000000" fill-rule="evenodd" fill-opacity="1" /><path clip-path="url(#clip860)" d="M1163.95 1536.5 Q1159.24 1536.5 1156.5 1540.19 Q1153.77 1543.85 1153.77 1550.25 Q1153.77 1556.65 1156.47 1560.34 Q1159.21 1564 1163.95 1564 Q1168.63 1564 1171.37 1560.31 Q1174.11 1556.62 1174.11 1550.25 Q1174.11 1543.92 1171.37 1540.23 Q1168.63 1536.5 1163.95 1536.5 M1163.95 1531.54 Q1171.59 1531.54 1175.95 1536.5 Q1180.31 1541.47 1180.31 1550.25 Q1180.31 1559 1175.95 1564 Q1171.59 1568.97 1163.95 1568.97 Q1156.28 1568.97 1151.92 1564 Q1147.59 1559 1147.59 1550.25 Q1147.59 1541.47 1151.92 1536.5 Q1156.28 1531.54 1163.95 1531.54 Z" fill="#000000" fill-rule="evenodd" fill-opacity="1" /><path clip-path="url(#clip860)" d="M1208.07 1518.52 L1208.07 1523.39 L1202.46 1523.39 Q1199.31 1523.39 1198.07 1524.66 Q1196.86 1525.93 1196.86 1529.24 L1196.86 1532.4 L1206.51 1532.4 L1206.51 1536.95 L1196.86 1536.95 L1196.86 1568.04 L1190.97 1568.04 L1190.97 1536.95 L1185.37 1536.95 L1185.37 1532.4 L1190.97 1532.4 L1190.97 1529.91 Q1190.97 1523.96 1193.74 1521.26 Q1196.51 1518.52 1202.53 1518.52 L1208.07 1518.52 Z" fill="#000000" fill-rule="evenodd" fill-opacity="1" /><path clip-path="url(#clip860)" d="M1233.69 1532.4 L1239.54 1532.4 L1239.54 1568.04 L1233.69 1568.04 L1233.69 1532.4 M1233.69 1518.52 L1239.54 1518.52 L1239.54 1525.93 L1233.69 1525.93 L1233.69 1518.52 Z" fill="#000000" fill-rule="evenodd" fill-opacity="1" /><path clip-path="url(#clip860)" d="M1281.43 1546.53 L1281.43 1568.04 L1275.57 1568.04 L1275.57 1546.72 Q1275.57 1541.66 1273.6 1539.14 Q1271.63 1536.63 1267.68 1536.63 Q1262.94 1536.63 1260.2 1539.65 Q1257.46 1542.68 1257.46 1547.9 L1257.46 1568.04 L1251.58 1568.04 L1251.58 1532.4 L1257.46 1532.4 L1257.46 1537.93 Q1259.56 1534.72 1262.4 1533.13 Q1265.26 1531.54 1268.99 1531.54 Q1275.13 1531.54 1278.28 1535.36 Q1281.43 1539.14 1281.43 1546.53 Z" fill="#000000" fill-rule="evenodd" fill-opacity="1" /><path clip-path="url(#clip860)" d="M1315.84 1533.45 L1315.84 1538.98 Q1313.36 1537.71 1310.68 1537.07 Q1308.01 1536.44 1305.14 1536.44 Q1300.78 1536.44 1298.59 1537.77 Q1296.42 1539.11 1296.42 1541.79 Q1296.42 1543.82 1297.98 1545 Q1299.54 1546.15 1304.25 1547.2 L1306.26 1547.64 Q1312.5 1548.98 1315.11 1551.43 Q1317.75 1553.85 1317.75 1558.21 Q1317.75 1563.17 1313.8 1566.07 Q1309.89 1568.97 1303.01 1568.97 Q1300.15 1568.97 1297.03 1568.39 Q1293.94 1567.85 1290.5 1566.74 L1290.5 1560.69 Q1293.75 1562.38 1296.9 1563.24 Q1300.05 1564.07 1303.14 1564.07 Q1307.28 1564.07 1309.5 1562.66 Q1311.73 1561.23 1311.73 1558.65 Q1311.73 1556.27 1310.11 1554.99 Q1308.52 1553.72 1303.07 1552.54 L1301.04 1552.07 Q1295.59 1550.92 1293.18 1548.56 Q1290.76 1546.18 1290.76 1542.04 Q1290.76 1537.01 1294.32 1534.27 Q1297.89 1531.54 1304.44 1531.54 Q1307.69 1531.54 1310.55 1532.01 Q1313.42 1532.49 1315.84 1533.45 Z" fill="#000000" fill-rule="evenodd" fill-opacity="1" /><path clip-path="url(#clip860)" d="M1332.87 1522.27 L1332.87 1532.4 L1344.93 1532.4 L1344.93 1536.95 L1332.87 1536.95 L1332.87 1556.3 Q1332.87 1560.66 1334.04 1561.9 Q1335.25 1563.14 1338.91 1563.14 L1344.93 1563.14 L1344.93 1568.04 L1338.91 1568.04 Q1332.13 1568.04 1329.56 1565.53 Q1326.98 1562.98 1326.98 1556.3 L1326.98 1536.95 L1322.68 1536.95 L1322.68 1532.4 L1326.98 1532.4 L1326.98 1522.27 L1332.87 1522.27 Z" fill="#000000" fill-rule="evenodd" fill-opacity="1" /><path clip-path="url(#clip860)" d="M1352.63 1532.4 L1358.49 1532.4 L1358.49 1568.04 L1352.63 1568.04 L1352.63 1532.4 M1352.63 1518.52 L1358.49 1518.52 L1358.49 1525.93 L1352.63 1525.93 L1352.63 1518.52 Z" fill="#000000" fill-rule="evenodd" fill-opacity="1" /><path clip-path="url(#clip860)" d="M1376.53 1522.27 L1376.53 1532.4 L1388.6 1532.4 L1388.6 1536.95 L1376.53 1536.95 L1376.53 1556.3 Q1376.53 1560.66 1377.71 1561.9 Q1378.92 1563.14 1382.58 1563.14 L1388.6 1563.14 L1388.6 1568.04 L1382.58 1568.04 Q1375.8 1568.04 1373.22 1565.53 Q1370.65 1562.98 1370.65 1556.3 L1370.65 1536.95 L1366.35 1536.95 L1366.35 1532.4 L1370.65 1532.4 L1370.65 1522.27 L1376.53 1522.27 Z" fill="#000000" fill-rule="evenodd" fill-opacity="1" /><path clip-path="url(#clip860)" d="M1395.7 1553.98 L1395.7 1532.4 L1401.55 1532.4 L1401.55 1553.75 Q1401.55 1558.81 1403.53 1561.36 Q1405.5 1563.87 1409.45 1563.87 Q1414.19 1563.87 1416.93 1560.85 Q1419.69 1557.83 1419.69 1552.61 L1419.69 1532.4 L1425.55 1532.4 L1425.55 1568.04 L1419.69 1568.04 L1419.69 1562.57 Q1417.56 1565.82 1414.73 1567.41 Q1411.93 1568.97 1408.2 1568.97 Q1402.06 1568.97 1398.88 1565.15 Q1395.7 1561.33 1395.7 1553.98 M1410.43 1531.54 L1410.43 1531.54 Z" fill="#000000" fill-rule="evenodd" fill-opacity="1" /><path clip-path="url(#clip860)" d="M1443.41 1522.27 L1443.41 1532.4 L1455.47 1532.4 L1455.47 1536.95 L1443.41 1536.95 L1443.41 1556.3 Q1443.41 1560.66 1444.58 1561.9 Q1445.79 1563.14 1449.45 1563.14 L1455.47 1563.14 L1455.47 1568.04 L1449.45 1568.04 Q1442.67 1568.04 1440.1 1565.53 Q1437.52 1562.98 1437.52 1556.3 L1437.52 1536.95 L1433.22 1536.95 L1433.22 1532.4 L1437.52 1532.4 L1437.52 1522.27 L1443.41 1522.27 Z" fill="#000000" fill-rule="evenodd" fill-opacity="1" /><path clip-path="url(#clip860)" d="M1463.17 1532.4 L1469.03 1532.4 L1469.03 1568.04 L1463.17 1568.04 L1463.17 1532.4 M1463.17 1518.52 L1469.03 1518.52 L1469.03 1525.93 L1463.17 1525.93 L1463.17 1518.52 Z" fill="#000000" fill-rule="evenodd" fill-opacity="1" /><path clip-path="url(#clip860)" d="M1495.1 1536.5 Q1490.39 1536.5 1487.65 1540.19 Q1484.91 1543.85 1484.91 1550.25 Q1484.91 1556.65 1487.62 1560.34 Q1490.35 1564 1495.1 1564 Q1499.77 1564 1502.51 1560.31 Q1505.25 1556.62 1505.25 1550.25 Q1505.25 1543.92 1502.51 1540.23 Q1499.77 1536.5 1495.1 1536.5 M1495.1 1531.54 Q1502.73 1531.54 1507.1 1536.5 Q1511.46 1541.47 1511.46 1550.25 Q1511.46 1559 1507.1 1564 Q1502.73 1568.97 1495.1 1568.97 Q1487.43 1568.97 1483.06 1564 Q1478.74 1559 1478.74 1550.25 Q1478.74 1541.47 1483.06 1536.5 Q1487.43 1531.54 1495.1 1531.54 Z" fill="#000000" fill-rule="evenodd" fill-opacity="1" /><path clip-path="url(#clip860)" d="M1550.8 1546.53 L1550.8 1568.04 L1544.94 1568.04 L1544.94 1546.72 Q1544.94 1541.66 1542.97 1539.14 Q1540.99 1536.63 1537.05 1536.63 Q1532.3 1536.63 1529.57 1539.65 Q1526.83 1542.68 1526.83 1547.9 L1526.83 1568.04 L1520.94 1568.04 L1520.94 1532.4 L1526.83 1532.4 L1526.83 1537.93 Q1528.93 1534.72 1531.76 1533.13 Q1534.63 1531.54 1538.35 1531.54 Q1544.49 1531.54 1547.65 1535.36 Q1550.8 1539.14 1550.8 1546.53 Z" fill="#000000" fill-rule="evenodd" fill-opacity="1" /><path clip-path="url(#clip860)" d="M1585.2 1533.45 L1585.2 1538.98 Q1582.72 1537.71 1580.05 1537.07 Q1577.37 1536.44 1574.51 1536.44 Q1570.15 1536.44 1567.95 1537.77 Q1565.79 1539.11 1565.79 1541.79 Q1565.79 1543.82 1567.35 1545 Q1568.91 1546.15 1573.62 1547.2 L1575.62 1547.64 Q1581.86 1548.98 1584.47 1551.43 Q1587.11 1553.85 1587.11 1558.21 Q1587.11 1563.17 1583.17 1566.07 Q1579.25 1568.97 1572.38 1568.97 Q1569.51 1568.97 1566.39 1568.39 Q1563.3 1567.85 1559.87 1566.74 L1559.87 1560.69 Q1563.11 1562.38 1566.26 1563.24 Q1569.42 1564.07 1572.5 1564.07 Q1576.64 1564.07 1578.87 1562.66 Q1581.1 1561.23 1581.1 1558.65 Q1581.1 1556.27 1579.47 1554.99 Q1577.88 1553.72 1572.44 1552.54 L1570.4 1552.07 Q1564.96 1550.92 1562.54 1548.56 Q1560.12 1546.18 1560.12 1542.04 Q1560.12 1537.01 1563.69 1534.27 Q1567.25 1531.54 1573.81 1531.54 Q1577.05 1531.54 1579.92 1532.01 Q1582.78 1532.49 1585.2 1533.45 Z" fill="#000000" fill-rule="evenodd" fill-opacity="1" /><polyline clip-path="url(#clip862)" style="stroke:#000000; stroke-linecap:butt; stroke-linejoin:round; stroke-width:2; stroke-opacity:0.1; fill:none" points="
  175.445,1384.25 2352.76,1384.25 
  "/>
<polyline clip-path="url(#clip862)" style="stroke:#000000; stroke-linecap:butt; stroke-linejoin:round; stroke-width:2; stroke-opacity:0.1; fill:none" points="
  175.445,1092.45 2352.76,1092.45 
  "/>
<polyline clip-path="url(#clip862)" style="stroke:#000000; stroke-linecap:butt; stroke-linejoin:round; stroke-width:2; stroke-opacity:0.1; fill:none" points="
  175.445,800.645 2352.76,800.645 
  "/>
<polyline clip-path="url(#clip862)" style="stroke:#000000; stroke-linecap:butt; stroke-linejoin:round; stroke-width:2; stroke-opacity:0.1; fill:none" points="
  175.445,508.842 2352.76,508.842 
  "/>
<polyline clip-path="url(#clip862)" style="stroke:#000000; stroke-linecap:butt; stroke-linejoin:round; stroke-width:2; stroke-opacity:0.1; fill:none" points="
  175.445,217.04 2352.76,217.04 
  "/>
<polyline clip-path="url(#clip860)" style="stroke:#000000; stroke-linecap:butt; stroke-linejoin:round; stroke-width:4; stroke-opacity:1; fill:none" points="
  175.445,1423.18 175.445,47.2441 
  "/>
<polyline clip-path="url(#clip860)" style="stroke:#000000; stroke-linecap:butt; stroke-linejoin:round; stroke-width:4; stroke-opacity:1; fill:none" points="
  175.445,1384.25 194.343,1384.25 
  "/>
<polyline clip-path="url(#clip860)" style="stroke:#000000; stroke-linecap:butt; stroke-linejoin:round; stroke-width:4; stroke-opacity:1; fill:none" points="
  175.445,1092.45 194.343,1092.45 
  "/>
<polyline clip-path="url(#clip860)" style="stroke:#000000; stroke-linecap:butt; stroke-linejoin:round; stroke-width:4; stroke-opacity:1; fill:none" points="
  175.445,800.645 194.343,800.645 
  "/>
<polyline clip-path="url(#clip860)" style="stroke:#000000; stroke-linecap:butt; stroke-linejoin:round; stroke-width:4; stroke-opacity:1; fill:none" points="
  175.445,508.842 194.343,508.842 
  "/>
<polyline clip-path="url(#clip860)" style="stroke:#000000; stroke-linecap:butt; stroke-linejoin:round; stroke-width:4; stroke-opacity:1; fill:none" points="
  175.445,217.04 194.343,217.04 
  "/>
<path clip-path="url(#clip860)" d="M127.501 1370.05 Q123.89 1370.05 122.061 1373.61 Q120.255 1377.16 120.255 1384.29 Q120.255 1391.39 122.061 1394.96 Q123.89 1398.5 127.501 1398.5 Q131.135 1398.5 132.941 1394.96 Q134.769 1391.39 134.769 1384.29 Q134.769 1377.16 132.941 1373.61 Q131.135 1370.05 127.501 1370.05 M127.501 1366.35 Q133.311 1366.35 136.367 1370.95 Q139.445 1375.54 139.445 1384.29 Q139.445 1393.01 136.367 1397.62 Q133.311 1402.2 127.501 1402.2 Q121.691 1402.2 118.612 1397.62 Q115.556 1393.01 115.556 1384.29 Q115.556 1375.54 118.612 1370.95 Q121.691 1366.35 127.501 1366.35 Z" fill="#000000" fill-rule="evenodd" fill-opacity="1" /><path clip-path="url(#clip860)" d="M123.126 1105.79 L139.445 1105.79 L139.445 1109.73 L117.501 1109.73 L117.501 1105.79 Q120.163 1103.04 124.746 1098.41 Q129.353 1093.76 130.533 1092.41 Q132.779 1089.89 133.658 1088.15 Q134.561 1086.39 134.561 1084.7 Q134.561 1081.95 132.617 1080.21 Q130.695 1078.48 127.593 1078.48 Q125.394 1078.48 122.941 1079.24 Q120.51 1080.01 117.732 1081.56 L117.732 1076.83 Q120.556 1075.7 123.01 1075.12 Q125.464 1074.54 127.501 1074.54 Q132.871 1074.54 136.066 1077.23 Q139.26 1079.91 139.26 1084.4 Q139.26 1086.53 138.45 1088.45 Q137.663 1090.35 135.556 1092.95 Q134.978 1093.62 131.876 1096.83 Q128.774 1100.03 123.126 1105.79 Z" fill="#000000" fill-rule="evenodd" fill-opacity="1" /><path clip-path="url(#clip860)" d="M129.862 787.439 L118.056 805.888 L129.862 805.888 L129.862 787.439 M128.635 783.365 L134.515 783.365 L134.515 805.888 L139.445 805.888 L139.445 809.777 L134.515 809.777 L134.515 817.925 L129.862 817.925 L129.862 809.777 L114.26 809.777 L114.26 805.263 L128.635 783.365 Z" fill="#000000" fill-rule="evenodd" fill-opacity="1" /><path clip-path="url(#clip860)" d="M127.917 506.979 Q124.769 506.979 122.918 509.132 Q121.089 511.285 121.089 515.035 Q121.089 518.761 122.918 520.937 Q124.769 523.09 127.917 523.09 Q131.066 523.09 132.894 520.937 Q134.746 518.761 134.746 515.035 Q134.746 511.285 132.894 509.132 Q131.066 506.979 127.917 506.979 M137.2 492.326 L137.2 496.586 Q135.441 495.752 133.635 495.312 Q131.853 494.873 130.093 494.873 Q125.464 494.873 123.01 497.998 Q120.58 501.123 120.232 507.442 Q121.598 505.428 123.658 504.363 Q125.718 503.275 128.195 503.275 Q133.404 503.275 136.413 506.447 Q139.445 509.595 139.445 515.035 Q139.445 520.359 136.297 523.576 Q133.149 526.794 127.917 526.794 Q121.922 526.794 118.751 522.21 Q115.58 517.604 115.58 508.877 Q115.58 500.683 119.468 495.822 Q123.357 490.937 129.908 490.937 Q131.667 490.937 133.45 491.285 Q135.255 491.632 137.2 492.326 Z" fill="#000000" fill-rule="evenodd" fill-opacity="1" /><path clip-path="url(#clip860)" d="M127.593 217.908 Q124.26 217.908 122.339 219.69 Q120.441 221.473 120.441 224.598 Q120.441 227.723 122.339 229.505 Q124.26 231.287 127.593 231.287 Q130.927 231.287 132.848 229.505 Q134.769 227.699 134.769 224.598 Q134.769 221.473 132.848 219.69 Q130.95 217.908 127.593 217.908 M122.918 215.917 Q119.908 215.176 118.218 213.116 Q116.552 211.056 116.552 208.093 Q116.552 203.95 119.492 201.542 Q122.455 199.135 127.593 199.135 Q132.755 199.135 135.695 201.542 Q138.635 203.95 138.635 208.093 Q138.635 211.056 136.945 213.116 Q135.279 215.176 132.292 215.917 Q135.672 216.704 137.547 218.996 Q139.445 221.287 139.445 224.598 Q139.445 229.621 136.367 232.306 Q133.311 234.991 127.593 234.991 Q121.876 234.991 118.797 232.306 Q115.742 229.621 115.742 224.598 Q115.742 221.287 117.64 218.996 Q119.538 216.704 122.918 215.917 M121.205 208.533 Q121.205 211.218 122.871 212.723 Q124.561 214.227 127.593 214.227 Q130.603 214.227 132.292 212.723 Q134.005 211.218 134.005 208.533 Q134.005 205.848 132.292 204.343 Q130.603 202.838 127.593 202.838 Q124.561 202.838 122.871 204.343 Q121.205 205.848 121.205 208.533 Z" fill="#000000" fill-rule="evenodd" fill-opacity="1" /><path clip-path="url(#clip860)" d="M18.0438 832.464 L24.314 832.464 Q22.5634 836.124 21.704 839.371 Q20.8447 842.617 20.8447 845.641 Q20.8447 850.893 22.8817 853.757 Q24.9187 856.59 28.6745 856.59 Q31.8255 856.59 33.4488 854.712 Q35.0402 852.802 36.0269 847.519 L36.8226 843.636 Q38.1912 836.443 41.6605 833.037 Q45.098 829.599 50.8908 829.599 Q57.7976 829.599 61.3624 834.246 Q64.9272 838.862 64.9272 847.805 Q64.9272 851.179 64.1633 854.999 Q63.3994 858.786 61.9035 862.86 L55.2831 862.86 Q57.4793 858.945 58.5933 855.19 Q59.7073 851.434 59.7073 847.805 Q59.7073 842.299 57.543 839.307 Q55.3786 836.315 51.3682 836.315 Q47.8671 836.315 45.8937 838.48 Q43.9204 840.612 42.9337 845.514 L42.1698 849.429 Q40.7375 856.622 37.682 859.837 Q34.6264 863.051 29.1837 863.051 Q22.8817 863.051 19.2532 858.627 Q15.6248 854.171 15.6248 846.373 Q15.6248 843.031 16.2295 839.562 Q16.8343 836.093 18.0438 832.464 Z" fill="#000000" fill-rule="evenodd" fill-opacity="1" /><path clip-path="url(#clip860)" d="M18.2347 814.035 L28.3562 814.035 L28.3562 801.972 L32.9077 801.972 L32.9077 814.035 L52.2594 814.035 Q56.6199 814.035 57.8613 812.858 Q59.1026 811.648 59.1026 807.988 L59.1026 801.972 L64.0042 801.972 L64.0042 807.988 Q64.0042 814.767 61.4897 817.345 Q58.9434 819.924 52.2594 819.924 L32.9077 819.924 L32.9077 824.22 L28.3562 824.22 L28.3562 819.924 L18.2347 819.924 L18.2347 814.035 Z" fill="#000000" fill-rule="evenodd" fill-opacity="1" /><path clip-path="url(#clip860)" d="M46.0847 778.069 Q46.0847 785.167 47.7079 787.904 Q49.3312 790.641 53.2461 790.641 Q56.3653 790.641 58.2114 788.604 Q60.0256 786.535 60.0256 783.003 Q60.0256 778.133 56.5881 775.205 Q53.1188 772.244 47.3897 772.244 L46.0847 772.244 L46.0847 778.069 M43.6657 766.388 L64.0042 766.388 L64.0042 772.244 L58.5933 772.244 Q61.8398 774.25 63.3994 777.242 Q64.9272 780.233 64.9272 784.562 Q64.9272 790.037 61.8716 793.283 Q58.7843 796.498 53.6281 796.498 Q47.6125 796.498 44.5569 792.487 Q41.5014 788.445 41.5014 780.456 L41.5014 772.244 L40.9285 772.244 Q36.8862 772.244 34.6901 774.918 Q32.4621 777.56 32.4621 782.366 Q32.4621 785.421 33.1941 788.318 Q33.9262 791.214 35.3903 793.888 L29.9795 793.888 Q28.7381 790.673 28.1334 787.649 Q27.4968 784.626 27.4968 781.761 Q27.4968 774.027 31.5072 770.207 Q35.5176 766.388 43.6657 766.388 Z" fill="#000000" fill-rule="evenodd" fill-opacity="1" /><path clip-path="url(#clip860)" d="M18.2347 748.532 L28.3562 748.532 L28.3562 736.469 L32.9077 736.469 L32.9077 748.532 L52.2594 748.532 Q56.6199 748.532 57.8613 747.355 Q59.1026 746.145 59.1026 742.485 L59.1026 736.469 L64.0042 736.469 L64.0042 742.485 Q64.0042 749.264 61.4897 751.842 Q58.9434 754.42 52.2594 754.42 L32.9077 754.42 L32.9077 758.717 L28.3562 758.717 L28.3562 754.42 L18.2347 754.42 L18.2347 748.532 Z" fill="#000000" fill-rule="evenodd" fill-opacity="1" /><path clip-path="url(#clip860)" d="M28.3562 728.767 L28.3562 722.91 L64.0042 722.91 L64.0042 728.767 L28.3562 728.767 M14.479 728.767 L14.479 722.91 L21.895 722.91 L21.895 728.767 L14.479 728.767 Z" fill="#000000" fill-rule="evenodd" fill-opacity="1" /><path clip-path="url(#clip860)" d="M29.4065 687.931 L34.9447 687.931 Q33.6716 690.413 33.035 693.087 Q32.3984 695.761 32.3984 698.625 Q32.3984 702.986 33.7352 705.182 Q35.072 707.346 37.7456 707.346 Q39.7826 707.346 40.9603 705.786 Q42.1061 704.227 43.1565 699.516 L43.6021 697.511 Q44.9389 691.273 47.3897 688.663 Q49.8086 686.021 54.1691 686.021 Q59.1344 686.021 62.0308 689.968 Q64.9272 693.883 64.9272 700.758 Q64.9272 703.622 64.3543 706.741 Q63.8132 709.829 62.6992 713.266 L56.6518 713.266 Q58.3387 710.02 59.198 706.869 Q60.0256 703.718 60.0256 700.63 Q60.0256 696.493 58.6251 694.265 Q57.1929 692.037 54.6147 692.037 Q52.2276 692.037 50.9545 693.66 Q49.6813 695.251 48.5037 700.694 L48.0262 702.731 Q46.8804 708.174 44.5251 710.593 Q42.138 713.012 38.0002 713.012 Q32.9713 713.012 30.2341 709.447 Q27.4968 705.882 27.4968 699.325 Q27.4968 696.079 27.9743 693.214 Q28.4517 690.35 29.4065 687.931 Z" fill="#000000" fill-rule="evenodd" fill-opacity="1" /><path clip-path="url(#clip860)" d="M18.2347 670.902 L28.3562 670.902 L28.3562 658.839 L32.9077 658.839 L32.9077 670.902 L52.2594 670.902 Q56.6199 670.902 57.8613 669.725 Q59.1026 668.515 59.1026 664.855 L59.1026 658.839 L64.0042 658.839 L64.0042 664.855 Q64.0042 671.634 61.4897 674.213 Q58.9434 676.791 52.2594 676.791 L32.9077 676.791 L32.9077 681.088 L28.3562 681.088 L28.3562 676.791 L18.2347 676.791 L18.2347 670.902 Z" fill="#000000" fill-rule="evenodd" fill-opacity="1" /><path clip-path="url(#clip860)" d="M28.3562 651.137 L28.3562 645.28 L64.0042 645.28 L64.0042 651.137 L28.3562 651.137 M14.479 651.137 L14.479 645.28 L21.895 645.28 L21.895 651.137 L14.479 651.137 Z" fill="#000000" fill-rule="evenodd" fill-opacity="1" /><path clip-path="url(#clip860)" d="M29.7248 607.373 L35.1993 607.373 Q33.8307 609.855 33.1623 612.37 Q32.4621 614.852 32.4621 617.399 Q32.4621 623.096 36.0905 626.247 Q39.6872 629.398 46.212 629.398 Q52.7369 629.398 56.3653 626.247 Q59.9619 623.096 59.9619 617.399 Q59.9619 614.852 59.2935 612.37 Q58.5933 609.855 57.2247 607.373 L62.6355 607.373 Q63.7814 609.823 64.3543 612.465 Q64.9272 615.075 64.9272 618.035 Q64.9272 626.088 59.8664 630.83 Q54.8057 635.573 46.212 635.573 Q37.491 635.573 32.4939 630.798 Q27.4968 625.992 27.4968 617.653 Q27.4968 614.948 28.0697 612.37 Q28.6108 609.792 29.7248 607.373 Z" fill="#000000" fill-rule="evenodd" fill-opacity="1" /><polyline clip-path="url(#clip862)" style="stroke:#000000; stroke-linecap:butt; stroke-linejoin:round; stroke-width:4; stroke-opacity:1; fill:none" points="
  237.067,385.027 242.202,384.145 247.338,383.258 252.473,382.364 257.608,381.464 262.743,380.558 267.878,379.645 273.013,378.726 278.149,377.8 283.284,376.868 
  288.419,375.929 293.554,374.983 298.689,374.03 303.824,373.07 308.96,372.104 314.095,371.13 319.23,370.149 324.365,369.161 329.5,368.166 334.635,367.164 
  339.771,366.154 344.906,365.136 350.041,364.111 355.176,363.079 360.311,362.039 365.446,360.991 370.582,359.935 375.717,358.871 380.852,357.799 385.987,356.719 
  391.122,355.631 396.257,354.535 401.393,353.43 406.528,352.317 411.663,351.195 416.798,350.065 421.933,348.926 427.068,347.779 432.204,346.622 437.339,345.457 
  442.474,344.282 447.609,343.099 452.744,341.906 457.879,340.704 463.015,339.492 468.15,338.271 473.285,337.041 478.42,335.8 483.555,334.55 488.69,333.29 
  493.826,332.02 498.961,330.74 504.096,329.45 509.231,328.149 514.366,326.839 519.501,325.517 524.637,324.185 529.772,322.842 534.907,321.489 540.042,320.124 
  545.177,318.749 550.312,317.362 555.448,315.965 560.583,314.555 565.718,313.135 570.853,311.703 575.988,310.259 581.123,308.803 586.259,307.336 591.394,305.856 
  596.529,304.365 601.664,302.861 606.799,301.345 611.934,299.816 617.07,298.275 622.205,296.721 627.34,295.154 632.475,293.575 637.61,291.982 642.745,290.377 
  647.881,288.758 653.016,287.126 658.151,285.48 663.286,283.821 668.421,282.148 673.556,280.461 678.692,278.761 683.827,277.047 688.962,275.318 694.097,273.575 
  699.232,271.819 704.367,270.047 709.503,268.262 714.638,266.461 719.773,264.646 724.908,262.817 730.043,260.972 735.178,259.113 740.314,257.239 745.449,255.35 
  750.584,253.445 755.719,251.526 760.854,249.591 765.989,247.642 771.125,245.676 776.26,243.696 781.395,241.7 786.53,239.689 791.665,237.662 796.8,235.621 
  801.936,233.563 807.071,231.491 812.206,229.403 817.341,227.3 822.476,225.181 827.611,223.047 832.747,220.899 837.882,218.735 843.017,216.556 848.152,214.363 
  853.287,212.155 858.422,209.933 863.558,207.696 868.693,205.445 873.828,203.181 878.963,200.903 884.098,198.611 889.233,196.307 894.369,193.99 899.504,191.66 
  904.639,189.319 909.774,186.966 914.909,184.603 920.044,182.228 925.18,179.844 930.315,177.451 935.45,175.049 940.585,172.639 945.72,170.222 950.855,167.798 
  955.991,165.369 961.126,162.935 966.261,160.498 971.396,158.058 976.531,155.616 981.666,153.175 986.802,150.734 991.937,148.296 997.072,145.862 1002.21,143.434 
  1007.34,141.013 1012.48,138.601 1017.61,136.2 1022.75,133.812 1027.88,131.44 1033.02,129.085 1038.15,126.75 1043.29,124.438 1048.42,122.151 1053.56,119.893 
  1058.69,117.666 1063.83,115.475 1068.96,113.322 1074.1,111.211 1079.23,109.147 1084.37,107.133 1089.5,105.174 1094.64,103.275 1099.78,101.441 1104.91,99.6777 
  1110.05,97.9898 1115.18,96.3838 1120.32,94.8659 1125.45,93.4429 1130.59,92.1217 1135.72,90.9099 1140.86,89.8152 1145.99,88.8459 1151.13,88.0108 1156.26,87.3191 
  1161.4,86.7802 1166.53,86.4045 1171.67,86.2026 1176.8,86.1857 1181.94,86.3654 1187.07,86.7542 1192.21,87.3648 1197.34,88.2107 1202.48,89.306 1207.61,90.6653 
  1212.75,92.3038 1217.88,94.2375 1223.02,96.4828 1228.15,99.0567 1233.29,101.977 1238.42,105.262 1243.56,108.93 1248.7,113 1253.83,117.493 1258.97,122.429 
  1264.1,127.828 1269.24,133.71 1274.37,140.098 1279.51,147.012 1284.64,154.474 1289.78,162.504 1294.91,171.124 1300.05,180.354 1305.18,190.215 1310.32,200.726 
  1315.45,211.905 1320.59,223.769 1325.72,236.336 1330.86,249.618 1335.99,263.63 1341.13,278.382 1346.26,293.881 1351.4,310.135 1356.53,327.145 1361.67,344.912 
  1366.8,363.432 1371.94,382.699 1377.07,402.7 1382.21,423.422 1387.34,444.845 1392.48,466.945 1397.61,489.694 1402.75,513.061 1407.89,537.008 1413.02,561.493 
  1418.16,586.472 1423.29,611.893 1428.43,637.705 1433.56,663.848 1438.7,690.263 1443.83,716.886 1448.97,743.652 1454.1,770.493 1459.24,797.34 1464.37,824.123 
  1469.51,850.773 1474.64,877.221 1479.78,903.398 1484.91,929.238 1490.05,954.677 1495.18,979.653 1500.32,1004.11 1505.45,1027.99 1510.59,1051.24 1515.72,1073.82 
  1520.86,1095.68 1525.99,1116.8 1531.13,1137.13 1536.26,1156.65 1541.4,1175.33 1546.53,1193.17 1551.67,1210.14 1556.81,1226.25 1561.94,1241.48 1567.08,1255.83 
  1572.21,1269.32 1577.35,1281.94 1582.48,1293.71 1587.62,1304.64 1592.75,1314.76 1597.89,1324.07 1603.02,1332.6 1608.16,1340.38 1613.29,1347.41 1618.43,1353.75 
  1623.56,1359.39 1628.7,1364.38 1633.83,1368.74 1638.97,1372.5 1644.1,1375.69 1649.24,1378.33 1654.37,1380.44 1659.51,1382.07 1664.64,1383.23 1669.78,1383.94 
  1674.91,1384.24 1680.05,1384.14 1685.18,1383.68 1690.32,1382.87 1695.45,1381.74 1700.59,1380.3 1705.72,1378.58 1710.86,1376.6 1716,1374.37 1721.13,1371.92 
  1726.27,1369.25 1731.4,1366.39 1736.54,1363.35 1741.67,1360.15 1746.81,1356.79 1751.94,1353.29 1757.08,1349.67 1762.21,1345.94 1767.35,1342.1 1772.48,1338.16 
  1777.62,1334.14 1782.75,1330.05 1787.89,1325.89 1793.02,1321.67 1798.16,1317.39 1803.29,1313.08 1808.43,1308.72 1813.56,1304.33 1818.7,1299.92 1823.83,1295.48 
  1828.97,1291.03 1834.1,1286.56 1839.24,1282.09 1844.37,1277.62 1849.51,1273.14 1854.64,1268.67 1859.78,1264.2 1864.92,1259.75 1870.05,1255.3 1875.19,1250.87 
  1880.32,1246.46 1885.46,1242.06 1890.59,1237.69 1895.73,1233.34 1900.86,1229.01 1906,1224.71 1911.13,1220.43 1916.27,1216.18 1921.4,1211.96 1926.54,1207.78 
  1931.67,1203.62 1936.81,1199.49 1941.94,1195.4 1947.08,1191.34 1952.21,1187.31 1957.35,1183.32 1962.48,1179.36 1967.62,1175.44 1972.75,1171.55 1977.89,1167.7 
  1983.02,1163.88 1988.16,1160.1 1993.29,1156.35 1998.43,1152.64 2003.56,1148.97 2008.7,1145.33 2013.83,1141.73 2018.97,1138.16 2024.11,1134.63 2029.24,1131.13 
  2034.38,1127.67 2039.51,1124.24 2044.65,1120.85 2049.78,1117.49 2054.92,1114.17 2060.05,1110.88 2065.19,1107.63 2070.32,1104.41 2075.46,1101.22 2080.59,1098.07 
  2085.73,1094.95 2090.86,1091.86 2096,1088.81 2101.13,1085.78 2106.27,1082.79 2111.4,1079.83 2116.54,1076.9 2121.67,1074.01 2126.81,1071.14 2131.94,1068.3 
  2137.08,1065.49 2142.21,1062.72 2147.35,1059.97 2152.48,1057.25 2157.62,1054.56 2162.75,1051.89 2167.89,1049.26 2173.03,1046.65 2178.16,1044.07 2183.3,1041.52 
  2188.43,1038.99 2193.57,1036.49 2198.7,1034.01 2203.84,1031.56 2208.97,1029.14 2214.11,1026.74 2219.24,1024.37 2224.38,1022.02 2229.51,1019.69 2234.65,1017.39 
  2239.78,1015.11 2244.92,1012.86 2250.05,1010.62 2255.19,1008.41 2260.32,1006.23 2265.46,1004.06 2270.59,1001.92 2275.73,999.796 2280.86,997.696 2286,995.616 
  2291.13,993.557 
  "/>
<polyline clip-path="url(#clip862)" style="stroke:#ff0000; stroke-linecap:butt; stroke-linejoin:round; stroke-width:4; stroke-opacity:1; fill:none" stroke-dasharray="16, 10" points="
  1464.37,2799.12 1464.37,-1328.69 
  "/>
<polyline clip-path="url(#clip862)" style="stroke:#ff0000; stroke-linecap:butt; stroke-linejoin:round; stroke-width:4; stroke-opacity:1; fill:none" stroke-dasharray="16, 10" points="
  2291.13,2799.12 2291.13,-1328.69 
  "/>
<polyline clip-path="url(#clip862)" style="stroke:#87ceeb; stroke-linecap:butt; stroke-linejoin:round; stroke-width:4; stroke-opacity:1; fill:none" stroke-dasharray="16, 10" points="
  -2001.87,823.777 4530.07,823.777 
  "/>
<path clip-path="url(#clip860)" d="
M1984.11 352.309 L2280.18 352.309 L2280.18 93.1086 L1984.11 93.1086  Z
  " fill="#ffffff" fill-rule="evenodd" fill-opacity="1"/>
<polyline clip-path="url(#clip860)" style="stroke:#000000; stroke-linecap:butt; stroke-linejoin:round; stroke-width:4; stroke-opacity:1; fill:none" points="
  1984.11,352.309 2280.18,352.309 2280.18,93.1086 1984.11,93.1086 1984.11,352.309 
  "/>
<polyline clip-path="url(#clip860)" style="stroke:#000000; stroke-linecap:butt; stroke-linejoin:round; stroke-width:4; stroke-opacity:1; fill:none" points="
  2008.3,144.949 2153.46,144.949 
  "/>
<path clip-path="url(#clip860)" d="M2191.49 164.636 Q2189.69 169.266 2187.97 170.678 Q2186.26 172.09 2183.39 172.09 L2179.99 172.09 L2179.99 168.525 L2182.49 168.525 Q2184.25 168.525 2185.22 167.692 Q2186.19 166.858 2187.37 163.756 L2188.14 161.812 L2177.65 136.303 L2182.16 136.303 L2190.27 156.581 L2198.37 136.303 L2202.88 136.303 L2191.49 164.636 Z" fill="#000000" fill-rule="evenodd" fill-opacity="1" /><path clip-path="url(#clip860)" d="M2210.17 158.293 L2217.81 158.293 L2217.81 131.928 L2209.5 133.595 L2209.5 129.335 L2217.77 127.669 L2222.44 127.669 L2222.44 158.293 L2230.08 158.293 L2230.08 162.229 L2210.17 162.229 L2210.17 158.293 Z" fill="#000000" fill-rule="evenodd" fill-opacity="1" /><polyline clip-path="url(#clip860)" style="stroke:#ff0000; stroke-linecap:butt; stroke-linejoin:round; stroke-width:4; stroke-opacity:1; fill:none" stroke-dasharray="16, 10" points="
  2008.3,196.789 2153.46,196.789 
  "/>
<path clip-path="url(#clip860)" d="M2178.32 210.133 L2185.96 210.133 L2185.96 183.768 L2177.65 185.435 L2177.65 181.175 L2185.91 179.509 L2190.59 179.509 L2190.59 210.133 L2198.23 210.133 L2198.23 214.069 L2178.32 214.069 L2178.32 210.133 Z" fill="#000000" fill-rule="evenodd" fill-opacity="1" /><polyline clip-path="url(#clip860)" style="stroke:#ff0000; stroke-linecap:butt; stroke-linejoin:round; stroke-width:4; stroke-opacity:1; fill:none" stroke-dasharray="16, 10" points="
  2008.3,248.629 2153.46,248.629 
  "/>
<path clip-path="url(#clip860)" d="M2183.28 261.973 L2199.6 261.973 L2199.6 265.909 L2177.65 265.909 L2177.65 261.973 Q2180.31 259.219 2184.9 254.589 Q2189.5 249.936 2190.68 248.594 Q2192.93 246.071 2193.81 244.335 Q2194.71 242.575 2194.71 240.886 Q2194.71 238.131 2192.77 236.395 Q2190.85 234.659 2187.74 234.659 Q2185.54 234.659 2183.09 235.423 Q2180.66 236.187 2177.88 237.737 L2177.88 233.015 Q2180.71 231.881 2183.16 231.302 Q2185.61 230.724 2187.65 230.724 Q2193.02 230.724 2196.22 233.409 Q2199.41 236.094 2199.41 240.585 Q2199.41 242.714 2198.6 244.636 Q2197.81 246.534 2195.71 249.126 Q2195.13 249.798 2192.03 253.015 Q2188.92 256.21 2183.28 261.973 Z" fill="#000000" fill-rule="evenodd" fill-opacity="1" /><polyline clip-path="url(#clip860)" style="stroke:#87ceeb; stroke-linecap:butt; stroke-linejoin:round; stroke-width:4; stroke-opacity:1; fill:none" stroke-dasharray="16, 10" points="
  2008.3,300.469 2153.46,300.469 
  "/>
<path clip-path="url(#clip860)" d="M2191.49 320.156 Q2189.69 324.786 2187.97 326.198 Q2186.26 327.61 2183.39 327.61 L2179.99 327.61 L2179.99 324.045 L2182.49 324.045 Q2184.25 324.045 2185.22 323.212 Q2186.19 322.378 2187.37 319.276 L2188.14 317.332 L2177.65 291.823 L2182.16 291.823 L2190.27 312.101 L2198.37 291.823 L2202.88 291.823 L2191.49 320.156 Z" fill="#000000" fill-rule="evenodd" fill-opacity="1" /><path clip-path="url(#clip860)" d="M2222.21 287.263 L2210.41 305.712 L2222.21 305.712 L2222.21 287.263 M2220.98 283.189 L2226.86 283.189 L2226.86 305.712 L2231.79 305.712 L2231.79 309.601 L2226.86 309.601 L2226.86 317.749 L2222.21 317.749 L2222.21 309.601 L2206.61 309.601 L2206.61 305.087 L2220.98 283.189 Z" fill="#000000" fill-rule="evenodd" fill-opacity="1" /></svg>
