<?xml version="1.0" encoding="UTF-8"?>
<svg xmlns="http://www.w3.org/2000/svg"
     xmlns:xlink="http://www.w3.org/1999/xlink"
     xmlns:gadfly="http://www.gadflyjl.org/ns"
     version="1.2"
     width="141.42mm" height="100mm" viewBox="0 0 141.42 100"
     stroke="none"
     fill="#000000"
     stroke-width="0.3"
     font-size="3.88"
>
<defs>
  <marker id="arrow" markerWidth="15" markerHeight="7" refX="5" refY="3.5" orient="auto" markerUnits="strokeWidth">
    <path d="M0,0 L15,3.5 L0,7 z" stroke="context-stroke" fill="context-stroke"/>
  </marker>
</defs>
<g class="plotroot xscalable yscalable" id="img-e3de209d-1">
  <g font-size="3.88" font-family="'PT Sans','Helvetica Neue','Helvetica',sans-serif" fill="#564A55" stroke="#000000" stroke-opacity="0.000" id="img-e3de209d-2">
    <g transform="translate(73.38,88.39)">
      <g class="primitive">
        <text text-anchor="middle" dy="0.6em">Naive</text>
      </g>
    </g>
  </g>
  <g class="guide xlabels" font-size="2.82" font-family="'PT Sans Caption','Helvetica Neue','Helvetica',sans-serif" fill="#6C606B" id="img-e3de209d-3">
    <g transform="translate(12.35,81.72)">
      <g class="primitive">
        <text text-anchor="middle" dy="0.6em">-1.5</text>
      </g>
    </g>
    <g transform="translate(32.69,81.72)">
      <g class="primitive">
        <text text-anchor="middle" dy="0.6em">-1.0</text>
      </g>
    </g>
    <g transform="translate(53.04,81.72)">
      <g class="primitive">
        <text text-anchor="middle" dy="0.6em">-0.5</text>
      </g>
    </g>
    <g transform="translate(73.38,81.72)">
      <g class="primitive">
        <text text-anchor="middle" dy="0.6em">0.0</text>
      </g>
    </g>
    <g transform="translate(93.73,81.72)">
      <g class="primitive">
        <text text-anchor="middle" dy="0.6em">0.5</text>
      </g>
    </g>
    <g transform="translate(114.08,81.72)">
      <g class="primitive">
        <text text-anchor="middle" dy="0.6em">1.0</text>
      </g>
    </g>
    <g transform="translate(134.42,81.72)">
      <g class="primitive">
        <text text-anchor="middle" dy="0.6em">1.5</text>
      </g>
    </g>
  </g>
  <g clip-path="url(#img-e3de209d-4)">
    <g id="img-e3de209d-5">
      <g pointer-events="visible" stroke-width="0.3" fill="#000000" fill-opacity="0.000" stroke="#000000" stroke-opacity="0.000" class="guide background" id="img-e3de209d-6">
        <g transform="translate(73.38,45.66)" id="img-e3de209d-7">
          <path d="M-63.04,-35.05 L63.04,-35.05 63.04,35.05 -63.04,35.05  z" class="primitive"/>
        </g>
      </g>
      <g class="guide ygridlines xfixed" stroke-dasharray="0.5,0.5" stroke-width="0.2" stroke="#D0D0E0" id="img-e3de209d-8">
        <g transform="translate(73.38,78.72)" id="img-e3de209d-9">
          <path fill="none" d="M-63.04,0 L63.04,0 " class="primitive"/>
        </g>
        <g transform="translate(73.38,45.66)" id="img-e3de209d-10">
          <path fill="none" d="M-63.04,0 L63.04,0 " class="primitive"/>
        </g>
        <g transform="translate(73.38,12.61)" id="img-e3de209d-11">
          <path fill="none" d="M-63.04,0 L63.04,0 " class="primitive"/>
        </g>
      </g>
      <g class="guide xgridlines yfixed" stroke-dasharray="0.5,0.5" stroke-width="0.2" stroke="#D0D0E0" id="img-e3de209d-12">
        <g transform="translate(12.35,45.66)" id="img-e3de209d-13">
          <path fill="none" d="M0,-35.05 L0,35.05 " class="primitive"/>
        </g>
        <g transform="translate(32.69,45.66)" id="img-e3de209d-14">
          <path fill="none" d="M0,-35.05 L0,35.05 " class="primitive"/>
        </g>
        <g transform="translate(53.04,45.66)" id="img-e3de209d-15">
          <path fill="none" d="M0,-35.05 L0,35.05 " class="primitive"/>
        </g>
        <g transform="translate(73.38,45.66)" id="img-e3de209d-16">
          <path fill="none" d="M0,-35.05 L0,35.05 " class="primitive"/>
        </g>
        <g transform="translate(93.73,45.66)" id="img-e3de209d-17">
          <path fill="none" d="M0,-35.05 L0,35.05 " class="primitive"/>
        </g>
        <g transform="translate(114.08,45.66)" id="img-e3de209d-18">
          <path fill="none" d="M0,-35.05 L0,35.05 " class="primitive"/>
        </g>
        <g transform="translate(134.42,45.66)" id="img-e3de209d-19">
          <path fill="none" d="M0,-35.05 L0,35.05 " class="primitive"/>
        </g>
      </g>
      <g class="plotpanel" id="img-e3de209d-20">
        <metadata>
          <boundingbox value="10.346666666666664mm 10.611666666666665mm 126.07468957064285mm 70.10333333333334mm"/>
          <unitbox value="-1.5491502376217625 10.302556603297868 3.098300475243525 -10.605113206595734"/>
        </metadata>
        <g shape-rendering="crispEdges" stroke-width="0.3" id="img-e3de209d-21">
          <g stroke="#000000" stroke-opacity="0.000" class="geometry" id="img-e3de209d-22">
            <g transform="translate(69.28,75.64)" id="img-e3de209d-23" fill="#0000FF">
              <path d="M-0.46,-3.07 L0.46,-3.07 0.46,3.07 -0.46,3.07  z" class="primitive"/>
            </g>
            <g transform="translate(70.16,72.57)" id="img-e3de209d-24" fill="#0000FF">
              <path d="M-0.46,-6.14 L0.46,-6.14 0.46,6.14 -0.46,6.14  z" class="primitive"/>
            </g>
            <g transform="translate(71.03,64.9)" id="img-e3de209d-25" fill="#0000FF">
              <path d="M-0.46,-13.82 L0.46,-13.82 0.46,13.82 -0.46,13.82  z" class="primitive"/>
            </g>
            <g transform="translate(71.91,54.15)" id="img-e3de209d-26" fill="#0000FF">
              <path d="M-0.46,-24.57 L0.46,-24.57 0.46,24.57 -0.46,24.57  z" class="primitive"/>
            </g>
            <g transform="translate(72.78,49.54)" id="img-e3de209d-27" fill="#0000FF">
              <path d="M-0.46,-29.17 L0.46,-29.17 0.46,29.17 -0.46,29.17  z" class="primitive"/>
            </g>
            <g transform="translate(73.66,46.47)" id="img-e3de209d-28" fill="#0000FF">
              <path d="M-0.46,-32.24 L0.46,-32.24 0.46,32.24 -0.46,32.24  z" class="primitive"/>
            </g>
            <g transform="translate(74.54,60.29)" id="img-e3de209d-29" fill="#0000FF">
              <path d="M-0.46,-18.43 L0.46,-18.43 0.46,18.43 -0.46,18.43  z" class="primitive"/>
            </g>
            <g transform="translate(75.41,58.75)" id="img-e3de209d-30" fill="#0000FF">
              <path d="M-0.46,-19.96 L0.46,-19.96 0.46,19.96 -0.46,19.96  z" class="primitive"/>
            </g>
            <g transform="translate(76.29,75.64)" id="img-e3de209d-31" fill="#0000FF">
              <path d="M-0.46,-3.07 L0.46,-3.07 0.46,3.07 -0.46,3.07  z" class="primitive"/>
            </g>
            <g transform="translate(77.16,75.64)" id="img-e3de209d-32" fill="#0000FF">
              <path d="M-0.46,-3.07 L0.46,-3.07 0.46,3.07 -0.46,3.07  z" class="primitive"/>
            </g>
          </g>
        </g>
      </g>
    </g>
  </g>
  <g class="guide ylabels" font-size="2.82" font-family="'PT Sans Caption','Helvetica Neue','Helvetica',sans-serif" fill="#6C606B" id="img-e3de209d-33">
    <g transform="translate(9.35,78.72)" id="img-e3de209d-34">
      <g class="primitive">
        <text text-anchor="end" dy="0.35em">0</text>
      </g>
    </g>
    <g transform="translate(9.35,45.66)" id="img-e3de209d-35">
      <g class="primitive">
        <text text-anchor="end" dy="0.35em">5</text>
      </g>
    </g>
    <g transform="translate(9.35,12.61)" id="img-e3de209d-36">
      <g class="primitive">
        <text text-anchor="end" dy="0.35em">10</text>
      </g>
    </g>
  </g>
  <g font-size="3.88" font-family="'PT Sans','Helvetica Neue','Helvetica',sans-serif" fill="#564A55" stroke="#000000" stroke-opacity="0.000" id="img-e3de209d-37">
    <g transform="translate(73.38,5)" id="img-e3de209d-38">
      <g class="primitive">
        <text text-anchor="middle" dy="0.6em">Naive, 100 trials</text>
      </g>
    </g>
  </g>
</g>
<defs>
  <clipPath id="img-e3de209d-4">
    <path d="M10.35,10.61 L136.42,10.61 136.42,80.72 10.35,80.72 " />
  </clipPath>
</defs>
</svg>
