<?xml version="1.0" encoding="UTF-8"?>
<svg xmlns="http://www.w3.org/2000/svg"
     xmlns:xlink="http://www.w3.org/1999/xlink"
     xmlns:gadfly="http://www.gadflyjl.org/ns"
     version="1.2"
     width="141.42mm" height="100mm" viewBox="0 0 141.42 100"
     stroke="none"
     fill="#000000"
     stroke-width="0.3"
     font-size="3.88"
>
<defs>
  <marker id="arrow" markerWidth="15" markerHeight="7" refX="5" refY="3.5" orient="auto" markerUnits="strokeWidth">
    <path d="M0,0 L15,3.5 L0,7 z" stroke="context-stroke" fill="context-stroke"/>
  </marker>
</defs>
<g class="plotroot xscalable yscalable" id="img-7d331eb3-1">
  <g font-size="3.88" font-family="'PT Sans','Helvetica Neue','Helvetica',sans-serif" fill="#564A55" stroke="#000000" stroke-opacity="0.000" id="img-7d331eb3-2">
    <g transform="translate(73.38,88.39)">
      <g class="primitive">
        <text text-anchor="middle" dy="0.6em">Orthogonal</text>
      </g>
    </g>
  </g>
  <g class="guide xlabels" font-size="2.82" font-family="'PT Sans Caption','Helvetica Neue','Helvetica',sans-serif" fill="#6C606B" id="img-7d331eb3-3">
    <g transform="translate(12.35,81.72)">
      <g class="primitive">
        <text text-anchor="middle" dy="0.6em">-1.5</text>
      </g>
    </g>
    <g transform="translate(32.69,81.72)">
      <g class="primitive">
        <text text-anchor="middle" dy="0.6em">-1.0</text>
      </g>
    </g>
    <g transform="translate(53.04,81.72)">
      <g class="primitive">
        <text text-anchor="middle" dy="0.6em">-0.5</text>
      </g>
    </g>
    <g transform="translate(73.38,81.72)">
      <g class="primitive">
        <text text-anchor="middle" dy="0.6em">0.0</text>
      </g>
    </g>
    <g transform="translate(93.73,81.72)">
      <g class="primitive">
        <text text-anchor="middle" dy="0.6em">0.5</text>
      </g>
    </g>
    <g transform="translate(114.08,81.72)">
      <g class="primitive">
        <text text-anchor="middle" dy="0.6em">1.0</text>
      </g>
    </g>
    <g transform="translate(134.42,81.72)">
      <g class="primitive">
        <text text-anchor="middle" dy="0.6em">1.5</text>
      </g>
    </g>
  </g>
  <g clip-path="url(#img-7d331eb3-4)">
    <g id="img-7d331eb3-5">
      <g pointer-events="visible" stroke-width="0.3" fill="#000000" fill-opacity="0.000" stroke="#000000" stroke-opacity="0.000" class="guide background" id="img-7d331eb3-6">
        <g transform="translate(73.38,45.66)" id="img-7d331eb3-7">
          <path d="M-63.04,-35.05 L63.04,-35.05 63.04,35.05 -63.04,35.05  z" class="primitive"/>
        </g>
      </g>
      <g class="guide ygridlines xfixed" stroke-dasharray="0.5,0.5" stroke-width="0.2" stroke="#D0D0E0" id="img-7d331eb3-8">
        <g transform="translate(73.38,78.72)" id="img-7d331eb3-9">
          <path fill="none" d="M-63.04,0 L63.04,0 " class="primitive"/>
        </g>
        <g transform="translate(73.38,56.68)" id="img-7d331eb3-10">
          <path fill="none" d="M-63.04,0 L63.04,0 " class="primitive"/>
        </g>
        <g transform="translate(73.38,34.65)" id="img-7d331eb3-11">
          <path fill="none" d="M-63.04,0 L63.04,0 " class="primitive"/>
        </g>
        <g transform="translate(73.38,12.61)" id="img-7d331eb3-12">
          <path fill="none" d="M-63.04,0 L63.04,0 " class="primitive"/>
        </g>
      </g>
      <g class="guide xgridlines yfixed" stroke-dasharray="0.5,0.5" stroke-width="0.2" stroke="#D0D0E0" id="img-7d331eb3-13">
        <g transform="translate(12.35,45.66)" id="img-7d331eb3-14">
          <path fill="none" d="M0,-35.05 L0,35.05 " class="primitive"/>
        </g>
        <g transform="translate(32.69,45.66)" id="img-7d331eb3-15">
          <path fill="none" d="M0,-35.05 L0,35.05 " class="primitive"/>
        </g>
        <g transform="translate(53.04,45.66)" id="img-7d331eb3-16">
          <path fill="none" d="M0,-35.05 L0,35.05 " class="primitive"/>
        </g>
        <g transform="translate(73.38,45.66)" id="img-7d331eb3-17">
          <path fill="none" d="M0,-35.05 L0,35.05 " class="primitive"/>
        </g>
        <g transform="translate(93.73,45.66)" id="img-7d331eb3-18">
          <path fill="none" d="M0,-35.05 L0,35.05 " class="primitive"/>
        </g>
        <g transform="translate(114.08,45.66)" id="img-7d331eb3-19">
          <path fill="none" d="M0,-35.05 L0,35.05 " class="primitive"/>
        </g>
        <g transform="translate(134.42,45.66)" id="img-7d331eb3-20">
          <path fill="none" d="M0,-35.05 L0,35.05 " class="primitive"/>
        </g>
      </g>
      <g class="plotpanel" id="img-7d331eb3-21">
        <metadata>
          <boundingbox value="10.346666666666664mm 10.611666666666665mm 126.07468957064285mm 70.10333333333334mm"/>
          <unitbox value="-1.5491502376217625 15.4538349049468 3.098300475243525 -15.9076698098936"/>
        </metadata>
        <g shape-rendering="crispEdges" stroke-width="0.3" id="img-7d331eb3-22">
          <g stroke="#000000" stroke-opacity="0.000" class="geometry" id="img-7d331eb3-23">
            <g transform="translate(70.57,72.42)" id="img-7d331eb3-24" fill="#FF0000">
              <path d="M-0.38,-6.3 L0.38,-6.3 0.38,6.3 -0.38,6.3  z" class="primitive"/>
            </g>
            <g transform="translate(71.28,73.68)" id="img-7d331eb3-25" fill="#FF0000">
              <path d="M-0.38,-5.04 L0.38,-5.04 0.38,5.04 -0.38,5.04  z" class="primitive"/>
            </g>
            <g transform="translate(71.99,68.64)" id="img-7d331eb3-26" fill="#FF0000">
              <path d="M-0.38,-10.08 L0.38,-10.08 0.38,10.08 -0.38,10.08  z" class="primitive"/>
            </g>
            <g transform="translate(72.7,52.26)" id="img-7d331eb3-27" fill="#FF0000">
              <path d="M-0.38,-26.45 L0.38,-26.45 0.38,26.45 -0.38,26.45  z" class="primitive"/>
            </g>
            <g transform="translate(73.42,59.82)" id="img-7d331eb3-28" fill="#FF0000">
              <path d="M-0.38,-18.89 L0.38,-18.89 0.38,18.89 -0.38,18.89  z" class="primitive"/>
            </g>
            <g transform="translate(74.13,61.08)" id="img-7d331eb3-29" fill="#FF0000">
              <path d="M-0.38,-17.63 L0.38,-17.63 0.38,17.63 -0.38,17.63  z" class="primitive"/>
            </g>
            <g transform="translate(74.84,59.82)" id="img-7d331eb3-30" fill="#FF0000">
              <path d="M-0.38,-18.89 L0.38,-18.89 0.38,18.89 -0.38,18.89  z" class="primitive"/>
            </g>
            <g transform="translate(75.55,67.38)" id="img-7d331eb3-31" fill="#FF0000">
              <path d="M-0.38,-11.34 L0.38,-11.34 0.38,11.34 -0.38,11.34  z" class="primitive"/>
            </g>
            <g transform="translate(76.26,72.42)" id="img-7d331eb3-32" fill="#FF0000">
              <path d="M-0.38,-6.3 L0.38,-6.3 0.38,6.3 -0.38,6.3  z" class="primitive"/>
            </g>
            <g transform="translate(76.98,73.68)" id="img-7d331eb3-33" fill="#FF0000">
              <path d="M-0.38,-5.04 L0.38,-5.04 0.38,5.04 -0.38,5.04  z" class="primitive"/>
            </g>
          </g>
        </g>
      </g>
    </g>
  </g>
  <g class="guide ylabels" font-size="2.82" font-family="'PT Sans Caption','Helvetica Neue','Helvetica',sans-serif" fill="#6C606B" id="img-7d331eb3-34">
    <g transform="translate(9.35,78.72)" id="img-7d331eb3-35">
      <g class="primitive">
        <text text-anchor="end" dy="0.35em">0</text>
      </g>
    </g>
    <g transform="translate(9.35,56.68)" id="img-7d331eb3-36">
      <g class="primitive">
        <text text-anchor="end" dy="0.35em">5</text>
      </g>
    </g>
    <g transform="translate(9.35,34.65)" id="img-7d331eb3-37">
      <g class="primitive">
        <text text-anchor="end" dy="0.35em">10</text>
      </g>
    </g>
    <g transform="translate(9.35,12.61)" id="img-7d331eb3-38">
      <g class="primitive">
        <text text-anchor="end" dy="0.35em">15</text>
      </g>
    </g>
  </g>
  <g font-size="3.88" font-family="'PT Sans','Helvetica Neue','Helvetica',sans-serif" fill="#564A55" stroke="#000000" stroke-opacity="0.000" id="img-7d331eb3-39">
    <g transform="translate(73.38,5)" id="img-7d331eb3-40">
      <g class="primitive">
        <text text-anchor="middle" dy="0.6em">Orthogonal, 1000 trials</text>
      </g>
    </g>
  </g>
</g>
<defs>
  <clipPath id="img-7d331eb3-4">
    <path d="M10.35,10.61 L136.42,10.61 136.42,80.72 10.35,80.72 " />
  </clipPath>
</defs>
</svg>
