<?xml version="1.0" encoding="utf-8"?>
<svg xmlns="http://www.w3.org/2000/svg" xmlns:xlink="http://www.w3.org/1999/xlink" width="600" height="400" viewBox="0 0 2400 1600">
<defs>
  <clipPath id="clip720">
    <rect x="0" y="0" width="2400" height="1600"/>
  </clipPath>
</defs>
<path clip-path="url(#clip720)" d="
M0 1600 L2400 1600 L2400 0 L0 0  Z
  " fill="#ffffff" fill-rule="evenodd" fill-opacity="1"/>
<defs>
  <clipPath id="clip721">
    <rect x="480" y="0" width="1681" height="1600"/>
  </clipPath>
</defs>
<path clip-path="url(#clip720)" d="
M447.244 1552.76 L1952.76 1552.76 L1952.76 47.2441 L447.244 47.2441  Z
  " fill="#ffffff" fill-rule="evenodd" fill-opacity="1"/>
<defs>
  <clipPath id="clip722">
    <rect x="447" y="47" width="1507" height="1507"/>
  </clipPath>
</defs>
<polyline clip-path="url(#clip722)" style="stroke:#000000; stroke-linecap:butt; stroke-linejoin:round; stroke-width:4; stroke-opacity:1; fill:none" points="
  1200,172.703 1213.32,172.703 1226.63,172.703 1239.94,172.703 1253.23,172.703 1266.49,172.703 1279.74,172.703 1292.95,172.703 1306.12,172.703 1319.25,172.703 
  1332.34,172.703 1345.38,172.703 1358.35,172.703 1371.27,172.703 1384.12,172.703 1396.89,172.703 1409.59,172.703 1422.2,172.703 1434.73,172.703 1447.16,172.703 
  1459.5,172.703 1471.73,172.703 1483.85,172.703 1495.86,172.703 1507.75,172.703 1519.52,172.703 1531.16,172.703 1542.68,172.703 1554.09,172.703 1565.38,172.703 
  1576.58,172.703 1587.68,172.703 1598.68,172.703 1609.59,172.703 1620.43,172.703 1631.18,172.703 1641.86,172.703 1652.48,172.703 1663.03,172.703 1673.53,172.703 
  1683.97,172.703 1694.37,172.703 1704.72,172.703 1715.04,172.703 1725.33,172.703 1735.59,172.703 1745.83,172.703 1756.06,172.703 1766.28,172.703 1776.49,172.703 
  
  "/>
<polyline clip-path="url(#clip722)" style="stroke:#000000; stroke-linecap:butt; stroke-linejoin:round; stroke-width:4; stroke-opacity:1; fill:none" points="
  1740.49,154.703 1776.49,172.703 1740.49,190.703 
  "/>
<polyline clip-path="url(#clip722)" style="stroke:#000000; stroke-linecap:butt; stroke-linejoin:round; stroke-width:4; stroke-opacity:1; fill:none" points="
  1776.49,172.703 1766.28,172.703 
  "/>
<polyline clip-path="url(#clip722)" style="stroke:#000000; stroke-linecap:butt; stroke-linejoin:round; stroke-width:4; stroke-opacity:1; fill:none" points="
  572.703,172.703 586.023,172.703 599.337,172.703 612.641,172.703 625.93,172.703 639.198,172.703 652.44,172.703 665.65,172.703 678.825,172.703 691.958,172.703 
  705.044,172.703 718.079,172.703 731.056,172.703 743.972,172.703 756.82,172.703 769.595,172.703 782.293,172.703 794.907,172.703 807.434,172.703 819.867,172.703 
  832.202,172.703 844.433,172.703 856.556,172.703 868.564,172.703 880.453,172.703 892.218,172.703 903.859,172.703 915.381,172.703 926.789,172.703 938.087,172.703 
  949.282,172.703 960.379,172.703 971.383,172.703 982.298,172.703 993.13,172.703 1003.88,172.703 1014.57,172.703 1025.18,172.703 1035.73,172.703 1046.23,172.703 
  1056.67,172.703 1067.07,172.703 1077.43,172.703 1087.74,172.703 1098.03,172.703 1108.3,172.703 1118.54,172.703 1128.76,172.703 1138.98,172.703 1149.19,172.703 
  
  "/>
<polyline clip-path="url(#clip722)" style="stroke:#000000; stroke-linecap:butt; stroke-linejoin:round; stroke-width:4; stroke-opacity:1; fill:none" points="
  1113.19,154.703 1149.19,172.703 1113.19,190.703 
  "/>
<polyline clip-path="url(#clip722)" style="stroke:#000000; stroke-linecap:butt; stroke-linejoin:round; stroke-width:4; stroke-opacity:1; fill:none" points="
  1149.19,172.703 1138.98,172.703 
  "/>
<polyline clip-path="url(#clip722)" style="stroke:#000000; stroke-linecap:butt; stroke-linejoin:round; stroke-width:4; stroke-opacity:1; fill:none" points="
  572.703,172.703 598.825,172.703 624.941,172.703 651.047,172.703 677.138,172.703 703.208,172.703 729.251,172.703 755.264,172.703 781.241,172.703 807.176,172.703 
  833.064,172.703 858.9,172.703 884.68,172.703 910.397,172.703 936.047,172.703 961.625,172.703 987.124,172.703 1012.54,172.703 1037.87,172.703 1063.1,172.703 
  1088.24,172.703 1113.27,172.703 1138.2,172.703 1163.01,172.703 1187.7,172.703 1212.27,172.703 1236.71,172.703 1261.03,172.703 1285.24,172.703 1309.34,172.703 
  1333.34,172.703 1357.24,172.703 1381.05,172.703 1404.76,172.703 1428.4,172.703 1451.95,172.703 1475.44,172.703 1498.85,172.703 1522.21,172.703 1545.51,172.703 
  1568.75,172.703 1591.95,172.703 1615.11,172.703 1638.23,172.703 1661.32,172.703 1684.38,172.703 1707.43,172.703 1730.46,172.703 1753.47,172.703 1776.49,172.703 
  
  "/>
<polyline clip-path="url(#clip722)" style="stroke:#000000; stroke-linecap:butt; stroke-linejoin:round; stroke-width:4; stroke-opacity:1; fill:none" points="
  1740.49,154.703 1776.49,172.703 1740.49,190.703 
  "/>
<polyline clip-path="url(#clip722)" style="stroke:#000000; stroke-linecap:butt; stroke-linejoin:round; stroke-width:4; stroke-opacity:1; fill:none" points="
  1776.49,172.703 1753.47,172.703 
  "/>
<polyline clip-path="url(#clip722)" style="stroke:#000000; stroke-linecap:butt; stroke-linejoin:round; stroke-width:4; stroke-opacity:1; fill:none" points="
  1200,800 1186.83,786.832 1173.67,773.668 1160.51,760.511 1147.36,747.365 1134.23,734.233 1121.12,721.12 1108.03,708.029 1094.96,694.964 1081.93,681.928 
  1068.92,668.925 1055.96,655.958 1043.03,643.032 1030.15,630.15 1017.32,617.316 1004.53,604.533 991.804,591.804 979.135,579.135 966.527,566.527 953.986,553.986 
  941.514,541.514 929.116,529.116 916.795,516.795 904.554,504.554 892.397,492.397 880.328,480.328 868.348,468.348 856.451,456.451 844.635,444.635 832.896,432.896 
  821.23,421.23 809.634,409.634 798.104,398.104 786.636,386.636 775.227,375.227 763.872,363.872 752.569,352.569 741.314,341.314 730.103,330.103 718.932,318.932 
  707.797,307.797 696.696,296.696 685.624,285.624 674.577,274.577 663.553,263.553 652.547,252.547 641.555,241.555 630.575,230.575 619.602,219.602 608.632,208.632 
  
  "/>
<polyline clip-path="url(#clip722)" style="stroke:#000000; stroke-linecap:butt; stroke-linejoin:round; stroke-width:4; stroke-opacity:1; fill:none" points="
  621.36,246.816 608.632,208.632 646.816,221.36 
  "/>
<polyline clip-path="url(#clip722)" style="stroke:#000000; stroke-linecap:butt; stroke-linejoin:round; stroke-width:4; stroke-opacity:1; fill:none" points="
  608.632,208.632 619.602,219.602 
  "/>
<polyline clip-path="url(#clip722)" style="stroke:#000000; stroke-linecap:butt; stroke-linejoin:round; stroke-width:4; stroke-opacity:1; fill:none" points="
  1200,800 1213.17,786.832 1226.33,773.668 1239.49,760.511 1252.64,747.365 1265.77,734.233 1278.88,721.12 1291.97,708.029 1305.04,694.964 1318.07,681.928 
  1331.08,668.925 1344.04,655.958 1356.97,643.032 1369.85,630.15 1382.68,617.316 1395.47,604.533 1408.2,591.804 1420.87,579.135 1433.47,566.527 1446.01,553.986 
  1458.49,541.514 1470.88,529.116 1483.21,516.795 1495.45,504.554 1507.6,492.397 1519.67,480.328 1531.65,468.348 1543.55,456.451 1555.37,444.635 1567.1,432.896 
  1578.77,421.23 1590.37,409.634 1601.9,398.104 1613.36,386.636 1624.77,375.227 1636.13,363.872 1647.43,352.569 1658.69,341.314 1669.9,330.103 1681.07,318.932 
  1692.2,307.797 1703.3,296.696 1714.38,285.624 1725.42,274.577 1736.45,263.553 1747.45,252.547 1758.44,241.555 1769.43,230.575 1780.4,219.602 1791.37,208.632 
  
  "/>
<polyline clip-path="url(#clip722)" style="stroke:#000000; stroke-linecap:butt; stroke-linejoin:round; stroke-width:4; stroke-opacity:1; fill:none" points="
  1753.18,221.36 1791.37,208.632 1778.64,246.816 
  "/>
<polyline clip-path="url(#clip722)" style="stroke:#000000; stroke-linecap:butt; stroke-linejoin:round; stroke-width:4; stroke-opacity:1; fill:none" points="
  1791.37,208.632 1780.4,219.602 
  "/>
<polyline clip-path="url(#clip722)" style="stroke:#000000; stroke-linecap:butt; stroke-linejoin:round; stroke-width:4; stroke-opacity:1; fill:none" points="
  1827.3,800 1827.3,786.68 1827.3,773.366 1827.3,760.062 1827.3,746.773 1827.3,733.506 1827.3,720.264 1827.3,707.053 1827.3,693.879 1827.3,680.746 
  1827.3,667.659 1827.3,654.625 1827.3,641.647 1827.3,628.732 1827.3,615.884 1827.3,603.108 1827.3,590.411 1827.3,577.796 1827.3,565.269 1827.3,552.836 
  1827.3,540.501 1827.3,528.27 1827.3,516.148 1827.3,504.139 1827.3,492.25 1827.3,480.485 1827.3,468.844 1827.3,457.322 1827.3,445.915 1827.3,434.616 
  1827.3,423.421 1827.3,412.324 1827.3,401.321 1827.3,390.406 1827.3,379.573 1827.3,368.819 1827.3,358.137 1827.3,347.522 1827.3,336.969 1827.3,326.474 
  1827.3,316.03 1827.3,305.633 1827.3,295.278 1827.3,284.958 1827.3,274.67 1827.3,264.408 1827.3,254.166 1827.3,243.94 1827.3,233.725 1827.3,223.514 
  
  "/>
<polyline clip-path="url(#clip722)" style="stroke:#000000; stroke-linecap:butt; stroke-linejoin:round; stroke-width:4; stroke-opacity:1; fill:none" points="
  1809.3,259.514 1827.3,223.514 1845.3,259.514 
  "/>
<polyline clip-path="url(#clip722)" style="stroke:#000000; stroke-linecap:butt; stroke-linejoin:round; stroke-width:4; stroke-opacity:1; fill:none" points="
  1827.3,223.514 1827.3,233.725 
  "/>
<polyline clip-path="url(#clip722)" style="stroke:#000000; stroke-linecap:butt; stroke-linejoin:round; stroke-width:4; stroke-opacity:1; fill:none" points="
  572.703,800 572.703,786.68 572.703,773.366 572.703,760.062 572.703,746.773 572.703,733.506 572.703,720.264 572.703,707.053 572.703,693.879 572.703,680.746 
  572.703,667.659 572.703,654.625 572.703,641.647 572.703,628.732 572.703,615.884 572.703,603.108 572.703,590.411 572.703,577.796 572.703,565.269 572.703,552.836 
  572.703,540.501 572.703,528.27 572.703,516.148 572.703,504.139 572.703,492.25 572.703,480.485 572.703,468.844 572.703,457.322 572.703,445.915 572.703,434.616 
  572.703,423.421 572.703,412.324 572.703,401.321 572.703,390.406 572.703,379.573 572.703,368.819 572.703,358.137 572.703,347.522 572.703,336.969 572.703,326.474 
  572.703,316.03 572.703,305.633 572.703,295.278 572.703,284.958 572.703,274.67 572.703,264.408 572.703,254.166 572.703,243.94 572.703,233.725 572.703,223.514 
  
  "/>
<polyline clip-path="url(#clip722)" style="stroke:#000000; stroke-linecap:butt; stroke-linejoin:round; stroke-width:4; stroke-opacity:1; fill:none" points="
  554.703,259.514 572.703,223.514 590.703,259.514 
  "/>
<polyline clip-path="url(#clip722)" style="stroke:#000000; stroke-linecap:butt; stroke-linejoin:round; stroke-width:4; stroke-opacity:1; fill:none" points="
  572.703,223.514 572.703,233.725 
  "/>
<polyline clip-path="url(#clip722)" style="stroke:#000000; stroke-linecap:butt; stroke-linejoin:round; stroke-width:4; stroke-opacity:1; fill:none" points="
  1827.3,1427.3 1813.86,1413.86 1800.42,1400.42 1787,1387 1773.6,1373.6 1760.23,1360.23 1746.88,1346.88 1733.58,1333.58 1720.32,1320.32 1707.11,1307.11 
  1693.96,1293.96 1680.87,1280.87 1667.85,1267.85 1654.91,1254.91 1642.05,1242.05 1629.28,1229.28 1616.61,1216.61 1604.04,1204.04 1591.57,1191.57 1579.23,1179.23 
  1567,1167 1554.9,1154.9 1542.93,1142.93 1531.11,1131.11 1519.43,1119.43 1507.91,1107.91 1496.53,1096.53 1485.31,1085.31 1474.22,1074.22 1463.27,1063.27 
  1452.45,1052.45 1441.74,1041.74 1431.16,1031.16 1420.68,1020.68 1410.3,1010.3 1400.02,1000.02 1389.83,989.827 1379.72,979.718 1369.69,969.685 1359.72,959.723 
  1349.82,949.824 1339.98,939.983 1330.19,930.193 1320.45,920.448 1310.74,910.74 1301.07,901.065 1291.42,891.415 1281.78,881.785 1272.17,872.167 1262.56,862.556 
  
  "/>
<polyline clip-path="url(#clip722)" style="stroke:#000000; stroke-linecap:butt; stroke-linejoin:round; stroke-width:4; stroke-opacity:1; fill:none" points="
  1275.28,900.739 1262.56,862.556 1300.74,875.284 
  "/>
<polyline clip-path="url(#clip722)" style="stroke:#000000; stroke-linecap:butt; stroke-linejoin:round; stroke-width:4; stroke-opacity:1; fill:none" points="
  1262.56,862.556 1272.17,872.167 
  "/>
<polyline clip-path="url(#clip722)" style="stroke:#000000; stroke-linecap:butt; stroke-linejoin:round; stroke-width:4; stroke-opacity:1; fill:none" points="
  1827.3,1427.3 1827.3,1413.59 1827.3,1399.9 1827.3,1386.22 1827.3,1372.57 1827.3,1358.96 1827.3,1345.39 1827.3,1331.88 1827.3,1318.43 1827.3,1305.05 
  1827.3,1291.75 1827.3,1278.55 1827.3,1265.44 1827.3,1252.44 1827.3,1239.56 1827.3,1226.8 1827.3,1214.18 1827.3,1201.71 1827.3,1189.38 1827.3,1177.22 
  1827.3,1165.23 1827.3,1153.43 1827.3,1141.81 1827.3,1130.39 1827.3,1119.17 1827.3,1108.18 1827.3,1097.4 1827.3,1086.82 1827.3,1076.45 1827.3,1066.27 
  1827.3,1056.26 1827.3,1046.43 1827.3,1036.76 1827.3,1027.24 1827.3,1017.87 1827.3,1008.63 1827.3,999.52 1827.3,990.526 1827.3,981.641 1827.3,972.854 
  1827.3,964.159 1827.3,955.544 1827.3,947.001 1827.3,938.522 1827.3,930.097 1827.3,921.717 1827.3,913.373 1827.3,905.056 1827.3,896.757 1827.3,888.467 
  
  "/>
<polyline clip-path="url(#clip722)" style="stroke:#000000; stroke-linecap:butt; stroke-linejoin:round; stroke-width:4; stroke-opacity:1; fill:none" points="
  1809.3,924.467 1827.3,888.467 1845.3,924.467 
  "/>
<polyline clip-path="url(#clip722)" style="stroke:#000000; stroke-linecap:butt; stroke-linejoin:round; stroke-width:4; stroke-opacity:1; fill:none" points="
  1827.3,888.467 1827.3,896.757 
  "/>
<polyline clip-path="url(#clip722)" style="stroke:#000000; stroke-linecap:butt; stroke-linejoin:round; stroke-width:4; stroke-opacity:1; fill:none" points="
  572.703,1427.3 586.143,1413.86 599.575,1400.42 612.996,1387 626.397,1373.6 639.772,1360.23 653.115,1346.88 666.421,1333.58 679.681,1320.32 692.891,1307.11 
  706.043,1293.96 719.131,1280.87 732.149,1267.85 745.091,1254.91 757.949,1242.05 770.719,1229.28 783.392,1216.61 795.964,1204.04 808.427,1191.57 820.775,1179.23 
  833.002,1167 845.101,1154.9 857.066,1142.93 868.891,1131.11 880.57,1119.43 892.095,1107.91 903.467,1096.53 914.693,1085.31 925.778,1074.22 936.73,1063.27 
  947.554,1052.45 958.256,1041.74 968.844,1031.16 979.323,1020.68 989.7,1010.3 999.981,1000.02 1010.17,989.827 1020.28,979.718 1030.31,969.685 1040.28,959.723 
  1050.18,949.824 1060.02,939.983 1069.81,930.193 1079.55,920.448 1089.26,910.74 1098.93,901.065 1108.58,891.415 1118.22,881.785 1127.83,872.167 1137.44,862.556 
  
  "/>
<polyline clip-path="url(#clip722)" style="stroke:#000000; stroke-linecap:butt; stroke-linejoin:round; stroke-width:4; stroke-opacity:1; fill:none" points="
  1099.26,875.284 1137.44,862.556 1124.72,900.739 
  "/>
<polyline clip-path="url(#clip722)" style="stroke:#000000; stroke-linecap:butt; stroke-linejoin:round; stroke-width:4; stroke-opacity:1; fill:none" points="
  1137.44,862.556 1127.83,872.167 
  "/>
<polyline clip-path="url(#clip722)" style="stroke:#000000; stroke-linecap:butt; stroke-linejoin:round; stroke-width:4; stroke-opacity:1; fill:none" points="
  572.703,1427.3 572.703,1413.59 572.703,1399.9 572.703,1386.22 572.703,1372.57 572.703,1358.96 572.703,1345.39 572.703,1331.88 572.703,1318.43 572.703,1305.05 
  572.703,1291.75 572.703,1278.55 572.703,1265.44 572.703,1252.44 572.703,1239.56 572.703,1226.8 572.703,1214.18 572.703,1201.71 572.703,1189.38 572.703,1177.22 
  572.703,1165.23 572.703,1153.43 572.703,1141.81 572.703,1130.39 572.703,1119.17 572.703,1108.18 572.703,1097.4 572.703,1086.82 572.703,1076.45 572.703,1066.27 
  572.703,1056.26 572.703,1046.43 572.703,1036.76 572.703,1027.24 572.703,1017.87 572.703,1008.63 572.703,999.52 572.703,990.526 572.703,981.641 572.703,972.854 
  572.703,964.159 572.703,955.544 572.703,947.001 572.703,938.522 572.703,930.097 572.703,921.717 572.703,913.373 572.703,905.056 572.703,896.757 572.703,888.467 
  
  "/>
<polyline clip-path="url(#clip722)" style="stroke:#000000; stroke-linecap:butt; stroke-linejoin:round; stroke-width:4; stroke-opacity:1; fill:none" points="
  554.703,924.467 572.703,888.467 590.703,924.467 
  "/>
<polyline clip-path="url(#clip722)" style="stroke:#000000; stroke-linecap:butt; stroke-linejoin:round; stroke-width:4; stroke-opacity:1; fill:none" points="
  572.703,888.467 572.703,896.757 
  "/>
<path clip-path="url(#clip722)" d="
M1250.81 172.703 L1250.65 168.666 L1250.17 164.655 L1249.37 160.695 L1248.26 156.81 L1246.85 153.026 L1245.13 149.366 L1243.14 145.854 L1240.87 142.511 L1238.34 139.36 
  L1235.57 136.419 L1232.57 133.708 L1229.37 131.243 L1225.99 129.04 L1222.44 127.114 L1218.74 125.475 L1214.93 124.136 L1211.02 123.103 L1207.05 122.384 L1203.03 121.983 
  L1198.99 121.902 L1194.96 122.143 L1190.96 122.704 L1187.01 123.58 L1183.15 124.768 L1179.39 126.258 L1175.77 128.042 L1172.3 130.108 L1169 132.444 L1165.9 135.034 
  L1163.02 137.862 L1160.36 140.911 L1157.96 144.16 L1155.83 147.59 L1153.97 151.179 L1152.41 154.904 L1151.14 158.741 L1150.19 162.667 L1149.55 166.656 L1149.23 170.683 
  L1149.23 174.723 L1149.55 178.751 L1150.19 182.74 L1151.14 186.666 L1152.41 190.503 L1153.97 194.228 L1155.83 197.817 L1157.96 201.247 L1160.36 204.496 L1163.02 207.545 
  L1165.9 210.373 L1169 212.963 L1172.3 215.299 L1175.77 217.365 L1179.39 219.149 L1183.15 220.639 L1187.01 221.826 L1190.96 222.703 L1194.96 223.264 L1198.99 223.504 
  L1203.03 223.424 L1207.05 223.023 L1211.02 222.304 L1214.93 221.271 L1218.74 219.931 L1222.44 218.293 L1225.99 216.366 L1229.37 214.164 L1232.57 211.699 L1235.57 208.988 
  L1238.34 206.047 L1240.87 202.895 L1243.14 199.553 L1245.13 196.041 L1246.85 192.381 L1248.26 188.597 L1249.37 184.712 L1250.17 180.752 L1250.65 176.74 L1250.81 172.703 
  L1250.81 172.703  Z
  " fill="#808080" fill-rule="evenodd" fill-opacity="1"/>
<polyline clip-path="url(#clip722)" style="stroke:#000000; stroke-linecap:butt; stroke-linejoin:round; stroke-width:4; stroke-opacity:1; fill:none" points="
  1250.81,172.703 1250.65,168.666 1250.17,164.655 1249.37,160.695 1248.26,156.81 1246.85,153.026 1245.13,149.366 1243.14,145.854 1240.87,142.511 1238.34,139.36 
  1235.57,136.419 1232.57,133.708 1229.37,131.243 1225.99,129.04 1222.44,127.114 1218.74,125.475 1214.93,124.136 1211.02,123.103 1207.05,122.384 1203.03,121.983 
  1198.99,121.902 1194.96,122.143 1190.96,122.704 1187.01,123.58 1183.15,124.768 1179.39,126.258 1175.77,128.042 1172.3,130.108 1169,132.444 1165.9,135.034 
  1163.02,137.862 1160.36,140.911 1157.96,144.16 1155.83,147.59 1153.97,151.179 1152.41,154.904 1151.14,158.741 1150.19,162.667 1149.55,166.656 1149.23,170.683 
  1149.23,174.723 1149.55,178.751 1150.19,182.74 1151.14,186.666 1152.41,190.503 1153.97,194.228 1155.83,197.817 1157.96,201.247 1160.36,204.496 1163.02,207.545 
  1165.9,210.373 1169,212.963 1172.3,215.299 1175.77,217.365 1179.39,219.149 1183.15,220.639 1187.01,221.826 1190.96,222.703 1194.96,223.264 1198.99,223.504 
  1203.03,223.424 1207.05,223.023 1211.02,222.304 1214.93,221.271 1218.74,219.931 1222.44,218.293 1225.99,216.366 1229.37,214.164 1232.57,211.699 1235.57,208.988 
  1238.34,206.047 1240.87,202.895 1243.14,199.553 1245.13,196.041 1246.85,192.381 1248.26,188.597 1249.37,184.712 1250.17,180.752 1250.65,176.74 1250.81,172.703 
  
  "/>
<path clip-path="url(#clip722)" d="
M623.514 172.703 L623.354 168.666 L622.873 164.655 L622.075 160.695 L620.965 156.81 L619.549 153.026 L617.838 149.366 L615.841 145.854 L613.572 142.511 L611.044 139.36 
  L608.273 136.419 L605.278 133.708 L602.077 131.243 L598.69 129.04 L595.139 127.114 L591.446 125.475 L587.634 124.136 L583.728 123.103 L579.753 122.384 L575.733 121.983 
  L571.693 121.902 L567.66 122.143 L563.659 122.704 L559.715 123.58 L555.853 124.768 L552.098 126.258 L548.473 128.042 L545.002 130.108 L541.705 132.444 L538.604 135.034 
  L535.719 137.862 L533.068 140.911 L530.667 144.16 L528.532 147.59 L526.677 151.179 L525.112 154.904 L523.848 158.741 L522.893 162.667 L522.254 166.656 L521.933 170.683 
  L521.933 174.723 L522.254 178.751 L522.893 182.74 L523.848 186.666 L525.112 190.503 L526.677 194.228 L528.532 197.817 L530.667 201.247 L533.068 204.496 L535.719 207.545 
  L538.604 210.373 L541.705 212.963 L545.002 215.299 L548.473 217.365 L552.098 219.149 L555.853 220.639 L559.715 221.826 L563.659 222.703 L567.66 223.264 L571.693 223.504 
  L575.733 223.424 L579.753 223.023 L583.728 222.304 L587.634 221.271 L591.446 219.931 L595.139 218.293 L598.69 216.366 L602.077 214.164 L605.278 211.699 L608.273 208.988 
  L611.044 206.047 L613.572 202.895 L615.841 199.553 L617.838 196.041 L619.549 192.381 L620.965 188.597 L622.075 184.712 L622.873 180.752 L623.354 176.74 L623.514 172.703 
  L623.514 172.703  Z
  " fill="#808080" fill-rule="evenodd" fill-opacity="1"/>
<polyline clip-path="url(#clip722)" style="stroke:#000000; stroke-linecap:butt; stroke-linejoin:round; stroke-width:4; stroke-opacity:1; fill:none" points="
  623.514,172.703 623.354,168.666 622.873,164.655 622.075,160.695 620.965,156.81 619.549,153.026 617.838,149.366 615.841,145.854 613.572,142.511 611.044,139.36 
  608.273,136.419 605.278,133.708 602.077,131.243 598.69,129.04 595.139,127.114 591.446,125.475 587.634,124.136 583.728,123.103 579.753,122.384 575.733,121.983 
  571.693,121.902 567.66,122.143 563.659,122.704 559.715,123.58 555.853,124.768 552.098,126.258 548.473,128.042 545.002,130.108 541.705,132.444 538.604,135.034 
  535.719,137.862 533.068,140.911 530.667,144.16 528.532,147.59 526.677,151.179 525.112,154.904 523.848,158.741 522.893,162.667 522.254,166.656 521.933,170.683 
  521.933,174.723 522.254,178.751 522.893,182.74 523.848,186.666 525.112,190.503 526.677,194.228 528.532,197.817 530.667,201.247 533.068,204.496 535.719,207.545 
  538.604,210.373 541.705,212.963 545.002,215.299 548.473,217.365 552.098,219.149 555.853,220.639 559.715,221.826 563.659,222.703 567.66,223.264 571.693,223.504 
  575.733,223.424 579.753,223.023 583.728,222.304 587.634,221.271 591.446,219.931 595.139,218.293 598.69,216.366 602.077,214.164 605.278,211.699 608.273,208.988 
  611.044,206.047 613.572,202.895 615.841,199.553 617.838,196.041 619.549,192.381 620.965,188.597 622.075,184.712 622.873,180.752 623.354,176.74 623.514,172.703 
  
  "/>
<path clip-path="url(#clip722)" d="
M1878.11 172.703 L1877.95 168.666 L1877.47 164.655 L1876.67 160.695 L1875.56 156.81 L1874.14 153.026 L1872.43 149.366 L1870.43 145.854 L1868.16 142.511 L1865.64 139.36 
  L1862.87 136.419 L1859.87 133.708 L1856.67 131.243 L1853.28 129.04 L1849.73 127.114 L1846.04 125.475 L1842.23 124.136 L1838.32 123.103 L1834.35 122.384 L1830.33 121.983 
  L1826.29 121.902 L1822.25 122.143 L1818.25 122.704 L1814.31 123.58 L1810.45 124.768 L1806.69 126.258 L1803.07 128.042 L1799.59 130.108 L1796.3 132.444 L1793.2 135.034 
  L1790.31 137.862 L1787.66 140.911 L1785.26 144.16 L1783.13 147.59 L1781.27 151.179 L1779.71 154.904 L1778.44 158.741 L1777.49 162.667 L1776.85 166.656 L1776.53 170.683 
  L1776.53 174.723 L1776.85 178.751 L1777.49 182.74 L1778.44 186.666 L1779.71 190.503 L1781.27 194.228 L1783.13 197.817 L1785.26 201.247 L1787.66 204.496 L1790.31 207.545 
  L1793.2 210.373 L1796.3 212.963 L1799.59 215.299 L1803.07 217.365 L1806.69 219.149 L1810.45 220.639 L1814.31 221.826 L1818.25 222.703 L1822.25 223.264 L1826.29 223.504 
  L1830.33 223.424 L1834.35 223.023 L1838.32 222.304 L1842.23 221.271 L1846.04 219.931 L1849.73 218.293 L1853.28 216.366 L1856.67 214.164 L1859.87 211.699 L1862.87 208.988 
  L1865.64 206.047 L1868.16 202.895 L1870.43 199.553 L1872.43 196.041 L1874.14 192.381 L1875.56 188.597 L1876.67 184.712 L1877.47 180.752 L1877.95 176.74 L1878.11 172.703 
  L1878.11 172.703  Z
  " fill="#808080" fill-rule="evenodd" fill-opacity="1"/>
<polyline clip-path="url(#clip722)" style="stroke:#000000; stroke-linecap:butt; stroke-linejoin:round; stroke-width:4; stroke-opacity:1; fill:none" points="
  1878.11,172.703 1877.95,168.666 1877.47,164.655 1876.67,160.695 1875.56,156.81 1874.14,153.026 1872.43,149.366 1870.43,145.854 1868.16,142.511 1865.64,139.36 
  1862.87,136.419 1859.87,133.708 1856.67,131.243 1853.28,129.04 1849.73,127.114 1846.04,125.475 1842.23,124.136 1838.32,123.103 1834.35,122.384 1830.33,121.983 
  1826.29,121.902 1822.25,122.143 1818.25,122.704 1814.31,123.58 1810.45,124.768 1806.69,126.258 1803.07,128.042 1799.59,130.108 1796.3,132.444 1793.2,135.034 
  1790.31,137.862 1787.66,140.911 1785.26,144.16 1783.13,147.59 1781.27,151.179 1779.71,154.904 1778.44,158.741 1777.49,162.667 1776.85,166.656 1776.53,170.683 
  1776.53,174.723 1776.85,178.751 1777.49,182.74 1778.44,186.666 1779.71,190.503 1781.27,194.228 1783.13,197.817 1785.26,201.247 1787.66,204.496 1790.31,207.545 
  1793.2,210.373 1796.3,212.963 1799.59,215.299 1803.07,217.365 1806.69,219.149 1810.45,220.639 1814.31,221.826 1818.25,222.703 1822.25,223.264 1826.29,223.504 
  1830.33,223.424 1834.35,223.023 1838.32,222.304 1842.23,221.271 1846.04,219.931 1849.73,218.293 1853.28,216.366 1856.67,214.164 1859.87,211.699 1862.87,208.988 
  1865.64,206.047 1868.16,202.895 1870.43,199.553 1872.43,196.041 1874.14,192.381 1875.56,188.597 1876.67,184.712 1877.47,180.752 1877.95,176.74 1878.11,172.703 
  
  "/>
<path clip-path="url(#clip722)" d="
M1288.47 800 L1288.19 792.971 L1287.35 785.987 L1285.96 779.091 L1284.03 772.328 L1281.56 765.739 L1278.58 759.367 L1275.11 753.252 L1271.16 747.433 L1266.75 741.946 
  L1261.93 736.825 L1256.72 732.105 L1251.14 727.813 L1245.25 723.978 L1239.06 720.624 L1232.63 717.771 L1226 715.439 L1219.2 713.64 L1212.27 712.388 L1205.27 711.69 
  L1198.24 711.55 L1191.22 711.97 L1184.25 712.946 L1177.39 714.472 L1170.66 716.539 L1164.12 719.134 L1157.81 722.24 L1151.77 725.837 L1146.03 729.904 L1140.63 734.413 
  L1135.61 739.338 L1130.99 744.645 L1126.81 750.303 L1123.09 756.275 L1119.86 762.524 L1117.14 769.009 L1114.94 775.69 L1113.28 782.525 L1112.16 789.471 L1111.6 796.483 
  L1111.6 803.517 L1112.16 810.529 L1113.28 817.475 L1114.94 824.31 L1117.14 830.991 L1119.86 837.476 L1123.09 843.725 L1126.81 849.697 L1130.99 855.355 L1135.61 860.662 
  L1140.63 865.587 L1146.03 870.096 L1151.77 874.163 L1157.81 877.76 L1164.12 880.866 L1170.66 883.461 L1177.39 885.528 L1184.25 887.054 L1191.22 888.03 L1198.24 888.45 
  L1205.27 888.31 L1212.27 887.612 L1219.2 886.36 L1226 884.561 L1232.63 882.229 L1239.06 879.376 L1245.25 876.022 L1251.14 872.187 L1256.72 867.895 L1261.93 863.175 
  L1266.75 858.054 L1271.16 852.567 L1275.11 846.748 L1278.58 840.633 L1281.56 834.261 L1284.03 827.672 L1285.96 820.909 L1287.35 814.013 L1288.19 807.029 L1288.47 800 
  L1288.47 800  Z
  " fill="#808080" fill-rule="evenodd" fill-opacity="1"/>
<polyline clip-path="url(#clip722)" style="stroke:#000000; stroke-linecap:butt; stroke-linejoin:round; stroke-width:4; stroke-opacity:1; fill:none" points="
  1288.47,800 1288.19,792.971 1287.35,785.987 1285.96,779.091 1284.03,772.328 1281.56,765.739 1278.58,759.367 1275.11,753.252 1271.16,747.433 1266.75,741.946 
  1261.93,736.825 1256.72,732.105 1251.14,727.813 1245.25,723.978 1239.06,720.624 1232.63,717.771 1226,715.439 1219.2,713.64 1212.27,712.388 1205.27,711.69 
  1198.24,711.55 1191.22,711.97 1184.25,712.946 1177.39,714.472 1170.66,716.539 1164.12,719.134 1157.81,722.24 1151.77,725.837 1146.03,729.904 1140.63,734.413 
  1135.61,739.338 1130.99,744.645 1126.81,750.303 1123.09,756.275 1119.86,762.524 1117.14,769.009 1114.94,775.69 1113.28,782.525 1112.16,789.471 1111.6,796.483 
  1111.6,803.517 1112.16,810.529 1113.28,817.475 1114.94,824.31 1117.14,830.991 1119.86,837.476 1123.09,843.725 1126.81,849.697 1130.99,855.355 1135.61,860.662 
  1140.63,865.587 1146.03,870.096 1151.77,874.163 1157.81,877.76 1164.12,880.866 1170.66,883.461 1177.39,885.528 1184.25,887.054 1191.22,888.03 1198.24,888.45 
  1205.27,888.31 1212.27,887.612 1219.2,886.36 1226,884.561 1232.63,882.229 1239.06,879.376 1245.25,876.022 1251.14,872.187 1256.72,867.895 1261.93,863.175 
  1266.75,858.054 1271.16,852.567 1275.11,846.748 1278.58,840.633 1281.56,834.261 1284.03,827.672 1285.96,820.909 1287.35,814.013 1288.19,807.029 1288.47,800 
  
  "/>
<path clip-path="url(#clip722)" d="
M1915.76 800 L1915.48 792.971 L1914.65 785.987 L1913.26 779.091 L1911.32 772.328 L1908.86 765.739 L1905.88 759.367 L1902.4 753.252 L1898.45 747.433 L1894.05 741.946 
  L1889.23 736.825 L1884.01 732.105 L1878.44 727.813 L1872.54 723.978 L1866.36 720.624 L1859.93 717.771 L1853.29 715.439 L1846.49 713.64 L1839.57 712.388 L1832.57 711.69 
  L1825.54 711.55 L1818.52 711.97 L1811.55 712.946 L1804.68 714.472 L1797.96 716.539 L1791.42 719.134 L1785.11 722.24 L1779.06 725.837 L1773.32 729.904 L1767.93 734.413 
  L1762.9 739.338 L1758.29 744.645 L1754.11 750.303 L1750.39 756.275 L1747.16 762.524 L1744.44 769.009 L1742.24 775.69 L1740.57 782.525 L1739.46 789.471 L1738.9 796.483 
  L1738.9 803.517 L1739.46 810.529 L1740.57 817.475 L1742.24 824.31 L1744.44 830.991 L1747.16 837.476 L1750.39 843.725 L1754.11 849.697 L1758.29 855.355 L1762.9 860.662 
  L1767.93 865.587 L1773.32 870.096 L1779.06 874.163 L1785.11 877.76 L1791.42 880.866 L1797.96 883.461 L1804.68 885.528 L1811.55 887.054 L1818.52 888.03 L1825.54 888.45 
  L1832.57 888.31 L1839.57 887.612 L1846.49 886.36 L1853.29 884.561 L1859.93 882.229 L1866.36 879.376 L1872.54 876.022 L1878.44 872.187 L1884.01 867.895 L1889.23 863.175 
  L1894.05 858.054 L1898.45 852.567 L1902.4 846.748 L1905.88 840.633 L1908.86 834.261 L1911.32 827.672 L1913.26 820.909 L1914.65 814.013 L1915.48 807.029 L1915.76 800 
  L1915.76 800  Z
  " fill="#808080" fill-rule="evenodd" fill-opacity="1"/>
<polyline clip-path="url(#clip722)" style="stroke:#000000; stroke-linecap:butt; stroke-linejoin:round; stroke-width:4; stroke-opacity:1; fill:none" points="
  1915.76,800 1915.48,792.971 1914.65,785.987 1913.26,779.091 1911.32,772.328 1908.86,765.739 1905.88,759.367 1902.4,753.252 1898.45,747.433 1894.05,741.946 
  1889.23,736.825 1884.01,732.105 1878.44,727.813 1872.54,723.978 1866.36,720.624 1859.93,717.771 1853.29,715.439 1846.49,713.64 1839.57,712.388 1832.57,711.69 
  1825.54,711.55 1818.52,711.97 1811.55,712.946 1804.68,714.472 1797.96,716.539 1791.42,719.134 1785.11,722.24 1779.06,725.837 1773.32,729.904 1767.93,734.413 
  1762.9,739.338 1758.29,744.645 1754.11,750.303 1750.39,756.275 1747.16,762.524 1744.44,769.009 1742.24,775.69 1740.57,782.525 1739.46,789.471 1738.9,796.483 
  1738.9,803.517 1739.46,810.529 1740.57,817.475 1742.24,824.31 1744.44,830.991 1747.16,837.476 1750.39,843.725 1754.11,849.697 1758.29,855.355 1762.9,860.662 
  1767.93,865.587 1773.32,870.096 1779.06,874.163 1785.11,877.76 1791.42,880.866 1797.96,883.461 1804.68,885.528 1811.55,887.054 1818.52,888.03 1825.54,888.45 
  1832.57,888.31 1839.57,887.612 1846.49,886.36 1853.29,884.561 1859.93,882.229 1866.36,879.376 1872.54,876.022 1878.44,872.187 1884.01,867.895 1889.23,863.175 
  1894.05,858.054 1898.45,852.567 1902.4,846.748 1905.88,840.633 1908.86,834.261 1911.32,827.672 1913.26,820.909 1914.65,814.013 1915.48,807.029 1915.76,800 
  
  "/>
<path clip-path="url(#clip722)" d="
M661.171 800 L660.891 792.971 L660.054 785.987 L658.664 779.091 L656.731 772.328 L654.267 765.739 L651.287 759.367 L647.811 753.252 L643.859 747.433 L639.458 741.946 
  L634.634 736.825 L629.419 732.105 L623.846 727.813 L617.949 723.978 L611.766 720.624 L605.336 717.771 L598.7 715.439 L591.899 713.64 L584.977 712.388 L577.977 711.69 
  L570.944 711.55 L563.923 711.97 L556.956 712.946 L550.09 714.472 L543.366 716.539 L536.828 719.134 L530.516 722.24 L524.472 725.837 L518.732 729.904 L513.333 734.413 
  L508.31 739.338 L503.694 744.645 L499.514 750.303 L495.797 756.275 L492.566 762.524 L489.842 769.009 L487.642 775.69 L485.979 782.525 L484.865 789.471 L484.306 796.483 
  L484.306 803.517 L484.865 810.529 L485.979 817.475 L487.642 824.31 L489.842 830.991 L492.566 837.476 L495.797 843.725 L499.514 849.697 L503.694 855.355 L508.31 860.662 
  L513.333 865.587 L518.732 870.096 L524.472 874.163 L530.516 877.76 L536.828 880.866 L543.366 883.461 L550.09 885.528 L556.956 887.054 L563.923 888.03 L570.944 888.45 
  L577.977 888.31 L584.977 887.612 L591.899 886.36 L598.7 884.561 L605.336 882.229 L611.766 879.376 L617.949 876.022 L623.846 872.187 L629.419 867.895 L634.634 863.175 
  L639.458 858.054 L643.859 852.567 L647.811 846.748 L651.287 840.633 L654.267 834.261 L656.731 827.672 L658.664 820.909 L660.054 814.013 L660.891 807.029 L661.171 800 
  L661.171 800  Z
  " fill="#808080" fill-rule="evenodd" fill-opacity="1"/>
<polyline clip-path="url(#clip722)" style="stroke:#000000; stroke-linecap:butt; stroke-linejoin:round; stroke-width:4; stroke-opacity:1; fill:none" points="
  661.171,800 660.891,792.971 660.054,785.987 658.664,779.091 656.731,772.328 654.267,765.739 651.287,759.367 647.811,753.252 643.859,747.433 639.458,741.946 
  634.634,736.825 629.419,732.105 623.846,727.813 617.949,723.978 611.766,720.624 605.336,717.771 598.7,715.439 591.899,713.64 584.977,712.388 577.977,711.69 
  570.944,711.55 563.923,711.97 556.956,712.946 550.09,714.472 543.366,716.539 536.828,719.134 530.516,722.24 524.472,725.837 518.732,729.904 513.333,734.413 
  508.31,739.338 503.694,744.645 499.514,750.303 495.797,756.275 492.566,762.524 489.842,769.009 487.642,775.69 485.979,782.525 484.865,789.471 484.306,796.483 
  484.306,803.517 484.865,810.529 485.979,817.475 487.642,824.31 489.842,830.991 492.566,837.476 495.797,843.725 499.514,849.697 503.694,855.355 508.31,860.662 
  513.333,865.587 518.732,870.096 524.472,874.163 530.516,877.76 536.828,880.866 543.366,883.461 550.09,885.528 556.956,887.054 563.923,888.03 570.944,888.45 
  577.977,888.31 584.977,887.612 591.899,886.36 598.7,884.561 605.336,882.229 611.766,879.376 617.949,876.022 623.846,872.187 629.419,867.895 634.634,863.175 
  639.458,858.054 643.859,852.567 647.811,846.748 651.287,840.633 654.267,834.261 656.731,827.672 658.664,820.909 660.054,814.013 660.891,807.029 661.171,800 
  
  "/>
<path clip-path="url(#clip722)" d="
M1915.76 1427.3 L1915.48 1420.27 L1914.65 1413.28 L1913.26 1406.39 L1911.32 1399.62 L1908.86 1393.04 L1905.88 1386.66 L1902.4 1380.55 L1898.45 1374.73 L1894.05 1369.24 
  L1889.23 1364.12 L1884.01 1359.4 L1878.44 1355.11 L1872.54 1351.27 L1866.36 1347.92 L1859.93 1345.07 L1853.29 1342.74 L1846.49 1340.94 L1839.57 1339.68 L1832.57 1338.99 
  L1825.54 1338.85 L1818.52 1339.27 L1811.55 1340.24 L1804.68 1341.77 L1797.96 1343.84 L1791.42 1346.43 L1785.11 1349.54 L1779.06 1353.13 L1773.32 1357.2 L1767.93 1361.71 
  L1762.9 1366.63 L1758.29 1371.94 L1754.11 1377.6 L1750.39 1383.57 L1747.16 1389.82 L1744.44 1396.31 L1742.24 1402.99 L1740.57 1409.82 L1739.46 1416.77 L1738.9 1423.78 
  L1738.9 1430.81 L1739.46 1437.83 L1740.57 1444.77 L1742.24 1451.61 L1744.44 1458.29 L1747.16 1464.77 L1750.39 1471.02 L1754.11 1476.99 L1758.29 1482.65 L1762.9 1487.96 
  L1767.93 1492.88 L1773.32 1497.39 L1779.06 1501.46 L1785.11 1505.06 L1791.42 1508.16 L1797.96 1510.76 L1804.68 1512.82 L1811.55 1514.35 L1818.52 1515.33 L1825.54 1515.75 
  L1832.57 1515.61 L1839.57 1514.91 L1846.49 1513.66 L1853.29 1511.86 L1859.93 1509.53 L1866.36 1506.67 L1872.54 1503.32 L1878.44 1499.48 L1884.01 1495.19 L1889.23 1490.47 
  L1894.05 1485.35 L1898.45 1479.86 L1902.4 1474.04 L1905.88 1467.93 L1908.86 1461.56 L1911.32 1454.97 L1913.26 1448.21 L1914.65 1441.31 L1915.48 1434.33 L1915.76 1427.3 
  L1915.76 1427.3  Z
  " fill="#808080" fill-rule="evenodd" fill-opacity="1"/>
<polyline clip-path="url(#clip722)" style="stroke:#000000; stroke-linecap:butt; stroke-linejoin:round; stroke-width:4; stroke-opacity:1; fill:none" points="
  1915.76,1427.3 1915.48,1420.27 1914.65,1413.28 1913.26,1406.39 1911.32,1399.62 1908.86,1393.04 1905.88,1386.66 1902.4,1380.55 1898.45,1374.73 1894.05,1369.24 
  1889.23,1364.12 1884.01,1359.4 1878.44,1355.11 1872.54,1351.27 1866.36,1347.92 1859.93,1345.07 1853.29,1342.74 1846.49,1340.94 1839.57,1339.68 1832.57,1338.99 
  1825.54,1338.85 1818.52,1339.27 1811.55,1340.24 1804.68,1341.77 1797.96,1343.84 1791.42,1346.43 1785.11,1349.54 1779.06,1353.13 1773.32,1357.2 1767.93,1361.71 
  1762.9,1366.63 1758.29,1371.94 1754.11,1377.6 1750.39,1383.57 1747.16,1389.82 1744.44,1396.31 1742.24,1402.99 1740.57,1409.82 1739.46,1416.77 1738.9,1423.78 
  1738.9,1430.81 1739.46,1437.83 1740.57,1444.77 1742.24,1451.61 1744.44,1458.29 1747.16,1464.77 1750.39,1471.02 1754.11,1476.99 1758.29,1482.65 1762.9,1487.96 
  1767.93,1492.88 1773.32,1497.39 1779.06,1501.46 1785.11,1505.06 1791.42,1508.16 1797.96,1510.76 1804.68,1512.82 1811.55,1514.35 1818.52,1515.33 1825.54,1515.75 
  1832.57,1515.61 1839.57,1514.91 1846.49,1513.66 1853.29,1511.86 1859.93,1509.53 1866.36,1506.67 1872.54,1503.32 1878.44,1499.48 1884.01,1495.19 1889.23,1490.47 
  1894.05,1485.35 1898.45,1479.86 1902.4,1474.04 1905.88,1467.93 1908.86,1461.56 1911.32,1454.97 1913.26,1448.21 1914.65,1441.31 1915.48,1434.33 1915.76,1427.3 
  
  "/>
<path clip-path="url(#clip722)" d="
M661.171 1427.3 L660.891 1420.27 L660.054 1413.28 L658.664 1406.39 L656.731 1399.62 L654.267 1393.04 L651.287 1386.66 L647.811 1380.55 L643.859 1374.73 L639.458 1369.24 
  L634.634 1364.12 L629.419 1359.4 L623.846 1355.11 L617.949 1351.27 L611.766 1347.92 L605.336 1345.07 L598.7 1342.74 L591.899 1340.94 L584.977 1339.68 L577.977 1338.99 
  L570.944 1338.85 L563.923 1339.27 L556.956 1340.24 L550.09 1341.77 L543.366 1343.84 L536.828 1346.43 L530.516 1349.54 L524.472 1353.13 L518.732 1357.2 L513.333 1361.71 
  L508.31 1366.63 L503.694 1371.94 L499.514 1377.6 L495.797 1383.57 L492.566 1389.82 L489.842 1396.31 L487.642 1402.99 L485.979 1409.82 L484.865 1416.77 L484.306 1423.78 
  L484.306 1430.81 L484.865 1437.83 L485.979 1444.77 L487.642 1451.61 L489.842 1458.29 L492.566 1464.77 L495.797 1471.02 L499.514 1476.99 L503.694 1482.65 L508.31 1487.96 
  L513.333 1492.88 L518.732 1497.39 L524.472 1501.46 L530.516 1505.06 L536.828 1508.16 L543.366 1510.76 L550.09 1512.82 L556.956 1514.35 L563.923 1515.33 L570.944 1515.75 
  L577.977 1515.61 L584.977 1514.91 L591.899 1513.66 L598.7 1511.86 L605.336 1509.53 L611.766 1506.67 L617.949 1503.32 L623.846 1499.48 L629.419 1495.19 L634.634 1490.47 
  L639.458 1485.35 L643.859 1479.86 L647.811 1474.04 L651.287 1467.93 L654.267 1461.56 L656.731 1454.97 L658.664 1448.21 L660.054 1441.31 L660.891 1434.33 L661.171 1427.3 
  L661.171 1427.3  Z
  " fill="#808080" fill-rule="evenodd" fill-opacity="1"/>
<polyline clip-path="url(#clip722)" style="stroke:#000000; stroke-linecap:butt; stroke-linejoin:round; stroke-width:4; stroke-opacity:1; fill:none" points="
  661.171,1427.3 660.891,1420.27 660.054,1413.28 658.664,1406.39 656.731,1399.62 654.267,1393.04 651.287,1386.66 647.811,1380.55 643.859,1374.73 639.458,1369.24 
  634.634,1364.12 629.419,1359.4 623.846,1355.11 617.949,1351.27 611.766,1347.92 605.336,1345.07 598.7,1342.74 591.899,1340.94 584.977,1339.68 577.977,1338.99 
  570.944,1338.85 563.923,1339.27 556.956,1340.24 550.09,1341.77 543.366,1343.84 536.828,1346.43 530.516,1349.54 524.472,1353.13 518.732,1357.2 513.333,1361.71 
  508.31,1366.63 503.694,1371.94 499.514,1377.6 495.797,1383.57 492.566,1389.82 489.842,1396.31 487.642,1402.99 485.979,1409.82 484.865,1416.77 484.306,1423.78 
  484.306,1430.81 484.865,1437.83 485.979,1444.77 487.642,1451.61 489.842,1458.29 492.566,1464.77 495.797,1471.02 499.514,1476.99 503.694,1482.65 508.31,1487.96 
  513.333,1492.88 518.732,1497.39 524.472,1501.46 530.516,1505.06 536.828,1508.16 543.366,1510.76 550.09,1512.82 556.956,1514.35 563.923,1515.33 570.944,1515.75 
  577.977,1515.61 584.977,1514.91 591.899,1513.66 598.7,1511.86 605.336,1509.53 611.766,1506.67 617.949,1503.32 623.846,1499.48 629.419,1495.19 634.634,1490.47 
  639.458,1485.35 643.859,1479.86 647.811,1474.04 651.287,1467.93 654.267,1461.56 656.731,1454.97 658.664,1448.21 660.054,1441.31 660.891,1434.33 661.171,1427.3 
  
  "/>
<circle clip-path="url(#clip722)" cx="1200" cy="172.703" r="1" fill="#808080" fill-rule="evenodd" fill-opacity="1" stroke="#000000" stroke-opacity="1" stroke-width="3.2"/>
<circle clip-path="url(#clip722)" cx="572.703" cy="172.703" r="1" fill="#808080" fill-rule="evenodd" fill-opacity="1" stroke="#000000" stroke-opacity="1" stroke-width="3.2"/>
<circle clip-path="url(#clip722)" cx="1827.3" cy="172.703" r="1" fill="#808080" fill-rule="evenodd" fill-opacity="1" stroke="#000000" stroke-opacity="1" stroke-width="3.2"/>
<circle clip-path="url(#clip722)" cx="1200" cy="800" r="1" fill="#808080" fill-rule="evenodd" fill-opacity="1" stroke="#000000" stroke-opacity="1" stroke-width="3.2"/>
<circle clip-path="url(#clip722)" cx="1827.3" cy="800" r="1" fill="#808080" fill-rule="evenodd" fill-opacity="1" stroke="#000000" stroke-opacity="1" stroke-width="3.2"/>
<circle clip-path="url(#clip722)" cx="572.703" cy="800" r="1" fill="#808080" fill-rule="evenodd" fill-opacity="1" stroke="#000000" stroke-opacity="1" stroke-width="3.2"/>
<circle clip-path="url(#clip722)" cx="1827.3" cy="1427.3" r="1" fill="#808080" fill-rule="evenodd" fill-opacity="1" stroke="#000000" stroke-opacity="1" stroke-width="3.2"/>
<circle clip-path="url(#clip722)" cx="572.703" cy="1427.3" r="1" fill="#808080" fill-rule="evenodd" fill-opacity="1" stroke="#000000" stroke-opacity="1" stroke-width="3.2"/>
<path clip-path="url(#clip720)" d="M1180.24 151.103 L1188.95 151.103 L1199.97 180.501 L1211.05 151.103 L1219.76 151.103 L1219.76 194.303 L1214.06 194.303 L1214.06 156.37 L1202.92 185.999 L1197.05 185.999 L1185.91 156.37 L1185.91 194.303 L1180.24 194.303 L1180.24 151.103 Z" fill="#000000" fill-rule="evenodd" fill-opacity="1" /><path clip-path="url(#clip720)" d="M560.392 155.907 L560.392 189.5 L567.452 189.5 Q576.393 189.5 580.53 185.449 Q584.697 181.398 584.697 172.66 Q584.697 163.98 580.53 159.958 Q576.393 155.907 567.452 155.907 L560.392 155.907 M554.547 151.103 L566.555 151.103 Q579.113 151.103 584.986 156.341 Q590.86 161.549 590.86 172.66 Q590.86 183.829 584.957 189.066 Q579.055 194.303 566.555 194.303 L554.547 194.303 L554.547 151.103 Z" fill="#000000" fill-rule="evenodd" fill-opacity="1" /><path clip-path="url(#clip720)" d="M1809.08 151.103 L1815.36 151.103 L1827.34 168.87 L1839.23 151.103 L1845.51 151.103 L1830.23 173.731 L1830.23 194.303 L1824.36 194.303 L1824.36 173.731 L1809.08 151.103 Z" fill="#000000" fill-rule="evenodd" fill-opacity="1" /><path clip-path="url(#clip720)" d="M1166.67 778.4 L1172.95 778.4 L1183.68 794.459 L1194.47 778.4 L1200.75 778.4 L1186.86 799.146 L1201.68 821.6 L1195.4 821.6 L1183.25 803.226 L1171.01 821.6 L1164.7 821.6 L1180.12 798.539 L1166.67 778.4 Z" fill="#000000" fill-rule="evenodd" fill-opacity="1" /><path clip-path="url(#clip720)" d="M1214.9 816.681 L1235.3 816.681 L1235.3 821.6 L1207.87 821.6 L1207.87 816.681 Q1211.2 813.238 1216.93 807.451 Q1222.69 801.635 1224.16 799.957 Q1226.97 796.803 1228.07 794.633 Q1229.2 792.433 1229.2 790.321 Q1229.2 786.878 1226.76 784.708 Q1224.36 782.538 1220.49 782.538 Q1217.74 782.538 1214.67 783.493 Q1211.63 784.447 1208.16 786.386 L1208.16 780.483 Q1211.69 779.066 1214.76 778.342 Q1217.82 777.619 1220.37 777.619 Q1227.08 777.619 1231.08 780.975 Q1235.07 784.332 1235.07 789.945 Q1235.07 792.607 1234.06 795.009 Q1233.07 797.381 1230.44 800.622 Q1229.72 801.461 1225.84 805.483 Q1221.96 809.476 1214.9 816.681 Z" fill="#000000" fill-rule="evenodd" fill-opacity="1" /><path clip-path="url(#clip720)" d="M1793.37 778.4 L1799.65 778.4 L1810.38 794.459 L1821.18 778.4 L1827.46 778.4 L1813.57 799.146 L1828.38 821.6 L1822.1 821.6 L1809.95 803.226 L1797.71 821.6 L1791.4 821.6 L1806.83 798.539 L1793.37 778.4 Z" fill="#000000" fill-rule="evenodd" fill-opacity="1" /><path clip-path="url(#clip720)" d="M1854.28 798.307 Q1858.47 799.204 1860.82 802.04 Q1863.19 804.876 1863.19 809.042 Q1863.19 815.437 1858.79 818.938 Q1854.39 822.439 1846.29 822.439 Q1843.57 822.439 1840.68 821.889 Q1837.81 821.369 1834.75 820.298 L1834.75 814.656 Q1837.18 816.073 1840.07 816.797 Q1842.96 817.52 1846.12 817.52 Q1851.62 817.52 1854.48 815.35 Q1857.37 813.18 1857.37 809.042 Q1857.37 805.223 1854.68 803.082 Q1852.02 800.911 1847.25 800.911 L1842.21 800.911 L1842.21 796.108 L1847.48 796.108 Q1851.79 796.108 1854.08 794.401 Q1856.36 792.665 1856.36 789.424 Q1856.36 786.097 1853.99 784.332 Q1851.65 782.538 1847.25 782.538 Q1844.85 782.538 1842.1 783.059 Q1839.35 783.579 1836.05 784.679 L1836.05 779.471 Q1839.38 778.545 1842.27 778.082 Q1845.19 777.619 1847.77 777.619 Q1854.42 777.619 1858.3 780.657 Q1862.18 783.666 1862.18 788.817 Q1862.18 792.405 1860.12 794.893 Q1858.07 797.352 1854.28 798.307 Z" fill="#000000" fill-rule="evenodd" fill-opacity="1" /><path clip-path="url(#clip720)" d="M539.139 778.4 L545.418 778.4 L556.153 794.459 L566.945 778.4 L573.224 778.4 L559.335 799.146 L574.15 821.6 L567.871 821.6 L555.719 803.226 L543.479 821.6 L537.171 821.6 L552.594 798.539 L539.139 778.4 Z" fill="#000000" fill-rule="evenodd" fill-opacity="1" /><path clip-path="url(#clip720)" d="M583.352 816.681 L592.9 816.681 L592.9 783.724 L582.512 785.807 L582.512 780.483 L592.842 778.4 L598.687 778.4 L598.687 816.681 L608.236 816.681 L608.236 821.6 L583.352 821.6 L583.352 816.681 Z" fill="#000000" fill-rule="evenodd" fill-opacity="1" /><path clip-path="url(#clip720)" d="M1793.11 1405.7 L1827.05 1405.7 L1827.05 1410.15 L1799.74 1443.98 L1827.72 1443.98 L1827.72 1448.9 L1792.44 1448.9 L1792.44 1444.44 L1819.76 1410.62 L1793.11 1410.62 L1793.11 1405.7 Z" fill="#000000" fill-rule="evenodd" fill-opacity="1" /><path clip-path="url(#clip720)" d="M1841.75 1443.98 L1862.15 1443.98 L1862.15 1448.9 L1834.72 1448.9 L1834.72 1443.98 Q1838.05 1440.53 1843.78 1434.75 Q1849.53 1428.93 1851.01 1427.25 Q1853.82 1424.1 1854.92 1421.93 Q1856.04 1419.73 1856.04 1417.62 Q1856.04 1414.17 1853.61 1412 Q1851.21 1409.83 1847.33 1409.83 Q1844.59 1409.83 1841.52 1410.79 Q1838.48 1411.74 1835.01 1413.68 L1835.01 1407.78 Q1838.54 1406.36 1841.6 1405.64 Q1844.67 1404.92 1847.22 1404.92 Q1853.93 1404.92 1857.92 1408.27 Q1861.92 1411.63 1861.92 1417.24 Q1861.92 1419.9 1860.9 1422.31 Q1859.92 1424.68 1857.29 1427.92 Q1856.56 1428.76 1852.69 1432.78 Q1848.81 1436.77 1841.75 1443.98 Z" fill="#000000" fill-rule="evenodd" fill-opacity="1" /><path clip-path="url(#clip720)" d="M538.285 1405.7 L572.226 1405.7 L572.226 1410.15 L544.911 1443.98 L572.891 1443.98 L572.891 1448.9 L537.62 1448.9 L537.62 1444.44 L564.934 1410.62 L538.285 1410.62 L538.285 1405.7 Z" fill="#000000" fill-rule="evenodd" fill-opacity="1" /><path clip-path="url(#clip720)" d="M582.903 1443.98 L592.452 1443.98 L592.452 1411.02 L582.064 1413.1 L582.064 1407.78 L592.394 1405.7 L598.239 1405.7 L598.239 1443.98 L607.787 1443.98 L607.787 1448.9 L582.903 1448.9 L582.903 1443.98 Z" fill="#000000" fill-rule="evenodd" fill-opacity="1" /></svg>
