<?xml version="1.0" encoding="utf-8"?>
<svg xmlns="http://www.w3.org/2000/svg" xmlns:xlink="http://www.w3.org/1999/xlink" width="600" height="400" viewBox="0 0 2400 1600">
<defs>
  <clipPath id="clip660">
    <rect x="0" y="0" width="2400" height="1600"/>
  </clipPath>
</defs>
<path clip-path="url(#clip660)" d="
M0 1600 L2400 1600 L2400 0 L0 0  Z
  " fill="#ffffff" fill-rule="evenodd" fill-opacity="1"/>
<defs>
  <clipPath id="clip661">
    <rect x="480" y="0" width="1681" height="1600"/>
  </clipPath>
</defs>
<path clip-path="url(#clip660)" d="
M175.445 1423.18 L2352.76 1423.18 L2352.76 123.472 L175.445 123.472  Z
  " fill="#ffffff" fill-rule="evenodd" fill-opacity="1"/>
<defs>
  <clipPath id="clip662">
    <rect x="175" y="123" width="2178" height="1301"/>
  </clipPath>
</defs>
<polyline clip-path="url(#clip662)" style="stroke:#000000; stroke-linecap:butt; stroke-linejoin:round; stroke-width:2; stroke-opacity:0.1; fill:none" points="
  641.349,1423.18 641.349,123.472 
  "/>
<polyline clip-path="url(#clip662)" style="stroke:#000000; stroke-linecap:butt; stroke-linejoin:round; stroke-width:2; stroke-opacity:0.1; fill:none" points="
  1189.24,1423.18 1189.24,123.472 
  "/>
<polyline clip-path="url(#clip662)" style="stroke:#000000; stroke-linecap:butt; stroke-linejoin:round; stroke-width:2; stroke-opacity:0.1; fill:none" points="
  1737.13,1423.18 1737.13,123.472 
  "/>
<polyline clip-path="url(#clip662)" style="stroke:#000000; stroke-linecap:butt; stroke-linejoin:round; stroke-width:2; stroke-opacity:0.1; fill:none" points="
  2285.03,1423.18 2285.03,123.472 
  "/>
<polyline clip-path="url(#clip660)" style="stroke:#000000; stroke-linecap:butt; stroke-linejoin:round; stroke-width:4; stroke-opacity:1; fill:none" points="
  175.445,1423.18 2352.76,1423.18 
  "/>
<polyline clip-path="url(#clip660)" style="stroke:#000000; stroke-linecap:butt; stroke-linejoin:round; stroke-width:4; stroke-opacity:1; fill:none" points="
  641.349,1423.18 641.349,1404.28 
  "/>
<polyline clip-path="url(#clip660)" style="stroke:#000000; stroke-linecap:butt; stroke-linejoin:round; stroke-width:4; stroke-opacity:1; fill:none" points="
  1189.24,1423.18 1189.24,1404.28 
  "/>
<polyline clip-path="url(#clip660)" style="stroke:#000000; stroke-linecap:butt; stroke-linejoin:round; stroke-width:4; stroke-opacity:1; fill:none" points="
  1737.13,1423.18 1737.13,1404.28 
  "/>
<polyline clip-path="url(#clip660)" style="stroke:#000000; stroke-linecap:butt; stroke-linejoin:round; stroke-width:4; stroke-opacity:1; fill:none" points="
  2285.03,1423.18 2285.03,1404.28 
  "/>
<path clip-path="url(#clip660)" d="M636.002 1481.64 L652.322 1481.64 L652.322 1485.58 L630.377 1485.58 L630.377 1481.64 Q633.039 1478.89 637.623 1474.26 Q642.229 1469.61 643.41 1468.27 Q645.655 1465.74 646.535 1464.01 Q647.437 1462.25 647.437 1460.56 Q647.437 1457.8 645.493 1456.07 Q643.572 1454.33 640.47 1454.33 Q638.271 1454.33 635.817 1455.09 Q633.386 1455.86 630.609 1457.41 L630.609 1452.69 Q633.433 1451.55 635.886 1450.97 Q638.34 1450.39 640.377 1450.39 Q645.747 1450.39 648.942 1453.08 Q652.136 1455.77 652.136 1460.26 Q652.136 1462.39 651.326 1464.31 Q650.539 1466.2 648.433 1468.8 Q647.854 1469.47 644.752 1472.69 Q641.65 1475.88 636.002 1481.64 Z" fill="#000000" fill-rule="evenodd" fill-opacity="1" /><path clip-path="url(#clip660)" d="M1192.25 1455.09 L1180.45 1473.54 L1192.25 1473.54 L1192.25 1455.09 M1191.02 1451.02 L1196.9 1451.02 L1196.9 1473.54 L1201.83 1473.54 L1201.83 1477.43 L1196.9 1477.43 L1196.9 1485.58 L1192.25 1485.58 L1192.25 1477.43 L1176.65 1477.43 L1176.65 1472.92 L1191.02 1451.02 Z" fill="#000000" fill-rule="evenodd" fill-opacity="1" /><path clip-path="url(#clip660)" d="M1737.54 1466.44 Q1734.39 1466.44 1732.54 1468.59 Q1730.71 1470.74 1730.71 1474.49 Q1730.71 1478.22 1732.54 1480.39 Q1734.39 1482.55 1737.54 1482.55 Q1740.69 1482.55 1742.52 1480.39 Q1744.37 1478.22 1744.37 1474.49 Q1744.37 1470.74 1742.52 1468.59 Q1740.69 1466.44 1737.54 1466.44 M1746.82 1451.78 L1746.82 1456.04 Q1745.06 1455.21 1743.26 1454.77 Q1741.47 1454.33 1739.71 1454.33 Q1735.09 1454.33 1732.63 1457.45 Q1730.2 1460.58 1729.85 1466.9 Q1731.22 1464.89 1733.28 1463.82 Q1735.34 1462.73 1737.82 1462.73 Q1743.03 1462.73 1746.03 1465.9 Q1749.07 1469.05 1749.07 1474.49 Q1749.07 1479.82 1745.92 1483.03 Q1742.77 1486.25 1737.54 1486.25 Q1731.54 1486.25 1728.37 1481.67 Q1725.2 1477.06 1725.2 1468.33 Q1725.2 1460.14 1729.09 1455.28 Q1732.98 1450.39 1739.53 1450.39 Q1741.29 1450.39 1743.07 1450.74 Q1744.88 1451.09 1746.82 1451.78 Z" fill="#000000" fill-rule="evenodd" fill-opacity="1" /><path clip-path="url(#clip660)" d="M2285.03 1469.17 Q2281.69 1469.17 2279.77 1470.95 Q2277.87 1472.73 2277.87 1475.86 Q2277.87 1478.98 2279.77 1480.77 Q2281.69 1482.55 2285.03 1482.55 Q2288.36 1482.55 2290.28 1480.77 Q2292.2 1478.96 2292.2 1475.86 Q2292.2 1472.73 2290.28 1470.95 Q2288.38 1469.17 2285.03 1469.17 M2280.35 1467.18 Q2277.34 1466.44 2275.65 1464.38 Q2273.98 1462.32 2273.98 1459.35 Q2273.98 1455.21 2276.92 1452.8 Q2279.89 1450.39 2285.03 1450.39 Q2290.19 1450.39 2293.13 1452.8 Q2296.07 1455.21 2296.07 1459.35 Q2296.07 1462.32 2294.38 1464.38 Q2292.71 1466.44 2289.73 1467.18 Q2293.1 1467.96 2294.98 1470.26 Q2296.88 1472.55 2296.88 1475.86 Q2296.88 1480.88 2293.8 1483.57 Q2290.74 1486.25 2285.03 1486.25 Q2279.31 1486.25 2276.23 1483.57 Q2273.17 1480.88 2273.17 1475.86 Q2273.17 1472.55 2275.07 1470.26 Q2276.97 1467.96 2280.35 1467.18 M2278.64 1459.79 Q2278.64 1462.48 2280.3 1463.98 Q2281.99 1465.49 2285.03 1465.49 Q2288.04 1465.49 2289.73 1463.98 Q2291.44 1462.48 2291.44 1459.79 Q2291.44 1457.11 2289.73 1455.6 Q2288.04 1454.1 2285.03 1454.1 Q2281.99 1454.1 2280.3 1455.6 Q2278.64 1457.11 2278.64 1459.79 Z" fill="#000000" fill-rule="evenodd" fill-opacity="1" /><path clip-path="url(#clip660)" d="M1226.26 1549.81 Q1226.26 1543.44 1223.61 1539.94 Q1221 1536.44 1216.26 1536.44 Q1211.55 1536.44 1208.91 1539.94 Q1206.3 1543.44 1206.3 1549.81 Q1206.3 1556.14 1208.91 1559.64 Q1211.55 1563.14 1216.26 1563.14 Q1221 1563.14 1223.61 1559.64 Q1226.26 1556.14 1226.26 1549.81 M1232.11 1563.62 Q1232.11 1572.72 1228.07 1577.15 Q1224.03 1581.6 1215.69 1581.6 Q1212.6 1581.6 1209.86 1581.13 Q1207.13 1580.68 1204.55 1579.72 L1204.55 1574.03 Q1207.13 1575.43 1209.64 1576.1 Q1212.16 1576.76 1214.77 1576.76 Q1220.53 1576.76 1223.39 1573.74 Q1226.26 1570.75 1226.26 1564.67 L1226.26 1561.77 Q1224.44 1564.92 1221.61 1566.48 Q1218.78 1568.04 1214.83 1568.04 Q1208.27 1568.04 1204.26 1563.05 Q1200.25 1558.05 1200.25 1549.81 Q1200.25 1541.53 1204.26 1536.53 Q1208.27 1531.54 1214.83 1531.54 Q1218.78 1531.54 1221.61 1533.1 Q1224.44 1534.66 1226.26 1537.81 L1226.26 1532.4 L1232.11 1532.4 L1232.11 1563.62 Z" fill="#000000" fill-rule="evenodd" fill-opacity="1" /><path clip-path="url(#clip660)" d="M1258.24 1518.58 Q1253.98 1525.9 1251.91 1533.06 Q1249.84 1540.23 1249.84 1547.58 Q1249.84 1554.93 1251.91 1562.16 Q1254.01 1569.35 1258.24 1576.64 L1253.15 1576.64 Q1248.38 1569.16 1245.99 1561.93 Q1243.63 1554.71 1243.63 1547.58 Q1243.63 1540.48 1245.99 1533.29 Q1248.35 1526.09 1253.15 1518.58 L1258.24 1518.58 Z" fill="#000000" fill-rule="evenodd" fill-opacity="1" /><path clip-path="url(#clip660)" d="M1267.57 1520.52 L1274.48 1520.52 L1286.29 1538.19 L1298.16 1520.52 L1305.06 1520.52 L1289.79 1543.34 L1306.08 1568.04 L1299.18 1568.04 L1285.81 1547.83 L1272.34 1568.04 L1265.41 1568.04 L1282.37 1542.68 L1267.57 1520.52 Z" fill="#000000" fill-rule="evenodd" fill-opacity="1" /><path clip-path="url(#clip660)" d="M1313.34 1518.58 L1318.43 1518.58 Q1323.21 1526.09 1325.56 1533.29 Q1327.95 1540.48 1327.95 1547.58 Q1327.95 1554.71 1325.56 1561.93 Q1323.21 1569.16 1318.43 1576.64 L1313.34 1576.64 Q1317.57 1569.35 1319.64 1562.16 Q1321.74 1554.93 1321.74 1547.58 Q1321.74 1540.23 1319.64 1533.06 Q1317.57 1525.9 1313.34 1518.58 Z" fill="#000000" fill-rule="evenodd" fill-opacity="1" /><polyline clip-path="url(#clip662)" style="stroke:#000000; stroke-linecap:butt; stroke-linejoin:round; stroke-width:2; stroke-opacity:0.1; fill:none" points="
  175.445,1280.84 2352.76,1280.84 
  "/>
<polyline clip-path="url(#clip662)" style="stroke:#000000; stroke-linecap:butt; stroke-linejoin:round; stroke-width:2; stroke-opacity:0.1; fill:none" points="
  175.445,1034.64 2352.76,1034.64 
  "/>
<polyline clip-path="url(#clip662)" style="stroke:#000000; stroke-linecap:butt; stroke-linejoin:round; stroke-width:2; stroke-opacity:0.1; fill:none" points="
  175.445,788.443 2352.76,788.443 
  "/>
<polyline clip-path="url(#clip662)" style="stroke:#000000; stroke-linecap:butt; stroke-linejoin:round; stroke-width:2; stroke-opacity:0.1; fill:none" points="
  175.445,542.246 2352.76,542.246 
  "/>
<polyline clip-path="url(#clip662)" style="stroke:#000000; stroke-linecap:butt; stroke-linejoin:round; stroke-width:2; stroke-opacity:0.1; fill:none" points="
  175.445,296.048 2352.76,296.048 
  "/>
<polyline clip-path="url(#clip660)" style="stroke:#000000; stroke-linecap:butt; stroke-linejoin:round; stroke-width:4; stroke-opacity:1; fill:none" points="
  175.445,1423.18 175.445,123.472 
  "/>
<polyline clip-path="url(#clip660)" style="stroke:#000000; stroke-linecap:butt; stroke-linejoin:round; stroke-width:4; stroke-opacity:1; fill:none" points="
  175.445,1280.84 194.343,1280.84 
  "/>
<polyline clip-path="url(#clip660)" style="stroke:#000000; stroke-linecap:butt; stroke-linejoin:round; stroke-width:4; stroke-opacity:1; fill:none" points="
  175.445,1034.64 194.343,1034.64 
  "/>
<polyline clip-path="url(#clip660)" style="stroke:#000000; stroke-linecap:butt; stroke-linejoin:round; stroke-width:4; stroke-opacity:1; fill:none" points="
  175.445,788.443 194.343,788.443 
  "/>
<polyline clip-path="url(#clip660)" style="stroke:#000000; stroke-linecap:butt; stroke-linejoin:round; stroke-width:4; stroke-opacity:1; fill:none" points="
  175.445,542.246 194.343,542.246 
  "/>
<polyline clip-path="url(#clip660)" style="stroke:#000000; stroke-linecap:butt; stroke-linejoin:round; stroke-width:4; stroke-opacity:1; fill:none" points="
  175.445,296.048 194.343,296.048 
  "/>
<path clip-path="url(#clip660)" d="M127.501 1266.64 Q123.89 1266.64 122.061 1270.2 Q120.255 1273.74 120.255 1280.87 Q120.255 1287.98 122.061 1291.54 Q123.89 1295.09 127.501 1295.09 Q131.135 1295.09 132.941 1291.54 Q134.769 1287.98 134.769 1280.87 Q134.769 1273.74 132.941 1270.2 Q131.135 1266.64 127.501 1266.64 M127.501 1262.93 Q133.311 1262.93 136.367 1267.54 Q139.445 1272.12 139.445 1280.87 Q139.445 1289.6 136.367 1294.21 Q133.311 1298.79 127.501 1298.79 Q121.691 1298.79 118.612 1294.21 Q115.556 1289.6 115.556 1280.87 Q115.556 1272.12 118.612 1267.54 Q121.691 1262.93 127.501 1262.93 Z" fill="#000000" fill-rule="evenodd" fill-opacity="1" /><path clip-path="url(#clip660)" d="M123.126 1047.99 L139.445 1047.99 L139.445 1051.92 L117.501 1051.92 L117.501 1047.99 Q120.163 1045.23 124.746 1040.6 Q129.353 1035.95 130.533 1034.61 Q132.779 1032.08 133.658 1030.35 Q134.561 1028.59 134.561 1026.9 Q134.561 1024.14 132.617 1022.41 Q130.695 1020.67 127.593 1020.67 Q125.394 1020.67 122.941 1021.43 Q120.51 1022.2 117.732 1023.75 L117.732 1019.03 Q120.556 1017.89 123.01 1017.31 Q125.464 1016.74 127.501 1016.74 Q132.871 1016.74 136.066 1019.42 Q139.26 1022.11 139.26 1026.6 Q139.26 1028.73 138.45 1030.65 Q137.663 1032.55 135.556 1035.14 Q134.978 1035.81 131.876 1039.03 Q128.774 1042.22 123.126 1047.99 Z" fill="#000000" fill-rule="evenodd" fill-opacity="1" /><path clip-path="url(#clip660)" d="M129.862 775.237 L118.056 793.686 L129.862 793.686 L129.862 775.237 M128.635 771.163 L134.515 771.163 L134.515 793.686 L139.445 793.686 L139.445 797.575 L134.515 797.575 L134.515 805.723 L129.862 805.723 L129.862 797.575 L114.26 797.575 L114.26 793.061 L128.635 771.163 Z" fill="#000000" fill-rule="evenodd" fill-opacity="1" /><path clip-path="url(#clip660)" d="M127.917 540.382 Q124.769 540.382 122.918 542.535 Q121.089 544.688 121.089 548.438 Q121.089 552.165 122.918 554.341 Q124.769 556.493 127.917 556.493 Q131.066 556.493 132.894 554.341 Q134.746 552.165 134.746 548.438 Q134.746 544.688 132.894 542.535 Q131.066 540.382 127.917 540.382 M137.2 525.73 L137.2 529.989 Q135.441 529.155 133.635 528.716 Q131.853 528.276 130.093 528.276 Q125.464 528.276 123.01 531.401 Q120.58 534.526 120.232 540.845 Q121.598 538.831 123.658 537.767 Q125.718 536.679 128.195 536.679 Q133.404 536.679 136.413 539.85 Q139.445 542.998 139.445 548.438 Q139.445 553.762 136.297 556.979 Q133.149 560.197 127.917 560.197 Q121.922 560.197 118.751 555.614 Q115.58 551.007 115.58 542.28 Q115.58 534.086 119.468 529.225 Q123.357 524.341 129.908 524.341 Q131.667 524.341 133.45 524.688 Q135.255 525.035 137.2 525.73 Z" fill="#000000" fill-rule="evenodd" fill-opacity="1" /><path clip-path="url(#clip660)" d="M127.593 296.916 Q124.26 296.916 122.339 298.699 Q120.441 300.481 120.441 303.606 Q120.441 306.731 122.339 308.513 Q124.26 310.296 127.593 310.296 Q130.927 310.296 132.848 308.513 Q134.769 306.708 134.769 303.606 Q134.769 300.481 132.848 298.699 Q130.95 296.916 127.593 296.916 M122.918 294.925 Q119.908 294.185 118.218 292.125 Q116.552 290.064 116.552 287.101 Q116.552 282.958 119.492 280.551 Q122.455 278.143 127.593 278.143 Q132.755 278.143 135.695 280.551 Q138.635 282.958 138.635 287.101 Q138.635 290.064 136.945 292.125 Q135.279 294.185 132.292 294.925 Q135.672 295.712 137.547 298.004 Q139.445 300.296 139.445 303.606 Q139.445 308.629 136.367 311.314 Q133.311 313.999 127.593 313.999 Q121.876 313.999 118.797 311.314 Q115.742 308.629 115.742 303.606 Q115.742 300.296 117.64 298.004 Q119.538 295.712 122.918 294.925 M121.205 287.541 Q121.205 290.226 122.871 291.731 Q124.561 293.236 127.593 293.236 Q130.603 293.236 132.292 291.731 Q134.005 290.226 134.005 287.541 Q134.005 284.856 132.292 283.351 Q130.603 281.847 127.593 281.847 Q124.561 281.847 122.871 283.351 Q121.205 284.856 121.205 287.541 Z" fill="#000000" fill-rule="evenodd" fill-opacity="1" /><path clip-path="url(#clip660)" d="M16.4842 793.362 L16.4842 786.455 L36.0269 773.278 L16.4842 760.197 L16.4842 753.29 L41.3741 770.095 L64.0042 770.095 L64.0042 776.557 L41.3741 776.557 L16.4842 793.362 Z" fill="#000000" fill-rule="evenodd" fill-opacity="1" /><path clip-path="url(#clip660)" d="M1082.6 12.096 L1091.39 12.096 L1108.16 36.9686 L1124.81 12.096 L1133.6 12.096 L1112.21 43.7741 L1112.21 72.576 L1103.99 72.576 L1103.99 43.7741 L1082.6 12.096 Z" fill="#000000" fill-rule="evenodd" fill-opacity="1" /><path clip-path="url(#clip660)" d="M1162.28 27.2059 L1170.18 27.2059 L1184.36 65.2844 L1198.54 27.2059 L1206.44 27.2059 L1189.42 72.576 L1179.29 72.576 L1162.28 27.2059 Z" fill="#000000" fill-rule="evenodd" fill-opacity="1" /><path clip-path="url(#clip660)" d="M1245.65 28.5427 L1245.65 35.5912 Q1242.49 33.9709 1239.09 33.1607 Q1235.68 32.3505 1232.04 32.3505 Q1226.49 32.3505 1223.69 34.0519 Q1220.94 35.7533 1220.94 39.156 Q1220.94 41.7486 1222.92 43.2475 Q1224.91 44.7058 1230.9 46.0426 L1233.46 46.6097 Q1241.4 48.3111 1244.72 51.4303 Q1248.08 54.509 1248.08 60.0587 Q1248.08 66.3781 1243.06 70.0644 Q1238.07 73.7508 1229.32 73.7508 Q1225.68 73.7508 1221.71 73.0216 Q1217.78 72.3329 1213.4 70.9151 L1213.4 63.2184 Q1217.54 65.3654 1221.55 66.4591 Q1225.56 67.5124 1229.49 67.5124 Q1234.75 67.5124 1237.59 65.73 Q1240.42 63.9071 1240.42 60.6258 Q1240.42 57.5877 1238.36 55.9673 Q1236.33 54.3469 1229.4 52.8481 L1226.81 52.2405 Q1219.88 50.7821 1216.81 47.7845 Q1213.73 44.7463 1213.73 39.4801 Q1213.73 33.0797 1218.26 29.5959 Q1222.8 26.1121 1231.15 26.1121 Q1235.28 26.1121 1238.92 26.7198 Q1242.57 27.3274 1245.65 28.5427 Z" fill="#000000" fill-rule="evenodd" fill-opacity="1" /><path clip-path="url(#clip660)" d="M1316.17 49.3643 Q1316.17 41.2625 1312.81 36.8065 Q1309.49 32.3505 1303.46 32.3505 Q1297.46 32.3505 1294.1 36.8065 Q1290.78 41.2625 1290.78 49.3643 Q1290.78 57.4256 1294.1 61.8816 Q1297.46 66.3376 1303.46 66.3376 Q1309.49 66.3376 1312.81 61.8816 Q1316.17 57.4256 1316.17 49.3643 M1323.63 66.9452 Q1323.63 78.5308 1318.48 84.1616 Q1313.34 89.8329 1302.73 89.8329 Q1298.8 89.8329 1295.31 89.2252 Q1291.83 88.6581 1288.55 87.4428 L1288.55 80.1917 Q1291.83 81.9741 1295.03 82.8248 Q1298.23 83.6755 1301.55 83.6755 Q1308.88 83.6755 1312.53 79.8271 Q1316.17 76.0193 1316.17 68.282 L1316.17 64.5957 Q1313.87 68.6061 1310.26 70.5911 Q1306.66 72.576 1301.63 72.576 Q1293.29 72.576 1288.18 66.2161 Q1283.08 59.8562 1283.08 49.3643 Q1283.08 38.832 1288.18 32.472 Q1293.29 26.1121 1301.63 26.1121 Q1306.66 26.1121 1310.26 28.0971 Q1313.87 30.082 1316.17 34.0924 L1316.17 27.2059 L1323.63 27.2059 L1323.63 66.9452 Z" fill="#000000" fill-rule="evenodd" fill-opacity="1" /><path clip-path="url(#clip660)" d="M1356.89 9.62495 Q1351.46 18.942 1348.83 28.0566 Q1346.19 37.1711 1346.19 46.5287 Q1346.19 55.8863 1348.83 65.0818 Q1351.5 74.2369 1356.89 83.5134 L1350.41 83.5134 Q1344.33 73.9938 1341.29 64.7983 Q1338.29 55.6027 1338.29 46.5287 Q1338.29 37.4952 1341.29 28.3401 Q1344.29 19.1851 1350.41 9.62495 L1356.89 9.62495 Z" fill="#000000" fill-rule="evenodd" fill-opacity="1" /><path clip-path="url(#clip660)" d="M1368.76 12.096 L1377.55 12.096 L1392.57 34.5785 L1407.68 12.096 L1416.48 12.096 L1397.03 41.141 L1417.77 72.576 L1408.98 72.576 L1391.97 46.8528 L1374.83 72.576 L1366 72.576 L1387.59 40.2903 L1368.76 12.096 Z" fill="#000000" fill-rule="evenodd" fill-opacity="1" /><path clip-path="url(#clip660)" d="M1427.01 9.62495 L1433.49 9.62495 Q1439.57 19.1851 1442.56 28.3401 Q1445.6 37.4952 1445.6 46.5287 Q1445.6 55.6027 1442.56 64.7983 Q1439.57 73.9938 1433.49 83.5134 L1427.01 83.5134 Q1432.4 74.2369 1435.03 65.0818 Q1437.7 55.8863 1437.7 46.5287 Q1437.7 37.1711 1435.03 28.0566 Q1432.4 18.942 1427.01 9.62495 Z" fill="#000000" fill-rule="evenodd" fill-opacity="1" /><circle clip-path="url(#clip662)" cx="618.107" cy="1065.8" r="14.4" fill="#009af9" fill-rule="evenodd" fill-opacity="1" stroke="#000000" stroke-opacity="1" stroke-width="3.2"/>
<circle clip-path="url(#clip662)" cx="511.255" cy="964.846" r="14.4" fill="#009af9" fill-rule="evenodd" fill-opacity="1" stroke="#000000" stroke-opacity="1" stroke-width="3.2"/>
<circle clip-path="url(#clip662)" cx="2226.85" cy="264.739" r="14.4" fill="#009af9" fill-rule="evenodd" fill-opacity="1" stroke="#000000" stroke-opacity="1" stroke-width="3.2"/>
<circle clip-path="url(#clip662)" cx="380.359" cy="1234.71" r="14.4" fill="#009af9" fill-rule="evenodd" fill-opacity="1" stroke="#000000" stroke-opacity="1" stroke-width="3.2"/>
<circle clip-path="url(#clip662)" cx="494.825" cy="927.369" r="14.4" fill="#009af9" fill-rule="evenodd" fill-opacity="1" stroke="#000000" stroke-opacity="1" stroke-width="3.2"/>
<circle clip-path="url(#clip662)" cx="782.394" cy="1046.78" r="14.4" fill="#009af9" fill-rule="evenodd" fill-opacity="1" stroke="#000000" stroke-opacity="1" stroke-width="3.2"/>
<circle clip-path="url(#clip662)" cx="1241.6" cy="667.301" r="14.4" fill="#009af9" fill-rule="evenodd" fill-opacity="1" stroke="#000000" stroke-opacity="1" stroke-width="3.2"/>
<circle clip-path="url(#clip662)" cx="2098.9" cy="294.123" r="14.4" fill="#009af9" fill-rule="evenodd" fill-opacity="1" stroke="#000000" stroke-opacity="1" stroke-width="3.2"/>
<circle clip-path="url(#clip662)" cx="1336.14" cy="799.881" r="14.4" fill="#009af9" fill-rule="evenodd" fill-opacity="1" stroke="#000000" stroke-opacity="1" stroke-width="3.2"/>
<circle clip-path="url(#clip662)" cx="862.883" cy="925.461" r="14.4" fill="#009af9" fill-rule="evenodd" fill-opacity="1" stroke="#000000" stroke-opacity="1" stroke-width="3.2"/>
<circle clip-path="url(#clip662)" cx="659.374" cy="1047.6" r="14.4" fill="#009af9" fill-rule="evenodd" fill-opacity="1" stroke="#000000" stroke-opacity="1" stroke-width="3.2"/>
<circle clip-path="url(#clip662)" cx="673.739" cy="1074.58" r="14.4" fill="#009af9" fill-rule="evenodd" fill-opacity="1" stroke="#000000" stroke-opacity="1" stroke-width="3.2"/>
<circle clip-path="url(#clip662)" cx="1094.8" cy="850.479" r="14.4" fill="#009af9" fill-rule="evenodd" fill-opacity="1" stroke="#000000" stroke-opacity="1" stroke-width="3.2"/>
<circle clip-path="url(#clip662)" cx="237.067" cy="1361.32" r="14.4" fill="#009af9" fill-rule="evenodd" fill-opacity="1" stroke="#000000" stroke-opacity="1" stroke-width="3.2"/>
<circle clip-path="url(#clip662)" cx="1209.55" cy="902.692" r="14.4" fill="#009af9" fill-rule="evenodd" fill-opacity="1" stroke="#000000" stroke-opacity="1" stroke-width="3.2"/>
<circle clip-path="url(#clip662)" cx="1415.05" cy="598.39" r="14.4" fill="#009af9" fill-rule="evenodd" fill-opacity="1" stroke="#000000" stroke-opacity="1" stroke-width="3.2"/>
<circle clip-path="url(#clip662)" cx="2094.13" cy="403.248" r="14.4" fill="#009af9" fill-rule="evenodd" fill-opacity="1" stroke="#000000" stroke-opacity="1" stroke-width="3.2"/>
<circle clip-path="url(#clip662)" cx="486.704" cy="1183.17" r="14.4" fill="#009af9" fill-rule="evenodd" fill-opacity="1" stroke="#000000" stroke-opacity="1" stroke-width="3.2"/>
<circle clip-path="url(#clip662)" cx="1074.59" cy="774.55" r="14.4" fill="#009af9" fill-rule="evenodd" fill-opacity="1" stroke="#000000" stroke-opacity="1" stroke-width="3.2"/>
<circle clip-path="url(#clip662)" cx="2002.36" cy="303.091" r="14.4" fill="#009af9" fill-rule="evenodd" fill-opacity="1" stroke="#000000" stroke-opacity="1" stroke-width="3.2"/>
<circle clip-path="url(#clip662)" cx="533.859" cy="1184.25" r="14.4" fill="#009af9" fill-rule="evenodd" fill-opacity="1" stroke="#000000" stroke-opacity="1" stroke-width="3.2"/>
<circle clip-path="url(#clip662)" cx="450.163" cy="1070.76" r="14.4" fill="#009af9" fill-rule="evenodd" fill-opacity="1" stroke="#000000" stroke-opacity="1" stroke-width="3.2"/>
<circle clip-path="url(#clip662)" cx="2249.52" cy="378.503" r="14.4" fill="#009af9" fill-rule="evenodd" fill-opacity="1" stroke="#000000" stroke-opacity="1" stroke-width="3.2"/>
<circle clip-path="url(#clip662)" cx="984.831" cy="681.657" r="14.4" fill="#009af9" fill-rule="evenodd" fill-opacity="1" stroke="#000000" stroke-opacity="1" stroke-width="3.2"/>
<circle clip-path="url(#clip662)" cx="593.191" cy="1063.51" r="14.4" fill="#009af9" fill-rule="evenodd" fill-opacity="1" stroke="#000000" stroke-opacity="1" stroke-width="3.2"/>
<circle clip-path="url(#clip662)" cx="1146.39" cy="901.078" r="14.4" fill="#009af9" fill-rule="evenodd" fill-opacity="1" stroke="#000000" stroke-opacity="1" stroke-width="3.2"/>
<circle clip-path="url(#clip662)" cx="288.056" cy="1147.34" r="14.4" fill="#009af9" fill-rule="evenodd" fill-opacity="1" stroke="#000000" stroke-opacity="1" stroke-width="3.2"/>
<circle clip-path="url(#clip662)" cx="374.932" cy="930.399" r="14.4" fill="#009af9" fill-rule="evenodd" fill-opacity="1" stroke="#000000" stroke-opacity="1" stroke-width="3.2"/>
<circle clip-path="url(#clip662)" cx="268.784" cy="1065.41" r="14.4" fill="#009af9" fill-rule="evenodd" fill-opacity="1" stroke="#000000" stroke-opacity="1" stroke-width="3.2"/>
<circle clip-path="url(#clip662)" cx="1538.49" cy="588.666" r="14.4" fill="#009af9" fill-rule="evenodd" fill-opacity="1" stroke="#000000" stroke-opacity="1" stroke-width="3.2"/>
<circle clip-path="url(#clip662)" cx="457.589" cy="1223.07" r="14.4" fill="#009af9" fill-rule="evenodd" fill-opacity="1" stroke="#000000" stroke-opacity="1" stroke-width="3.2"/>
<circle clip-path="url(#clip662)" cx="872.938" cy="972.737" r="14.4" fill="#009af9" fill-rule="evenodd" fill-opacity="1" stroke="#000000" stroke-opacity="1" stroke-width="3.2"/>
<circle clip-path="url(#clip662)" cx="397.076" cy="1192.13" r="14.4" fill="#009af9" fill-rule="evenodd" fill-opacity="1" stroke="#000000" stroke-opacity="1" stroke-width="3.2"/>
<circle clip-path="url(#clip662)" cx="1644.97" cy="539.491" r="14.4" fill="#009af9" fill-rule="evenodd" fill-opacity="1" stroke="#000000" stroke-opacity="1" stroke-width="3.2"/>
<circle clip-path="url(#clip662)" cx="2042.06" cy="481.286" r="14.4" fill="#009af9" fill-rule="evenodd" fill-opacity="1" stroke="#000000" stroke-opacity="1" stroke-width="3.2"/>
<circle clip-path="url(#clip662)" cx="1148.6" cy="684.024" r="14.4" fill="#009af9" fill-rule="evenodd" fill-opacity="1" stroke="#000000" stroke-opacity="1" stroke-width="3.2"/>
<circle clip-path="url(#clip662)" cx="664.722" cy="1013.48" r="14.4" fill="#009af9" fill-rule="evenodd" fill-opacity="1" stroke="#000000" stroke-opacity="1" stroke-width="3.2"/>
<circle clip-path="url(#clip662)" cx="360.459" cy="1101.88" r="14.4" fill="#009af9" fill-rule="evenodd" fill-opacity="1" stroke="#000000" stroke-opacity="1" stroke-width="3.2"/>
<circle clip-path="url(#clip662)" cx="1069.85" cy="848.834" r="14.4" fill="#009af9" fill-rule="evenodd" fill-opacity="1" stroke="#000000" stroke-opacity="1" stroke-width="3.2"/>
<circle clip-path="url(#clip662)" cx="795.878" cy="1203.74" r="14.4" fill="#009af9" fill-rule="evenodd" fill-opacity="1" stroke="#000000" stroke-opacity="1" stroke-width="3.2"/>
<circle clip-path="url(#clip662)" cx="261.241" cy="961.676" r="14.4" fill="#009af9" fill-rule="evenodd" fill-opacity="1" stroke="#000000" stroke-opacity="1" stroke-width="3.2"/>
<circle clip-path="url(#clip662)" cx="825.605" cy="850.854" r="14.4" fill="#009af9" fill-rule="evenodd" fill-opacity="1" stroke="#000000" stroke-opacity="1" stroke-width="3.2"/>
<circle clip-path="url(#clip662)" cx="398.989" cy="1015.12" r="14.4" fill="#009af9" fill-rule="evenodd" fill-opacity="1" stroke="#000000" stroke-opacity="1" stroke-width="3.2"/>
<circle clip-path="url(#clip662)" cx="271.278" cy="1168.23" r="14.4" fill="#009af9" fill-rule="evenodd" fill-opacity="1" stroke="#000000" stroke-opacity="1" stroke-width="3.2"/>
<circle clip-path="url(#clip662)" cx="612.866" cy="986.072" r="14.4" fill="#009af9" fill-rule="evenodd" fill-opacity="1" stroke="#000000" stroke-opacity="1" stroke-width="3.2"/>
<circle clip-path="url(#clip662)" cx="1216.61" cy="596.825" r="14.4" fill="#009af9" fill-rule="evenodd" fill-opacity="1" stroke="#000000" stroke-opacity="1" stroke-width="3.2"/>
<circle clip-path="url(#clip662)" cx="2028.53" cy="701.635" r="14.4" fill="#009af9" fill-rule="evenodd" fill-opacity="1" stroke="#000000" stroke-opacity="1" stroke-width="3.2"/>
<circle clip-path="url(#clip662)" cx="1044.57" cy="669.408" r="14.4" fill="#009af9" fill-rule="evenodd" fill-opacity="1" stroke="#000000" stroke-opacity="1" stroke-width="3.2"/>
<circle clip-path="url(#clip662)" cx="267.247" cy="1168.05" r="14.4" fill="#009af9" fill-rule="evenodd" fill-opacity="1" stroke="#000000" stroke-opacity="1" stroke-width="3.2"/>
<circle clip-path="url(#clip662)" cx="1029.36" cy="927.464" r="14.4" fill="#009af9" fill-rule="evenodd" fill-opacity="1" stroke="#000000" stroke-opacity="1" stroke-width="3.2"/>
<circle clip-path="url(#clip662)" cx="362.511" cy="1086.34" r="14.4" fill="#009af9" fill-rule="evenodd" fill-opacity="1" stroke="#000000" stroke-opacity="1" stroke-width="3.2"/>
<circle clip-path="url(#clip662)" cx="455.528" cy="1233.3" r="14.4" fill="#009af9" fill-rule="evenodd" fill-opacity="1" stroke="#000000" stroke-opacity="1" stroke-width="3.2"/>
<circle clip-path="url(#clip662)" cx="904.971" cy="869.057" r="14.4" fill="#009af9" fill-rule="evenodd" fill-opacity="1" stroke="#000000" stroke-opacity="1" stroke-width="3.2"/>
<circle clip-path="url(#clip662)" cx="1619.42" cy="422.174" r="14.4" fill="#009af9" fill-rule="evenodd" fill-opacity="1" stroke="#000000" stroke-opacity="1" stroke-width="3.2"/>
<circle clip-path="url(#clip662)" cx="915.717" cy="754.348" r="14.4" fill="#009af9" fill-rule="evenodd" fill-opacity="1" stroke="#000000" stroke-opacity="1" stroke-width="3.2"/>
<circle clip-path="url(#clip662)" cx="813.159" cy="921.003" r="14.4" fill="#009af9" fill-rule="evenodd" fill-opacity="1" stroke="#000000" stroke-opacity="1" stroke-width="3.2"/>
<circle clip-path="url(#clip662)" cx="1184.89" cy="846.751" r="14.4" fill="#009af9" fill-rule="evenodd" fill-opacity="1" stroke="#000000" stroke-opacity="1" stroke-width="3.2"/>
<circle clip-path="url(#clip662)" cx="1473.66" cy="799.55" r="14.4" fill="#009af9" fill-rule="evenodd" fill-opacity="1" stroke="#000000" stroke-opacity="1" stroke-width="3.2"/>
<circle clip-path="url(#clip662)" cx="774.155" cy="969.149" r="14.4" fill="#009af9" fill-rule="evenodd" fill-opacity="1" stroke="#000000" stroke-opacity="1" stroke-width="3.2"/>
<circle clip-path="url(#clip662)" cx="2252.14" cy="160.256" r="14.4" fill="#009af9" fill-rule="evenodd" fill-opacity="1" stroke="#000000" stroke-opacity="1" stroke-width="3.2"/>
<circle clip-path="url(#clip662)" cx="300.117" cy="1097.98" r="14.4" fill="#009af9" fill-rule="evenodd" fill-opacity="1" stroke="#000000" stroke-opacity="1" stroke-width="3.2"/>
<circle clip-path="url(#clip662)" cx="1923.03" cy="582.417" r="14.4" fill="#009af9" fill-rule="evenodd" fill-opacity="1" stroke="#000000" stroke-opacity="1" stroke-width="3.2"/>
<circle clip-path="url(#clip662)" cx="715.282" cy="1059.66" r="14.4" fill="#009af9" fill-rule="evenodd" fill-opacity="1" stroke="#000000" stroke-opacity="1" stroke-width="3.2"/>
<circle clip-path="url(#clip662)" cx="535.677" cy="1079.12" r="14.4" fill="#009af9" fill-rule="evenodd" fill-opacity="1" stroke="#000000" stroke-opacity="1" stroke-width="3.2"/>
<circle clip-path="url(#clip662)" cx="588.521" cy="1187.23" r="14.4" fill="#009af9" fill-rule="evenodd" fill-opacity="1" stroke="#000000" stroke-opacity="1" stroke-width="3.2"/>
<circle clip-path="url(#clip662)" cx="1873.47" cy="706.35" r="14.4" fill="#009af9" fill-rule="evenodd" fill-opacity="1" stroke="#000000" stroke-opacity="1" stroke-width="3.2"/>
<circle clip-path="url(#clip662)" cx="850.335" cy="976.566" r="14.4" fill="#009af9" fill-rule="evenodd" fill-opacity="1" stroke="#000000" stroke-opacity="1" stroke-width="3.2"/>
<circle clip-path="url(#clip662)" cx="957.502" cy="816.593" r="14.4" fill="#009af9" fill-rule="evenodd" fill-opacity="1" stroke="#000000" stroke-opacity="1" stroke-width="3.2"/>
<circle clip-path="url(#clip662)" cx="777.695" cy="992.108" r="14.4" fill="#009af9" fill-rule="evenodd" fill-opacity="1" stroke="#000000" stroke-opacity="1" stroke-width="3.2"/>
<circle clip-path="url(#clip662)" cx="1038.56" cy="805.363" r="14.4" fill="#009af9" fill-rule="evenodd" fill-opacity="1" stroke="#000000" stroke-opacity="1" stroke-width="3.2"/>
<circle clip-path="url(#clip662)" cx="1419.26" cy="853.426" r="14.4" fill="#009af9" fill-rule="evenodd" fill-opacity="1" stroke="#000000" stroke-opacity="1" stroke-width="3.2"/>
<circle clip-path="url(#clip662)" cx="1579.4" cy="522.85" r="14.4" fill="#009af9" fill-rule="evenodd" fill-opacity="1" stroke="#000000" stroke-opacity="1" stroke-width="3.2"/>
<circle clip-path="url(#clip662)" cx="1365.22" cy="494.948" r="14.4" fill="#009af9" fill-rule="evenodd" fill-opacity="1" stroke="#000000" stroke-opacity="1" stroke-width="3.2"/>
<circle clip-path="url(#clip662)" cx="381.151" cy="1062.39" r="14.4" fill="#009af9" fill-rule="evenodd" fill-opacity="1" stroke="#000000" stroke-opacity="1" stroke-width="3.2"/>
<circle clip-path="url(#clip662)" cx="413.048" cy="1386.4" r="14.4" fill="#009af9" fill-rule="evenodd" fill-opacity="1" stroke="#000000" stroke-opacity="1" stroke-width="3.2"/>
<circle clip-path="url(#clip662)" cx="312.005" cy="1211.65" r="14.4" fill="#009af9" fill-rule="evenodd" fill-opacity="1" stroke="#000000" stroke-opacity="1" stroke-width="3.2"/>
<circle clip-path="url(#clip662)" cx="377.411" cy="1259.5" r="14.4" fill="#009af9" fill-rule="evenodd" fill-opacity="1" stroke="#000000" stroke-opacity="1" stroke-width="3.2"/>
<circle clip-path="url(#clip662)" cx="1212.12" cy="715.566" r="14.4" fill="#009af9" fill-rule="evenodd" fill-opacity="1" stroke="#000000" stroke-opacity="1" stroke-width="3.2"/>
<circle clip-path="url(#clip662)" cx="2291.13" cy="425.1" r="14.4" fill="#009af9" fill-rule="evenodd" fill-opacity="1" stroke="#000000" stroke-opacity="1" stroke-width="3.2"/>
<circle clip-path="url(#clip662)" cx="1148.61" cy="800.03" r="14.4" fill="#009af9" fill-rule="evenodd" fill-opacity="1" stroke="#000000" stroke-opacity="1" stroke-width="3.2"/>
<circle clip-path="url(#clip662)" cx="615.95" cy="1111.74" r="14.4" fill="#009af9" fill-rule="evenodd" fill-opacity="1" stroke="#000000" stroke-opacity="1" stroke-width="3.2"/>
<circle clip-path="url(#clip662)" cx="582.013" cy="1001.69" r="14.4" fill="#009af9" fill-rule="evenodd" fill-opacity="1" stroke="#000000" stroke-opacity="1" stroke-width="3.2"/>
<circle clip-path="url(#clip662)" cx="442.025" cy="1196.99" r="14.4" fill="#009af9" fill-rule="evenodd" fill-opacity="1" stroke="#000000" stroke-opacity="1" stroke-width="3.2"/>
<circle clip-path="url(#clip662)" cx="1014.44" cy="789.86" r="14.4" fill="#009af9" fill-rule="evenodd" fill-opacity="1" stroke="#000000" stroke-opacity="1" stroke-width="3.2"/>
<circle clip-path="url(#clip662)" cx="401.92" cy="926.758" r="14.4" fill="#009af9" fill-rule="evenodd" fill-opacity="1" stroke="#000000" stroke-opacity="1" stroke-width="3.2"/>
<circle clip-path="url(#clip662)" cx="1263.15" cy="740.826" r="14.4" fill="#009af9" fill-rule="evenodd" fill-opacity="1" stroke="#000000" stroke-opacity="1" stroke-width="3.2"/>
<circle clip-path="url(#clip662)" cx="570.203" cy="1074.48" r="14.4" fill="#009af9" fill-rule="evenodd" fill-opacity="1" stroke="#000000" stroke-opacity="1" stroke-width="3.2"/>
<circle clip-path="url(#clip662)" cx="548.599" cy="978.825" r="14.4" fill="#009af9" fill-rule="evenodd" fill-opacity="1" stroke="#000000" stroke-opacity="1" stroke-width="3.2"/>
<circle clip-path="url(#clip662)" cx="666.481" cy="992.189" r="14.4" fill="#009af9" fill-rule="evenodd" fill-opacity="1" stroke="#000000" stroke-opacity="1" stroke-width="3.2"/>
<circle clip-path="url(#clip662)" cx="634.554" cy="1061.93" r="14.4" fill="#009af9" fill-rule="evenodd" fill-opacity="1" stroke="#000000" stroke-opacity="1" stroke-width="3.2"/>
<circle clip-path="url(#clip662)" cx="1444.24" cy="596.776" r="14.4" fill="#009af9" fill-rule="evenodd" fill-opacity="1" stroke="#000000" stroke-opacity="1" stroke-width="3.2"/>
<circle clip-path="url(#clip662)" cx="246.106" cy="1096.83" r="14.4" fill="#009af9" fill-rule="evenodd" fill-opacity="1" stroke="#000000" stroke-opacity="1" stroke-width="3.2"/>
<circle clip-path="url(#clip662)" cx="2228.22" cy="319.565" r="14.4" fill="#009af9" fill-rule="evenodd" fill-opacity="1" stroke="#000000" stroke-opacity="1" stroke-width="3.2"/>
<circle clip-path="url(#clip662)" cx="444.843" cy="1198.91" r="14.4" fill="#009af9" fill-rule="evenodd" fill-opacity="1" stroke="#000000" stroke-opacity="1" stroke-width="3.2"/>
<circle clip-path="url(#clip662)" cx="1908" cy="347.389" r="14.4" fill="#009af9" fill-rule="evenodd" fill-opacity="1" stroke="#000000" stroke-opacity="1" stroke-width="3.2"/>
<circle clip-path="url(#clip662)" cx="650.439" cy="941.574" r="14.4" fill="#009af9" fill-rule="evenodd" fill-opacity="1" stroke="#000000" stroke-opacity="1" stroke-width="3.2"/>
<circle clip-path="url(#clip662)" cx="440.605" cy="1239.53" r="14.4" fill="#009af9" fill-rule="evenodd" fill-opacity="1" stroke="#000000" stroke-opacity="1" stroke-width="3.2"/>
<circle clip-path="url(#clip662)" cx="1947.27" cy="333.778" r="14.4" fill="#009af9" fill-rule="evenodd" fill-opacity="1" stroke="#000000" stroke-opacity="1" stroke-width="3.2"/>
<circle clip-path="url(#clip662)" cx="574.365" cy="1070.15" r="14.4" fill="#009af9" fill-rule="evenodd" fill-opacity="1" stroke="#000000" stroke-opacity="1" stroke-width="3.2"/>
<circle clip-path="url(#clip662)" cx="770.802" cy="878.068" r="14.4" fill="#009af9" fill-rule="evenodd" fill-opacity="1" stroke="#000000" stroke-opacity="1" stroke-width="3.2"/>
</svg>
