<?xml version="1.0" encoding="utf-8"?>
<svg xmlns="http://www.w3.org/2000/svg" xmlns:xlink="http://www.w3.org/1999/xlink" width="950" height="400" viewBox="0 0 3800 1600">
<defs>
  <clipPath id="clip860">
    <rect x="0" y="0" width="3800" height="1600"/>
  </clipPath>
</defs>
<path clip-path="url(#clip860)" d="
M0 1600 L3800 1600 L3800 0 L0 0  Z
  " fill="#ffffff" fill-rule="evenodd" fill-opacity="1"/>
<defs>
  <clipPath id="clip861">
    <rect x="760" y="0" width="2661" height="1600"/>
  </clipPath>
</defs>
<path clip-path="url(#clip860)" d="
M410.666 1499.18 L3752.76 1499.18 L3752.76 47.2441 L410.666 47.2441  Z
  " fill="#ffffff" fill-rule="evenodd" fill-opacity="1"/>
<defs>
  <clipPath id="clip862">
    <rect x="410" y="47" width="3343" height="1453"/>
  </clipPath>
</defs>
<polyline clip-path="url(#clip862)" style="stroke:#000000; stroke-linecap:butt; stroke-linejoin:round; stroke-width:2; stroke-opacity:0.1; fill:none" points="
  510.99,1499.18 510.99,47.2441 
  "/>
<polyline clip-path="url(#clip862)" style="stroke:#000000; stroke-linecap:butt; stroke-linejoin:round; stroke-width:2; stroke-opacity:0.1; fill:none" points="
  701.954,1499.18 701.954,47.2441 
  "/>
<polyline clip-path="url(#clip862)" style="stroke:#000000; stroke-linecap:butt; stroke-linejoin:round; stroke-width:2; stroke-opacity:0.1; fill:none" points="
  892.917,1499.18 892.917,47.2441 
  "/>
<polyline clip-path="url(#clip862)" style="stroke:#000000; stroke-linecap:butt; stroke-linejoin:round; stroke-width:2; stroke-opacity:0.1; fill:none" points="
  1083.88,1499.18 1083.88,47.2441 
  "/>
<polyline clip-path="url(#clip862)" style="stroke:#000000; stroke-linecap:butt; stroke-linejoin:round; stroke-width:2; stroke-opacity:0.1; fill:none" points="
  1274.84,1499.18 1274.84,47.2441 
  "/>
<polyline clip-path="url(#clip862)" style="stroke:#000000; stroke-linecap:butt; stroke-linejoin:round; stroke-width:2; stroke-opacity:0.1; fill:none" points="
  1465.81,1499.18 1465.81,47.2441 
  "/>
<polyline clip-path="url(#clip862)" style="stroke:#000000; stroke-linecap:butt; stroke-linejoin:round; stroke-width:2; stroke-opacity:0.1; fill:none" points="
  1656.77,1499.18 1656.77,47.2441 
  "/>
<polyline clip-path="url(#clip862)" style="stroke:#000000; stroke-linecap:butt; stroke-linejoin:round; stroke-width:2; stroke-opacity:0.1; fill:none" points="
  1847.73,1499.18 1847.73,47.2441 
  "/>
<polyline clip-path="url(#clip862)" style="stroke:#000000; stroke-linecap:butt; stroke-linejoin:round; stroke-width:2; stroke-opacity:0.1; fill:none" points="
  2038.7,1499.18 2038.7,47.2441 
  "/>
<polyline clip-path="url(#clip862)" style="stroke:#000000; stroke-linecap:butt; stroke-linejoin:round; stroke-width:2; stroke-opacity:0.1; fill:none" points="
  2229.66,1499.18 2229.66,47.2441 
  "/>
<polyline clip-path="url(#clip862)" style="stroke:#000000; stroke-linecap:butt; stroke-linejoin:round; stroke-width:2; stroke-opacity:0.1; fill:none" points="
  2420.62,1499.18 2420.62,47.2441 
  "/>
<polyline clip-path="url(#clip862)" style="stroke:#000000; stroke-linecap:butt; stroke-linejoin:round; stroke-width:2; stroke-opacity:0.1; fill:none" points="
  2611.59,1499.18 2611.59,47.2441 
  "/>
<polyline clip-path="url(#clip862)" style="stroke:#000000; stroke-linecap:butt; stroke-linejoin:round; stroke-width:2; stroke-opacity:0.1; fill:none" points="
  2802.55,1499.18 2802.55,47.2441 
  "/>
<polyline clip-path="url(#clip862)" style="stroke:#000000; stroke-linecap:butt; stroke-linejoin:round; stroke-width:2; stroke-opacity:0.1; fill:none" points="
  2993.51,1499.18 2993.51,47.2441 
  "/>
<polyline clip-path="url(#clip862)" style="stroke:#000000; stroke-linecap:butt; stroke-linejoin:round; stroke-width:2; stroke-opacity:0.1; fill:none" points="
  3184.48,1499.18 3184.48,47.2441 
  "/>
<polyline clip-path="url(#clip862)" style="stroke:#000000; stroke-linecap:butt; stroke-linejoin:round; stroke-width:2; stroke-opacity:0.1; fill:none" points="
  3375.44,1499.18 3375.44,47.2441 
  "/>
<polyline clip-path="url(#clip862)" style="stroke:#000000; stroke-linecap:butt; stroke-linejoin:round; stroke-width:2; stroke-opacity:0.1; fill:none" points="
  3566.4,1499.18 3566.4,47.2441 
  "/>
<polyline clip-path="url(#clip860)" style="stroke:#000000; stroke-linecap:butt; stroke-linejoin:round; stroke-width:4; stroke-opacity:1; fill:none" points="
  410.666,1499.18 3752.76,1499.18 
  "/>
<polyline clip-path="url(#clip860)" style="stroke:#000000; stroke-linecap:butt; stroke-linejoin:round; stroke-width:4; stroke-opacity:1; fill:none" points="
  510.99,1499.18 510.99,1480.28 
  "/>
<polyline clip-path="url(#clip860)" style="stroke:#000000; stroke-linecap:butt; stroke-linejoin:round; stroke-width:4; stroke-opacity:1; fill:none" points="
  701.954,1499.18 701.954,1480.28 
  "/>
<polyline clip-path="url(#clip860)" style="stroke:#000000; stroke-linecap:butt; stroke-linejoin:round; stroke-width:4; stroke-opacity:1; fill:none" points="
  892.917,1499.18 892.917,1480.28 
  "/>
<polyline clip-path="url(#clip860)" style="stroke:#000000; stroke-linecap:butt; stroke-linejoin:round; stroke-width:4; stroke-opacity:1; fill:none" points="
  1083.88,1499.18 1083.88,1480.28 
  "/>
<polyline clip-path="url(#clip860)" style="stroke:#000000; stroke-linecap:butt; stroke-linejoin:round; stroke-width:4; stroke-opacity:1; fill:none" points="
  1274.84,1499.18 1274.84,1480.28 
  "/>
<polyline clip-path="url(#clip860)" style="stroke:#000000; stroke-linecap:butt; stroke-linejoin:round; stroke-width:4; stroke-opacity:1; fill:none" points="
  1465.81,1499.18 1465.81,1480.28 
  "/>
<polyline clip-path="url(#clip860)" style="stroke:#000000; stroke-linecap:butt; stroke-linejoin:round; stroke-width:4; stroke-opacity:1; fill:none" points="
  1656.77,1499.18 1656.77,1480.28 
  "/>
<polyline clip-path="url(#clip860)" style="stroke:#000000; stroke-linecap:butt; stroke-linejoin:round; stroke-width:4; stroke-opacity:1; fill:none" points="
  1847.73,1499.18 1847.73,1480.28 
  "/>
<polyline clip-path="url(#clip860)" style="stroke:#000000; stroke-linecap:butt; stroke-linejoin:round; stroke-width:4; stroke-opacity:1; fill:none" points="
  2038.7,1499.18 2038.7,1480.28 
  "/>
<polyline clip-path="url(#clip860)" style="stroke:#000000; stroke-linecap:butt; stroke-linejoin:round; stroke-width:4; stroke-opacity:1; fill:none" points="
  2229.66,1499.18 2229.66,1480.28 
  "/>
<polyline clip-path="url(#clip860)" style="stroke:#000000; stroke-linecap:butt; stroke-linejoin:round; stroke-width:4; stroke-opacity:1; fill:none" points="
  2420.62,1499.18 2420.62,1480.28 
  "/>
<polyline clip-path="url(#clip860)" style="stroke:#000000; stroke-linecap:butt; stroke-linejoin:round; stroke-width:4; stroke-opacity:1; fill:none" points="
  2611.59,1499.18 2611.59,1480.28 
  "/>
<polyline clip-path="url(#clip860)" style="stroke:#000000; stroke-linecap:butt; stroke-linejoin:round; stroke-width:4; stroke-opacity:1; fill:none" points="
  2802.55,1499.18 2802.55,1480.28 
  "/>
<polyline clip-path="url(#clip860)" style="stroke:#000000; stroke-linecap:butt; stroke-linejoin:round; stroke-width:4; stroke-opacity:1; fill:none" points="
  2993.51,1499.18 2993.51,1480.28 
  "/>
<polyline clip-path="url(#clip860)" style="stroke:#000000; stroke-linecap:butt; stroke-linejoin:round; stroke-width:4; stroke-opacity:1; fill:none" points="
  3184.48,1499.18 3184.48,1480.28 
  "/>
<polyline clip-path="url(#clip860)" style="stroke:#000000; stroke-linecap:butt; stroke-linejoin:round; stroke-width:4; stroke-opacity:1; fill:none" points="
  3375.44,1499.18 3375.44,1480.28 
  "/>
<polyline clip-path="url(#clip860)" style="stroke:#000000; stroke-linecap:butt; stroke-linejoin:round; stroke-width:4; stroke-opacity:1; fill:none" points="
  3566.4,1499.18 3566.4,1480.28 
  "/>
<path clip-path="url(#clip860)" d="M427.356 1555.95 L457.032 1555.95 L457.032 1559.89 L427.356 1559.89 L427.356 1555.95 Z" fill="#000000" fill-rule="evenodd" fill-opacity="1" /><path clip-path="url(#clip860)" d="M477.125 1541.3 Q473.514 1541.3 471.685 1544.86 Q469.879 1548.41 469.879 1555.54 Q469.879 1562.64 471.685 1566.21 Q473.514 1569.75 477.125 1569.75 Q480.759 1569.75 482.564 1566.21 Q484.393 1562.64 484.393 1555.54 Q484.393 1548.41 482.564 1544.86 Q480.759 1541.3 477.125 1541.3 M477.125 1537.6 Q482.935 1537.6 485.99 1542.2 Q489.069 1546.79 489.069 1555.54 Q489.069 1564.26 485.99 1568.87 Q482.935 1573.45 477.125 1573.45 Q471.315 1573.45 468.236 1568.87 Q465.18 1564.26 465.18 1555.54 Q465.18 1546.79 468.236 1542.2 Q471.315 1537.6 477.125 1537.6 Z" fill="#000000" fill-rule="evenodd" fill-opacity="1" /><path clip-path="url(#clip860)" d="M497.287 1566.9 L502.171 1566.9 L502.171 1572.78 L497.287 1572.78 L497.287 1566.9 Z" fill="#000000" fill-rule="evenodd" fill-opacity="1" /><path clip-path="url(#clip860)" d="M522.356 1541.3 Q518.745 1541.3 516.916 1544.86 Q515.111 1548.41 515.111 1555.54 Q515.111 1562.64 516.916 1566.21 Q518.745 1569.75 522.356 1569.75 Q525.99 1569.75 527.796 1566.21 Q529.624 1562.64 529.624 1555.54 Q529.624 1548.41 527.796 1544.86 Q525.99 1541.3 522.356 1541.3 M522.356 1537.6 Q528.166 1537.6 531.222 1542.2 Q534.3 1546.79 534.3 1555.54 Q534.3 1564.26 531.222 1568.87 Q528.166 1573.45 522.356 1573.45 Q516.546 1573.45 513.467 1568.87 Q510.412 1564.26 510.412 1555.54 Q510.412 1546.79 513.467 1542.2 Q516.546 1537.6 522.356 1537.6 Z" fill="#000000" fill-rule="evenodd" fill-opacity="1" /><path clip-path="url(#clip860)" d="M552.518 1556.37 Q549.184 1556.37 547.263 1558.15 Q545.365 1559.93 545.365 1563.06 Q545.365 1566.18 547.263 1567.97 Q549.184 1569.75 552.518 1569.75 Q555.851 1569.75 557.772 1567.97 Q559.694 1566.16 559.694 1563.06 Q559.694 1559.93 557.772 1558.15 Q555.874 1556.37 552.518 1556.37 M547.842 1554.38 Q544.833 1553.64 543.143 1551.58 Q541.476 1549.52 541.476 1546.55 Q541.476 1542.41 544.416 1540 Q547.379 1537.6 552.518 1537.6 Q557.68 1537.6 560.62 1540 Q563.559 1542.41 563.559 1546.55 Q563.559 1549.52 561.87 1551.58 Q560.203 1553.64 557.217 1554.38 Q560.596 1555.16 562.471 1557.46 Q564.37 1559.75 564.37 1563.06 Q564.37 1568.08 561.291 1570.77 Q558.235 1573.45 552.518 1573.45 Q546.8 1573.45 543.722 1570.77 Q540.666 1568.08 540.666 1563.06 Q540.666 1559.75 542.564 1557.46 Q544.462 1555.16 547.842 1554.38 M546.129 1546.99 Q546.129 1549.68 547.796 1551.18 Q549.485 1552.69 552.518 1552.69 Q555.527 1552.69 557.217 1551.18 Q558.93 1549.68 558.93 1546.99 Q558.93 1544.31 557.217 1542.8 Q555.527 1541.3 552.518 1541.3 Q549.485 1541.3 547.796 1542.8 Q546.129 1544.31 546.129 1546.99 Z" fill="#000000" fill-rule="evenodd" fill-opacity="1" /><path clip-path="url(#clip860)" d="M582.68 1541.3 Q579.069 1541.3 577.24 1544.86 Q575.434 1548.41 575.434 1555.54 Q575.434 1562.64 577.24 1566.21 Q579.069 1569.75 582.68 1569.75 Q586.314 1569.75 588.119 1566.21 Q589.948 1562.64 589.948 1555.54 Q589.948 1548.41 588.119 1544.86 Q586.314 1541.3 582.68 1541.3 M582.68 1537.6 Q588.49 1537.6 591.545 1542.2 Q594.624 1546.79 594.624 1555.54 Q594.624 1564.26 591.545 1568.87 Q588.49 1573.45 582.68 1573.45 Q576.87 1573.45 573.791 1568.87 Q570.735 1564.26 570.735 1555.54 Q570.735 1546.79 573.791 1542.2 Q576.87 1537.6 582.68 1537.6 Z" fill="#000000" fill-rule="evenodd" fill-opacity="1" /><path clip-path="url(#clip860)" d="M619.118 1555.95 L648.794 1555.95 L648.794 1559.89 L619.118 1559.89 L619.118 1555.95 Z" fill="#000000" fill-rule="evenodd" fill-opacity="1" /><path clip-path="url(#clip860)" d="M668.887 1541.3 Q665.276 1541.3 663.447 1544.86 Q661.641 1548.41 661.641 1555.54 Q661.641 1562.64 663.447 1566.21 Q665.276 1569.75 668.887 1569.75 Q672.521 1569.75 674.326 1566.21 Q676.155 1562.64 676.155 1555.54 Q676.155 1548.41 674.326 1544.86 Q672.521 1541.3 668.887 1541.3 M668.887 1537.6 Q674.697 1537.6 677.752 1542.2 Q680.831 1546.79 680.831 1555.54 Q680.831 1564.26 677.752 1568.87 Q674.697 1573.45 668.887 1573.45 Q663.077 1573.45 659.998 1568.87 Q656.942 1564.26 656.942 1555.54 Q656.942 1546.79 659.998 1542.2 Q663.077 1537.6 668.887 1537.6 Z" fill="#000000" fill-rule="evenodd" fill-opacity="1" /><path clip-path="url(#clip860)" d="M689.049 1566.9 L693.933 1566.9 L693.933 1572.78 L689.049 1572.78 L689.049 1566.9 Z" fill="#000000" fill-rule="evenodd" fill-opacity="1" /><path clip-path="url(#clip860)" d="M714.118 1541.3 Q710.507 1541.3 708.678 1544.86 Q706.873 1548.41 706.873 1555.54 Q706.873 1562.64 708.678 1566.21 Q710.507 1569.75 714.118 1569.75 Q717.752 1569.75 719.558 1566.21 Q721.386 1562.64 721.386 1555.54 Q721.386 1548.41 719.558 1544.86 Q717.752 1541.3 714.118 1541.3 M714.118 1537.6 Q719.928 1537.6 722.984 1542.2 Q726.062 1546.79 726.062 1555.54 Q726.062 1564.26 722.984 1568.87 Q719.928 1573.45 714.118 1573.45 Q708.308 1573.45 705.229 1568.87 Q702.174 1564.26 702.174 1555.54 Q702.174 1546.79 705.229 1542.2 Q708.308 1537.6 714.118 1537.6 Z" fill="#000000" fill-rule="evenodd" fill-opacity="1" /><path clip-path="url(#clip860)" d="M733.099 1538.22 L755.321 1538.22 L755.321 1540.21 L742.775 1572.78 L737.891 1572.78 L749.696 1542.16 L733.099 1542.16 L733.099 1538.22 Z" fill="#000000" fill-rule="evenodd" fill-opacity="1" /><path clip-path="url(#clip860)" d="M768.469 1568.85 L784.789 1568.85 L784.789 1572.78 L762.845 1572.78 L762.845 1568.85 Q765.507 1566.09 770.09 1561.46 Q774.696 1556.81 775.877 1555.47 Q778.122 1552.94 779.002 1551.21 Q779.905 1549.45 779.905 1547.76 Q779.905 1545 777.96 1543.27 Q776.039 1541.53 772.937 1541.53 Q770.738 1541.53 768.284 1542.29 Q765.854 1543.06 763.076 1544.61 L763.076 1539.89 Q765.9 1538.75 768.354 1538.17 Q770.807 1537.6 772.844 1537.6 Q778.215 1537.6 781.409 1540.28 Q784.604 1542.97 784.604 1547.46 Q784.604 1549.59 783.793 1551.51 Q783.006 1553.41 780.9 1556 Q780.321 1556.67 777.219 1559.89 Q774.118 1563.08 768.469 1568.85 Z" fill="#000000" fill-rule="evenodd" fill-opacity="1" /><path clip-path="url(#clip860)" d="M809.04 1555.95 L838.716 1555.95 L838.716 1559.89 L809.04 1559.89 L809.04 1555.95 Z" fill="#000000" fill-rule="evenodd" fill-opacity="1" /><path clip-path="url(#clip860)" d="M858.808 1541.3 Q855.197 1541.3 853.369 1544.86 Q851.563 1548.41 851.563 1555.54 Q851.563 1562.64 853.369 1566.21 Q855.197 1569.75 858.808 1569.75 Q862.443 1569.75 864.248 1566.21 Q866.077 1562.64 866.077 1555.54 Q866.077 1548.41 864.248 1544.86 Q862.443 1541.3 858.808 1541.3 M858.808 1537.6 Q864.619 1537.6 867.674 1542.2 Q870.753 1546.79 870.753 1555.54 Q870.753 1564.26 867.674 1568.87 Q864.619 1573.45 858.808 1573.45 Q852.998 1573.45 849.92 1568.87 Q846.864 1564.26 846.864 1555.54 Q846.864 1546.79 849.92 1542.2 Q852.998 1537.6 858.808 1537.6 Z" fill="#000000" fill-rule="evenodd" fill-opacity="1" /><path clip-path="url(#clip860)" d="M878.97 1566.9 L883.855 1566.9 L883.855 1572.78 L878.97 1572.78 L878.97 1566.9 Z" fill="#000000" fill-rule="evenodd" fill-opacity="1" /><path clip-path="url(#clip860)" d="M904.04 1541.3 Q900.429 1541.3 898.6 1544.86 Q896.794 1548.41 896.794 1555.54 Q896.794 1562.64 898.6 1566.21 Q900.429 1569.75 904.04 1569.75 Q907.674 1569.75 909.479 1566.21 Q911.308 1562.64 911.308 1555.54 Q911.308 1548.41 909.479 1544.86 Q907.674 1541.3 904.04 1541.3 M904.04 1537.6 Q909.85 1537.6 912.905 1542.2 Q915.984 1546.79 915.984 1555.54 Q915.984 1564.26 912.905 1568.87 Q909.85 1573.45 904.04 1573.45 Q898.23 1573.45 895.151 1568.87 Q892.095 1564.26 892.095 1555.54 Q892.095 1546.79 895.151 1542.2 Q898.23 1537.6 904.04 1537.6 Z" fill="#000000" fill-rule="evenodd" fill-opacity="1" /><path clip-path="url(#clip860)" d="M934.78 1553.64 Q931.632 1553.64 929.78 1555.79 Q927.952 1557.94 927.952 1561.69 Q927.952 1565.42 929.78 1567.6 Q931.632 1569.75 934.78 1569.75 Q937.928 1569.75 939.757 1567.6 Q941.609 1565.42 941.609 1561.69 Q941.609 1557.94 939.757 1555.79 Q937.928 1553.64 934.78 1553.64 M944.063 1538.98 L944.063 1543.24 Q942.303 1542.41 940.498 1541.97 Q938.715 1541.53 936.956 1541.53 Q932.327 1541.53 929.873 1544.66 Q927.442 1547.78 927.095 1554.1 Q928.461 1552.09 930.521 1551.02 Q932.581 1549.93 935.058 1549.93 Q940.266 1549.93 943.276 1553.1 Q946.308 1556.25 946.308 1561.69 Q946.308 1567.02 943.16 1570.23 Q940.012 1573.45 934.78 1573.45 Q928.785 1573.45 925.614 1568.87 Q922.442 1564.26 922.442 1555.54 Q922.442 1547.34 926.331 1542.48 Q930.22 1537.6 936.771 1537.6 Q938.53 1537.6 940.313 1537.94 Q942.118 1538.29 944.063 1538.98 Z" fill="#000000" fill-rule="evenodd" fill-opacity="1" /><path clip-path="url(#clip860)" d="M967.211 1542.29 L955.405 1560.74 L967.211 1560.74 L967.211 1542.29 M965.984 1538.22 L971.863 1538.22 L971.863 1560.74 L976.794 1560.74 L976.794 1564.63 L971.863 1564.63 L971.863 1572.78 L967.211 1572.78 L967.211 1564.63 L951.609 1564.63 L951.609 1560.12 L965.984 1538.22 Z" fill="#000000" fill-rule="evenodd" fill-opacity="1" /><path clip-path="url(#clip860)" d="M1000.17 1555.95 L1029.84 1555.95 L1029.84 1559.89 L1000.17 1559.89 L1000.17 1555.95 Z" fill="#000000" fill-rule="evenodd" fill-opacity="1" /><path clip-path="url(#clip860)" d="M1049.93 1541.3 Q1046.32 1541.3 1044.49 1544.86 Q1042.69 1548.41 1042.69 1555.54 Q1042.69 1562.64 1044.49 1566.21 Q1046.32 1569.75 1049.93 1569.75 Q1053.57 1569.75 1055.37 1566.21 Q1057.2 1562.64 1057.2 1555.54 Q1057.2 1548.41 1055.37 1544.86 Q1053.57 1541.3 1049.93 1541.3 M1049.93 1537.6 Q1055.74 1537.6 1058.8 1542.2 Q1061.88 1546.79 1061.88 1555.54 Q1061.88 1564.26 1058.8 1568.87 Q1055.74 1573.45 1049.93 1573.45 Q1044.12 1573.45 1041.05 1568.87 Q1037.99 1564.26 1037.99 1555.54 Q1037.99 1546.79 1041.05 1542.2 Q1044.12 1537.6 1049.93 1537.6 Z" fill="#000000" fill-rule="evenodd" fill-opacity="1" /><path clip-path="url(#clip860)" d="M1070.1 1566.9 L1074.98 1566.9 L1074.98 1572.78 L1070.1 1572.78 L1070.1 1566.9 Z" fill="#000000" fill-rule="evenodd" fill-opacity="1" /><path clip-path="url(#clip860)" d="M1095.17 1541.3 Q1091.55 1541.3 1089.73 1544.86 Q1087.92 1548.41 1087.92 1555.54 Q1087.92 1562.64 1089.73 1566.21 Q1091.55 1569.75 1095.17 1569.75 Q1098.8 1569.75 1100.6 1566.21 Q1102.43 1562.64 1102.43 1555.54 Q1102.43 1548.41 1100.6 1544.86 Q1098.8 1541.3 1095.17 1541.3 M1095.17 1537.6 Q1100.98 1537.6 1104.03 1542.2 Q1107.11 1546.79 1107.11 1555.54 Q1107.11 1564.26 1104.03 1568.87 Q1100.98 1573.45 1095.17 1573.45 Q1089.35 1573.45 1086.28 1568.87 Q1083.22 1564.26 1083.22 1555.54 Q1083.22 1546.79 1086.28 1542.2 Q1089.35 1537.6 1095.17 1537.6 Z" fill="#000000" fill-rule="evenodd" fill-opacity="1" /><path clip-path="url(#clip860)" d="M1115.37 1538.22 L1133.73 1538.22 L1133.73 1542.16 L1119.66 1542.16 L1119.66 1550.63 Q1120.67 1550.28 1121.69 1550.12 Q1122.71 1549.93 1123.73 1549.93 Q1129.52 1549.93 1132.9 1553.1 Q1136.28 1556.28 1136.28 1561.69 Q1136.28 1567.27 1132.8 1570.37 Q1129.33 1573.45 1123.01 1573.45 Q1120.84 1573.45 1118.57 1573.08 Q1116.32 1572.71 1113.92 1571.97 L1113.92 1567.27 Q1116 1568.41 1118.22 1568.96 Q1120.44 1569.52 1122.92 1569.52 Q1126.92 1569.52 1129.26 1567.41 Q1131.6 1565.3 1131.6 1561.69 Q1131.6 1558.08 1129.26 1555.98 Q1126.92 1553.87 1122.92 1553.87 Q1121.04 1553.87 1119.17 1554.29 Q1117.32 1554.7 1115.37 1555.58 L1115.37 1538.22 Z" fill="#000000" fill-rule="evenodd" fill-opacity="1" /><path clip-path="url(#clip860)" d="M1156.07 1553.64 Q1152.92 1553.64 1151.07 1555.79 Q1149.24 1557.94 1149.24 1561.69 Q1149.24 1565.42 1151.07 1567.6 Q1152.92 1569.75 1156.07 1569.75 Q1159.22 1569.75 1161.04 1567.6 Q1162.9 1565.42 1162.9 1561.69 Q1162.9 1557.94 1161.04 1555.79 Q1159.22 1553.64 1156.07 1553.64 M1165.35 1538.98 L1165.35 1543.24 Q1163.59 1542.41 1161.79 1541.97 Q1160 1541.53 1158.24 1541.53 Q1153.61 1541.53 1151.16 1544.66 Q1148.73 1547.78 1148.38 1554.1 Q1149.75 1552.09 1151.81 1551.02 Q1153.87 1549.93 1156.35 1549.93 Q1161.55 1549.93 1164.56 1553.1 Q1167.6 1556.25 1167.6 1561.69 Q1167.6 1567.02 1164.45 1570.23 Q1161.3 1573.45 1156.07 1573.45 Q1150.07 1573.45 1146.9 1568.87 Q1143.73 1564.26 1143.73 1555.54 Q1143.73 1547.34 1147.62 1542.48 Q1151.51 1537.6 1158.06 1537.6 Q1159.82 1537.6 1161.6 1537.94 Q1163.41 1538.29 1165.35 1538.98 Z" fill="#000000" fill-rule="evenodd" fill-opacity="1" /><path clip-path="url(#clip860)" d="M1191.26 1555.95 L1220.93 1555.95 L1220.93 1559.89 L1191.26 1559.89 L1191.26 1555.95 Z" fill="#000000" fill-rule="evenodd" fill-opacity="1" /><path clip-path="url(#clip860)" d="M1241.02 1541.3 Q1237.41 1541.3 1235.58 1544.86 Q1233.78 1548.41 1233.78 1555.54 Q1233.78 1562.64 1235.58 1566.21 Q1237.41 1569.75 1241.02 1569.75 Q1244.66 1569.75 1246.46 1566.21 Q1248.29 1562.64 1248.29 1555.54 Q1248.29 1548.41 1246.46 1544.86 Q1244.66 1541.3 1241.02 1541.3 M1241.02 1537.6 Q1246.83 1537.6 1249.89 1542.2 Q1252.97 1546.79 1252.97 1555.54 Q1252.97 1564.26 1249.89 1568.87 Q1246.83 1573.45 1241.02 1573.45 Q1235.21 1573.45 1232.14 1568.87 Q1229.08 1564.26 1229.08 1555.54 Q1229.08 1546.79 1232.14 1542.2 Q1235.21 1537.6 1241.02 1537.6 Z" fill="#000000" fill-rule="evenodd" fill-opacity="1" /><path clip-path="url(#clip860)" d="M1261.19 1566.9 L1266.07 1566.9 L1266.07 1572.78 L1261.19 1572.78 L1261.19 1566.9 Z" fill="#000000" fill-rule="evenodd" fill-opacity="1" /><path clip-path="url(#clip860)" d="M1286.26 1541.3 Q1282.64 1541.3 1280.82 1544.86 Q1279.01 1548.41 1279.01 1555.54 Q1279.01 1562.64 1280.82 1566.21 Q1282.64 1569.75 1286.26 1569.75 Q1289.89 1569.75 1291.7 1566.21 Q1293.52 1562.64 1293.52 1555.54 Q1293.52 1548.41 1291.7 1544.86 Q1289.89 1541.3 1286.26 1541.3 M1286.26 1537.6 Q1292.07 1537.6 1295.12 1542.2 Q1298.2 1546.79 1298.2 1555.54 Q1298.2 1564.26 1295.12 1568.87 Q1292.07 1573.45 1286.26 1573.45 Q1280.45 1573.45 1277.37 1568.87 Q1274.31 1564.26 1274.31 1555.54 Q1274.31 1546.79 1277.37 1542.2 Q1280.45 1537.6 1286.26 1537.6 Z" fill="#000000" fill-rule="evenodd" fill-opacity="1" /><path clip-path="url(#clip860)" d="M1319.26 1542.29 L1307.46 1560.74 L1319.26 1560.74 L1319.26 1542.29 M1318.04 1538.22 L1323.92 1538.22 L1323.92 1560.74 L1328.85 1560.74 L1328.85 1564.63 L1323.92 1564.63 L1323.92 1572.78 L1319.26 1572.78 L1319.26 1564.63 L1303.66 1564.63 L1303.66 1560.12 L1318.04 1538.22 Z" fill="#000000" fill-rule="evenodd" fill-opacity="1" /><path clip-path="url(#clip860)" d="M1346.58 1556.37 Q1343.25 1556.37 1341.32 1558.15 Q1339.43 1559.93 1339.43 1563.06 Q1339.43 1566.18 1341.32 1567.97 Q1343.25 1569.75 1346.58 1569.75 Q1349.91 1569.75 1351.83 1567.97 Q1353.76 1566.16 1353.76 1563.06 Q1353.76 1559.93 1351.83 1558.15 Q1349.94 1556.37 1346.58 1556.37 M1341.9 1554.38 Q1338.89 1553.64 1337.2 1551.58 Q1335.54 1549.52 1335.54 1546.55 Q1335.54 1542.41 1338.48 1540 Q1341.44 1537.6 1346.58 1537.6 Q1351.74 1537.6 1354.68 1540 Q1357.62 1542.41 1357.62 1546.55 Q1357.62 1549.52 1355.93 1551.58 Q1354.26 1553.64 1351.28 1554.38 Q1354.66 1555.16 1356.53 1557.46 Q1358.43 1559.75 1358.43 1563.06 Q1358.43 1568.08 1355.35 1570.77 Q1352.3 1573.45 1346.58 1573.45 Q1340.86 1573.45 1337.78 1570.77 Q1334.73 1568.08 1334.73 1563.06 Q1334.73 1559.75 1336.63 1557.46 Q1338.52 1555.16 1341.9 1554.38 M1340.19 1546.99 Q1340.19 1549.68 1341.86 1551.18 Q1343.55 1552.69 1346.58 1552.69 Q1349.59 1552.69 1351.28 1551.18 Q1352.99 1549.68 1352.99 1546.99 Q1352.99 1544.31 1351.28 1542.8 Q1349.59 1541.3 1346.58 1541.3 Q1343.55 1541.3 1341.86 1542.8 Q1340.19 1544.31 1340.19 1546.99 Z" fill="#000000" fill-rule="evenodd" fill-opacity="1" /><path clip-path="url(#clip860)" d="M1382.17 1555.95 L1411.85 1555.95 L1411.85 1559.89 L1382.17 1559.89 L1382.17 1555.95 Z" fill="#000000" fill-rule="evenodd" fill-opacity="1" /><path clip-path="url(#clip860)" d="M1431.94 1541.3 Q1428.33 1541.3 1426.5 1544.86 Q1424.7 1548.41 1424.7 1555.54 Q1424.7 1562.64 1426.5 1566.21 Q1428.33 1569.75 1431.94 1569.75 Q1435.58 1569.75 1437.38 1566.21 Q1439.21 1562.64 1439.21 1555.54 Q1439.21 1548.41 1437.38 1544.86 Q1435.58 1541.3 1431.94 1541.3 M1431.94 1537.6 Q1437.75 1537.6 1440.81 1542.2 Q1443.89 1546.79 1443.89 1555.54 Q1443.89 1564.26 1440.81 1568.87 Q1437.75 1573.45 1431.94 1573.45 Q1426.13 1573.45 1423.05 1568.87 Q1420 1564.26 1420 1555.54 Q1420 1546.79 1423.05 1542.2 Q1426.13 1537.6 1431.94 1537.6 Z" fill="#000000" fill-rule="evenodd" fill-opacity="1" /><path clip-path="url(#clip860)" d="M1452.1 1566.9 L1456.99 1566.9 L1456.99 1572.78 L1452.1 1572.78 L1452.1 1566.9 Z" fill="#000000" fill-rule="evenodd" fill-opacity="1" /><path clip-path="url(#clip860)" d="M1477.17 1541.3 Q1473.56 1541.3 1471.73 1544.86 Q1469.93 1548.41 1469.93 1555.54 Q1469.93 1562.64 1471.73 1566.21 Q1473.56 1569.75 1477.17 1569.75 Q1480.81 1569.75 1482.61 1566.21 Q1484.44 1562.64 1484.44 1555.54 Q1484.44 1548.41 1482.61 1544.86 Q1480.81 1541.3 1477.17 1541.3 M1477.17 1537.6 Q1482.98 1537.6 1486.04 1542.2 Q1489.12 1546.79 1489.12 1555.54 Q1489.12 1564.26 1486.04 1568.87 Q1482.98 1573.45 1477.17 1573.45 Q1471.36 1573.45 1468.28 1568.87 Q1465.23 1564.26 1465.23 1555.54 Q1465.23 1546.79 1468.28 1542.2 Q1471.36 1537.6 1477.17 1537.6 Z" fill="#000000" fill-rule="evenodd" fill-opacity="1" /><path clip-path="url(#clip860)" d="M1510.18 1542.29 L1498.38 1560.74 L1510.18 1560.74 L1510.18 1542.29 M1508.96 1538.22 L1514.83 1538.22 L1514.83 1560.74 L1519.77 1560.74 L1519.77 1564.63 L1514.83 1564.63 L1514.83 1572.78 L1510.18 1572.78 L1510.18 1564.63 L1494.58 1564.63 L1494.58 1560.12 L1508.96 1538.22 Z" fill="#000000" fill-rule="evenodd" fill-opacity="1" /><path clip-path="url(#clip860)" d="M1537.5 1541.3 Q1533.89 1541.3 1532.06 1544.86 Q1530.25 1548.41 1530.25 1555.54 Q1530.25 1562.64 1532.06 1566.21 Q1533.89 1569.75 1537.5 1569.75 Q1541.13 1569.75 1542.94 1566.21 Q1544.77 1562.64 1544.77 1555.54 Q1544.77 1548.41 1542.94 1544.86 Q1541.13 1541.3 1537.5 1541.3 M1537.5 1537.6 Q1543.31 1537.6 1546.36 1542.2 Q1549.44 1546.79 1549.44 1555.54 Q1549.44 1564.26 1546.36 1568.87 Q1543.31 1573.45 1537.5 1573.45 Q1531.69 1573.45 1528.61 1568.87 Q1525.55 1564.26 1525.55 1555.54 Q1525.55 1546.79 1528.61 1542.2 Q1531.69 1537.6 1537.5 1537.6 Z" fill="#000000" fill-rule="evenodd" fill-opacity="1" /><path clip-path="url(#clip860)" d="M1573.94 1555.95 L1603.61 1555.95 L1603.61 1559.89 L1573.94 1559.89 L1573.94 1555.95 Z" fill="#000000" fill-rule="evenodd" fill-opacity="1" /><path clip-path="url(#clip860)" d="M1623.7 1541.3 Q1620.09 1541.3 1618.26 1544.86 Q1616.46 1548.41 1616.46 1555.54 Q1616.46 1562.64 1618.26 1566.21 Q1620.09 1569.75 1623.7 1569.75 Q1627.34 1569.75 1629.14 1566.21 Q1630.97 1562.64 1630.97 1555.54 Q1630.97 1548.41 1629.14 1544.86 Q1627.34 1541.3 1623.7 1541.3 M1623.7 1537.6 Q1629.51 1537.6 1632.57 1542.2 Q1635.65 1546.79 1635.65 1555.54 Q1635.65 1564.26 1632.57 1568.87 Q1629.51 1573.45 1623.7 1573.45 Q1617.89 1573.45 1614.81 1568.87 Q1611.76 1564.26 1611.76 1555.54 Q1611.76 1546.79 1614.81 1542.2 Q1617.89 1537.6 1623.7 1537.6 Z" fill="#000000" fill-rule="evenodd" fill-opacity="1" /><path clip-path="url(#clip860)" d="M1643.87 1566.9 L1648.75 1566.9 L1648.75 1572.78 L1643.87 1572.78 L1643.87 1566.9 Z" fill="#000000" fill-rule="evenodd" fill-opacity="1" /><path clip-path="url(#clip860)" d="M1668.93 1541.3 Q1665.32 1541.3 1663.5 1544.86 Q1661.69 1548.41 1661.69 1555.54 Q1661.69 1562.64 1663.5 1566.21 Q1665.32 1569.75 1668.93 1569.75 Q1672.57 1569.75 1674.37 1566.21 Q1676.2 1562.64 1676.2 1555.54 Q1676.2 1548.41 1674.37 1544.86 Q1672.57 1541.3 1668.93 1541.3 M1668.93 1537.6 Q1674.75 1537.6 1677.8 1542.2 Q1680.88 1546.79 1680.88 1555.54 Q1680.88 1564.26 1677.8 1568.87 Q1674.75 1573.45 1668.93 1573.45 Q1663.12 1573.45 1660.05 1568.87 Q1656.99 1564.26 1656.99 1555.54 Q1656.99 1546.79 1660.05 1542.2 Q1663.12 1537.6 1668.93 1537.6 Z" fill="#000000" fill-rule="evenodd" fill-opacity="1" /><path clip-path="url(#clip860)" d="M1703.26 1554.15 Q1706.62 1554.86 1708.49 1557.13 Q1710.39 1559.4 1710.39 1562.73 Q1710.39 1567.85 1706.87 1570.65 Q1703.36 1573.45 1696.87 1573.45 Q1694.7 1573.45 1692.38 1573.01 Q1690.09 1572.6 1687.64 1571.74 L1687.64 1567.22 Q1689.58 1568.36 1691.9 1568.94 Q1694.21 1569.52 1696.74 1569.52 Q1701.13 1569.52 1703.43 1567.78 Q1705.74 1566.04 1705.74 1562.73 Q1705.74 1559.68 1703.59 1557.97 Q1701.46 1556.23 1697.64 1556.23 L1693.61 1556.23 L1693.61 1552.39 L1697.82 1552.39 Q1701.27 1552.39 1703.1 1551.02 Q1704.93 1549.63 1704.93 1547.04 Q1704.93 1544.38 1703.03 1542.97 Q1701.16 1541.53 1697.64 1541.53 Q1695.72 1541.53 1693.52 1541.95 Q1691.32 1542.36 1688.68 1543.24 L1688.68 1539.08 Q1691.34 1538.34 1693.66 1537.97 Q1695.99 1537.6 1698.06 1537.6 Q1703.38 1537.6 1706.48 1540.03 Q1709.58 1542.43 1709.58 1546.55 Q1709.58 1549.42 1707.94 1551.41 Q1706.3 1553.38 1703.26 1554.15 Z" fill="#000000" fill-rule="evenodd" fill-opacity="1" /><path clip-path="url(#clip860)" d="M1723.29 1568.85 L1739.61 1568.85 L1739.61 1572.78 L1717.66 1572.78 L1717.66 1568.85 Q1720.32 1566.09 1724.91 1561.46 Q1729.51 1556.81 1730.69 1555.47 Q1732.94 1552.94 1733.82 1551.21 Q1734.72 1549.45 1734.72 1547.76 Q1734.72 1545 1732.78 1543.27 Q1730.86 1541.53 1727.75 1541.53 Q1725.56 1541.53 1723.1 1542.29 Q1720.67 1543.06 1717.89 1544.61 L1717.89 1539.89 Q1720.72 1538.75 1723.17 1538.17 Q1725.62 1537.6 1727.66 1537.6 Q1733.03 1537.6 1736.23 1540.28 Q1739.42 1542.97 1739.42 1547.46 Q1739.42 1549.59 1738.61 1551.51 Q1737.82 1553.41 1735.72 1556 Q1735.14 1556.67 1732.04 1559.89 Q1728.93 1563.08 1723.29 1568.85 Z" fill="#000000" fill-rule="evenodd" fill-opacity="1" /><path clip-path="url(#clip860)" d="M1763.86 1555.95 L1793.53 1555.95 L1793.53 1559.89 L1763.86 1559.89 L1763.86 1555.95 Z" fill="#000000" fill-rule="evenodd" fill-opacity="1" /><path clip-path="url(#clip860)" d="M1813.63 1541.3 Q1810.01 1541.3 1808.19 1544.86 Q1806.38 1548.41 1806.38 1555.54 Q1806.38 1562.64 1808.19 1566.21 Q1810.01 1569.75 1813.63 1569.75 Q1817.26 1569.75 1819.07 1566.21 Q1820.89 1562.64 1820.89 1555.54 Q1820.89 1548.41 1819.07 1544.86 Q1817.26 1541.3 1813.63 1541.3 M1813.63 1537.6 Q1819.44 1537.6 1822.49 1542.2 Q1825.57 1546.79 1825.57 1555.54 Q1825.57 1564.26 1822.49 1568.87 Q1819.44 1573.45 1813.63 1573.45 Q1807.82 1573.45 1804.74 1568.87 Q1801.68 1564.26 1801.68 1555.54 Q1801.68 1546.79 1804.74 1542.2 Q1807.82 1537.6 1813.63 1537.6 Z" fill="#000000" fill-rule="evenodd" fill-opacity="1" /><path clip-path="url(#clip860)" d="M1833.79 1566.9 L1838.67 1566.9 L1838.67 1572.78 L1833.79 1572.78 L1833.79 1566.9 Z" fill="#000000" fill-rule="evenodd" fill-opacity="1" /><path clip-path="url(#clip860)" d="M1858.86 1541.3 Q1855.25 1541.3 1853.42 1544.86 Q1851.61 1548.41 1851.61 1555.54 Q1851.61 1562.64 1853.42 1566.21 Q1855.25 1569.75 1858.86 1569.75 Q1862.49 1569.75 1864.3 1566.21 Q1866.13 1562.64 1866.13 1555.54 Q1866.13 1548.41 1864.3 1544.86 Q1862.49 1541.3 1858.86 1541.3 M1858.86 1537.6 Q1864.67 1537.6 1867.72 1542.2 Q1870.8 1546.79 1870.8 1555.54 Q1870.8 1564.26 1867.72 1568.87 Q1864.67 1573.45 1858.86 1573.45 Q1853.05 1573.45 1849.97 1568.87 Q1846.91 1564.26 1846.91 1555.54 Q1846.91 1546.79 1849.97 1542.2 Q1853.05 1537.6 1858.86 1537.6 Z" fill="#000000" fill-rule="evenodd" fill-opacity="1" /><path clip-path="url(#clip860)" d="M1883.05 1568.85 L1899.37 1568.85 L1899.37 1572.78 L1877.42 1572.78 L1877.42 1568.85 Q1880.08 1566.09 1884.67 1561.46 Q1889.27 1556.81 1890.45 1555.47 Q1892.7 1552.94 1893.58 1551.21 Q1894.48 1549.45 1894.48 1547.76 Q1894.48 1545 1892.54 1543.27 Q1890.62 1541.53 1887.51 1541.53 Q1885.31 1541.53 1882.86 1542.29 Q1880.43 1543.06 1877.65 1544.61 L1877.65 1539.89 Q1880.48 1538.75 1882.93 1538.17 Q1885.38 1537.6 1887.42 1537.6 Q1892.79 1537.6 1895.99 1540.28 Q1899.18 1542.97 1899.18 1547.46 Q1899.18 1549.59 1898.37 1551.51 Q1897.58 1553.41 1895.48 1556 Q1894.9 1556.67 1891.8 1559.89 Q1888.69 1563.08 1883.05 1568.85 Z" fill="#000000" fill-rule="evenodd" fill-opacity="1" /><path clip-path="url(#clip860)" d="M1922.03 1542.29 L1910.22 1560.74 L1922.03 1560.74 L1922.03 1542.29 M1920.8 1538.22 L1926.68 1538.22 L1926.68 1560.74 L1931.61 1560.74 L1931.61 1564.63 L1926.68 1564.63 L1926.68 1572.78 L1922.03 1572.78 L1922.03 1564.63 L1906.43 1564.63 L1906.43 1560.12 L1920.8 1538.22 Z" fill="#000000" fill-rule="evenodd" fill-opacity="1" /><path clip-path="url(#clip860)" d="M1954.98 1555.95 L1984.66 1555.95 L1984.66 1559.89 L1954.98 1559.89 L1954.98 1555.95 Z" fill="#000000" fill-rule="evenodd" fill-opacity="1" /><path clip-path="url(#clip860)" d="M2004.75 1541.3 Q2001.14 1541.3 1999.31 1544.86 Q1997.51 1548.41 1997.51 1555.54 Q1997.51 1562.64 1999.31 1566.21 Q2001.14 1569.75 2004.75 1569.75 Q2008.39 1569.75 2010.19 1566.21 Q2012.02 1562.64 2012.02 1555.54 Q2012.02 1548.41 2010.19 1544.86 Q2008.39 1541.3 2004.75 1541.3 M2004.75 1537.6 Q2010.56 1537.6 2013.62 1542.2 Q2016.7 1546.79 2016.7 1555.54 Q2016.7 1564.26 2013.62 1568.87 Q2010.56 1573.45 2004.75 1573.45 Q1998.94 1573.45 1995.86 1568.87 Q1992.81 1564.26 1992.81 1555.54 Q1992.81 1546.79 1995.86 1542.2 Q1998.94 1537.6 2004.75 1537.6 Z" fill="#000000" fill-rule="evenodd" fill-opacity="1" /><path clip-path="url(#clip860)" d="M2024.91 1566.9 L2029.8 1566.9 L2029.8 1572.78 L2024.91 1572.78 L2024.91 1566.9 Z" fill="#000000" fill-rule="evenodd" fill-opacity="1" /><path clip-path="url(#clip860)" d="M2049.98 1541.3 Q2046.37 1541.3 2044.54 1544.86 Q2042.74 1548.41 2042.74 1555.54 Q2042.74 1562.64 2044.54 1566.21 Q2046.37 1569.75 2049.98 1569.75 Q2053.62 1569.75 2055.42 1566.21 Q2057.25 1562.64 2057.25 1555.54 Q2057.25 1548.41 2055.42 1544.86 Q2053.62 1541.3 2049.98 1541.3 M2049.98 1537.6 Q2055.79 1537.6 2058.85 1542.2 Q2061.93 1546.79 2061.93 1555.54 Q2061.93 1564.26 2058.85 1568.87 Q2055.79 1573.45 2049.98 1573.45 Q2044.17 1573.45 2041.09 1568.87 Q2038.04 1564.26 2038.04 1555.54 Q2038.04 1546.79 2041.09 1542.2 Q2044.17 1537.6 2049.98 1537.6 Z" fill="#000000" fill-rule="evenodd" fill-opacity="1" /><path clip-path="url(#clip860)" d="M2070.95 1568.85 L2078.59 1568.85 L2078.59 1542.48 L2070.28 1544.15 L2070.28 1539.89 L2078.55 1538.22 L2083.22 1538.22 L2083.22 1568.85 L2090.86 1568.85 L2090.86 1572.78 L2070.95 1572.78 L2070.95 1568.85 Z" fill="#000000" fill-rule="evenodd" fill-opacity="1" /><path clip-path="url(#clip860)" d="M2110.88 1553.64 Q2107.74 1553.64 2105.88 1555.79 Q2104.06 1557.94 2104.06 1561.69 Q2104.06 1565.42 2105.88 1567.6 Q2107.74 1569.75 2110.88 1569.75 Q2114.03 1569.75 2115.86 1567.6 Q2117.71 1565.42 2117.71 1561.69 Q2117.71 1557.94 2115.86 1555.79 Q2114.03 1553.64 2110.88 1553.64 M2120.17 1538.98 L2120.17 1543.24 Q2118.41 1542.41 2116.6 1541.97 Q2114.82 1541.53 2113.06 1541.53 Q2108.43 1541.53 2105.98 1544.66 Q2103.55 1547.78 2103.2 1554.1 Q2104.57 1552.09 2106.63 1551.02 Q2108.69 1549.93 2111.16 1549.93 Q2116.37 1549.93 2119.38 1553.1 Q2122.41 1556.25 2122.41 1561.69 Q2122.41 1567.02 2119.26 1570.23 Q2116.12 1573.45 2110.88 1573.45 Q2104.89 1573.45 2101.72 1568.87 Q2098.55 1564.26 2098.55 1555.54 Q2098.55 1547.34 2102.44 1542.48 Q2106.32 1537.6 2112.88 1537.6 Q2114.63 1537.6 2116.42 1537.94 Q2118.22 1538.29 2120.17 1538.98 Z" fill="#000000" fill-rule="evenodd" fill-opacity="1" /><path clip-path="url(#clip860)" d="M2146.07 1555.95 L2175.75 1555.95 L2175.75 1559.89 L2146.07 1559.89 L2146.07 1555.95 Z" fill="#000000" fill-rule="evenodd" fill-opacity="1" /><path clip-path="url(#clip860)" d="M2195.84 1541.3 Q2192.23 1541.3 2190.4 1544.86 Q2188.6 1548.41 2188.6 1555.54 Q2188.6 1562.64 2190.4 1566.21 Q2192.23 1569.75 2195.84 1569.75 Q2199.48 1569.75 2201.28 1566.21 Q2203.11 1562.64 2203.11 1555.54 Q2203.11 1548.41 2201.28 1544.86 Q2199.48 1541.3 2195.84 1541.3 M2195.84 1537.6 Q2201.65 1537.6 2204.71 1542.2 Q2207.79 1546.79 2207.79 1555.54 Q2207.79 1564.26 2204.71 1568.87 Q2201.65 1573.45 2195.84 1573.45 Q2190.03 1573.45 2186.95 1568.87 Q2183.9 1564.26 2183.9 1555.54 Q2183.9 1546.79 2186.95 1542.2 Q2190.03 1537.6 2195.84 1537.6 Z" fill="#000000" fill-rule="evenodd" fill-opacity="1" /><path clip-path="url(#clip860)" d="M2216 1566.9 L2220.89 1566.9 L2220.89 1572.78 L2216 1572.78 L2216 1566.9 Z" fill="#000000" fill-rule="evenodd" fill-opacity="1" /><path clip-path="url(#clip860)" d="M2241.07 1541.3 Q2237.46 1541.3 2235.63 1544.86 Q2233.83 1548.41 2233.83 1555.54 Q2233.83 1562.64 2235.63 1566.21 Q2237.46 1569.75 2241.07 1569.75 Q2244.71 1569.75 2246.51 1566.21 Q2248.34 1562.64 2248.34 1555.54 Q2248.34 1548.41 2246.51 1544.86 Q2244.71 1541.3 2241.07 1541.3 M2241.07 1537.6 Q2246.88 1537.6 2249.94 1542.2 Q2253.02 1546.79 2253.02 1555.54 Q2253.02 1564.26 2249.94 1568.87 Q2246.88 1573.45 2241.07 1573.45 Q2235.26 1573.45 2232.18 1568.87 Q2229.13 1564.26 2229.13 1555.54 Q2229.13 1546.79 2232.18 1542.2 Q2235.26 1537.6 2241.07 1537.6 Z" fill="#000000" fill-rule="evenodd" fill-opacity="1" /><path clip-path="url(#clip860)" d="M2271.23 1541.3 Q2267.62 1541.3 2265.79 1544.86 Q2263.99 1548.41 2263.99 1555.54 Q2263.99 1562.64 2265.79 1566.21 Q2267.62 1569.75 2271.23 1569.75 Q2274.87 1569.75 2276.67 1566.21 Q2278.5 1562.64 2278.5 1555.54 Q2278.5 1548.41 2276.67 1544.86 Q2274.87 1541.3 2271.23 1541.3 M2271.23 1537.6 Q2277.04 1537.6 2280.1 1542.2 Q2283.18 1546.79 2283.18 1555.54 Q2283.18 1564.26 2280.1 1568.87 Q2277.04 1573.45 2271.23 1573.45 Q2265.42 1573.45 2262.35 1568.87 Q2259.29 1564.26 2259.29 1555.54 Q2259.29 1546.79 2262.35 1542.2 Q2265.42 1537.6 2271.23 1537.6 Z" fill="#000000" fill-rule="evenodd" fill-opacity="1" /><path clip-path="url(#clip860)" d="M2301.4 1556.37 Q2298.06 1556.37 2296.14 1558.15 Q2294.24 1559.93 2294.24 1563.06 Q2294.24 1566.18 2296.14 1567.97 Q2298.06 1569.75 2301.4 1569.75 Q2304.73 1569.75 2306.65 1567.97 Q2308.57 1566.16 2308.57 1563.06 Q2308.57 1559.93 2306.65 1558.15 Q2304.75 1556.37 2301.4 1556.37 M2296.72 1554.38 Q2293.71 1553.64 2292.02 1551.58 Q2290.36 1549.52 2290.36 1546.55 Q2290.36 1542.41 2293.29 1540 Q2296.26 1537.6 2301.4 1537.6 Q2306.56 1537.6 2309.5 1540 Q2312.44 1542.41 2312.44 1546.55 Q2312.44 1549.52 2310.75 1551.58 Q2309.08 1553.64 2306.1 1554.38 Q2309.48 1555.16 2311.35 1557.46 Q2313.25 1559.75 2313.25 1563.06 Q2313.25 1568.08 2310.17 1570.77 Q2307.11 1573.45 2301.4 1573.45 Q2295.68 1573.45 2292.6 1570.77 Q2289.54 1568.08 2289.54 1563.06 Q2289.54 1559.75 2291.44 1557.46 Q2293.34 1555.16 2296.72 1554.38 M2295.01 1546.99 Q2295.01 1549.68 2296.67 1551.18 Q2298.36 1552.69 2301.4 1552.69 Q2304.41 1552.69 2306.1 1551.18 Q2307.81 1549.68 2307.81 1546.99 Q2307.81 1544.31 2306.1 1542.8 Q2304.41 1541.3 2301.4 1541.3 Q2298.36 1541.3 2296.67 1542.8 Q2295.01 1544.31 2295.01 1546.99 Z" fill="#000000" fill-rule="evenodd" fill-opacity="1" /><path clip-path="url(#clip860)" d="M2367.85 1541.3 Q2364.24 1541.3 2362.41 1544.86 Q2360.6 1548.41 2360.6 1555.54 Q2360.6 1562.64 2362.41 1566.21 Q2364.24 1569.75 2367.85 1569.75 Q2371.48 1569.75 2373.29 1566.21 Q2375.12 1562.64 2375.12 1555.54 Q2375.12 1548.41 2373.29 1544.86 Q2371.48 1541.3 2367.85 1541.3 M2367.85 1537.6 Q2373.66 1537.6 2376.71 1542.2 Q2379.79 1546.79 2379.79 1555.54 Q2379.79 1564.26 2376.71 1568.87 Q2373.66 1573.45 2367.85 1573.45 Q2362.04 1573.45 2358.96 1568.87 Q2355.9 1564.26 2355.9 1555.54 Q2355.9 1546.79 2358.96 1542.2 Q2362.04 1537.6 2367.85 1537.6 Z" fill="#000000" fill-rule="evenodd" fill-opacity="1" /><path clip-path="url(#clip860)" d="M2388.01 1566.9 L2392.89 1566.9 L2392.89 1572.78 L2388.01 1572.78 L2388.01 1566.9 Z" fill="#000000" fill-rule="evenodd" fill-opacity="1" /><path clip-path="url(#clip860)" d="M2413.08 1541.3 Q2409.47 1541.3 2407.64 1544.86 Q2405.83 1548.41 2405.83 1555.54 Q2405.83 1562.64 2407.64 1566.21 Q2409.47 1569.75 2413.08 1569.75 Q2416.71 1569.75 2418.52 1566.21 Q2420.35 1562.64 2420.35 1555.54 Q2420.35 1548.41 2418.52 1544.86 Q2416.71 1541.3 2413.08 1541.3 M2413.08 1537.6 Q2418.89 1537.6 2421.94 1542.2 Q2425.02 1546.79 2425.02 1555.54 Q2425.02 1564.26 2421.94 1568.87 Q2418.89 1573.45 2413.08 1573.45 Q2407.27 1573.45 2404.19 1568.87 Q2401.13 1564.26 2401.13 1555.54 Q2401.13 1546.79 2404.19 1542.2 Q2407.27 1537.6 2413.08 1537.6 Z" fill="#000000" fill-rule="evenodd" fill-opacity="1" /><path clip-path="url(#clip860)" d="M2443.24 1541.3 Q2439.63 1541.3 2437.8 1544.86 Q2435.99 1548.41 2435.99 1555.54 Q2435.99 1562.64 2437.8 1566.21 Q2439.63 1569.75 2443.24 1569.75 Q2446.87 1569.75 2448.68 1566.21 Q2450.51 1562.64 2450.51 1555.54 Q2450.51 1548.41 2448.68 1544.86 Q2446.87 1541.3 2443.24 1541.3 M2443.24 1537.6 Q2449.05 1537.6 2452.11 1542.2 Q2455.18 1546.79 2455.18 1555.54 Q2455.18 1564.26 2452.11 1568.87 Q2449.05 1573.45 2443.24 1573.45 Q2437.43 1573.45 2434.35 1568.87 Q2431.3 1564.26 2431.3 1555.54 Q2431.3 1546.79 2434.35 1542.2 Q2437.43 1537.6 2443.24 1537.6 Z" fill="#000000" fill-rule="evenodd" fill-opacity="1" /><path clip-path="url(#clip860)" d="M2473.4 1541.3 Q2469.79 1541.3 2467.96 1544.86 Q2466.16 1548.41 2466.16 1555.54 Q2466.16 1562.64 2467.96 1566.21 Q2469.79 1569.75 2473.4 1569.75 Q2477.04 1569.75 2478.84 1566.21 Q2480.67 1562.64 2480.67 1555.54 Q2480.67 1548.41 2478.84 1544.86 Q2477.04 1541.3 2473.4 1541.3 M2473.4 1537.6 Q2479.21 1537.6 2482.27 1542.2 Q2485.35 1546.79 2485.35 1555.54 Q2485.35 1564.26 2482.27 1568.87 Q2479.21 1573.45 2473.4 1573.45 Q2467.59 1573.45 2464.51 1568.87 Q2461.46 1564.26 2461.46 1555.54 Q2461.46 1546.79 2464.51 1542.2 Q2467.59 1537.6 2473.4 1537.6 Z" fill="#000000" fill-rule="evenodd" fill-opacity="1" /><path clip-path="url(#clip860)" d="M2558.86 1541.3 Q2555.25 1541.3 2553.42 1544.86 Q2551.61 1548.41 2551.61 1555.54 Q2551.61 1562.64 2553.42 1566.21 Q2555.25 1569.75 2558.86 1569.75 Q2562.49 1569.75 2564.3 1566.21 Q2566.12 1562.64 2566.12 1555.54 Q2566.12 1548.41 2564.3 1544.86 Q2562.49 1541.3 2558.86 1541.3 M2558.86 1537.6 Q2564.67 1537.6 2567.72 1542.2 Q2570.8 1546.79 2570.8 1555.54 Q2570.8 1564.26 2567.72 1568.87 Q2564.67 1573.45 2558.86 1573.45 Q2553.05 1573.45 2549.97 1568.87 Q2546.91 1564.26 2546.91 1555.54 Q2546.91 1546.79 2549.97 1542.2 Q2553.05 1537.6 2558.86 1537.6 Z" fill="#000000" fill-rule="evenodd" fill-opacity="1" /><path clip-path="url(#clip860)" d="M2579.02 1566.9 L2583.9 1566.9 L2583.9 1572.78 L2579.02 1572.78 L2579.02 1566.9 Z" fill="#000000" fill-rule="evenodd" fill-opacity="1" /><path clip-path="url(#clip860)" d="M2604.09 1541.3 Q2600.48 1541.3 2598.65 1544.86 Q2596.84 1548.41 2596.84 1555.54 Q2596.84 1562.64 2598.65 1566.21 Q2600.48 1569.75 2604.09 1569.75 Q2607.72 1569.75 2609.53 1566.21 Q2611.36 1562.64 2611.36 1555.54 Q2611.36 1548.41 2609.53 1544.86 Q2607.72 1541.3 2604.09 1541.3 M2604.09 1537.6 Q2609.9 1537.6 2612.95 1542.2 Q2616.03 1546.79 2616.03 1555.54 Q2616.03 1564.26 2612.95 1568.87 Q2609.9 1573.45 2604.09 1573.45 Q2598.28 1573.45 2595.2 1568.87 Q2592.14 1564.26 2592.14 1555.54 Q2592.14 1546.79 2595.2 1542.2 Q2598.28 1537.6 2604.09 1537.6 Z" fill="#000000" fill-rule="evenodd" fill-opacity="1" /><path clip-path="url(#clip860)" d="M2634.25 1541.3 Q2630.64 1541.3 2628.81 1544.86 Q2627 1548.41 2627 1555.54 Q2627 1562.64 2628.81 1566.21 Q2630.64 1569.75 2634.25 1569.75 Q2637.88 1569.75 2639.69 1566.21 Q2641.52 1562.64 2641.52 1555.54 Q2641.52 1548.41 2639.69 1544.86 Q2637.88 1541.3 2634.25 1541.3 M2634.25 1537.6 Q2640.06 1537.6 2643.12 1542.2 Q2646.19 1546.79 2646.19 1555.54 Q2646.19 1564.26 2643.12 1568.87 Q2640.06 1573.45 2634.25 1573.45 Q2628.44 1573.45 2625.36 1568.87 Q2622.31 1564.26 2622.31 1555.54 Q2622.31 1546.79 2625.36 1542.2 Q2628.44 1537.6 2634.25 1537.6 Z" fill="#000000" fill-rule="evenodd" fill-opacity="1" /><path clip-path="url(#clip860)" d="M2664.41 1556.37 Q2661.08 1556.37 2659.16 1558.15 Q2657.26 1559.93 2657.26 1563.06 Q2657.26 1566.18 2659.16 1567.97 Q2661.08 1569.75 2664.41 1569.75 Q2667.74 1569.75 2669.67 1567.97 Q2671.59 1566.16 2671.59 1563.06 Q2671.59 1559.93 2669.67 1558.15 Q2667.77 1556.37 2664.41 1556.37 M2659.74 1554.38 Q2656.73 1553.64 2655.04 1551.58 Q2653.37 1549.52 2653.37 1546.55 Q2653.37 1542.41 2656.31 1540 Q2659.27 1537.6 2664.41 1537.6 Q2669.57 1537.6 2672.51 1540 Q2675.45 1542.41 2675.45 1546.55 Q2675.45 1549.52 2673.76 1551.58 Q2672.1 1553.64 2669.11 1554.38 Q2672.49 1555.16 2674.37 1557.46 Q2676.26 1559.75 2676.26 1563.06 Q2676.26 1568.08 2673.18 1570.77 Q2670.13 1573.45 2664.41 1573.45 Q2658.69 1573.45 2655.62 1570.77 Q2652.56 1568.08 2652.56 1563.06 Q2652.56 1559.75 2654.46 1557.46 Q2656.36 1555.16 2659.74 1554.38 M2658.02 1546.99 Q2658.02 1549.68 2659.69 1551.18 Q2661.38 1552.69 2664.41 1552.69 Q2667.42 1552.69 2669.11 1551.18 Q2670.82 1549.68 2670.82 1546.99 Q2670.82 1544.31 2669.11 1542.8 Q2667.42 1541.3 2664.41 1541.3 Q2661.38 1541.3 2659.69 1542.8 Q2658.02 1544.31 2658.02 1546.99 Z" fill="#000000" fill-rule="evenodd" fill-opacity="1" /><path clip-path="url(#clip860)" d="M2749.69 1541.3 Q2746.08 1541.3 2744.25 1544.86 Q2742.45 1548.41 2742.45 1555.54 Q2742.45 1562.64 2744.25 1566.21 Q2746.08 1569.75 2749.69 1569.75 Q2753.33 1569.75 2755.13 1566.21 Q2756.96 1562.64 2756.96 1555.54 Q2756.96 1548.41 2755.13 1544.86 Q2753.33 1541.3 2749.69 1541.3 M2749.69 1537.6 Q2755.5 1537.6 2758.56 1542.2 Q2761.64 1546.79 2761.64 1555.54 Q2761.64 1564.26 2758.56 1568.87 Q2755.5 1573.45 2749.69 1573.45 Q2743.88 1573.45 2740.8 1568.87 Q2737.75 1564.26 2737.75 1555.54 Q2737.75 1546.79 2740.8 1542.2 Q2743.88 1537.6 2749.69 1537.6 Z" fill="#000000" fill-rule="evenodd" fill-opacity="1" /><path clip-path="url(#clip860)" d="M2769.85 1566.9 L2774.74 1566.9 L2774.74 1572.78 L2769.85 1572.78 L2769.85 1566.9 Z" fill="#000000" fill-rule="evenodd" fill-opacity="1" /><path clip-path="url(#clip860)" d="M2794.92 1541.3 Q2791.31 1541.3 2789.48 1544.86 Q2787.68 1548.41 2787.68 1555.54 Q2787.68 1562.64 2789.48 1566.21 Q2791.31 1569.75 2794.92 1569.75 Q2798.56 1569.75 2800.36 1566.21 Q2802.19 1562.64 2802.19 1555.54 Q2802.19 1548.41 2800.36 1544.86 Q2798.56 1541.3 2794.92 1541.3 M2794.92 1537.6 Q2800.73 1537.6 2803.79 1542.2 Q2806.87 1546.79 2806.87 1555.54 Q2806.87 1564.26 2803.79 1568.87 Q2800.73 1573.45 2794.92 1573.45 Q2789.11 1573.45 2786.03 1568.87 Q2782.98 1564.26 2782.98 1555.54 Q2782.98 1546.79 2786.03 1542.2 Q2789.11 1537.6 2794.92 1537.6 Z" fill="#000000" fill-rule="evenodd" fill-opacity="1" /><path clip-path="url(#clip860)" d="M2815.9 1568.85 L2823.53 1568.85 L2823.53 1542.48 L2815.22 1544.15 L2815.22 1539.89 L2823.49 1538.22 L2828.16 1538.22 L2828.16 1568.85 L2835.8 1568.85 L2835.8 1572.78 L2815.9 1572.78 L2815.9 1568.85 Z" fill="#000000" fill-rule="evenodd" fill-opacity="1" /><path clip-path="url(#clip860)" d="M2855.83 1553.64 Q2852.68 1553.64 2850.83 1555.79 Q2849 1557.94 2849 1561.69 Q2849 1565.42 2850.83 1567.6 Q2852.68 1569.75 2855.83 1569.75 Q2858.97 1569.75 2860.8 1567.6 Q2862.65 1565.42 2862.65 1561.69 Q2862.65 1557.94 2860.8 1555.79 Q2858.97 1553.64 2855.83 1553.64 M2865.11 1538.98 L2865.11 1543.24 Q2863.35 1542.41 2861.54 1541.97 Q2859.76 1541.53 2858 1541.53 Q2853.37 1541.53 2850.92 1544.66 Q2848.49 1547.78 2848.14 1554.1 Q2849.51 1552.09 2851.57 1551.02 Q2853.63 1549.93 2856.1 1549.93 Q2861.31 1549.93 2864.32 1553.1 Q2867.35 1556.25 2867.35 1561.69 Q2867.35 1567.02 2864.21 1570.23 Q2861.06 1573.45 2855.83 1573.45 Q2849.83 1573.45 2846.66 1568.87 Q2843.49 1564.26 2843.49 1555.54 Q2843.49 1547.34 2847.38 1542.48 Q2851.27 1537.6 2857.82 1537.6 Q2859.58 1537.6 2861.36 1537.94 Q2863.16 1538.29 2865.11 1538.98 Z" fill="#000000" fill-rule="evenodd" fill-opacity="1" /><path clip-path="url(#clip860)" d="M2940.49 1541.3 Q2936.88 1541.3 2935.05 1544.86 Q2933.25 1548.41 2933.25 1555.54 Q2933.25 1562.64 2935.05 1566.21 Q2936.88 1569.75 2940.49 1569.75 Q2944.13 1569.75 2945.93 1566.21 Q2947.76 1562.64 2947.76 1555.54 Q2947.76 1548.41 2945.93 1544.86 Q2944.13 1541.3 2940.49 1541.3 M2940.49 1537.6 Q2946.3 1537.6 2949.36 1542.2 Q2952.44 1546.79 2952.44 1555.54 Q2952.44 1564.26 2949.36 1568.87 Q2946.3 1573.45 2940.49 1573.45 Q2934.68 1573.45 2931.61 1568.87 Q2928.55 1564.26 2928.55 1555.54 Q2928.55 1546.79 2931.61 1542.2 Q2934.68 1537.6 2940.49 1537.6 Z" fill="#000000" fill-rule="evenodd" fill-opacity="1" /><path clip-path="url(#clip860)" d="M2960.66 1566.9 L2965.54 1566.9 L2965.54 1572.78 L2960.66 1572.78 L2960.66 1566.9 Z" fill="#000000" fill-rule="evenodd" fill-opacity="1" /><path clip-path="url(#clip860)" d="M2985.73 1541.3 Q2982.11 1541.3 2980.29 1544.86 Q2978.48 1548.41 2978.48 1555.54 Q2978.48 1562.64 2980.29 1566.21 Q2982.11 1569.75 2985.73 1569.75 Q2989.36 1569.75 2991.16 1566.21 Q2992.99 1562.64 2992.99 1555.54 Q2992.99 1548.41 2991.16 1544.86 Q2989.36 1541.3 2985.73 1541.3 M2985.73 1537.6 Q2991.54 1537.6 2994.59 1542.2 Q2997.67 1546.79 2997.67 1555.54 Q2997.67 1564.26 2994.59 1568.87 Q2991.54 1573.45 2985.73 1573.45 Q2979.92 1573.45 2976.84 1568.87 Q2973.78 1564.26 2973.78 1555.54 Q2973.78 1546.79 2976.84 1542.2 Q2979.92 1537.6 2985.73 1537.6 Z" fill="#000000" fill-rule="evenodd" fill-opacity="1" /><path clip-path="url(#clip860)" d="M3009.91 1568.85 L3026.23 1568.85 L3026.23 1572.78 L3004.29 1572.78 L3004.29 1568.85 Q3006.95 1566.09 3011.54 1561.46 Q3016.14 1556.81 3017.32 1555.47 Q3019.57 1552.94 3020.45 1551.21 Q3021.35 1549.45 3021.35 1547.76 Q3021.35 1545 3019.41 1543.27 Q3017.48 1541.53 3014.38 1541.53 Q3012.18 1541.53 3009.73 1542.29 Q3007.3 1543.06 3004.52 1544.61 L3004.52 1539.89 Q3007.35 1538.75 3009.8 1538.17 Q3012.25 1537.6 3014.29 1537.6 Q3019.66 1537.6 3022.85 1540.28 Q3026.05 1542.97 3026.05 1547.46 Q3026.05 1549.59 3025.24 1551.51 Q3024.45 1553.41 3022.35 1556 Q3021.77 1556.67 3018.66 1559.89 Q3015.56 1563.08 3009.91 1568.85 Z" fill="#000000" fill-rule="evenodd" fill-opacity="1" /><path clip-path="url(#clip860)" d="M3048.9 1542.29 L3037.09 1560.74 L3048.9 1560.74 L3048.9 1542.29 M3047.67 1538.22 L3053.55 1538.22 L3053.55 1560.74 L3058.48 1560.74 L3058.48 1564.63 L3053.55 1564.63 L3053.55 1572.78 L3048.9 1572.78 L3048.9 1564.63 L3033.29 1564.63 L3033.29 1560.12 L3047.67 1538.22 Z" fill="#000000" fill-rule="evenodd" fill-opacity="1" /><path clip-path="url(#clip860)" d="M3132.5 1541.3 Q3128.89 1541.3 3127.06 1544.86 Q3125.25 1548.41 3125.25 1555.54 Q3125.25 1562.64 3127.06 1566.21 Q3128.89 1569.75 3132.5 1569.75 Q3136.13 1569.75 3137.94 1566.21 Q3139.77 1562.64 3139.77 1555.54 Q3139.77 1548.41 3137.94 1544.86 Q3136.13 1541.3 3132.5 1541.3 M3132.5 1537.6 Q3138.31 1537.6 3141.36 1542.2 Q3144.44 1546.79 3144.44 1555.54 Q3144.44 1564.26 3141.36 1568.87 Q3138.31 1573.45 3132.5 1573.45 Q3126.69 1573.45 3123.61 1568.87 Q3120.55 1564.26 3120.55 1555.54 Q3120.55 1546.79 3123.61 1542.2 Q3126.69 1537.6 3132.5 1537.6 Z" fill="#000000" fill-rule="evenodd" fill-opacity="1" /><path clip-path="url(#clip860)" d="M3152.66 1566.9 L3157.55 1566.9 L3157.55 1572.78 L3152.66 1572.78 L3152.66 1566.9 Z" fill="#000000" fill-rule="evenodd" fill-opacity="1" /><path clip-path="url(#clip860)" d="M3177.73 1541.3 Q3174.12 1541.3 3172.29 1544.86 Q3170.48 1548.41 3170.48 1555.54 Q3170.48 1562.64 3172.29 1566.21 Q3174.12 1569.75 3177.73 1569.75 Q3181.36 1569.75 3183.17 1566.21 Q3185 1562.64 3185 1555.54 Q3185 1548.41 3183.17 1544.86 Q3181.36 1541.3 3177.73 1541.3 M3177.73 1537.6 Q3183.54 1537.6 3186.6 1542.2 Q3189.67 1546.79 3189.67 1555.54 Q3189.67 1564.26 3186.6 1568.87 Q3183.54 1573.45 3177.73 1573.45 Q3171.92 1573.45 3168.84 1568.87 Q3165.79 1564.26 3165.79 1555.54 Q3165.79 1546.79 3168.84 1542.2 Q3171.92 1537.6 3177.73 1537.6 Z" fill="#000000" fill-rule="evenodd" fill-opacity="1" /><path clip-path="url(#clip860)" d="M3212.06 1554.15 Q3215.42 1554.86 3217.29 1557.13 Q3219.19 1559.4 3219.19 1562.73 Q3219.19 1567.85 3215.67 1570.65 Q3212.15 1573.45 3205.67 1573.45 Q3203.49 1573.45 3201.18 1573.01 Q3198.89 1572.6 3196.43 1571.74 L3196.43 1567.22 Q3198.38 1568.36 3200.69 1568.94 Q3203.01 1569.52 3205.53 1569.52 Q3209.93 1569.52 3212.22 1567.78 Q3214.54 1566.04 3214.54 1562.73 Q3214.54 1559.68 3212.38 1557.97 Q3210.25 1556.23 3206.43 1556.23 L3202.41 1556.23 L3202.41 1552.39 L3206.62 1552.39 Q3210.07 1552.39 3211.9 1551.02 Q3213.73 1549.63 3213.73 1547.04 Q3213.73 1544.38 3211.83 1542.97 Q3209.95 1541.53 3206.43 1541.53 Q3204.51 1541.53 3202.31 1541.95 Q3200.11 1542.36 3197.48 1543.24 L3197.48 1539.08 Q3200.14 1538.34 3202.45 1537.97 Q3204.79 1537.6 3206.85 1537.6 Q3212.17 1537.6 3215.28 1540.03 Q3218.38 1542.43 3218.38 1546.55 Q3218.38 1549.42 3216.73 1551.41 Q3215.09 1553.38 3212.06 1554.15 Z" fill="#000000" fill-rule="evenodd" fill-opacity="1" /><path clip-path="url(#clip860)" d="M3232.08 1568.85 L3248.4 1568.85 L3248.4 1572.78 L3226.46 1572.78 L3226.46 1568.85 Q3229.12 1566.09 3233.7 1561.46 Q3238.31 1556.81 3239.49 1555.47 Q3241.73 1552.94 3242.61 1551.21 Q3243.52 1549.45 3243.52 1547.76 Q3243.52 1545 3241.57 1543.27 Q3239.65 1541.53 3236.55 1541.53 Q3234.35 1541.53 3231.9 1542.29 Q3229.47 1543.06 3226.69 1544.61 L3226.69 1539.89 Q3229.51 1538.75 3231.97 1538.17 Q3234.42 1537.6 3236.46 1537.6 Q3241.83 1537.6 3245.02 1540.28 Q3248.22 1542.97 3248.22 1547.46 Q3248.22 1549.59 3247.41 1551.51 Q3246.62 1553.41 3244.51 1556 Q3243.93 1556.67 3240.83 1559.89 Q3237.73 1563.08 3232.08 1568.85 Z" fill="#000000" fill-rule="evenodd" fill-opacity="1" /><path clip-path="url(#clip860)" d="M3322.66 1541.3 Q3319.05 1541.3 3317.22 1544.86 Q3315.42 1548.41 3315.42 1555.54 Q3315.42 1562.64 3317.22 1566.21 Q3319.05 1569.75 3322.66 1569.75 Q3326.3 1569.75 3328.1 1566.21 Q3329.93 1562.64 3329.93 1555.54 Q3329.93 1548.41 3328.1 1544.86 Q3326.3 1541.3 3322.66 1541.3 M3322.66 1537.6 Q3328.47 1537.6 3331.53 1542.2 Q3334.61 1546.79 3334.61 1555.54 Q3334.61 1564.26 3331.53 1568.87 Q3328.47 1573.45 3322.66 1573.45 Q3316.85 1573.45 3313.77 1568.87 Q3310.72 1564.26 3310.72 1555.54 Q3310.72 1546.79 3313.77 1542.2 Q3316.85 1537.6 3322.66 1537.6 Z" fill="#000000" fill-rule="evenodd" fill-opacity="1" /><path clip-path="url(#clip860)" d="M3342.83 1566.9 L3347.71 1566.9 L3347.71 1572.78 L3342.83 1572.78 L3342.83 1566.9 Z" fill="#000000" fill-rule="evenodd" fill-opacity="1" /><path clip-path="url(#clip860)" d="M3367.9 1541.3 Q3364.28 1541.3 3362.46 1544.86 Q3360.65 1548.41 3360.65 1555.54 Q3360.65 1562.64 3362.46 1566.21 Q3364.28 1569.75 3367.9 1569.75 Q3371.53 1569.75 3373.33 1566.21 Q3375.16 1562.64 3375.16 1555.54 Q3375.16 1548.41 3373.33 1544.86 Q3371.53 1541.3 3367.9 1541.3 M3367.9 1537.6 Q3373.71 1537.6 3376.76 1542.2 Q3379.84 1546.79 3379.84 1555.54 Q3379.84 1564.26 3376.76 1568.87 Q3373.71 1573.45 3367.9 1573.45 Q3362.08 1573.45 3359.01 1568.87 Q3355.95 1564.26 3355.95 1555.54 Q3355.95 1546.79 3359.01 1542.2 Q3362.08 1537.6 3367.9 1537.6 Z" fill="#000000" fill-rule="evenodd" fill-opacity="1" /><path clip-path="url(#clip860)" d="M3400.9 1542.29 L3389.1 1560.74 L3400.9 1560.74 L3400.9 1542.29 M3399.68 1538.22 L3405.56 1538.22 L3405.56 1560.74 L3410.49 1560.74 L3410.49 1564.63 L3405.56 1564.63 L3405.56 1572.78 L3400.9 1572.78 L3400.9 1564.63 L3385.3 1564.63 L3385.3 1560.12 L3399.68 1538.22 Z" fill="#000000" fill-rule="evenodd" fill-opacity="1" /><path clip-path="url(#clip860)" d="M3428.22 1541.3 Q3424.61 1541.3 3422.78 1544.86 Q3420.97 1548.41 3420.97 1555.54 Q3420.97 1562.64 3422.78 1566.21 Q3424.61 1569.75 3428.22 1569.75 Q3431.85 1569.75 3433.66 1566.21 Q3435.49 1562.64 3435.49 1555.54 Q3435.49 1548.41 3433.66 1544.86 Q3431.85 1541.3 3428.22 1541.3 M3428.22 1537.6 Q3434.03 1537.6 3437.08 1542.2 Q3440.16 1546.79 3440.16 1555.54 Q3440.16 1564.26 3437.08 1568.87 Q3434.03 1573.45 3428.22 1573.45 Q3422.41 1573.45 3419.33 1568.87 Q3416.27 1564.26 3416.27 1555.54 Q3416.27 1546.79 3419.33 1542.2 Q3422.41 1537.6 3428.22 1537.6 Z" fill="#000000" fill-rule="evenodd" fill-opacity="1" /><path clip-path="url(#clip860)" d="M3513.67 1541.3 Q3510.06 1541.3 3508.23 1544.86 Q3506.43 1548.41 3506.43 1555.54 Q3506.43 1562.64 3508.23 1566.21 Q3510.06 1569.75 3513.67 1569.75 Q3517.31 1569.75 3519.11 1566.21 Q3520.94 1562.64 3520.94 1555.54 Q3520.94 1548.41 3519.11 1544.86 Q3517.31 1541.3 3513.67 1541.3 M3513.67 1537.6 Q3519.48 1537.6 3522.54 1542.2 Q3525.62 1546.79 3525.62 1555.54 Q3525.62 1564.26 3522.54 1568.87 Q3519.48 1573.45 3513.67 1573.45 Q3507.86 1573.45 3504.78 1568.87 Q3501.73 1564.26 3501.73 1555.54 Q3501.73 1546.79 3504.78 1542.2 Q3507.86 1537.6 3513.67 1537.6 Z" fill="#000000" fill-rule="evenodd" fill-opacity="1" /><path clip-path="url(#clip860)" d="M3533.84 1566.9 L3538.72 1566.9 L3538.72 1572.78 L3533.84 1572.78 L3533.84 1566.9 Z" fill="#000000" fill-rule="evenodd" fill-opacity="1" /><path clip-path="url(#clip860)" d="M3558.9 1541.3 Q3555.29 1541.3 3553.46 1544.86 Q3551.66 1548.41 3551.66 1555.54 Q3551.66 1562.64 3553.46 1566.21 Q3555.29 1569.75 3558.9 1569.75 Q3562.54 1569.75 3564.34 1566.21 Q3566.17 1562.64 3566.17 1555.54 Q3566.17 1548.41 3564.34 1544.86 Q3562.54 1541.3 3558.9 1541.3 M3558.9 1537.6 Q3564.71 1537.6 3567.77 1542.2 Q3570.85 1546.79 3570.85 1555.54 Q3570.85 1564.26 3567.77 1568.87 Q3564.71 1573.45 3558.9 1573.45 Q3553.09 1573.45 3550.02 1568.87 Q3546.96 1564.26 3546.96 1555.54 Q3546.96 1546.79 3550.02 1542.2 Q3553.09 1537.6 3558.9 1537.6 Z" fill="#000000" fill-rule="evenodd" fill-opacity="1" /><path clip-path="url(#clip860)" d="M3591.91 1542.29 L3580.11 1560.74 L3591.91 1560.74 L3591.91 1542.29 M3590.69 1538.22 L3596.57 1538.22 L3596.57 1560.74 L3601.5 1560.74 L3601.5 1564.63 L3596.57 1564.63 L3596.57 1572.78 L3591.91 1572.78 L3591.91 1564.63 L3576.31 1564.63 L3576.31 1560.12 L3590.69 1538.22 Z" fill="#000000" fill-rule="evenodd" fill-opacity="1" /><path clip-path="url(#clip860)" d="M3619.23 1556.37 Q3615.9 1556.37 3613.97 1558.15 Q3612.08 1559.93 3612.08 1563.06 Q3612.08 1566.18 3613.97 1567.97 Q3615.9 1569.75 3619.23 1569.75 Q3622.56 1569.75 3624.48 1567.97 Q3626.4 1566.16 3626.4 1563.06 Q3626.4 1559.93 3624.48 1558.15 Q3622.58 1556.37 3619.23 1556.37 M3614.55 1554.38 Q3611.54 1553.64 3609.85 1551.58 Q3608.19 1549.52 3608.19 1546.55 Q3608.19 1542.41 3611.13 1540 Q3614.09 1537.6 3619.23 1537.6 Q3624.39 1537.6 3627.33 1540 Q3630.27 1542.41 3630.27 1546.55 Q3630.27 1549.52 3628.58 1551.58 Q3626.91 1553.64 3623.93 1554.38 Q3627.31 1555.16 3629.18 1557.46 Q3631.08 1559.75 3631.08 1563.06 Q3631.08 1568.08 3628 1570.77 Q3624.95 1573.45 3619.23 1573.45 Q3613.51 1573.45 3610.43 1570.77 Q3607.38 1568.08 3607.38 1563.06 Q3607.38 1559.75 3609.27 1557.46 Q3611.17 1555.16 3614.55 1554.38 M3612.84 1546.99 Q3612.84 1549.68 3614.51 1551.18 Q3616.2 1552.69 3619.23 1552.69 Q3622.24 1552.69 3623.93 1551.18 Q3625.64 1549.68 3625.64 1546.99 Q3625.64 1544.31 3623.93 1542.8 Q3622.24 1541.3 3619.23 1541.3 Q3616.2 1541.3 3614.51 1542.8 Q3612.84 1544.31 3612.84 1546.99 Z" fill="#000000" fill-rule="evenodd" fill-opacity="1" /><polyline clip-path="url(#clip862)" style="stroke:#000000; stroke-linecap:butt; stroke-linejoin:round; stroke-width:2; stroke-opacity:0.1; fill:none" points="
  410.666,1458.09 3752.76,1458.09 
  "/>
<polyline clip-path="url(#clip862)" style="stroke:#000000; stroke-linecap:butt; stroke-linejoin:round; stroke-width:2; stroke-opacity:0.1; fill:none" points="
  410.666,88.3366 3752.76,88.3366 
  "/>
<polyline clip-path="url(#clip860)" style="stroke:#000000; stroke-linecap:butt; stroke-linejoin:round; stroke-width:4; stroke-opacity:1; fill:none" points="
  410.666,1499.18 410.666,47.2441 
  "/>
<polyline clip-path="url(#clip860)" style="stroke:#000000; stroke-linecap:butt; stroke-linejoin:round; stroke-width:4; stroke-opacity:1; fill:none" points="
  410.666,1458.09 429.564,1458.09 
  "/>
<polyline clip-path="url(#clip860)" style="stroke:#000000; stroke-linecap:butt; stroke-linejoin:round; stroke-width:4; stroke-opacity:1; fill:none" points="
  410.666,88.3366 429.564,88.3366 
  "/>
<path clip-path="url(#clip860)" d="M281.167 1443.98 Q276.074 1443.98 273.065 1447.78 Q270.079 1451.57 270.079 1458.12 Q270.079 1464.65 273.065 1468.45 Q276.074 1472.24 281.167 1472.24 Q286.259 1472.24 289.222 1468.45 Q292.208 1464.65 292.208 1458.12 Q292.208 1451.57 289.222 1447.78 Q286.259 1443.98 281.167 1443.98 M281.167 1440.18 Q288.435 1440.18 292.787 1445.07 Q297.139 1449.93 297.139 1458.12 Q297.139 1466.29 292.787 1471.18 Q288.435 1476.04 281.167 1476.04 Q273.875 1476.04 269.5 1471.18 Q265.148 1466.32 265.148 1458.12 Q265.148 1449.93 269.5 1445.07 Q273.875 1440.18 281.167 1440.18 Z" fill="#000000" fill-rule="evenodd" fill-opacity="1" /><path clip-path="url(#clip860)" d="M304.454 1440.81 L309.13 1440.81 L309.13 1471.43 L325.958 1471.43 L325.958 1475.37 L304.454 1475.37 L304.454 1440.81 Z" fill="#000000" fill-rule="evenodd" fill-opacity="1" /><path clip-path="url(#clip860)" d="M351.583 1441.94 L351.583 1446.5 Q348.921 1445.23 346.56 1444.6 Q344.199 1443.98 342 1443.98 Q338.18 1443.98 336.097 1445.46 Q334.037 1446.94 334.037 1449.67 Q334.037 1451.97 335.403 1453.15 Q336.791 1454.3 340.634 1455.02 L343.458 1455.6 Q348.69 1456.59 351.166 1459.12 Q353.666 1461.62 353.666 1465.83 Q353.666 1470.85 350.287 1473.45 Q346.93 1476.04 340.426 1476.04 Q337.972 1476.04 335.194 1475.48 Q332.44 1474.93 329.477 1473.84 L329.477 1469.03 Q332.324 1470.62 335.055 1471.43 Q337.787 1472.24 340.426 1472.24 Q344.43 1472.24 346.606 1470.67 Q348.782 1469.09 348.782 1466.18 Q348.782 1463.63 347.208 1462.2 Q345.657 1460.76 342.092 1460.04 L339.245 1459.49 Q334.014 1458.45 331.676 1456.22 Q329.338 1454 329.338 1450.04 Q329.338 1445.46 332.555 1442.82 Q335.796 1440.18 341.467 1440.18 Q343.898 1440.18 346.421 1440.62 Q348.944 1441.06 351.583 1441.94 Z" fill="#000000" fill-rule="evenodd" fill-opacity="1" /><path clip-path="url(#clip860)" d="M48.668 74.8992 L48.668 101.774 L54.3161 101.774 Q61.4689 101.774 64.7791 98.5333 Q68.1124 95.2926 68.1124 88.3019 Q68.1124 81.3575 64.7791 78.1399 Q61.4689 74.8992 54.3161 74.8992 L48.668 74.8992 M43.9921 71.0566 L53.5986 71.0566 Q63.6448 71.0566 68.3438 75.2464 Q73.0429 79.4131 73.0429 88.3019 Q73.0429 97.237 68.3207 101.427 Q63.5985 105.617 53.5986 105.617 L43.9921 105.617 L43.9921 71.0566 Z" fill="#000000" fill-rule="evenodd" fill-opacity="1" /><path clip-path="url(#clip860)" d="M90.3576 82.6769 Q86.9317 82.6769 84.941 85.3621 Q82.9503 88.0241 82.9503 92.6769 Q82.9503 97.3296 84.9178 100.015 Q86.9086 102.677 90.3576 102.677 Q93.7604 102.677 95.7511 99.9917 Q97.7418 97.3065 97.7418 92.6769 Q97.7418 88.0704 95.7511 85.3853 Q93.7604 82.6769 90.3576 82.6769 M90.3576 79.0659 Q95.9131 79.0659 99.0844 82.6769 Q102.256 86.288 102.256 92.6769 Q102.256 99.0426 99.0844 102.677 Q95.9131 106.288 90.3576 106.288 Q84.7789 106.288 81.6077 102.677 Q78.4595 99.0426 78.4595 92.6769 Q78.4595 86.288 81.6077 82.6769 Q84.7789 79.0659 90.3576 79.0659 Z" fill="#000000" fill-rule="evenodd" fill-opacity="1" /><path clip-path="url(#clip860)" d="M108.876 95.3852 L108.876 79.6908 L113.135 79.6908 L113.135 95.2232 Q113.135 98.9037 114.57 100.756 Q116.006 102.584 118.876 102.584 Q122.325 102.584 124.316 100.385 Q126.33 98.1861 126.33 94.3898 L126.33 79.6908 L130.589 79.6908 L130.589 105.617 L126.33 105.617 L126.33 101.635 Q124.779 103.996 122.719 105.154 Q120.682 106.288 117.973 106.288 Q113.506 106.288 111.191 103.51 Q108.876 100.732 108.876 95.3852 M119.594 79.0659 L119.594 79.0659 Z" fill="#000000" fill-rule="evenodd" fill-opacity="1" /><path clip-path="url(#clip860)" d="M157.973 92.6769 Q157.973 87.9778 156.029 85.3158 Q154.107 82.6306 150.728 82.6306 Q147.348 82.6306 145.404 85.3158 Q143.482 87.9778 143.482 92.6769 Q143.482 97.3759 145.404 100.061 Q147.348 102.723 150.728 102.723 Q154.107 102.723 156.029 100.061 Q157.973 97.3759 157.973 92.6769 M143.482 83.626 Q144.825 81.3112 146.862 80.2001 Q148.922 79.0659 151.769 79.0659 Q156.492 79.0659 159.431 82.8158 Q162.394 86.5658 162.394 92.6769 Q162.394 98.788 159.431 102.538 Q156.492 106.288 151.769 106.288 Q148.922 106.288 146.862 105.177 Q144.825 104.043 143.482 101.728 L143.482 105.617 L139.2 105.617 L139.2 69.5983 L143.482 69.5983 L143.482 83.626 Z" fill="#000000" fill-rule="evenodd" fill-opacity="1" /><path clip-path="url(#clip860)" d="M169.454 69.5983 L173.714 69.5983 L173.714 105.617 L169.454 105.617 L169.454 69.5983 Z" fill="#000000" fill-rule="evenodd" fill-opacity="1" /><path clip-path="url(#clip860)" d="M204.801 91.5889 L204.801 93.6723 L185.218 93.6723 Q185.496 98.0704 187.857 100.385 Q190.241 102.677 194.477 102.677 Q196.931 102.677 199.223 102.075 Q201.538 101.473 203.806 100.269 L203.806 104.297 Q201.514 105.269 199.107 105.779 Q196.7 106.288 194.223 106.288 Q188.019 106.288 184.385 102.677 Q180.774 99.0657 180.774 92.9084 Q180.774 86.5427 184.2 82.8158 Q187.649 79.0659 193.482 79.0659 Q198.714 79.0659 201.746 82.4455 Q204.801 85.8019 204.801 91.5889 M200.542 90.3389 Q200.496 86.8436 198.575 84.7603 Q196.676 82.6769 193.528 82.6769 Q189.964 82.6769 187.811 84.6908 Q185.681 86.7047 185.357 90.3621 L200.542 90.3389 Z" fill="#000000" fill-rule="evenodd" fill-opacity="1" /><path clip-path="url(#clip860)" d="M227.047 71.0566 L231.723 71.0566 L231.723 101.681 L248.551 101.681 L248.551 105.617 L227.047 105.617 L227.047 71.0566 Z" fill="#000000" fill-rule="evenodd" fill-opacity="1" /><path clip-path="url(#clip860)" d="M265.056 92.5843 Q259.894 92.5843 257.903 93.7648 Q255.912 94.9454 255.912 97.7926 Q255.912 100.061 257.394 101.404 Q258.898 102.723 261.468 102.723 Q265.009 102.723 267.139 100.223 Q269.292 97.7 269.292 93.5334 L269.292 92.5843 L265.056 92.5843 M273.551 90.825 L273.551 105.617 L269.292 105.617 L269.292 101.681 Q267.834 104.043 265.658 105.177 Q263.482 106.288 260.334 106.288 Q256.352 106.288 253.991 104.066 Q251.653 101.82 251.653 98.0704 Q251.653 93.6954 254.57 91.4732 Q257.51 89.251 263.32 89.251 L269.292 89.251 L269.292 88.8343 Q269.292 85.8945 267.347 84.2973 Q265.426 82.6769 261.931 82.6769 Q259.709 82.6769 257.602 83.2093 Q255.496 83.7418 253.551 84.8066 L253.551 80.8714 Q255.889 79.9686 258.088 79.5288 Q260.287 79.0659 262.371 79.0659 Q267.996 79.0659 270.773 81.9825 Q273.551 84.8992 273.551 90.825 Z" fill="#000000" fill-rule="evenodd" fill-opacity="1" /><path clip-path="url(#clip860)" d="M298.852 80.4547 L298.852 84.4825 Q297.046 83.5566 295.102 83.0936 Q293.157 82.6306 291.074 82.6306 Q287.903 82.6306 286.306 83.6029 Q284.732 84.5751 284.732 86.5195 Q284.732 88.001 285.866 88.8575 Q287 89.6908 290.426 90.4547 L291.884 90.7788 Q296.421 91.751 298.319 93.5334 Q300.241 95.2926 300.241 98.4639 Q300.241 102.075 297.37 104.181 Q294.523 106.288 289.523 106.288 Q287.44 106.288 285.171 105.871 Q282.926 105.478 280.426 104.668 L280.426 100.269 Q282.787 101.496 285.079 102.121 Q287.37 102.723 289.616 102.723 Q292.625 102.723 294.245 101.705 Q295.866 100.663 295.866 98.788 Q295.866 97.0519 294.685 96.1259 Q293.528 95.2 289.57 94.3435 L288.088 93.9963 Q284.13 93.163 282.37 91.45 Q280.611 89.7139 280.611 86.7047 Q280.611 83.0473 283.204 81.0566 Q285.796 79.0659 290.565 79.0659 Q292.926 79.0659 295.009 79.4131 Q297.093 79.7603 298.852 80.4547 Z" fill="#000000" fill-rule="evenodd" fill-opacity="1" /><path clip-path="url(#clip860)" d="M323.551 80.4547 L323.551 84.4825 Q321.745 83.5566 319.801 83.0936 Q317.856 82.6306 315.773 82.6306 Q312.602 82.6306 311.005 83.6029 Q309.431 84.5751 309.431 86.5195 Q309.431 88.001 310.565 88.8575 Q311.699 89.6908 315.125 90.4547 L316.583 90.7788 Q321.12 91.751 323.018 93.5334 Q324.94 95.2926 324.94 98.4639 Q324.94 102.075 322.069 104.181 Q319.222 106.288 314.222 106.288 Q312.139 106.288 309.87 105.871 Q307.625 105.478 305.125 104.668 L305.125 100.269 Q307.486 101.496 309.778 102.121 Q312.069 102.723 314.315 102.723 Q317.324 102.723 318.944 101.705 Q320.565 100.663 320.565 98.788 Q320.565 97.0519 319.384 96.1259 Q318.227 95.2 314.268 94.3435 L312.787 93.9963 Q308.829 93.163 307.069 91.45 Q305.31 89.7139 305.31 86.7047 Q305.31 83.0473 307.903 81.0566 Q310.495 79.0659 315.264 79.0659 Q317.625 79.0659 319.708 79.4131 Q321.792 79.7603 323.551 80.4547 Z" fill="#000000" fill-rule="evenodd" fill-opacity="1" /><path clip-path="url(#clip860)" d="M341.768 82.6769 Q338.342 82.6769 336.352 85.3621 Q334.361 88.0241 334.361 92.6769 Q334.361 97.3296 336.329 100.015 Q338.319 102.677 341.768 102.677 Q345.171 102.677 347.162 99.9917 Q349.153 97.3065 349.153 92.6769 Q349.153 88.0704 347.162 85.3853 Q345.171 82.6769 341.768 82.6769 M341.768 79.0659 Q347.324 79.0659 350.495 82.6769 Q353.666 86.288 353.666 92.6769 Q353.666 99.0426 350.495 102.677 Q347.324 106.288 341.768 106.288 Q336.19 106.288 333.018 102.677 Q329.87 99.0426 329.87 92.6769 Q329.87 86.288 333.018 82.6769 Q336.19 79.0659 341.768 79.0659 Z" fill="#000000" fill-rule="evenodd" fill-opacity="1" /><polyline clip-path="url(#clip862)" style="stroke:#000000; stroke-linecap:butt; stroke-linejoin:round; stroke-width:4; stroke-opacity:1; fill:none" stroke-dasharray="16, 10" points="
  735.367,1458.09 3658.17,1458.09 
  "/>
<polyline clip-path="url(#clip862)" style="stroke:#000000; stroke-linecap:butt; stroke-linejoin:round; stroke-width:4; stroke-opacity:1; fill:none" stroke-dasharray="16, 10" points="
  505.254,88.3366 1948.92,88.3366 
  "/>
<line clip-path="url(#clip862)" x1="735.367" y1="1474.09" x2="735.367" y2="1442.09" style="stroke:#000000; stroke-width:3.2; stroke-opacity:1"/>
<line clip-path="url(#clip862)" x1="3658.17" y1="1474.09" x2="3658.17" y2="1442.09" style="stroke:#000000; stroke-width:3.2; stroke-opacity:1"/>
<line clip-path="url(#clip862)" x1="505.254" y1="104.337" x2="505.254" y2="72.3366" style="stroke:#000000; stroke-width:3.2; stroke-opacity:1"/>
<line clip-path="url(#clip862)" x1="1948.92" y1="104.337" x2="1948.92" y2="72.3366" style="stroke:#000000; stroke-width:3.2; stroke-opacity:1"/>
<circle clip-path="url(#clip862)" cx="2196.77" cy="1458.09" r="14" fill="#ffa500" fill-rule="evenodd" fill-opacity="1" stroke="#000000" stroke-opacity="1" stroke-width="3.2"/>
<circle clip-path="url(#clip862)" cx="1227.09" cy="88.3366" r="14" fill="#ffa500" fill-rule="evenodd" fill-opacity="1" stroke="#000000" stroke-opacity="1" stroke-width="3.2"/>
<path clip-path="url(#clip860)" d="
M3045.94 199.322 L3641.35 199.322 L3641.35 95.642 L3045.94 95.642  Z
  " fill="#ffffff" fill-rule="evenodd" fill-opacity="1"/>
<polyline clip-path="url(#clip860)" style="stroke:#000000; stroke-linecap:butt; stroke-linejoin:round; stroke-width:4; stroke-opacity:1; fill:none" points="
  3045.94,199.322 3641.35,199.322 3641.35,95.642 3045.94,95.642 3045.94,199.322 
  "/>
<circle clip-path="url(#clip860)" cx="3194.47" cy="147.482" r="23" fill="#ffa500" fill-rule="evenodd" fill-opacity="1" stroke="#000000" stroke-opacity="1" stroke-width="5.12"/>
<path clip-path="url(#clip860)" d="M3343.01 130.202 L3364.86 130.202 L3364.86 134.137 L3347.69 134.137 L3347.69 144.369 L3364.15 144.369 L3364.15 148.304 L3347.69 148.304 L3347.69 160.827 L3365.28 160.827 L3365.28 164.762 L3343.01 164.762 L3343.01 130.202 Z" fill="#000000" fill-rule="evenodd" fill-opacity="1" /><path clip-path="url(#clip860)" d="M3389.31 139.6 L3389.31 143.628 Q3387.5 142.702 3385.56 142.239 Q3383.61 141.776 3381.53 141.776 Q3378.36 141.776 3376.76 142.748 Q3375.19 143.72 3375.19 145.665 Q3375.19 147.146 3376.32 148.003 Q3377.46 148.836 3380.88 149.6 L3382.34 149.924 Q3386.88 150.896 3388.78 152.679 Q3390.7 154.438 3390.7 157.609 Q3390.7 161.22 3387.83 163.327 Q3384.98 165.433 3379.98 165.433 Q3377.9 165.433 3375.63 165.017 Q3373.38 164.623 3370.88 163.813 L3370.88 159.415 Q3373.24 160.642 3375.53 161.267 Q3377.83 161.868 3380.07 161.868 Q3383.08 161.868 3384.7 160.85 Q3386.32 159.808 3386.32 157.933 Q3386.32 156.197 3385.14 155.271 Q3383.98 154.345 3380.03 153.489 L3378.54 153.142 Q3374.59 152.308 3372.83 150.595 Q3371.07 148.859 3371.07 145.85 Q3371.07 142.193 3373.66 140.202 Q3376.25 138.211 3381.02 138.211 Q3383.38 138.211 3385.46 138.558 Q3387.55 138.906 3389.31 139.6 Z" fill="#000000" fill-rule="evenodd" fill-opacity="1" /><path clip-path="url(#clip860)" d="M3401.69 131.475 L3401.69 138.836 L3410.46 138.836 L3410.46 142.146 L3401.69 142.146 L3401.69 156.22 Q3401.69 159.392 3402.55 160.294 Q3403.43 161.197 3406.09 161.197 L3410.46 161.197 L3410.46 164.762 L3406.09 164.762 Q3401.16 164.762 3399.28 162.933 Q3397.41 161.081 3397.41 156.22 L3397.41 142.146 L3394.28 142.146 L3394.28 138.836 L3397.41 138.836 L3397.41 131.475 L3401.69 131.475 Z" fill="#000000" fill-rule="evenodd" fill-opacity="1" /><path clip-path="url(#clip860)" d="M3416.07 138.836 L3420.33 138.836 L3420.33 164.762 L3416.07 164.762 L3416.07 138.836 M3416.07 128.744 L3420.33 128.744 L3420.33 134.137 L3416.07 134.137 L3416.07 128.744 Z" fill="#000000" fill-rule="evenodd" fill-opacity="1" /><path clip-path="url(#clip860)" d="M3449.42 143.813 Q3451.02 140.943 3453.24 139.577 Q3455.46 138.211 3458.47 138.211 Q3462.52 138.211 3464.72 141.058 Q3466.92 143.882 3466.92 149.114 L3466.92 164.762 L3462.64 164.762 L3462.64 149.253 Q3462.64 145.526 3461.32 143.72 Q3460 141.915 3457.29 141.915 Q3453.98 141.915 3452.06 144.114 Q3450.14 146.313 3450.14 150.109 L3450.14 164.762 L3445.86 164.762 L3445.86 149.253 Q3445.86 145.503 3444.54 143.72 Q3443.22 141.915 3440.46 141.915 Q3437.2 141.915 3435.28 144.137 Q3433.36 146.336 3433.36 150.109 L3433.36 164.762 L3429.08 164.762 L3429.08 138.836 L3433.36 138.836 L3433.36 142.864 Q3434.82 140.48 3436.85 139.345 Q3438.89 138.211 3441.69 138.211 Q3444.52 138.211 3446.48 139.646 Q3448.47 141.082 3449.42 143.813 Z" fill="#000000" fill-rule="evenodd" fill-opacity="1" /><path clip-path="url(#clip860)" d="M3487.2 151.73 Q3482.04 151.73 3480.05 152.91 Q3478.06 154.091 3478.06 156.938 Q3478.06 159.206 3479.54 160.549 Q3481.04 161.868 3483.61 161.868 Q3487.15 161.868 3489.28 159.368 Q3491.44 156.845 3491.44 152.679 L3491.44 151.73 L3487.2 151.73 M3495.7 149.97 L3495.7 164.762 L3491.44 164.762 L3491.44 160.827 Q3489.98 163.188 3487.8 164.322 Q3485.63 165.433 3482.48 165.433 Q3478.5 165.433 3476.14 163.211 Q3473.8 160.966 3473.8 157.216 Q3473.8 152.841 3476.71 150.619 Q3479.65 148.396 3485.46 148.396 L3491.44 148.396 L3491.44 147.98 Q3491.44 145.04 3489.49 143.443 Q3487.57 141.822 3484.08 141.822 Q3481.85 141.822 3479.75 142.355 Q3477.64 142.887 3475.7 143.952 L3475.7 140.017 Q3478.03 139.114 3480.23 138.674 Q3482.43 138.211 3484.52 138.211 Q3490.14 138.211 3492.92 141.128 Q3495.7 144.044 3495.7 149.97 Z" fill="#000000" fill-rule="evenodd" fill-opacity="1" /><path clip-path="url(#clip860)" d="M3508.68 131.475 L3508.68 138.836 L3517.45 138.836 L3517.45 142.146 L3508.68 142.146 L3508.68 156.22 Q3508.68 159.392 3509.54 160.294 Q3510.42 161.197 3513.08 161.197 L3517.45 161.197 L3517.45 164.762 L3513.08 164.762 Q3508.15 164.762 3506.27 162.933 Q3504.4 161.081 3504.4 156.22 L3504.4 142.146 L3501.27 142.146 L3501.27 138.836 L3504.4 138.836 L3504.4 131.475 L3508.68 131.475 Z" fill="#000000" fill-rule="evenodd" fill-opacity="1" /><path clip-path="url(#clip860)" d="M3533.1 141.822 Q3529.68 141.822 3527.69 144.507 Q3525.7 147.169 3525.7 151.822 Q3525.7 156.475 3527.66 159.16 Q3529.65 161.822 3533.1 161.822 Q3536.51 161.822 3538.5 159.137 Q3540.49 156.452 3540.49 151.822 Q3540.49 147.216 3538.5 144.531 Q3536.51 141.822 3533.1 141.822 M3533.1 138.211 Q3538.66 138.211 3541.83 141.822 Q3545 145.433 3545 151.822 Q3545 158.188 3541.83 161.822 Q3538.66 165.433 3533.1 165.433 Q3527.52 165.433 3524.35 161.822 Q3521.2 158.188 3521.2 151.822 Q3521.2 145.433 3524.35 141.822 Q3527.52 138.211 3533.1 138.211 Z" fill="#000000" fill-rule="evenodd" fill-opacity="1" /><path clip-path="url(#clip860)" d="M3567.08 142.818 Q3566.37 142.401 3565.51 142.216 Q3564.68 142.007 3563.66 142.007 Q3560.05 142.007 3558.1 144.369 Q3556.18 146.707 3556.18 151.105 L3556.18 164.762 L3551.9 164.762 L3551.9 138.836 L3556.18 138.836 L3556.18 142.864 Q3557.52 140.503 3559.68 139.369 Q3561.83 138.211 3564.91 138.211 Q3565.35 138.211 3565.88 138.281 Q3566.41 138.327 3567.06 138.443 L3567.08 142.818 Z" fill="#000000" fill-rule="evenodd" fill-opacity="1" /></svg>
