<?xml version="1.0" encoding="utf-8"?>
<svg xmlns="http://www.w3.org/2000/svg" xmlns:xlink="http://www.w3.org/1999/xlink" width="600" height="400" viewBox="0 0 2400 1600">
<defs>
  <clipPath id="clip660">
    <rect x="0" y="0" width="2400" height="1600"/>
  </clipPath>
</defs>
<path clip-path="url(#clip660)" d="
M0 1600 L2400 1600 L2400 0 L0 0  Z
  " fill="#ffffff" fill-rule="evenodd" fill-opacity="1"/>
<defs>
  <clipPath id="clip661">
    <rect x="480" y="0" width="1681" height="1600"/>
  </clipPath>
</defs>
<path clip-path="url(#clip660)" d="
M447.244 1552.76 L1952.76 1552.76 L1952.76 47.2441 L447.244 47.2441  Z
  " fill="#ffffff" fill-rule="evenodd" fill-opacity="1"/>
<defs>
  <clipPath id="clip662">
    <rect x="447" y="47" width="1507" height="1507"/>
  </clipPath>
</defs>
<path clip-path="url(#clip662)" d="
M1362.6 800 L1362.08 787.082 L1360.54 774.245 L1357.99 761.572 L1354.44 749.141 L1349.91 737.032 L1344.43 725.32 L1338.04 714.081 L1330.78 703.386 L1322.69 693.301 
  L1313.82 683.89 L1304.24 675.214 L1294 667.327 L1283.16 660.278 L1271.79 654.113 L1259.98 648.87 L1247.78 644.583 L1235.28 641.278 L1222.56 638.977 L1209.69 637.694 
  L1196.77 637.437 L1183.86 638.208 L1171.06 640.001 L1158.44 642.806 L1146.08 646.605 L1134.06 651.374 L1122.46 657.083 L1111.35 663.695 L1100.8 671.169 L1090.88 679.457 
  L1081.65 688.507 L1073.17 698.263 L1065.48 708.661 L1058.65 719.637 L1052.71 731.122 L1047.71 743.041 L1043.66 755.321 L1040.61 767.883 L1038.56 780.648 L1037.53 793.536 
  L1037.53 806.464 L1038.56 819.352 L1040.61 832.117 L1043.66 844.679 L1047.71 856.959 L1052.71 868.878 L1058.65 880.363 L1065.48 891.339 L1073.17 901.737 L1081.65 911.493 
  L1090.88 920.543 L1100.8 928.831 L1111.35 936.305 L1122.46 942.917 L1134.06 948.626 L1146.08 953.395 L1158.44 957.194 L1171.06 959.999 L1183.86 961.792 L1196.77 962.563 
  L1209.69 962.306 L1222.56 961.023 L1235.28 958.722 L1247.78 955.417 L1259.98 951.13 L1271.79 945.887 L1283.16 939.722 L1294 932.673 L1304.24 924.786 L1313.82 916.11 
  L1322.69 906.699 L1330.78 896.614 L1338.04 885.919 L1344.43 874.68 L1349.91 862.968 L1354.44 850.859 L1357.99 838.428 L1360.54 825.755 L1362.08 812.918 L1362.6 800 
  L1362.6 800  Z
  " fill="#e26f46" fill-rule="evenodd" fill-opacity="1"/>
<polyline clip-path="url(#clip662)" style="stroke:#000000; stroke-linecap:butt; stroke-linejoin:round; stroke-width:4; stroke-opacity:1; fill:none" points="
  1362.6,800 1362.08,787.082 1360.54,774.245 1357.99,761.572 1354.44,749.141 1349.91,737.032 1344.43,725.32 1338.04,714.081 1330.78,703.386 1322.69,693.301 
  1313.82,683.89 1304.24,675.214 1294,667.327 1283.16,660.278 1271.79,654.113 1259.98,648.87 1247.78,644.583 1235.28,641.278 1222.56,638.977 1209.69,637.694 
  1196.77,637.437 1183.86,638.208 1171.06,640.001 1158.44,642.806 1146.08,646.605 1134.06,651.374 1122.46,657.083 1111.35,663.695 1100.8,671.169 1090.88,679.457 
  1081.65,688.507 1073.17,698.263 1065.48,708.661 1058.65,719.637 1052.71,731.122 1047.71,743.041 1043.66,755.321 1040.61,767.883 1038.56,780.648 1037.53,793.536 
  1037.53,806.464 1038.56,819.352 1040.61,832.117 1043.66,844.679 1047.71,856.959 1052.71,868.878 1058.65,880.363 1065.48,891.339 1073.17,901.737 1081.65,911.493 
  1090.88,920.543 1100.8,928.831 1111.35,936.305 1122.46,942.917 1134.06,948.626 1146.08,953.395 1158.44,957.194 1171.06,959.999 1183.86,961.792 1196.77,962.563 
  1209.69,962.306 1222.56,961.023 1235.28,958.722 1247.78,955.417 1259.98,951.13 1271.79,945.887 1283.16,939.722 1294,932.673 1304.24,924.786 1313.82,916.11 
  1322.69,906.699 1330.78,896.614 1338.04,885.919 1344.43,874.68 1349.91,862.968 1354.44,850.859 1357.99,838.428 1360.54,825.755 1362.08,812.918 1362.6,800 
  
  "/>
<path clip-path="url(#clip662)" d="
M1362.6 800 L1362.08 787.082 L1360.54 774.245 L1357.99 761.572 L1354.44 749.141 L1349.91 737.032 L1344.43 725.32 L1338.04 714.081 L1330.78 703.386 L1322.69 693.301 
  L1313.82 683.89 L1304.24 675.214 L1294 667.327 L1283.16 660.278 L1271.79 654.113 L1259.98 648.87 L1247.78 644.583 L1235.28 641.278 L1222.56 638.977 L1209.69 637.694 
  L1196.77 637.437 L1183.86 638.208 L1171.06 640.001 L1158.44 642.806 L1146.08 646.605 L1134.06 651.374 L1122.46 657.083 L1111.35 663.695 L1100.8 671.169 L1090.88 679.457 
  L1081.65 688.507 L1073.17 698.263 L1065.48 708.661 L1058.65 719.637 L1052.71 731.122 L1047.71 743.041 L1043.66 755.321 L1040.61 767.883 L1038.56 780.648 L1037.53 793.536 
  L1037.53 806.464 L1038.56 819.352 L1040.61 832.117 L1043.66 844.679 L1047.71 856.959 L1052.71 868.878 L1058.65 880.363 L1065.48 891.339 L1073.17 901.737 L1081.65 911.493 
  L1090.88 920.543 L1100.8 928.831 L1111.35 936.305 L1122.46 942.917 L1134.06 948.626 L1146.08 953.395 L1158.44 957.194 L1171.06 959.999 L1183.86 961.792 L1196.77 962.563 
  L1209.69 962.306 L1222.56 961.023 L1235.28 958.722 L1247.78 955.417 L1259.98 951.13 L1271.79 945.887 L1283.16 939.722 L1294 932.673 L1304.24 924.786 L1313.82 916.11 
  L1322.69 906.699 L1330.78 896.614 L1338.04 885.919 L1344.43 874.68 L1349.91 862.968 L1354.44 850.859 L1357.99 838.428 L1360.54 825.755 L1362.08 812.918 L1362.6 800 
  L1362.6 800  Z
  " fill="#e26f46" fill-rule="evenodd" fill-opacity="1"/>
<polyline clip-path="url(#clip662)" style="stroke:#000000; stroke-linecap:butt; stroke-linejoin:round; stroke-width:4; stroke-opacity:1; fill:none" points="
  1362.6,800 1362.08,787.082 1360.54,774.245 1357.99,761.572 1354.44,749.141 1349.91,737.032 1344.43,725.32 1338.04,714.081 1330.78,703.386 1322.69,693.301 
  1313.82,683.89 1304.24,675.214 1294,667.327 1283.16,660.278 1271.79,654.113 1259.98,648.87 1247.78,644.583 1235.28,641.278 1222.56,638.977 1209.69,637.694 
  1196.77,637.437 1183.86,638.208 1171.06,640.001 1158.44,642.806 1146.08,646.605 1134.06,651.374 1122.46,657.083 1111.35,663.695 1100.8,671.169 1090.88,679.457 
  1081.65,688.507 1073.17,698.263 1065.48,708.661 1058.65,719.637 1052.71,731.122 1047.71,743.041 1043.66,755.321 1040.61,767.883 1038.56,780.648 1037.53,793.536 
  1037.53,806.464 1038.56,819.352 1040.61,832.117 1043.66,844.679 1047.71,856.959 1052.71,868.878 1058.65,880.363 1065.48,891.339 1073.17,901.737 1081.65,911.493 
  1090.88,920.543 1100.8,928.831 1111.35,936.305 1122.46,942.917 1134.06,948.626 1146.08,953.395 1158.44,957.194 1171.06,959.999 1183.86,961.792 1196.77,962.563 
  1209.69,962.306 1222.56,961.023 1235.28,958.722 1247.78,955.417 1259.98,951.13 1271.79,945.887 1283.16,939.722 1294,932.673 1304.24,924.786 1313.82,916.11 
  1322.69,906.699 1330.78,896.614 1338.04,885.919 1344.43,874.68 1349.91,862.968 1354.44,850.859 1357.99,838.428 1360.54,825.755 1362.08,812.918 1362.6,800 
  
  "/>
<path clip-path="url(#clip662)" d="
M1362.6 800 L1362.08 787.082 L1360.54 774.245 L1357.99 761.572 L1354.44 749.141 L1349.91 737.032 L1344.43 725.32 L1338.04 714.081 L1330.78 703.386 L1322.69 693.301 
  L1313.82 683.89 L1304.24 675.214 L1294 667.327 L1283.16 660.278 L1271.79 654.113 L1259.98 648.87 L1247.78 644.583 L1235.28 641.278 L1222.56 638.977 L1209.69 637.694 
  L1196.77 637.437 L1183.86 638.208 L1171.06 640.001 L1158.44 642.806 L1146.08 646.605 L1134.06 651.374 L1122.46 657.083 L1111.35 663.695 L1100.8 671.169 L1090.88 679.457 
  L1081.65 688.507 L1073.17 698.263 L1065.48 708.661 L1058.65 719.637 L1052.71 731.122 L1047.71 743.041 L1043.66 755.321 L1040.61 767.883 L1038.56 780.648 L1037.53 793.536 
  L1037.53 806.464 L1038.56 819.352 L1040.61 832.117 L1043.66 844.679 L1047.71 856.959 L1052.71 868.878 L1058.65 880.363 L1065.48 891.339 L1073.17 901.737 L1081.65 911.493 
  L1090.88 920.543 L1100.8 928.831 L1111.35 936.305 L1122.46 942.917 L1134.06 948.626 L1146.08 953.395 L1158.44 957.194 L1171.06 959.999 L1183.86 961.792 L1196.77 962.563 
  L1209.69 962.306 L1222.56 961.023 L1235.28 958.722 L1247.78 955.417 L1259.98 951.13 L1271.79 945.887 L1283.16 939.722 L1294 932.673 L1304.24 924.786 L1313.82 916.11 
  L1322.69 906.699 L1330.78 896.614 L1338.04 885.919 L1344.43 874.68 L1349.91 862.968 L1354.44 850.859 L1357.99 838.428 L1360.54 825.755 L1362.08 812.918 L1362.6 800 
  L1362.6 800  Z
  " fill="#e26f46" fill-rule="evenodd" fill-opacity="1"/>
<polyline clip-path="url(#clip662)" style="stroke:#000000; stroke-linecap:butt; stroke-linejoin:round; stroke-width:4; stroke-opacity:1; fill:none" points="
  1362.6,800 1362.08,787.082 1360.54,774.245 1357.99,761.572 1354.44,749.141 1349.91,737.032 1344.43,725.32 1338.04,714.081 1330.78,703.386 1322.69,693.301 
  1313.82,683.89 1304.24,675.214 1294,667.327 1283.16,660.278 1271.79,654.113 1259.98,648.87 1247.78,644.583 1235.28,641.278 1222.56,638.977 1209.69,637.694 
  1196.77,637.437 1183.86,638.208 1171.06,640.001 1158.44,642.806 1146.08,646.605 1134.06,651.374 1122.46,657.083 1111.35,663.695 1100.8,671.169 1090.88,679.457 
  1081.65,688.507 1073.17,698.263 1065.48,708.661 1058.65,719.637 1052.71,731.122 1047.71,743.041 1043.66,755.321 1040.61,767.883 1038.56,780.648 1037.53,793.536 
  1037.53,806.464 1038.56,819.352 1040.61,832.117 1043.66,844.679 1047.71,856.959 1052.71,868.878 1058.65,880.363 1065.48,891.339 1073.17,901.737 1081.65,911.493 
  1090.88,920.543 1100.8,928.831 1111.35,936.305 1122.46,942.917 1134.06,948.626 1146.08,953.395 1158.44,957.194 1171.06,959.999 1183.86,961.792 1196.77,962.563 
  1209.69,962.306 1222.56,961.023 1235.28,958.722 1247.78,955.417 1259.98,951.13 1271.79,945.887 1283.16,939.722 1294,932.673 1304.24,924.786 1313.82,916.11 
  1322.69,906.699 1330.78,896.614 1338.04,885.919 1344.43,874.68 1349.91,862.968 1354.44,850.859 1357.99,838.428 1360.54,825.755 1362.08,812.918 1362.6,800 
  
  "/>
<path clip-path="url(#clip662)" d="
M1483.09 800 L1482.2 777.508 L1479.52 755.158 L1475.07 733.092 L1468.89 711.449 L1461 690.366 L1451.47 669.975 L1440.34 650.407 L1427.7 631.785 L1413.61 614.226 
  L1398.18 597.842 L1381.49 582.735 L1363.65 569.003 L1344.78 556.73 L1325 545.996 L1304.42 536.868 L1283.19 529.403 L1261.43 523.65 L1239.28 519.643 L1216.88 517.409 
  L1194.37 516.961 L1171.9 518.303 L1149.61 521.426 L1127.64 526.31 L1106.12 532.925 L1085.2 541.228 L1065 551.167 L1045.66 562.679 L1027.29 575.692 L1010.02 590.122 
  L993.941 605.88 L979.17 622.865 L965.795 640.97 L953.9 660.081 L943.561 680.076 L934.844 700.829 L927.803 722.209 L922.483 744.081 L918.917 766.307 L917.129 788.745 
  L917.129 811.255 L918.917 833.693 L922.483 855.919 L927.803 877.791 L934.844 899.171 L943.561 919.924 L953.9 939.919 L965.795 959.03 L979.17 977.135 L993.941 994.12 
  L1010.02 1009.88 L1027.29 1024.31 L1045.66 1037.32 L1065 1048.83 L1085.2 1058.77 L1106.12 1067.08 L1127.64 1073.69 L1149.61 1078.57 L1171.9 1081.7 L1194.37 1083.04 
  L1216.88 1082.59 L1239.28 1080.36 L1261.43 1076.35 L1283.19 1070.6 L1304.42 1063.13 L1325 1054 L1344.78 1043.27 L1363.65 1031 L1381.49 1017.26 L1398.18 1002.16 
  L1413.61 985.774 L1427.7 968.215 L1440.34 949.593 L1451.47 930.025 L1461 909.634 L1468.89 888.551 L1475.07 866.908 L1479.52 844.842 L1482.2 822.492 L1483.09 800 
  L1483.09 800  Z
  " fill="#e26f46" fill-rule="evenodd" fill-opacity="1"/>
<polyline clip-path="url(#clip662)" style="stroke:#000000; stroke-linecap:butt; stroke-linejoin:round; stroke-width:4; stroke-opacity:1; fill:none" points="
  1483.09,800 1482.2,777.508 1479.52,755.158 1475.07,733.092 1468.89,711.449 1461,690.366 1451.47,669.975 1440.34,650.407 1427.7,631.785 1413.61,614.226 
  1398.18,597.842 1381.49,582.735 1363.65,569.003 1344.78,556.73 1325,545.996 1304.42,536.868 1283.19,529.403 1261.43,523.65 1239.28,519.643 1216.88,517.409 
  1194.37,516.961 1171.9,518.303 1149.61,521.426 1127.64,526.31 1106.12,532.925 1085.2,541.228 1065,551.167 1045.66,562.679 1027.29,575.692 1010.02,590.122 
  993.941,605.88 979.17,622.865 965.795,640.97 953.9,660.081 943.561,680.076 934.844,700.829 927.803,722.209 922.483,744.081 918.917,766.307 917.129,788.745 
  917.129,811.255 918.917,833.693 922.483,855.919 927.803,877.791 934.844,899.171 943.561,919.924 953.9,939.919 965.795,959.03 979.17,977.135 993.941,994.12 
  1010.02,1009.88 1027.29,1024.31 1045.66,1037.32 1065,1048.83 1085.2,1058.77 1106.12,1067.08 1127.64,1073.69 1149.61,1078.57 1171.9,1081.7 1194.37,1083.04 
  1216.88,1082.59 1239.28,1080.36 1261.43,1076.35 1283.19,1070.6 1304.42,1063.13 1325,1054 1344.78,1043.27 1363.65,1031 1381.49,1017.26 1398.18,1002.16 
  1413.61,985.774 1427.7,968.215 1440.34,949.593 1451.47,930.025 1461,909.634 1468.89,888.551 1475.07,866.908 1479.52,844.842 1482.2,822.492 1483.09,800 
  1483.09,800 
  "/>
<path clip-path="url(#clip662)" d="
M1483.09 800 L1482.2 777.508 L1479.52 755.158 L1475.07 733.092 L1468.89 711.449 L1461 690.366 L1451.47 669.975 L1440.34 650.407 L1427.7 631.785 L1413.61 614.226 
  L1398.18 597.842 L1381.49 582.735 L1363.65 569.003 L1344.78 556.73 L1325 545.996 L1304.42 536.868 L1283.19 529.403 L1261.43 523.65 L1239.28 519.643 L1216.88 517.409 
  L1194.37 516.961 L1171.9 518.303 L1149.61 521.426 L1127.64 526.31 L1106.12 532.925 L1085.2 541.228 L1065 551.167 L1045.66 562.679 L1027.29 575.692 L1010.02 590.122 
  L993.941 605.88 L979.17 622.865 L965.795 640.97 L953.9 660.081 L943.561 680.076 L934.844 700.829 L927.803 722.209 L922.483 744.081 L918.917 766.307 L917.129 788.745 
  L917.129 811.255 L918.917 833.693 L922.483 855.919 L927.803 877.791 L934.844 899.171 L943.561 919.924 L953.9 939.919 L965.795 959.03 L979.17 977.135 L993.941 994.12 
  L1010.02 1009.88 L1027.29 1024.31 L1045.66 1037.32 L1065 1048.83 L1085.2 1058.77 L1106.12 1067.08 L1127.64 1073.69 L1149.61 1078.57 L1171.9 1081.7 L1194.37 1083.04 
  L1216.88 1082.59 L1239.28 1080.36 L1261.43 1076.35 L1283.19 1070.6 L1304.42 1063.13 L1325 1054 L1344.78 1043.27 L1363.65 1031 L1381.49 1017.26 L1398.18 1002.16 
  L1413.61 985.774 L1427.7 968.215 L1440.34 949.593 L1451.47 930.025 L1461 909.634 L1468.89 888.551 L1475.07 866.908 L1479.52 844.842 L1482.2 822.492 L1483.09 800 
  L1483.09 800  Z
  " fill="#e26f46" fill-rule="evenodd" fill-opacity="1"/>
<polyline clip-path="url(#clip662)" style="stroke:#000000; stroke-linecap:butt; stroke-linejoin:round; stroke-width:4; stroke-opacity:1; fill:none" points="
  1483.09,800 1482.2,777.508 1479.52,755.158 1475.07,733.092 1468.89,711.449 1461,690.366 1451.47,669.975 1440.34,650.407 1427.7,631.785 1413.61,614.226 
  1398.18,597.842 1381.49,582.735 1363.65,569.003 1344.78,556.73 1325,545.996 1304.42,536.868 1283.19,529.403 1261.43,523.65 1239.28,519.643 1216.88,517.409 
  1194.37,516.961 1171.9,518.303 1149.61,521.426 1127.64,526.31 1106.12,532.925 1085.2,541.228 1065,551.167 1045.66,562.679 1027.29,575.692 1010.02,590.122 
  993.941,605.88 979.17,622.865 965.795,640.97 953.9,660.081 943.561,680.076 934.844,700.829 927.803,722.209 922.483,744.081 918.917,766.307 917.129,788.745 
  917.129,811.255 918.917,833.693 922.483,855.919 927.803,877.791 934.844,899.171 943.561,919.924 953.9,939.919 965.795,959.03 979.17,977.135 993.941,994.12 
  1010.02,1009.88 1027.29,1024.31 1045.66,1037.32 1065,1048.83 1085.2,1058.77 1106.12,1067.08 1127.64,1073.69 1149.61,1078.57 1171.9,1081.7 1194.37,1083.04 
  1216.88,1082.59 1239.28,1080.36 1261.43,1076.35 1283.19,1070.6 1304.42,1063.13 1325,1054 1344.78,1043.27 1363.65,1031 1381.49,1017.26 1398.18,1002.16 
  1413.61,985.774 1427.7,968.215 1440.34,949.593 1451.47,930.025 1461,909.634 1468.89,888.551 1475.07,866.908 1479.52,844.842 1482.2,822.492 1483.09,800 
  1483.09,800 
  "/>
<path clip-path="url(#clip662)" d="
M1483.09 800 L1482.2 777.508 L1479.52 755.158 L1475.07 733.092 L1468.89 711.449 L1461 690.366 L1451.47 669.975 L1440.34 650.407 L1427.7 631.785 L1413.61 614.226 
  L1398.18 597.842 L1381.49 582.735 L1363.65 569.003 L1344.78 556.73 L1325 545.996 L1304.42 536.868 L1283.19 529.403 L1261.43 523.65 L1239.28 519.643 L1216.88 517.409 
  L1194.37 516.961 L1171.9 518.303 L1149.61 521.426 L1127.64 526.31 L1106.12 532.925 L1085.2 541.228 L1065 551.167 L1045.66 562.679 L1027.29 575.692 L1010.02 590.122 
  L993.941 605.88 L979.17 622.865 L965.795 640.97 L953.9 660.081 L943.561 680.076 L934.844 700.829 L927.803 722.209 L922.483 744.081 L918.917 766.307 L917.129 788.745 
  L917.129 811.255 L918.917 833.693 L922.483 855.919 L927.803 877.791 L934.844 899.171 L943.561 919.924 L953.9 939.919 L965.795 959.03 L979.17 977.135 L993.941 994.12 
  L1010.02 1009.88 L1027.29 1024.31 L1045.66 1037.32 L1065 1048.83 L1085.2 1058.77 L1106.12 1067.08 L1127.64 1073.69 L1149.61 1078.57 L1171.9 1081.7 L1194.37 1083.04 
  L1216.88 1082.59 L1239.28 1080.36 L1261.43 1076.35 L1283.19 1070.6 L1304.42 1063.13 L1325 1054 L1344.78 1043.27 L1363.65 1031 L1381.49 1017.26 L1398.18 1002.16 
  L1413.61 985.774 L1427.7 968.215 L1440.34 949.593 L1451.47 930.025 L1461 909.634 L1468.89 888.551 L1475.07 866.908 L1479.52 844.842 L1482.2 822.492 L1483.09 800 
  L1483.09 800  Z
  " fill="#e26f46" fill-rule="evenodd" fill-opacity="1"/>
<polyline clip-path="url(#clip662)" style="stroke:#000000; stroke-linecap:butt; stroke-linejoin:round; stroke-width:4; stroke-opacity:1; fill:none" points="
  1483.09,800 1482.2,777.508 1479.52,755.158 1475.07,733.092 1468.89,711.449 1461,690.366 1451.47,669.975 1440.34,650.407 1427.7,631.785 1413.61,614.226 
  1398.18,597.842 1381.49,582.735 1363.65,569.003 1344.78,556.73 1325,545.996 1304.42,536.868 1283.19,529.403 1261.43,523.65 1239.28,519.643 1216.88,517.409 
  1194.37,516.961 1171.9,518.303 1149.61,521.426 1127.64,526.31 1106.12,532.925 1085.2,541.228 1065,551.167 1045.66,562.679 1027.29,575.692 1010.02,590.122 
  993.941,605.88 979.17,622.865 965.795,640.97 953.9,660.081 943.561,680.076 934.844,700.829 927.803,722.209 922.483,744.081 918.917,766.307 917.129,788.745 
  917.129,811.255 918.917,833.693 922.483,855.919 927.803,877.791 934.844,899.171 943.561,919.924 953.9,939.919 965.795,959.03 979.17,977.135 993.941,994.12 
  1010.02,1009.88 1027.29,1024.31 1045.66,1037.32 1065,1048.83 1085.2,1058.77 1106.12,1067.08 1127.64,1073.69 1149.61,1078.57 1171.9,1081.7 1194.37,1083.04 
  1216.88,1082.59 1239.28,1080.36 1261.43,1076.35 1283.19,1070.6 1304.42,1063.13 1325,1054 1344.78,1043.27 1363.65,1031 1381.49,1017.26 1398.18,1002.16 
  1413.61,985.774 1427.7,968.215 1440.34,949.593 1451.47,930.025 1461,909.634 1468.89,888.551 1475.07,866.908 1479.52,844.842 1482.2,822.492 1483.09,800 
  1483.09,800 
  "/>
<path clip-path="url(#clip662)" d="
M1483.09 800 L1482.2 777.508 L1479.52 755.158 L1475.07 733.092 L1468.89 711.449 L1461 690.366 L1451.47 669.975 L1440.34 650.407 L1427.7 631.785 L1413.61 614.226 
  L1398.18 597.842 L1381.49 582.735 L1363.65 569.003 L1344.78 556.73 L1325 545.996 L1304.42 536.868 L1283.19 529.403 L1261.43 523.65 L1239.28 519.643 L1216.88 517.409 
  L1194.37 516.961 L1171.9 518.303 L1149.61 521.426 L1127.64 526.31 L1106.12 532.925 L1085.2 541.228 L1065 551.167 L1045.66 562.679 L1027.29 575.692 L1010.02 590.122 
  L993.941 605.88 L979.17 622.865 L965.795 640.97 L953.9 660.081 L943.561 680.076 L934.844 700.829 L927.803 722.209 L922.483 744.081 L918.917 766.307 L917.129 788.745 
  L917.129 811.255 L918.917 833.693 L922.483 855.919 L927.803 877.791 L934.844 899.171 L943.561 919.924 L953.9 939.919 L965.795 959.03 L979.17 977.135 L993.941 994.12 
  L1010.02 1009.88 L1027.29 1024.31 L1045.66 1037.32 L1065 1048.83 L1085.2 1058.77 L1106.12 1067.08 L1127.64 1073.69 L1149.61 1078.57 L1171.9 1081.7 L1194.37 1083.04 
  L1216.88 1082.59 L1239.28 1080.36 L1261.43 1076.35 L1283.19 1070.6 L1304.42 1063.13 L1325 1054 L1344.78 1043.27 L1363.65 1031 L1381.49 1017.26 L1398.18 1002.16 
  L1413.61 985.774 L1427.7 968.215 L1440.34 949.593 L1451.47 930.025 L1461 909.634 L1468.89 888.551 L1475.07 866.908 L1479.52 844.842 L1482.2 822.492 L1483.09 800 
  L1483.09 800  Z
  " fill="#e26f46" fill-rule="evenodd" fill-opacity="1"/>
<polyline clip-path="url(#clip662)" style="stroke:#000000; stroke-linecap:butt; stroke-linejoin:round; stroke-width:4; stroke-opacity:1; fill:none" points="
  1483.09,800 1482.2,777.508 1479.52,755.158 1475.07,733.092 1468.89,711.449 1461,690.366 1451.47,669.975 1440.34,650.407 1427.7,631.785 1413.61,614.226 
  1398.18,597.842 1381.49,582.735 1363.65,569.003 1344.78,556.73 1325,545.996 1304.42,536.868 1283.19,529.403 1261.43,523.65 1239.28,519.643 1216.88,517.409 
  1194.37,516.961 1171.9,518.303 1149.61,521.426 1127.64,526.31 1106.12,532.925 1085.2,541.228 1065,551.167 1045.66,562.679 1027.29,575.692 1010.02,590.122 
  993.941,605.88 979.17,622.865 965.795,640.97 953.9,660.081 943.561,680.076 934.844,700.829 927.803,722.209 922.483,744.081 918.917,766.307 917.129,788.745 
  917.129,811.255 918.917,833.693 922.483,855.919 927.803,877.791 934.844,899.171 943.561,919.924 953.9,939.919 965.795,959.03 979.17,977.135 993.941,994.12 
  1010.02,1009.88 1027.29,1024.31 1045.66,1037.32 1065,1048.83 1085.2,1058.77 1106.12,1067.08 1127.64,1073.69 1149.61,1078.57 1171.9,1081.7 1194.37,1083.04 
  1216.88,1082.59 1239.28,1080.36 1261.43,1076.35 1283.19,1070.6 1304.42,1063.13 1325,1054 1344.78,1043.27 1363.65,1031 1381.49,1017.26 1398.18,1002.16 
  1413.61,985.774 1427.7,968.215 1440.34,949.593 1451.47,930.025 1461,909.634 1468.89,888.551 1475.07,866.908 1479.52,844.842 1482.2,822.492 1483.09,800 
  1483.09,800 
  "/>
<path clip-path="url(#clip662)" d="
M1483.09 800 L1482.2 777.508 L1479.52 755.158 L1475.07 733.092 L1468.89 711.449 L1461 690.366 L1451.47 669.975 L1440.34 650.407 L1427.7 631.785 L1413.61 614.226 
  L1398.18 597.842 L1381.49 582.735 L1363.65 569.003 L1344.78 556.73 L1325 545.996 L1304.42 536.868 L1283.19 529.403 L1261.43 523.65 L1239.28 519.643 L1216.88 517.409 
  L1194.37 516.961 L1171.9 518.303 L1149.61 521.426 L1127.64 526.31 L1106.12 532.925 L1085.2 541.228 L1065 551.167 L1045.66 562.679 L1027.29 575.692 L1010.02 590.122 
  L993.941 605.88 L979.17 622.865 L965.795 640.97 L953.9 660.081 L943.561 680.076 L934.844 700.829 L927.803 722.209 L922.483 744.081 L918.917 766.307 L917.129 788.745 
  L917.129 811.255 L918.917 833.693 L922.483 855.919 L927.803 877.791 L934.844 899.171 L943.561 919.924 L953.9 939.919 L965.795 959.03 L979.17 977.135 L993.941 994.12 
  L1010.02 1009.88 L1027.29 1024.31 L1045.66 1037.32 L1065 1048.83 L1085.2 1058.77 L1106.12 1067.08 L1127.64 1073.69 L1149.61 1078.57 L1171.9 1081.7 L1194.37 1083.04 
  L1216.88 1082.59 L1239.28 1080.36 L1261.43 1076.35 L1283.19 1070.6 L1304.42 1063.13 L1325 1054 L1344.78 1043.27 L1363.65 1031 L1381.49 1017.26 L1398.18 1002.16 
  L1413.61 985.774 L1427.7 968.215 L1440.34 949.593 L1451.47 930.025 L1461 909.634 L1468.89 888.551 L1475.07 866.908 L1479.52 844.842 L1482.2 822.492 L1483.09 800 
  L1483.09 800  Z
  " fill="#e26f46" fill-rule="evenodd" fill-opacity="1"/>
<polyline clip-path="url(#clip662)" style="stroke:#000000; stroke-linecap:butt; stroke-linejoin:round; stroke-width:4; stroke-opacity:1; fill:none" points="
  1483.09,800 1482.2,777.508 1479.52,755.158 1475.07,733.092 1468.89,711.449 1461,690.366 1451.47,669.975 1440.34,650.407 1427.7,631.785 1413.61,614.226 
  1398.18,597.842 1381.49,582.735 1363.65,569.003 1344.78,556.73 1325,545.996 1304.42,536.868 1283.19,529.403 1261.43,523.65 1239.28,519.643 1216.88,517.409 
  1194.37,516.961 1171.9,518.303 1149.61,521.426 1127.64,526.31 1106.12,532.925 1085.2,541.228 1065,551.167 1045.66,562.679 1027.29,575.692 1010.02,590.122 
  993.941,605.88 979.17,622.865 965.795,640.97 953.9,660.081 943.561,680.076 934.844,700.829 927.803,722.209 922.483,744.081 918.917,766.307 917.129,788.745 
  917.129,811.255 918.917,833.693 922.483,855.919 927.803,877.791 934.844,899.171 943.561,919.924 953.9,939.919 965.795,959.03 979.17,977.135 993.941,994.12 
  1010.02,1009.88 1027.29,1024.31 1045.66,1037.32 1065,1048.83 1085.2,1058.77 1106.12,1067.08 1127.64,1073.69 1149.61,1078.57 1171.9,1081.7 1194.37,1083.04 
  1216.88,1082.59 1239.28,1080.36 1261.43,1076.35 1283.19,1070.6 1304.42,1063.13 1325,1054 1344.78,1043.27 1363.65,1031 1381.49,1017.26 1398.18,1002.16 
  1413.61,985.774 1427.7,968.215 1440.34,949.593 1451.47,930.025 1461,909.634 1468.89,888.551 1475.07,866.908 1479.52,844.842 1482.2,822.492 1483.09,800 
  1483.09,800 
  "/>
<circle clip-path="url(#clip662)" style="fill:#e26f46; stroke:none; fill-opacity:1" cx="1200" cy="800" r="2"/>
<circle clip-path="url(#clip662)" style="fill:#e26f46; stroke:none; fill-opacity:1" cx="1200" cy="800" r="2"/>
<circle clip-path="url(#clip662)" style="fill:#e26f46; stroke:none; fill-opacity:1" cx="1200" cy="800" r="2"/>
<circle clip-path="url(#clip662)" style="fill:#e26f46; stroke:none; fill-opacity:1" cx="1200" cy="800" r="2"/>
<circle clip-path="url(#clip662)" style="fill:#e26f46; stroke:none; fill-opacity:1" cx="1200" cy="800" r="2"/>
<circle clip-path="url(#clip662)" style="fill:#e26f46; stroke:none; fill-opacity:1" cx="1200" cy="800" r="2"/>
<circle clip-path="url(#clip662)" style="fill:#e26f46; stroke:none; fill-opacity:1" cx="1200" cy="800" r="2"/>
<circle clip-path="url(#clip662)" style="fill:#e26f46; stroke:none; fill-opacity:1" cx="1200" cy="800" r="2"/>
<path clip-path="url(#clip660)" d="M1184.19 782.72 L1191.16 782.72 L1199.98 806.238 L1208.84 782.72 L1215.81 782.72 L1215.81 817.28 L1211.25 817.28 L1211.25 786.933 L1202.34 810.637 L1197.64 810.637 L1188.73 786.933 L1188.73 817.28 L1184.19 817.28 L1184.19 782.72 Z" fill="#000000" fill-rule="evenodd" fill-opacity="1" /><path clip-path="url(#clip660)" d="M1190.15 786.563 L1190.15 813.437 L1195.8 813.437 Q1202.95 813.437 1206.26 810.197 Q1209.59 806.956 1209.59 799.965 Q1209.59 793.021 1206.26 789.803 Q1202.95 786.563 1195.8 786.563 L1190.15 786.563 M1185.47 782.72 L1195.08 782.72 Q1205.13 782.72 1209.83 786.91 Q1214.53 791.076 1214.53 799.965 Q1214.53 808.9 1209.8 813.09 Q1205.08 817.28 1195.08 817.28 L1185.47 817.28 L1185.47 782.72 Z" fill="#000000" fill-rule="evenodd" fill-opacity="1" /><path clip-path="url(#clip660)" d="M1185.43 782.72 L1190.45 782.72 L1200.03 796.933 L1209.55 782.72 L1214.57 782.72 L1202.35 800.822 L1202.35 817.28 L1197.65 817.28 L1197.65 800.822 L1185.43 782.72 Z" fill="#000000" fill-rule="evenodd" fill-opacity="1" /><path clip-path="url(#clip660)" d="M1173.33 782.72 L1178.36 782.72 L1186.94 795.567 L1195.58 782.72 L1200.6 782.72 L1189.49 799.317 L1201.34 817.28 L1196.32 817.28 L1186.6 802.581 L1176.81 817.28 L1171.76 817.28 L1184.1 798.831 L1173.33 782.72 Z" fill="#000000" fill-rule="evenodd" fill-opacity="1" /><path clip-path="url(#clip660)" d="M1211.92 813.345 L1228.24 813.345 L1228.24 817.28 L1206.3 817.28 L1206.3 813.345 Q1208.96 810.59 1213.54 805.961 Q1218.15 801.308 1219.33 799.965 Q1221.57 797.442 1222.45 795.706 Q1223.36 793.947 1223.36 792.257 Q1223.36 789.502 1221.41 787.766 Q1219.49 786.03 1216.39 786.03 Q1214.19 786.03 1211.74 786.794 Q1209.31 787.558 1206.53 789.109 L1206.53 784.387 Q1209.35 783.252 1211.81 782.674 Q1214.26 782.095 1216.3 782.095 Q1221.67 782.095 1224.86 784.78 Q1228.06 787.465 1228.06 791.956 Q1228.06 794.086 1227.25 796.007 Q1226.46 797.905 1224.35 800.498 Q1223.77 801.169 1220.67 804.387 Q1217.57 807.581 1211.92 813.345 Z" fill="#000000" fill-rule="evenodd" fill-opacity="1" /><path clip-path="url(#clip660)" d="M1172.86 782.72 L1177.88 782.72 L1186.47 795.567 L1195.1 782.72 L1200.13 782.72 L1189.02 799.317 L1200.87 817.28 L1195.84 817.28 L1186.12 802.581 L1176.33 817.28 L1171.28 817.28 L1183.62 798.831 L1172.86 782.72 Z" fill="#000000" fill-rule="evenodd" fill-opacity="1" /><path clip-path="url(#clip660)" d="M1221.59 798.646 Q1224.94 799.363 1226.82 801.632 Q1228.72 803.9 1228.72 807.234 Q1228.72 812.349 1225.2 815.15 Q1221.68 817.951 1215.2 817.951 Q1213.02 817.951 1210.71 817.511 Q1208.41 817.095 1205.96 816.238 L1205.96 811.724 Q1207.91 812.859 1210.22 813.437 Q1212.53 814.016 1215.06 814.016 Q1219.46 814.016 1221.75 812.28 Q1224.06 810.544 1224.06 807.234 Q1224.06 804.178 1221.91 802.465 Q1219.78 800.729 1215.96 800.729 L1211.93 800.729 L1211.93 796.887 L1216.15 796.887 Q1219.59 796.887 1221.42 795.521 Q1223.25 794.132 1223.25 791.539 Q1223.25 788.877 1221.35 787.465 Q1219.48 786.03 1215.96 786.03 Q1214.04 786.03 1211.84 786.447 Q1209.64 786.863 1207 787.743 L1207 783.576 Q1209.66 782.836 1211.98 782.465 Q1214.32 782.095 1216.38 782.095 Q1221.7 782.095 1224.8 784.526 Q1227.9 786.933 1227.9 791.053 Q1227.9 793.924 1226.26 795.914 Q1224.62 797.882 1221.59 798.646 Z" fill="#000000" fill-rule="evenodd" fill-opacity="1" /><path clip-path="url(#clip660)" d="M1173.15 782.72 L1178.17 782.72 L1186.76 795.567 L1195.39 782.72 L1200.42 782.72 L1189.31 799.317 L1201.16 817.28 L1196.13 817.28 L1186.41 802.581 L1176.62 817.28 L1171.57 817.28 L1183.91 798.831 L1173.15 782.72 Z" fill="#000000" fill-rule="evenodd" fill-opacity="1" /><path clip-path="url(#clip660)" d="M1208.52 813.345 L1216.16 813.345 L1216.16 786.979 L1207.85 788.646 L1207.85 784.387 L1216.11 782.72 L1220.79 782.72 L1220.79 813.345 L1228.43 813.345 L1228.43 817.28 L1208.52 817.28 L1208.52 813.345 Z" fill="#000000" fill-rule="evenodd" fill-opacity="1" /><path clip-path="url(#clip660)" d="M1172.65 782.72 L1199.8 782.72 L1199.8 786.285 L1177.95 813.345 L1200.34 813.345 L1200.34 817.28 L1172.12 817.28 L1172.12 813.715 L1193.97 786.655 L1172.65 786.655 L1172.65 782.72 Z" fill="#000000" fill-rule="evenodd" fill-opacity="1" /><path clip-path="url(#clip660)" d="M1211.56 813.345 L1227.88 813.345 L1227.88 817.28 L1205.94 817.28 L1205.94 813.345 Q1208.6 810.59 1213.18 805.961 Q1217.79 801.308 1218.97 799.965 Q1221.22 797.442 1222.09 795.706 Q1223 793.947 1223 792.257 Q1223 789.502 1221.05 787.766 Q1219.13 786.03 1216.03 786.03 Q1213.83 786.03 1211.38 786.794 Q1208.95 787.558 1206.17 789.109 L1206.17 784.387 Q1208.99 783.252 1211.45 782.674 Q1213.9 782.095 1215.94 782.095 Q1221.31 782.095 1224.5 784.78 Q1227.7 787.465 1227.7 791.956 Q1227.7 794.086 1226.89 796.007 Q1226.1 797.905 1223.99 800.498 Q1223.41 801.169 1220.31 804.387 Q1217.21 807.581 1211.56 813.345 Z" fill="#000000" fill-rule="evenodd" fill-opacity="1" /><path clip-path="url(#clip660)" d="M1172.47 782.72 L1199.62 782.72 L1199.62 786.285 L1177.77 813.345 L1200.15 813.345 L1200.15 817.28 L1171.93 817.28 L1171.93 813.715 L1193.78 786.655 L1172.47 786.655 L1172.47 782.72 Z" fill="#000000" fill-rule="evenodd" fill-opacity="1" /><path clip-path="url(#clip660)" d="M1208.16 813.345 L1215.8 813.345 L1215.8 786.979 L1207.49 788.646 L1207.49 784.387 L1215.75 782.72 L1220.43 782.72 L1220.43 813.345 L1228.07 813.345 L1228.07 817.28 L1208.16 817.28 L1208.16 813.345 Z" fill="#000000" fill-rule="evenodd" fill-opacity="1" /></svg>
