<?xml version="1.0" encoding="utf-8"?>
<svg xmlns="http://www.w3.org/2000/svg" xmlns:xlink="http://www.w3.org/1999/xlink" width="600" height="400" viewBox="0 0 2400 1600">
<defs>
  <clipPath id="clip750">
    <rect x="0" y="0" width="2400" height="1600"/>
  </clipPath>
</defs>
<path clip-path="url(#clip750)" d="
M0 1600 L2400 1600 L2400 0 L0 0  Z
  " fill="#ffffff" fill-rule="evenodd" fill-opacity="1"/>
<defs>
  <clipPath id="clip751">
    <rect x="480" y="0" width="1681" height="1600"/>
  </clipPath>
</defs>
<path clip-path="url(#clip750)" d="
M447.244 1552.76 L1952.76 1552.76 L1952.76 47.2441 L447.244 47.2441  Z
  " fill="#ffffff" fill-rule="evenodd" fill-opacity="1"/>
<defs>
  <clipPath id="clip752">
    <rect x="447" y="47" width="1507" height="1507"/>
  </clipPath>
</defs>
<polyline clip-path="url(#clip752)" style="stroke:#000000; stroke-linecap:butt; stroke-linejoin:round; stroke-width:4; stroke-opacity:1; fill:none" points="
  1200,172.703 1213.65,172.703 1227.29,172.703 1240.91,172.703 1254.51,172.703 1268.07,172.703 1281.59,172.703 1295.06,172.703 1308.47,172.703 1321.81,172.703 
  1335.08,172.703 1348.26,172.703 1361.35,172.703 1374.34,172.703 1387.21,172.703 1399.97,172.703 1412.6,172.703 1425.1,172.703 1437.45,172.703 1449.65,172.703 
  1461.69,172.703 1473.56,172.703 1485.25,172.703 1496.76,172.703 1508.07,172.703 1519.18,172.703 1530.08,172.703 1540.79,172.703 1551.32,172.703 1561.66,172.703 
  1571.84,172.703 1581.86,172.703 1591.72,172.703 1601.44,172.703 1611.02,172.703 1620.48,172.703 1629.82,172.703 1639.05,172.703 1648.18,172.703 1657.21,172.703 
  1666.16,172.703 1675.03,172.703 1683.84,172.703 1692.58,172.703 1701.28,172.703 1709.93,172.703 1718.55,172.703 1727.15,172.703 1735.72,172.703 1744.29,172.703 
  
  "/>
<polyline clip-path="url(#clip752)" style="stroke:#000000; stroke-linecap:butt; stroke-linejoin:round; stroke-width:4; stroke-opacity:1; fill:none" points="
  1708.29,154.703 1744.29,172.703 1708.29,190.703 
  "/>
<polyline clip-path="url(#clip752)" style="stroke:#000000; stroke-linecap:butt; stroke-linejoin:round; stroke-width:4; stroke-opacity:1; fill:none" points="
  1744.29,172.703 1735.72,172.703 
  "/>
<polyline clip-path="url(#clip752)" style="stroke:#000000; stroke-linecap:butt; stroke-linejoin:round; stroke-width:4; stroke-opacity:1; fill:none" points="
  886.352,172.703 893.598,172.703 900.836,172.703 908.058,172.703 915.253,172.703 922.415,172.703 929.535,172.703 936.604,172.703 943.613,172.703 950.555,172.703 
  957.42,172.703 964.201,172.703 970.889,172.703 977.475,172.703 983.952,172.703 990.309,172.703 996.54,172.703 1002.63,172.703 1008.59,172.703 1014.38,172.703 
  1020.02,172.703 1025.49,172.703 1030.78,172.703 1035.89,172.703 1040.8,172.703 1045.5,172.703 1050.01,172.703 1054.32,172.703 1058.44,172.703 1062.39,172.703 
  1066.16,172.703 1069.78,172.703 1073.24,172.703 1076.56,172.703 1079.74,172.703 1082.8,172.703 1085.74,172.703 1088.56,172.703 1091.29,172.703 1093.92,172.703 
  1096.47,172.703 1098.94,172.703 1101.35,172.703 1103.69,172.703 1105.99,172.703 1108.24,172.703 1110.46,172.703 1112.65,172.703 1114.83,172.703 1116.99,172.703 
  
  "/>
<polyline clip-path="url(#clip752)" style="stroke:#000000; stroke-linecap:butt; stroke-linejoin:round; stroke-width:4; stroke-opacity:1; fill:none" points="
  1080.99,154.703 1116.99,172.703 1080.99,190.703 
  "/>
<polyline clip-path="url(#clip752)" style="stroke:#000000; stroke-linecap:butt; stroke-linejoin:round; stroke-width:4; stroke-opacity:1; fill:none" points="
  1116.99,172.703 1114.83,172.703 
  "/>
<polyline clip-path="url(#clip752)" style="stroke:#000000; stroke-linecap:butt; stroke-linejoin:round; stroke-width:4; stroke-opacity:1; fill:none" points="
  1200,800 1213.4,786.6 1226.79,773.206 1240.18,759.824 1253.54,746.46 1266.88,733.12 1280.19,719.81 1293.46,706.536 1306.7,693.304 1319.88,680.119 
  1333.01,666.989 1346.08,653.918 1359.09,640.913 1372.02,627.981 1384.87,615.125 1397.65,602.354 1410.33,589.673 1422.91,577.087 1435.4,564.603 1447.77,552.227 
  1460.04,539.964 1472.18,527.822 1484.2,515.805 1496.08,503.92 1507.83,492.172 1519.43,480.568 1530.89,469.107 1542.22,457.784 1553.41,446.593 1564.47,435.527 
  1575.42,424.581 1586.25,413.749 1596.97,403.025 1607.6,392.402 1618.12,381.876 1628.56,371.439 1638.91,361.086 1649.19,350.81 1659.39,340.607 1669.53,330.469 
  1679.61,320.391 1689.63,310.367 1699.61,300.391 1709.54,290.457 1719.44,280.559 1729.31,270.691 1739.15,260.847 1748.98,251.02 1758.79,241.206 1768.6,231.398 
  
  "/>
<polyline clip-path="url(#clip752)" style="stroke:#000000; stroke-linecap:butt; stroke-linejoin:round; stroke-width:4; stroke-opacity:1; fill:none" points="
  1730.42,244.126 1768.6,231.398 1755.87,269.581 
  "/>
<polyline clip-path="url(#clip752)" style="stroke:#000000; stroke-linecap:butt; stroke-linejoin:round; stroke-width:4; stroke-opacity:1; fill:none" points="
  1768.6,231.398 1758.79,241.206 
  "/>
<polyline clip-path="url(#clip752)" style="stroke:#000000; stroke-linecap:butt; stroke-linejoin:round; stroke-width:4; stroke-opacity:1; fill:none" points="
  1200,800 1186.85,786.855 1173.71,773.713 1160.58,760.578 1147.45,747.453 1134.34,734.342 1121.25,721.248 1108.17,708.175 1095.13,695.126 1082.1,682.104 
  1069.11,669.113 1056.16,656.157 1043.24,643.239 1030.36,630.362 1017.53,617.529 1004.74,604.745 992.012,592.012 979.334,579.334 966.715,566.715 954.157,554.157 
  941.665,541.665 929.242,529.242 916.891,516.891 904.616,504.616 892.419,492.419 880.305,480.305 868.274,468.274 856.321,456.321 844.444,444.444 832.639,432.639 
  820.904,420.904 809.233,409.233 797.624,397.624 786.074,386.074 774.579,374.579 763.135,363.135 751.74,351.74 740.389,340.389 729.079,329.079 717.808,317.808 
  706.57,306.57 695.364,295.364 684.185,284.185 673.03,273.03 661.896,261.896 650.779,250.779 639.676,239.676 628.583,228.583 617.497,217.497 606.414,206.414 
  
  "/>
<polyline clip-path="url(#clip752)" style="stroke:#000000; stroke-linecap:butt; stroke-linejoin:round; stroke-width:4; stroke-opacity:1; fill:none" points="
  619.142,244.598 606.414,206.414 644.598,219.142 
  "/>
<polyline clip-path="url(#clip752)" style="stroke:#000000; stroke-linecap:butt; stroke-linejoin:round; stroke-width:4; stroke-opacity:1; fill:none" points="
  606.414,206.414 617.497,217.497 
  "/>
<polyline clip-path="url(#clip752)" style="stroke:#000000; stroke-linecap:butt; stroke-linejoin:round; stroke-width:4; stroke-opacity:1; fill:none" points="
  1827.3,800 1827.3,786.352 1827.3,772.713 1827.3,759.091 1827.3,745.494 1827.3,731.932 1827.3,718.411 1827.3,704.941 1827.3,691.531 1827.3,678.188 
  1827.3,664.921 1827.3,651.739 1827.3,638.651 1827.3,625.663 1827.3,612.786 1827.3,600.028 1827.3,587.396 1827.3,574.9 1827.3,562.548 1827.3,550.348 
  1827.3,538.309 1827.3,526.44 1827.3,514.748 1827.3,503.242 1827.3,491.931 1827.3,480.823 1827.3,469.918 1827.3,459.208 1827.3,448.684 1827.3,438.337 
  1827.3,428.16 1827.3,418.144 1827.3,408.281 1827.3,398.561 1827.3,388.976 1827.3,379.519 1827.3,370.18 1827.3,360.951 1827.3,351.824 1827.3,342.79 
  1827.3,333.841 1827.3,324.968 1827.3,316.162 1827.3,307.416 1827.3,298.721 1827.3,290.068 1827.3,281.449 1827.3,272.855 1827.3,264.278 1827.3,255.71 
  
  "/>
<polyline clip-path="url(#clip752)" style="stroke:#000000; stroke-linecap:butt; stroke-linejoin:round; stroke-width:4; stroke-opacity:1; fill:none" points="
  1809.3,291.71 1827.3,255.71 1845.3,291.71 
  "/>
<polyline clip-path="url(#clip752)" style="stroke:#000000; stroke-linecap:butt; stroke-linejoin:round; stroke-width:4; stroke-opacity:1; fill:none" points="
  1827.3,255.71 1827.3,264.278 
  "/>
<polyline clip-path="url(#clip752)" style="stroke:#000000; stroke-linecap:butt; stroke-linejoin:round; stroke-width:4; stroke-opacity:1; fill:none" points="
  572.703,800 572.703,786.712 572.703,773.43 572.703,760.157 572.703,746.898 572.703,733.659 572.703,720.444 572.703,707.259 572.703,694.107 572.703,680.995 
  572.703,667.926 572.703,654.906 572.703,641.939 572.703,629.031 572.703,616.186 572.703,603.409 572.703,590.704 572.703,578.078 572.703,565.535 572.703,553.078 
  572.703,540.715 572.703,528.448 572.703,516.284 572.703,504.227 572.703,492.281 572.703,480.452 572.703,468.739 572.703,457.139 572.703,445.645 572.703,434.254 
  572.703,422.959 572.703,411.757 572.703,400.643 572.703,389.611 572.703,378.657 572.703,367.776 572.703,356.963 572.703,346.214 572.703,335.522 572.703,324.884 
  572.703,314.295 572.703,303.75 572.703,293.243 572.703,282.771 572.703,272.327 572.703,261.908 572.703,251.509 572.703,241.124 572.703,230.748 572.703,220.378 
  
  "/>
<polyline clip-path="url(#clip752)" style="stroke:#000000; stroke-linecap:butt; stroke-linejoin:round; stroke-width:4; stroke-opacity:1; fill:none" points="
  554.703,256.378 572.703,220.378 590.703,256.378 
  "/>
<polyline clip-path="url(#clip752)" style="stroke:#000000; stroke-linecap:butt; stroke-linejoin:round; stroke-width:4; stroke-opacity:1; fill:none" points="
  572.703,220.378 572.703,230.748 
  "/>
<polyline clip-path="url(#clip752)" style="stroke:#000000; stroke-linecap:butt; stroke-linejoin:round; stroke-width:4; stroke-opacity:1; fill:none" points="
  1827.3,1427.3 1813.9,1413.9 1800.5,1400.5 1787.12,1387.12 1773.76,1373.76 1760.42,1360.42 1747.11,1347.11 1733.83,1333.83 1720.6,1320.6 1707.42,1307.42 
  1694.29,1294.29 1681.21,1281.21 1668.21,1268.21 1655.28,1255.28 1642.42,1242.42 1629.65,1229.65 1616.97,1216.97 1604.38,1204.38 1591.9,1191.9 1579.52,1179.52 
  1567.26,1167.26 1555.12,1155.12 1543.1,1143.1 1531.22,1131.22 1519.47,1119.47 1507.86,1107.86 1496.4,1096.4 1485.08,1085.08 1473.89,1073.89 1462.82,1062.82 
  1451.88,1051.88 1441.05,1041.05 1430.32,1030.32 1419.7,1019.7 1409.17,1009.17 1398.74,998.735 1388.38,988.382 1378.11,978.107 1367.9,967.903 1357.77,957.766 
  1347.69,947.688 1337.66,937.664 1327.69,927.688 1317.75,917.754 1307.86,907.856 1297.99,897.988 1288.14,888.143 1278.32,878.317 1268.5,868.503 1258.69,858.694 
  
  "/>
<polyline clip-path="url(#clip752)" style="stroke:#000000; stroke-linecap:butt; stroke-linejoin:round; stroke-width:4; stroke-opacity:1; fill:none" points="
  1271.42,896.878 1258.69,858.694 1296.88,871.422 
  "/>
<polyline clip-path="url(#clip752)" style="stroke:#000000; stroke-linecap:butt; stroke-linejoin:round; stroke-width:4; stroke-opacity:1; fill:none" points="
  1258.69,858.694 1268.5,868.503 
  "/>
<polyline clip-path="url(#clip752)" style="stroke:#000000; stroke-linecap:butt; stroke-linejoin:round; stroke-width:4; stroke-opacity:1; fill:none" points="
  1827.3,1427.3 1827.3,1413.65 1827.3,1400.01 1827.3,1386.39 1827.3,1372.79 1827.3,1359.23 1827.3,1345.71 1827.3,1332.24 1827.3,1318.83 1827.3,1305.48 
  1827.3,1292.22 1827.3,1279.04 1827.3,1265.95 1827.3,1252.96 1827.3,1240.08 1827.3,1227.32 1827.3,1214.69 1827.3,1202.2 1827.3,1189.84 1827.3,1177.64 
  1827.3,1165.61 1827.3,1153.74 1827.3,1142.04 1827.3,1130.54 1827.3,1119.23 1827.3,1108.12 1827.3,1097.21 1827.3,1086.5 1827.3,1075.98 1827.3,1065.63 
  1827.3,1055.46 1827.3,1045.44 1827.3,1035.58 1827.3,1025.86 1827.3,1016.27 1827.3,1006.82 1827.3,997.477 1827.3,988.248 1827.3,979.121 1827.3,970.087 
  1827.3,961.138 1827.3,952.264 1827.3,943.459 1827.3,934.713 1827.3,926.017 1827.3,917.364 1827.3,908.745 1827.3,900.151 1827.3,891.575 1827.3,883.006 
  
  "/>
<polyline clip-path="url(#clip752)" style="stroke:#000000; stroke-linecap:butt; stroke-linejoin:round; stroke-width:4; stroke-opacity:1; fill:none" points="
  1809.3,919.006 1827.3,883.006 1845.3,919.006 
  "/>
<polyline clip-path="url(#clip752)" style="stroke:#000000; stroke-linecap:butt; stroke-linejoin:round; stroke-width:4; stroke-opacity:1; fill:none" points="
  1827.3,883.006 1827.3,891.575 
  "/>
<polyline clip-path="url(#clip752)" style="stroke:#000000; stroke-linecap:butt; stroke-linejoin:round; stroke-width:4; stroke-opacity:1; fill:none" points="
  572.703,1427.3 586.103,1413.9 599.497,1400.5 612.879,1387.12 626.243,1373.76 639.583,1360.42 652.893,1347.11 666.167,1333.83 679.4,1320.6 692.584,1307.42 
  705.715,1294.29 718.785,1281.21 731.79,1268.21 744.723,1255.28 757.578,1242.42 770.349,1229.65 783.031,1216.97 795.616,1204.38 808.1,1191.9 820.477,1179.52 
  832.739,1167.26 844.882,1155.12 856.899,1143.1 868.784,1131.22 880.531,1119.47 892.136,1107.86 903.596,1096.4 914.919,1085.08 926.111,1073.89 937.176,1062.82 
  948.122,1051.88 958.954,1041.05 969.678,1030.32 980.301,1019.7 990.828,1009.17 1001.26,998.735 1011.62,988.382 1021.89,978.107 1032.1,967.903 1042.23,957.766 
  1052.31,947.688 1062.34,937.664 1072.31,927.688 1082.25,917.754 1092.14,907.856 1102.01,897.988 1111.86,888.143 1121.68,878.317 1131.5,868.503 1141.31,858.694 
  
  "/>
<polyline clip-path="url(#clip752)" style="stroke:#000000; stroke-linecap:butt; stroke-linejoin:round; stroke-width:4; stroke-opacity:1; fill:none" points="
  1103.12,871.422 1141.31,858.694 1128.58,896.878 
  "/>
<polyline clip-path="url(#clip752)" style="stroke:#000000; stroke-linecap:butt; stroke-linejoin:round; stroke-width:4; stroke-opacity:1; fill:none" points="
  1141.31,858.694 1131.5,868.503 
  "/>
<polyline clip-path="url(#clip752)" style="stroke:#000000; stroke-linecap:butt; stroke-linejoin:round; stroke-width:4; stroke-opacity:1; fill:none" points="
  572.703,1427.3 572.703,1413.65 572.703,1400.01 572.703,1386.39 572.703,1372.79 572.703,1359.23 572.703,1345.71 572.703,1332.24 572.703,1318.83 572.703,1305.48 
  572.703,1292.22 572.703,1279.04 572.703,1265.95 572.703,1252.96 572.703,1240.08 572.703,1227.32 572.703,1214.69 572.703,1202.2 572.703,1189.84 572.703,1177.64 
  572.703,1165.61 572.703,1153.74 572.703,1142.04 572.703,1130.54 572.703,1119.23 572.703,1108.12 572.703,1097.21 572.703,1086.5 572.703,1075.98 572.703,1065.63 
  572.703,1055.46 572.703,1045.44 572.703,1035.58 572.703,1025.86 572.703,1016.27 572.703,1006.82 572.703,997.477 572.703,988.248 572.703,979.121 572.703,970.087 
  572.703,961.138 572.703,952.264 572.703,943.459 572.703,934.713 572.703,926.017 572.703,917.364 572.703,908.745 572.703,900.151 572.703,891.575 572.703,883.006 
  
  "/>
<polyline clip-path="url(#clip752)" style="stroke:#000000; stroke-linecap:butt; stroke-linejoin:round; stroke-width:4; stroke-opacity:1; fill:none" points="
  554.703,919.006 572.703,883.006 590.703,919.006 
  "/>
<polyline clip-path="url(#clip752)" style="stroke:#000000; stroke-linecap:butt; stroke-linejoin:round; stroke-width:4; stroke-opacity:1; fill:none" points="
  572.703,883.006 572.703,891.575 
  "/>
<path clip-path="url(#clip752)" d="
M1283.01 172.703 L1282.74 166.109 L1281.96 159.555 L1280.65 153.085 L1278.84 146.739 L1276.53 140.558 L1273.73 134.579 L1270.47 128.841 L1266.76 123.381 L1262.63 118.233 
  L1258.11 113.429 L1253.21 108.999 L1247.99 104.973 L1242.45 101.374 L1236.65 98.227 L1230.62 95.5505 L1224.39 93.3618 L1218.01 91.6747 L1211.52 90.4999 L1204.95 89.8448 
  L1198.35 89.7136 L1191.76 90.1071 L1185.23 91.0228 L1178.78 92.4548 L1172.47 94.3943 L1166.34 96.8288 L1160.42 99.743 L1154.75 103.119 L1149.36 106.934 L1144.29 111.165 
  L1139.58 115.786 L1135.25 120.766 L1131.33 126.074 L1127.84 131.678 L1124.81 137.54 L1122.25 143.625 L1120.19 149.894 L1118.63 156.307 L1117.58 162.824 L1117.06 169.403 
  L1117.06 176.003 L1117.58 182.583 L1118.63 189.099 L1120.19 195.512 L1122.25 201.781 L1124.81 207.866 L1127.84 213.729 L1131.33 219.333 L1135.25 224.641 L1139.58 229.621 
  L1144.29 234.242 L1149.36 238.473 L1154.75 242.288 L1160.42 245.664 L1166.34 248.578 L1172.47 251.013 L1178.78 252.952 L1185.23 254.384 L1191.76 255.3 L1198.35 255.693 
  L1204.95 255.562 L1211.52 254.907 L1218.01 253.732 L1224.39 252.045 L1230.62 249.856 L1236.65 247.18 L1242.45 244.032 L1247.99 240.434 L1253.21 236.408 L1258.11 231.978 
  L1262.63 227.174 L1266.76 222.026 L1270.47 216.566 L1273.73 210.828 L1276.53 204.849 L1278.84 198.667 L1280.65 192.321 L1281.96 185.851 L1282.74 179.298 L1283.01 172.703 
  L1283.01 172.703  Z
  " fill="#808080" fill-rule="evenodd" fill-opacity="1"/>
<polyline clip-path="url(#clip752)" style="stroke:#000000; stroke-linecap:butt; stroke-linejoin:round; stroke-width:4; stroke-opacity:1; fill:none" points="
  1283.01,172.703 1282.74,166.109 1281.96,159.555 1280.65,153.085 1278.84,146.739 1276.53,140.558 1273.73,134.579 1270.47,128.841 1266.76,123.381 1262.63,118.233 
  1258.11,113.429 1253.21,108.999 1247.99,104.973 1242.45,101.374 1236.65,98.227 1230.62,95.5505 1224.39,93.3618 1218.01,91.6747 1211.52,90.4999 1204.95,89.8448 
  1198.35,89.7136 1191.76,90.1071 1185.23,91.0228 1178.78,92.4548 1172.47,94.3943 1166.34,96.8288 1160.42,99.743 1154.75,103.119 1149.36,106.934 1144.29,111.165 
  1139.58,115.786 1135.25,120.766 1131.33,126.074 1127.84,131.678 1124.81,137.54 1122.25,143.625 1120.19,149.894 1118.63,156.307 1117.58,162.824 1117.06,169.403 
  1117.06,176.003 1117.58,182.583 1118.63,189.099 1120.19,195.512 1122.25,201.781 1124.81,207.866 1127.84,213.729 1131.33,219.333 1135.25,224.641 1139.58,229.621 
  1144.29,234.242 1149.36,238.473 1154.75,242.288 1160.42,245.664 1166.34,248.578 1172.47,251.013 1178.78,252.952 1185.23,254.384 1191.76,255.3 1198.35,255.693 
  1204.95,255.562 1211.52,254.907 1218.01,253.732 1224.39,252.045 1230.62,249.856 1236.65,247.18 1242.45,244.032 1247.99,240.434 1253.21,236.408 1258.11,231.978 
  1262.63,227.174 1266.76,222.026 1270.47,216.566 1273.73,210.828 1276.53,204.849 1278.84,198.667 1280.65,192.321 1281.96,185.851 1282.74,179.298 1283.01,172.703 
  
  "/>
<path clip-path="url(#clip752)" d="
M934.026 172.703 L933.876 168.916 L933.424 165.152 L932.676 161.436 L931.634 157.791 L930.306 154.24 L928.7 150.807 L926.827 147.511 L924.697 144.375 L922.325 141.418 
  L919.726 138.659 L916.916 136.115 L913.912 133.802 L910.734 131.736 L907.402 129.928 L903.937 128.391 L900.361 127.134 L896.696 126.165 L892.966 125.49 L889.194 125.114 
  L885.404 125.038 L881.62 125.264 L877.866 125.79 L874.165 126.613 L870.542 127.727 L867.018 129.125 L863.617 130.799 L860.36 132.737 L857.267 134.929 L854.357 137.359 
  L851.65 140.013 L849.163 142.873 L846.91 145.922 L844.907 149.14 L843.166 152.508 L841.698 156.003 L840.512 159.603 L839.616 163.286 L839.016 167.029 L838.715 170.808 
  L838.715 174.599 L839.016 178.378 L839.616 182.12 L840.512 185.804 L841.698 189.404 L843.166 192.899 L844.907 196.267 L846.91 199.485 L849.163 202.534 L851.65 205.394 
  L854.357 208.048 L857.267 210.478 L860.36 212.669 L863.617 214.608 L867.018 216.282 L870.542 217.68 L874.165 218.794 L877.866 219.617 L881.62 220.143 L885.404 220.369 
  L889.194 220.293 L892.966 219.917 L896.696 219.242 L900.361 218.273 L903.937 217.016 L907.402 215.479 L910.734 213.671 L913.912 211.604 L916.916 209.292 L919.726 206.748 
  L922.325 203.989 L924.697 201.032 L926.827 197.896 L928.7 194.6 L930.306 191.166 L931.634 187.616 L932.676 183.971 L933.424 180.255 L933.876 176.491 L934.026 172.703 
  L934.026 172.703  Z
  " fill="#808080" fill-rule="evenodd" fill-opacity="1"/>
<polyline clip-path="url(#clip752)" style="stroke:#000000; stroke-linecap:butt; stroke-linejoin:round; stroke-width:4; stroke-opacity:1; fill:none" points="
  934.026,172.703 933.876,168.916 933.424,165.152 932.676,161.436 931.634,157.791 930.306,154.24 928.7,150.807 926.827,147.511 924.697,144.375 922.325,141.418 
  919.726,138.659 916.916,136.115 913.912,133.802 910.734,131.736 907.402,129.928 903.937,128.391 900.361,127.134 896.696,126.165 892.966,125.49 889.194,125.114 
  885.404,125.038 881.62,125.264 877.866,125.79 874.165,126.613 870.542,127.727 867.018,129.125 863.617,130.799 860.36,132.737 857.267,134.929 854.357,137.359 
  851.65,140.013 849.163,142.873 846.91,145.922 844.907,149.14 843.166,152.508 841.698,156.003 840.512,159.603 839.616,163.286 839.016,167.029 838.715,170.808 
  838.715,174.599 839.016,178.378 839.616,182.12 840.512,185.804 841.698,189.404 843.166,192.899 844.907,196.267 846.91,199.485 849.163,202.534 851.65,205.394 
  854.357,208.048 857.267,210.478 860.36,212.669 863.617,214.608 867.018,216.282 870.542,217.68 874.165,218.794 877.866,219.617 881.62,220.143 885.404,220.369 
  889.194,220.293 892.966,219.917 896.696,219.242 900.361,218.273 903.937,217.016 907.402,215.479 910.734,213.671 913.912,211.604 916.916,209.292 919.726,206.748 
  922.325,203.989 924.697,201.032 926.827,197.896 928.7,194.6 930.306,191.166 931.634,187.616 932.676,183.971 933.424,180.255 933.876,176.491 934.026,172.703 
  
  "/>
<path clip-path="url(#clip752)" d="
M1910.3 172.703 L1910.04 166.109 L1909.25 159.555 L1907.95 153.085 L1906.14 146.739 L1903.83 140.558 L1901.03 134.579 L1897.77 128.841 L1894.06 123.381 L1889.93 118.233 
  L1885.4 113.429 L1880.51 108.999 L1875.28 104.973 L1869.75 101.374 L1863.95 98.227 L1857.91 95.5505 L1851.69 93.3618 L1845.31 91.6747 L1838.81 90.4999 L1832.25 89.8448 
  L1825.65 89.7136 L1819.06 90.1071 L1812.52 91.0228 L1806.08 92.4548 L1799.77 94.3943 L1793.64 96.8288 L1787.71 99.743 L1782.04 103.119 L1776.66 106.934 L1771.59 111.165 
  L1766.88 115.786 L1762.55 120.766 L1758.63 126.074 L1755.14 131.678 L1752.11 137.54 L1749.55 143.625 L1747.49 149.894 L1745.93 156.307 L1744.88 162.824 L1744.36 169.403 
  L1744.36 176.003 L1744.88 182.583 L1745.93 189.099 L1747.49 195.512 L1749.55 201.781 L1752.11 207.866 L1755.14 213.729 L1758.63 219.333 L1762.55 224.641 L1766.88 229.621 
  L1771.59 234.242 L1776.66 238.473 L1782.04 242.288 L1787.71 245.664 L1793.64 248.578 L1799.77 251.013 L1806.08 252.952 L1812.52 254.384 L1819.06 255.3 L1825.65 255.693 
  L1832.25 255.562 L1838.81 254.907 L1845.31 253.732 L1851.69 252.045 L1857.91 249.856 L1863.95 247.18 L1869.75 244.032 L1875.28 240.434 L1880.51 236.408 L1885.4 231.978 
  L1889.93 227.174 L1894.06 222.026 L1897.77 216.566 L1901.03 210.828 L1903.83 204.849 L1906.14 198.667 L1907.95 192.321 L1909.25 185.851 L1910.04 179.298 L1910.3 172.703 
  L1910.3 172.703  Z
  " fill="#808080" fill-rule="evenodd" fill-opacity="1"/>
<polyline clip-path="url(#clip752)" style="stroke:#000000; stroke-linecap:butt; stroke-linejoin:round; stroke-width:4; stroke-opacity:1; fill:none" points="
  1910.3,172.703 1910.04,166.109 1909.25,159.555 1907.95,153.085 1906.14,146.739 1903.83,140.558 1901.03,134.579 1897.77,128.841 1894.06,123.381 1889.93,118.233 
  1885.4,113.429 1880.51,108.999 1875.28,104.973 1869.75,101.374 1863.95,98.227 1857.91,95.5505 1851.69,93.3618 1845.31,91.6747 1838.81,90.4999 1832.25,89.8448 
  1825.65,89.7136 1819.06,90.1071 1812.52,91.0228 1806.08,92.4548 1799.77,94.3943 1793.64,96.8288 1787.71,99.743 1782.04,103.119 1776.66,106.934 1771.59,111.165 
  1766.88,115.786 1762.55,120.766 1758.63,126.074 1755.14,131.678 1752.11,137.54 1749.55,143.625 1747.49,149.894 1745.93,156.307 1744.88,162.824 1744.36,169.403 
  1744.36,176.003 1744.88,182.583 1745.93,189.099 1747.49,195.512 1749.55,201.781 1752.11,207.866 1755.14,213.729 1758.63,219.333 1762.55,224.641 1766.88,229.621 
  1771.59,234.242 1776.66,238.473 1782.04,242.288 1787.71,245.664 1793.64,248.578 1799.77,251.013 1806.08,252.952 1812.52,254.384 1819.06,255.3 1825.65,255.693 
  1832.25,255.562 1838.81,254.907 1845.31,253.732 1851.69,252.045 1857.91,249.856 1863.95,247.18 1869.75,244.032 1875.28,240.434 1880.51,236.408 1885.4,231.978 
  1889.93,227.174 1894.06,222.026 1897.77,216.566 1901.03,210.828 1903.83,204.849 1906.14,198.667 1907.95,192.321 1909.25,185.851 1910.04,179.298 1910.3,172.703 
  
  "/>
<path clip-path="url(#clip752)" d="
M1283.01 800 L1282.74 793.405 L1281.96 786.852 L1280.65 780.382 L1278.84 774.036 L1276.53 767.854 L1273.73 761.875 L1270.47 756.138 L1266.76 750.678 L1262.63 745.529 
  L1258.11 740.725 L1253.21 736.296 L1247.99 732.269 L1242.45 728.671 L1236.65 725.524 L1230.62 722.847 L1224.39 720.658 L1218.01 718.971 L1211.52 717.797 L1204.95 717.141 
  L1198.35 717.01 L1191.76 717.404 L1185.23 718.319 L1178.78 719.751 L1172.47 721.691 L1166.34 724.125 L1160.42 727.04 L1154.75 730.415 L1149.36 734.231 L1144.29 738.462 
  L1139.58 743.082 L1135.25 748.062 L1131.33 753.371 L1127.84 758.974 L1124.81 764.837 L1122.25 770.922 L1120.19 777.191 L1118.63 783.604 L1117.58 790.121 L1117.06 796.7 
  L1117.06 803.3 L1117.58 809.879 L1118.63 816.396 L1120.19 822.809 L1122.25 829.078 L1124.81 835.163 L1127.84 841.026 L1131.33 846.629 L1135.25 851.938 L1139.58 856.918 
  L1144.29 861.538 L1149.36 865.769 L1154.75 869.585 L1160.42 872.96 L1166.34 875.875 L1172.47 878.309 L1178.78 880.249 L1185.23 881.681 L1191.76 882.596 L1198.35 882.99 
  L1204.95 882.859 L1211.52 882.203 L1218.01 881.029 L1224.39 879.342 L1230.62 877.153 L1236.65 874.476 L1242.45 871.329 L1247.99 867.731 L1253.21 863.704 L1258.11 859.275 
  L1262.63 854.471 L1266.76 849.322 L1270.47 843.862 L1273.73 838.125 L1276.53 832.146 L1278.84 825.964 L1280.65 819.618 L1281.96 813.148 L1282.74 806.595 L1283.01 800 
  L1283.01 800  Z
  " fill="#808080" fill-rule="evenodd" fill-opacity="1"/>
<polyline clip-path="url(#clip752)" style="stroke:#000000; stroke-linecap:butt; stroke-linejoin:round; stroke-width:4; stroke-opacity:1; fill:none" points="
  1283.01,800 1282.74,793.405 1281.96,786.852 1280.65,780.382 1278.84,774.036 1276.53,767.854 1273.73,761.875 1270.47,756.138 1266.76,750.678 1262.63,745.529 
  1258.11,740.725 1253.21,736.296 1247.99,732.269 1242.45,728.671 1236.65,725.524 1230.62,722.847 1224.39,720.658 1218.01,718.971 1211.52,717.797 1204.95,717.141 
  1198.35,717.01 1191.76,717.404 1185.23,718.319 1178.78,719.751 1172.47,721.691 1166.34,724.125 1160.42,727.04 1154.75,730.415 1149.36,734.231 1144.29,738.462 
  1139.58,743.082 1135.25,748.062 1131.33,753.371 1127.84,758.974 1124.81,764.837 1122.25,770.922 1120.19,777.191 1118.63,783.604 1117.58,790.121 1117.06,796.7 
  1117.06,803.3 1117.58,809.879 1118.63,816.396 1120.19,822.809 1122.25,829.078 1124.81,835.163 1127.84,841.026 1131.33,846.629 1135.25,851.938 1139.58,856.918 
  1144.29,861.538 1149.36,865.769 1154.75,869.585 1160.42,872.96 1166.34,875.875 1172.47,878.309 1178.78,880.249 1185.23,881.681 1191.76,882.596 1198.35,882.99 
  1204.95,882.859 1211.52,882.203 1218.01,881.029 1224.39,879.342 1230.62,877.153 1236.65,874.476 1242.45,871.329 1247.99,867.731 1253.21,863.704 1258.11,859.275 
  1262.63,854.471 1266.76,849.322 1270.47,843.862 1273.73,838.125 1276.53,832.146 1278.84,825.964 1280.65,819.618 1281.96,813.148 1282.74,806.595 1283.01,800 
  
  "/>
<path clip-path="url(#clip752)" d="
M1910.3 800 L1910.04 793.405 L1909.25 786.852 L1907.95 780.382 L1906.14 774.036 L1903.83 767.854 L1901.03 761.875 L1897.77 756.138 L1894.06 750.678 L1889.93 745.529 
  L1885.4 740.725 L1880.51 736.296 L1875.28 732.269 L1869.75 728.671 L1863.95 725.524 L1857.91 722.847 L1851.69 720.658 L1845.31 718.971 L1838.81 717.797 L1832.25 717.141 
  L1825.65 717.01 L1819.06 717.404 L1812.52 718.319 L1806.08 719.751 L1799.77 721.691 L1793.64 724.125 L1787.71 727.04 L1782.04 730.415 L1776.66 734.231 L1771.59 738.462 
  L1766.88 743.082 L1762.55 748.062 L1758.63 753.371 L1755.14 758.974 L1752.11 764.837 L1749.55 770.922 L1747.49 777.191 L1745.93 783.604 L1744.88 790.121 L1744.36 796.7 
  L1744.36 803.3 L1744.88 809.879 L1745.93 816.396 L1747.49 822.809 L1749.55 829.078 L1752.11 835.163 L1755.14 841.026 L1758.63 846.629 L1762.55 851.938 L1766.88 856.918 
  L1771.59 861.538 L1776.66 865.769 L1782.04 869.585 L1787.71 872.96 L1793.64 875.875 L1799.77 878.309 L1806.08 880.249 L1812.52 881.681 L1819.06 882.596 L1825.65 882.99 
  L1832.25 882.859 L1838.81 882.203 L1845.31 881.029 L1851.69 879.342 L1857.91 877.153 L1863.95 874.476 L1869.75 871.329 L1875.28 867.731 L1880.51 863.704 L1885.4 859.275 
  L1889.93 854.471 L1894.06 849.322 L1897.77 843.862 L1901.03 838.125 L1903.83 832.146 L1906.14 825.964 L1907.95 819.618 L1909.25 813.148 L1910.04 806.595 L1910.3 800 
  L1910.3 800  Z
  " fill="#808080" fill-rule="evenodd" fill-opacity="1"/>
<polyline clip-path="url(#clip752)" style="stroke:#000000; stroke-linecap:butt; stroke-linejoin:round; stroke-width:4; stroke-opacity:1; fill:none" points="
  1910.3,800 1910.04,793.405 1909.25,786.852 1907.95,780.382 1906.14,774.036 1903.83,767.854 1901.03,761.875 1897.77,756.138 1894.06,750.678 1889.93,745.529 
  1885.4,740.725 1880.51,736.296 1875.28,732.269 1869.75,728.671 1863.95,725.524 1857.91,722.847 1851.69,720.658 1845.31,718.971 1838.81,717.797 1832.25,717.141 
  1825.65,717.01 1819.06,717.404 1812.52,718.319 1806.08,719.751 1799.77,721.691 1793.64,724.125 1787.71,727.04 1782.04,730.415 1776.66,734.231 1771.59,738.462 
  1766.88,743.082 1762.55,748.062 1758.63,753.371 1755.14,758.974 1752.11,764.837 1749.55,770.922 1747.49,777.191 1745.93,783.604 1744.88,790.121 1744.36,796.7 
  1744.36,803.3 1744.88,809.879 1745.93,816.396 1747.49,822.809 1749.55,829.078 1752.11,835.163 1755.14,841.026 1758.63,846.629 1762.55,851.938 1766.88,856.918 
  1771.59,861.538 1776.66,865.769 1782.04,869.585 1787.71,872.96 1793.64,875.875 1799.77,878.309 1806.08,880.249 1812.52,881.681 1819.06,882.596 1825.65,882.99 
  1832.25,882.859 1838.81,882.203 1845.31,881.029 1851.69,879.342 1857.91,877.153 1863.95,874.476 1869.75,871.329 1875.28,867.731 1880.51,863.704 1885.4,859.275 
  1889.93,854.471 1894.06,849.322 1897.77,843.862 1901.03,838.125 1903.83,832.146 1906.14,825.964 1907.95,819.618 1909.25,813.148 1910.04,806.595 1910.3,800 
  
  "/>
<path clip-path="url(#clip752)" d="
M620.378 172.703 L620.227 168.916 L619.776 165.152 L619.027 161.436 L617.986 157.791 L616.658 154.24 L615.052 150.807 L613.178 147.511 L611.049 144.375 L608.677 141.418 
  L606.078 138.659 L603.267 136.115 L600.264 133.802 L597.086 131.736 L593.754 129.928 L590.289 128.391 L586.713 127.134 L583.048 126.165 L579.318 125.49 L575.546 125.114 
  L571.756 125.038 L567.972 125.264 L564.217 125.79 L560.517 126.613 L556.894 127.727 L553.37 129.125 L549.969 130.799 L546.712 132.737 L543.618 134.929 L540.709 137.359 
  L538.002 140.013 L535.515 142.873 L533.262 145.922 L531.259 149.14 L529.518 152.508 L528.05 156.003 L526.864 159.603 L525.968 163.286 L525.368 167.029 L525.067 170.808 
  L525.067 174.599 L525.368 178.378 L525.968 182.12 L526.864 185.804 L528.05 189.404 L529.518 192.899 L531.259 196.267 L533.262 199.485 L535.515 202.534 L538.002 205.394 
  L540.709 208.048 L543.618 210.478 L546.712 212.669 L549.969 214.608 L553.37 216.282 L556.894 217.68 L560.517 218.794 L564.217 219.617 L567.972 220.143 L571.756 220.369 
  L575.546 220.293 L579.318 219.917 L583.048 219.242 L586.713 218.273 L590.289 217.016 L593.754 215.479 L597.086 213.671 L600.264 211.604 L603.267 209.292 L606.078 206.748 
  L608.677 203.989 L611.049 201.032 L613.178 197.896 L615.052 194.6 L616.658 191.166 L617.986 187.616 L619.027 183.971 L619.776 180.255 L620.227 176.491 L620.378 172.703 
  L620.378 172.703  Z
  " fill="#808080" fill-rule="evenodd" fill-opacity="1"/>
<polyline clip-path="url(#clip752)" style="stroke:#000000; stroke-linecap:butt; stroke-linejoin:round; stroke-width:4; stroke-opacity:1; fill:none" points="
  620.378,172.703 620.227,168.916 619.776,165.152 619.027,161.436 617.986,157.791 616.658,154.24 615.052,150.807 613.178,147.511 611.049,144.375 608.677,141.418 
  606.078,138.659 603.267,136.115 600.264,133.802 597.086,131.736 593.754,129.928 590.289,128.391 586.713,127.134 583.048,126.165 579.318,125.49 575.546,125.114 
  571.756,125.038 567.972,125.264 564.217,125.79 560.517,126.613 556.894,127.727 553.37,129.125 549.969,130.799 546.712,132.737 543.618,134.929 540.709,137.359 
  538.002,140.013 535.515,142.873 533.262,145.922 531.259,149.14 529.518,152.508 528.05,156.003 526.864,159.603 525.968,163.286 525.368,167.029 525.067,170.808 
  525.067,174.599 525.368,178.378 525.968,182.12 526.864,185.804 528.05,189.404 529.518,192.899 531.259,196.267 533.262,199.485 535.515,202.534 538.002,205.394 
  540.709,208.048 543.618,210.478 546.712,212.669 549.969,214.608 553.37,216.282 556.894,217.68 560.517,218.794 564.217,219.617 567.972,220.143 571.756,220.369 
  575.546,220.293 579.318,219.917 583.048,219.242 586.713,218.273 590.289,217.016 593.754,215.479 597.086,213.671 600.264,211.604 603.267,209.292 606.078,206.748 
  608.677,203.989 611.049,201.032 613.178,197.896 615.052,194.6 616.658,191.166 617.986,187.616 619.027,183.971 619.776,180.255 620.227,176.491 620.378,172.703 
  
  "/>
<path clip-path="url(#clip752)" d="
M655.71 800 L655.447 793.405 L654.662 786.852 L653.358 780.382 L651.544 774.036 L649.232 767.854 L646.436 761.875 L643.174 756.138 L639.467 750.678 L635.337 745.529 
  L630.811 740.725 L625.918 736.296 L620.689 732.269 L615.156 728.671 L609.354 725.524 L603.321 722.847 L597.095 720.658 L590.714 718.971 L584.219 717.797 L577.652 717.141 
  L571.053 717.01 L564.465 717.404 L557.928 718.319 L551.486 719.751 L545.177 721.691 L539.042 724.125 L533.12 727.04 L527.449 730.415 L522.063 734.231 L516.998 738.462 
  L512.285 743.082 L507.954 748.062 L504.032 753.371 L500.544 758.974 L497.513 764.837 L494.957 770.922 L492.893 777.191 L491.333 783.604 L490.287 790.121 L489.763 796.7 
  L489.763 803.3 L490.287 809.879 L491.333 816.396 L492.893 822.809 L494.957 829.078 L497.513 835.163 L500.544 841.026 L504.032 846.629 L507.954 851.938 L512.285 856.918 
  L516.998 861.538 L522.063 865.769 L527.449 869.585 L533.12 872.96 L539.042 875.875 L545.177 878.309 L551.486 880.249 L557.928 881.681 L564.465 882.596 L571.053 882.99 
  L577.652 882.859 L584.219 882.203 L590.714 881.029 L597.095 879.342 L603.321 877.153 L609.354 874.476 L615.156 871.329 L620.689 867.731 L625.918 863.704 L630.811 859.275 
  L635.337 854.471 L639.467 849.322 L643.174 843.862 L646.436 838.125 L649.232 832.146 L651.544 825.964 L653.358 819.618 L654.662 813.148 L655.447 806.595 L655.71 800 
  L655.71 800  Z
  " fill="#808080" fill-rule="evenodd" fill-opacity="1"/>
<polyline clip-path="url(#clip752)" style="stroke:#000000; stroke-linecap:butt; stroke-linejoin:round; stroke-width:4; stroke-opacity:1; fill:none" points="
  655.71,800 655.447,793.405 654.662,786.852 653.358,780.382 651.544,774.036 649.232,767.854 646.436,761.875 643.174,756.138 639.467,750.678 635.337,745.529 
  630.811,740.725 625.918,736.296 620.689,732.269 615.156,728.671 609.354,725.524 603.321,722.847 597.095,720.658 590.714,718.971 584.219,717.797 577.652,717.141 
  571.053,717.01 564.465,717.404 557.928,718.319 551.486,719.751 545.177,721.691 539.042,724.125 533.12,727.04 527.449,730.415 522.063,734.231 516.998,738.462 
  512.285,743.082 507.954,748.062 504.032,753.371 500.544,758.974 497.513,764.837 494.957,770.922 492.893,777.191 491.333,783.604 490.287,790.121 489.763,796.7 
  489.763,803.3 490.287,809.879 491.333,816.396 492.893,822.809 494.957,829.078 497.513,835.163 500.544,841.026 504.032,846.629 507.954,851.938 512.285,856.918 
  516.998,861.538 522.063,865.769 527.449,869.585 533.12,872.96 539.042,875.875 545.177,878.309 551.486,880.249 557.928,881.681 564.465,882.596 571.053,882.99 
  577.652,882.859 584.219,882.203 590.714,881.029 597.095,879.342 603.321,877.153 609.354,874.476 615.156,871.329 620.689,867.731 625.918,863.704 630.811,859.275 
  635.337,854.471 639.467,849.322 643.174,843.862 646.436,838.125 649.232,832.146 651.544,825.964 653.358,819.618 654.662,813.148 655.447,806.595 655.71,800 
  
  "/>
<path clip-path="url(#clip752)" d="
M1910.3 1427.3 L1910.04 1420.7 L1909.25 1414.15 L1907.95 1407.68 L1906.14 1401.33 L1903.83 1395.15 L1901.03 1389.17 L1897.77 1383.43 L1894.06 1377.97 L1889.93 1372.83 
  L1885.4 1368.02 L1880.51 1363.59 L1875.28 1359.57 L1869.75 1355.97 L1863.95 1352.82 L1857.91 1350.14 L1851.69 1347.95 L1845.31 1346.27 L1838.81 1345.09 L1832.25 1344.44 
  L1825.65 1344.31 L1819.06 1344.7 L1812.52 1345.62 L1806.08 1347.05 L1799.77 1348.99 L1793.64 1351.42 L1787.71 1354.34 L1782.04 1357.71 L1776.66 1361.53 L1771.59 1365.76 
  L1766.88 1370.38 L1762.55 1375.36 L1758.63 1380.67 L1755.14 1386.27 L1752.11 1392.13 L1749.55 1398.22 L1747.49 1404.49 L1745.93 1410.9 L1744.88 1417.42 L1744.36 1424 
  L1744.36 1430.6 L1744.88 1437.18 L1745.93 1443.69 L1747.49 1450.11 L1749.55 1456.37 L1752.11 1462.46 L1755.14 1468.32 L1758.63 1473.93 L1762.55 1479.23 L1766.88 1484.21 
  L1771.59 1488.83 L1776.66 1493.07 L1782.04 1496.88 L1787.71 1500.26 L1793.64 1503.17 L1799.77 1505.61 L1806.08 1507.55 L1812.52 1508.98 L1819.06 1509.89 L1825.65 1510.29 
  L1832.25 1510.16 L1838.81 1509.5 L1845.31 1508.33 L1851.69 1506.64 L1857.91 1504.45 L1863.95 1501.77 L1869.75 1498.63 L1875.28 1495.03 L1880.51 1491 L1885.4 1486.57 
  L1889.93 1481.77 L1894.06 1476.62 L1897.77 1471.16 L1901.03 1465.42 L1903.83 1459.44 L1906.14 1453.26 L1907.95 1446.91 L1909.25 1440.44 L1910.04 1433.89 L1910.3 1427.3 
  L1910.3 1427.3  Z
  " fill="#808080" fill-rule="evenodd" fill-opacity="1"/>
<polyline clip-path="url(#clip752)" style="stroke:#000000; stroke-linecap:butt; stroke-linejoin:round; stroke-width:4; stroke-opacity:1; fill:none" points="
  1910.3,1427.3 1910.04,1420.7 1909.25,1414.15 1907.95,1407.68 1906.14,1401.33 1903.83,1395.15 1901.03,1389.17 1897.77,1383.43 1894.06,1377.97 1889.93,1372.83 
  1885.4,1368.02 1880.51,1363.59 1875.28,1359.57 1869.75,1355.97 1863.95,1352.82 1857.91,1350.14 1851.69,1347.95 1845.31,1346.27 1838.81,1345.09 1832.25,1344.44 
  1825.65,1344.31 1819.06,1344.7 1812.52,1345.62 1806.08,1347.05 1799.77,1348.99 1793.64,1351.42 1787.71,1354.34 1782.04,1357.71 1776.66,1361.53 1771.59,1365.76 
  1766.88,1370.38 1762.55,1375.36 1758.63,1380.67 1755.14,1386.27 1752.11,1392.13 1749.55,1398.22 1747.49,1404.49 1745.93,1410.9 1744.88,1417.42 1744.36,1424 
  1744.36,1430.6 1744.88,1437.18 1745.93,1443.69 1747.49,1450.11 1749.55,1456.37 1752.11,1462.46 1755.14,1468.32 1758.63,1473.93 1762.55,1479.23 1766.88,1484.21 
  1771.59,1488.83 1776.66,1493.07 1782.04,1496.88 1787.71,1500.26 1793.64,1503.17 1799.77,1505.61 1806.08,1507.55 1812.52,1508.98 1819.06,1509.89 1825.65,1510.29 
  1832.25,1510.16 1838.81,1509.5 1845.31,1508.33 1851.69,1506.64 1857.91,1504.45 1863.95,1501.77 1869.75,1498.63 1875.28,1495.03 1880.51,1491 1885.4,1486.57 
  1889.93,1481.77 1894.06,1476.62 1897.77,1471.16 1901.03,1465.42 1903.83,1459.44 1906.14,1453.26 1907.95,1446.91 1909.25,1440.44 1910.04,1433.89 1910.3,1427.3 
  
  "/>
<path clip-path="url(#clip752)" d="
M655.71 1427.3 L655.447 1420.7 L654.662 1414.15 L653.358 1407.68 L651.544 1401.33 L649.232 1395.15 L646.436 1389.17 L643.174 1383.43 L639.467 1377.97 L635.337 1372.83 
  L630.811 1368.02 L625.918 1363.59 L620.689 1359.57 L615.156 1355.97 L609.354 1352.82 L603.321 1350.14 L597.095 1347.95 L590.714 1346.27 L584.219 1345.09 L577.652 1344.44 
  L571.053 1344.31 L564.465 1344.7 L557.928 1345.62 L551.486 1347.05 L545.177 1348.99 L539.042 1351.42 L533.12 1354.34 L527.449 1357.71 L522.063 1361.53 L516.998 1365.76 
  L512.285 1370.38 L507.954 1375.36 L504.032 1380.67 L500.544 1386.27 L497.513 1392.13 L494.957 1398.22 L492.893 1404.49 L491.333 1410.9 L490.287 1417.42 L489.763 1424 
  L489.763 1430.6 L490.287 1437.18 L491.333 1443.69 L492.893 1450.11 L494.957 1456.37 L497.513 1462.46 L500.544 1468.32 L504.032 1473.93 L507.954 1479.23 L512.285 1484.21 
  L516.998 1488.83 L522.063 1493.07 L527.449 1496.88 L533.12 1500.26 L539.042 1503.17 L545.177 1505.61 L551.486 1507.55 L557.928 1508.98 L564.465 1509.89 L571.053 1510.29 
  L577.652 1510.16 L584.219 1509.5 L590.714 1508.33 L597.095 1506.64 L603.321 1504.45 L609.354 1501.77 L615.156 1498.63 L620.689 1495.03 L625.918 1491 L630.811 1486.57 
  L635.337 1481.77 L639.467 1476.62 L643.174 1471.16 L646.436 1465.42 L649.232 1459.44 L651.544 1453.26 L653.358 1446.91 L654.662 1440.44 L655.447 1433.89 L655.71 1427.3 
  L655.71 1427.3  Z
  " fill="#808080" fill-rule="evenodd" fill-opacity="1"/>
<polyline clip-path="url(#clip752)" style="stroke:#000000; stroke-linecap:butt; stroke-linejoin:round; stroke-width:4; stroke-opacity:1; fill:none" points="
  655.71,1427.3 655.447,1420.7 654.662,1414.15 653.358,1407.68 651.544,1401.33 649.232,1395.15 646.436,1389.17 643.174,1383.43 639.467,1377.97 635.337,1372.83 
  630.811,1368.02 625.918,1363.59 620.689,1359.57 615.156,1355.97 609.354,1352.82 603.321,1350.14 597.095,1347.95 590.714,1346.27 584.219,1345.09 577.652,1344.44 
  571.053,1344.31 564.465,1344.7 557.928,1345.62 551.486,1347.05 545.177,1348.99 539.042,1351.42 533.12,1354.34 527.449,1357.71 522.063,1361.53 516.998,1365.76 
  512.285,1370.38 507.954,1375.36 504.032,1380.67 500.544,1386.27 497.513,1392.13 494.957,1398.22 492.893,1404.49 491.333,1410.9 490.287,1417.42 489.763,1424 
  489.763,1430.6 490.287,1437.18 491.333,1443.69 492.893,1450.11 494.957,1456.37 497.513,1462.46 500.544,1468.32 504.032,1473.93 507.954,1479.23 512.285,1484.21 
  516.998,1488.83 522.063,1493.07 527.449,1496.88 533.12,1500.26 539.042,1503.17 545.177,1505.61 551.486,1507.55 557.928,1508.98 564.465,1509.89 571.053,1510.29 
  577.652,1510.16 584.219,1509.5 590.714,1508.33 597.095,1506.64 603.321,1504.45 609.354,1501.77 615.156,1498.63 620.689,1495.03 625.918,1491 630.811,1486.57 
  635.337,1481.77 639.467,1476.62 643.174,1471.16 646.436,1465.42 649.232,1459.44 651.544,1453.26 653.358,1446.91 654.662,1440.44 655.447,1433.89 655.71,1427.3 
  
  "/>
<circle clip-path="url(#clip752)" cx="1200" cy="172.703" r="1" fill="#808080" fill-rule="evenodd" fill-opacity="1" stroke="#000000" stroke-opacity="1" stroke-width="3.2"/>
<circle clip-path="url(#clip752)" cx="886.352" cy="172.703" r="1" fill="#808080" fill-rule="evenodd" fill-opacity="1" stroke="#000000" stroke-opacity="1" stroke-width="3.2"/>
<circle clip-path="url(#clip752)" cx="1827.3" cy="172.703" r="1" fill="#808080" fill-rule="evenodd" fill-opacity="1" stroke="#000000" stroke-opacity="1" stroke-width="3.2"/>
<circle clip-path="url(#clip752)" cx="1200" cy="800" r="1" fill="#808080" fill-rule="evenodd" fill-opacity="1" stroke="#000000" stroke-opacity="1" stroke-width="3.2"/>
<circle clip-path="url(#clip752)" cx="1827.3" cy="800" r="1" fill="#808080" fill-rule="evenodd" fill-opacity="1" stroke="#000000" stroke-opacity="1" stroke-width="3.2"/>
<circle clip-path="url(#clip752)" cx="572.703" cy="172.703" r="1" fill="#808080" fill-rule="evenodd" fill-opacity="1" stroke="#000000" stroke-opacity="1" stroke-width="3.2"/>
<circle clip-path="url(#clip752)" cx="572.703" cy="800" r="1" fill="#808080" fill-rule="evenodd" fill-opacity="1" stroke="#000000" stroke-opacity="1" stroke-width="3.2"/>
<circle clip-path="url(#clip752)" cx="1827.3" cy="1427.3" r="1" fill="#808080" fill-rule="evenodd" fill-opacity="1" stroke="#000000" stroke-opacity="1" stroke-width="3.2"/>
<circle clip-path="url(#clip752)" cx="572.703" cy="1427.3" r="1" fill="#808080" fill-rule="evenodd" fill-opacity="1" stroke="#000000" stroke-opacity="1" stroke-width="3.2"/>
<path clip-path="url(#clip750)" d="M1161.23 151.103 L1169.94 151.103 L1180.96 180.501 L1192.04 151.103 L1200.75 151.103 L1200.75 194.303 L1195.05 194.303 L1195.05 156.37 L1183.91 185.999 L1178.04 185.999 L1166.9 156.37 L1166.9 194.303 L1161.23 194.303 L1161.23 151.103 Z" fill="#000000" fill-rule="evenodd" fill-opacity="1" /><path clip-path="url(#clip750)" d="M1233.45 166.815 L1233.45 149.281 L1238.77 149.281 L1238.77 194.303 L1233.45 194.303 L1233.45 189.442 Q1231.77 192.336 1229.2 193.754 Q1226.65 195.143 1223.06 195.143 Q1217.19 195.143 1213.48 190.455 Q1209.81 185.768 1209.81 178.129 Q1209.81 170.49 1213.48 165.802 Q1217.19 161.115 1223.06 161.115 Q1226.65 161.115 1229.2 162.533 Q1231.77 163.922 1233.45 166.815 M1215.31 178.129 Q1215.31 184.003 1217.71 187.359 Q1220.14 190.687 1224.36 190.687 Q1228.59 190.687 1231.02 187.359 Q1233.45 184.003 1233.45 178.129 Q1233.45 172.255 1231.02 168.927 Q1228.59 165.571 1224.36 165.571 Q1220.14 165.571 1217.71 168.927 Q1215.31 172.255 1215.31 178.129 Z" fill="#000000" fill-rule="evenodd" fill-opacity="1" /><path clip-path="url(#clip750)" d="M895.51 166.815 L895.51 149.281 L900.834 149.281 L900.834 194.303 L895.51 194.303 L895.51 189.442 Q893.831 192.336 891.256 193.754 Q888.71 195.143 885.122 195.143 Q879.248 195.143 875.544 190.455 Q871.87 185.768 871.87 178.129 Q871.87 170.49 875.544 165.802 Q879.248 161.115 885.122 161.115 Q888.71 161.115 891.256 162.533 Q893.831 163.922 895.51 166.815 M877.367 178.129 Q877.367 184.003 879.769 187.359 Q882.2 190.687 886.424 190.687 Q890.649 190.687 893.079 187.359 Q895.51 184.003 895.51 178.129 Q895.51 172.255 893.079 168.927 Q890.649 165.571 886.424 165.571 Q882.2 165.571 879.769 168.927 Q877.367 172.255 877.367 178.129 Z" fill="#000000" fill-rule="evenodd" fill-opacity="1" /><path clip-path="url(#clip750)" d="M1793.02 151.103 L1799.3 151.103 L1811.28 168.87 L1823.17 151.103 L1829.45 151.103 L1814.17 173.731 L1814.17 194.303 L1808.3 194.303 L1808.3 173.731 L1793.02 151.103 Z" fill="#000000" fill-rule="evenodd" fill-opacity="1" /><path clip-path="url(#clip750)" d="M1856.25 166.815 L1856.25 149.281 L1861.57 149.281 L1861.57 194.303 L1856.25 194.303 L1856.25 189.442 Q1854.57 192.336 1851.99 193.754 Q1849.45 195.143 1845.86 195.143 Q1839.98 195.143 1836.28 190.455 Q1832.61 185.768 1832.61 178.129 Q1832.61 170.49 1836.28 165.802 Q1839.98 161.115 1845.86 161.115 Q1849.45 161.115 1851.99 162.533 Q1854.57 163.922 1856.25 166.815 M1838.1 178.129 Q1838.1 184.003 1840.51 187.359 Q1842.94 190.687 1847.16 190.687 Q1851.39 190.687 1853.82 187.359 Q1856.25 184.003 1856.25 178.129 Q1856.25 172.255 1853.82 168.927 Q1851.39 165.571 1847.16 165.571 Q1842.94 165.571 1840.51 168.927 Q1838.1 172.255 1838.1 178.129 Z" fill="#000000" fill-rule="evenodd" fill-opacity="1" /><path clip-path="url(#clip750)" d="M1166.67 778.4 L1172.95 778.4 L1183.68 794.459 L1194.47 778.4 L1200.75 778.4 L1186.86 799.146 L1201.68 821.6 L1195.4 821.6 L1183.25 803.226 L1171.01 821.6 L1164.7 821.6 L1180.12 798.539 L1166.67 778.4 Z" fill="#000000" fill-rule="evenodd" fill-opacity="1" /><path clip-path="url(#clip750)" d="M1214.9 816.681 L1235.3 816.681 L1235.3 821.6 L1207.87 821.6 L1207.87 816.681 Q1211.2 813.238 1216.93 807.451 Q1222.69 801.635 1224.16 799.957 Q1226.97 796.803 1228.07 794.633 Q1229.2 792.433 1229.2 790.321 Q1229.2 786.878 1226.76 784.708 Q1224.36 782.538 1220.49 782.538 Q1217.74 782.538 1214.67 783.493 Q1211.63 784.447 1208.16 786.386 L1208.16 780.483 Q1211.69 779.066 1214.76 778.342 Q1217.82 777.619 1220.37 777.619 Q1227.08 777.619 1231.08 780.975 Q1235.07 784.332 1235.07 789.945 Q1235.07 792.607 1234.06 795.009 Q1233.07 797.381 1230.44 800.622 Q1229.72 801.461 1225.84 805.483 Q1221.96 809.476 1214.9 816.681 Z" fill="#000000" fill-rule="evenodd" fill-opacity="1" /><path clip-path="url(#clip750)" d="M1793.37 778.4 L1799.65 778.4 L1810.38 794.459 L1821.18 778.4 L1827.46 778.4 L1813.57 799.146 L1828.38 821.6 L1822.1 821.6 L1809.95 803.226 L1797.71 821.6 L1791.4 821.6 L1806.83 798.539 L1793.37 778.4 Z" fill="#000000" fill-rule="evenodd" fill-opacity="1" /><path clip-path="url(#clip750)" d="M1854.28 798.307 Q1858.47 799.204 1860.82 802.04 Q1863.19 804.876 1863.19 809.042 Q1863.19 815.437 1858.79 818.938 Q1854.39 822.439 1846.29 822.439 Q1843.57 822.439 1840.68 821.889 Q1837.81 821.369 1834.75 820.298 L1834.75 814.656 Q1837.18 816.073 1840.07 816.797 Q1842.96 817.52 1846.12 817.52 Q1851.62 817.52 1854.48 815.35 Q1857.37 813.18 1857.37 809.042 Q1857.37 805.223 1854.68 803.082 Q1852.02 800.911 1847.25 800.911 L1842.21 800.911 L1842.21 796.108 L1847.48 796.108 Q1851.79 796.108 1854.08 794.401 Q1856.36 792.665 1856.36 789.424 Q1856.36 786.097 1853.99 784.332 Q1851.65 782.538 1847.25 782.538 Q1844.85 782.538 1842.1 783.059 Q1839.35 783.579 1836.05 784.679 L1836.05 779.471 Q1839.38 778.545 1842.27 778.082 Q1845.19 777.619 1847.77 777.619 Q1854.42 777.619 1858.3 780.657 Q1862.18 783.666 1862.18 788.817 Q1862.18 792.405 1860.12 794.893 Q1858.07 797.352 1854.28 798.307 Z" fill="#000000" fill-rule="evenodd" fill-opacity="1" /><path clip-path="url(#clip750)" d="M560.392 155.907 L560.392 189.5 L567.452 189.5 Q576.393 189.5 580.53 185.449 Q584.697 181.398 584.697 172.66 Q584.697 163.98 580.53 159.958 Q576.393 155.907 567.452 155.907 L560.392 155.907 M554.547 151.103 L566.555 151.103 Q579.113 151.103 584.986 156.341 Q590.86 161.549 590.86 172.66 Q590.86 183.829 584.957 189.066 Q579.055 194.303 566.555 194.303 L554.547 194.303 L554.547 151.103 Z" fill="#000000" fill-rule="evenodd" fill-opacity="1" /><path clip-path="url(#clip750)" d="M539.139 778.4 L545.418 778.4 L556.153 794.459 L566.945 778.4 L573.224 778.4 L559.335 799.146 L574.15 821.6 L567.871 821.6 L555.719 803.226 L543.479 821.6 L537.171 821.6 L552.594 798.539 L539.139 778.4 Z" fill="#000000" fill-rule="evenodd" fill-opacity="1" /><path clip-path="url(#clip750)" d="M583.352 816.681 L592.9 816.681 L592.9 783.724 L582.512 785.807 L582.512 780.483 L592.842 778.4 L598.687 778.4 L598.687 816.681 L608.236 816.681 L608.236 821.6 L583.352 821.6 L583.352 816.681 Z" fill="#000000" fill-rule="evenodd" fill-opacity="1" /><path clip-path="url(#clip750)" d="M1793.11 1405.7 L1827.05 1405.7 L1827.05 1410.15 L1799.74 1443.98 L1827.72 1443.98 L1827.72 1448.9 L1792.44 1448.9 L1792.44 1444.44 L1819.76 1410.62 L1793.11 1410.62 L1793.11 1405.7 Z" fill="#000000" fill-rule="evenodd" fill-opacity="1" /><path clip-path="url(#clip750)" d="M1841.75 1443.98 L1862.15 1443.98 L1862.15 1448.9 L1834.72 1448.9 L1834.72 1443.98 Q1838.05 1440.53 1843.78 1434.75 Q1849.53 1428.93 1851.01 1427.25 Q1853.82 1424.1 1854.92 1421.93 Q1856.04 1419.73 1856.04 1417.62 Q1856.04 1414.17 1853.61 1412 Q1851.21 1409.83 1847.33 1409.83 Q1844.59 1409.83 1841.52 1410.79 Q1838.48 1411.74 1835.01 1413.68 L1835.01 1407.78 Q1838.54 1406.36 1841.6 1405.64 Q1844.67 1404.92 1847.22 1404.92 Q1853.93 1404.92 1857.92 1408.27 Q1861.92 1411.63 1861.92 1417.24 Q1861.92 1419.9 1860.9 1422.31 Q1859.92 1424.68 1857.29 1427.92 Q1856.56 1428.76 1852.69 1432.78 Q1848.81 1436.77 1841.75 1443.98 Z" fill="#000000" fill-rule="evenodd" fill-opacity="1" /><path clip-path="url(#clip750)" d="M538.285 1405.7 L572.226 1405.7 L572.226 1410.15 L544.911 1443.98 L572.891 1443.98 L572.891 1448.9 L537.62 1448.9 L537.62 1444.44 L564.934 1410.62 L538.285 1410.62 L538.285 1405.7 Z" fill="#000000" fill-rule="evenodd" fill-opacity="1" /><path clip-path="url(#clip750)" d="M582.903 1443.98 L592.452 1443.98 L592.452 1411.02 L582.064 1413.1 L582.064 1407.78 L592.394 1405.7 L598.239 1405.7 L598.239 1443.98 L607.787 1443.98 L607.787 1448.9 L582.903 1448.9 L582.903 1443.98 Z" fill="#000000" fill-rule="evenodd" fill-opacity="1" /></svg>
