<?xml version="1.0" encoding="utf-8"?>
<svg xmlns="http://www.w3.org/2000/svg" xmlns:xlink="http://www.w3.org/1999/xlink" width="600" height="400" viewBox="0 0 2400 1600">
<defs>
  <clipPath id="clip100">
    <rect x="0" y="0" width="2400" height="1600"/>
  </clipPath>
</defs>
<path clip-path="url(#clip100)" d="
M0 1600 L2400 1600 L2400 0 L0 0  Z
  " fill="#ffffff" fill-rule="evenodd" fill-opacity="1"/>
<defs>
  <clipPath id="clip101">
    <rect x="480" y="0" width="1681" height="1600"/>
  </clipPath>
</defs>
<path clip-path="url(#clip100)" d="
M210.376 1423.18 L2352.76 1423.18 L2352.76 123.472 L210.376 123.472  Z
  " fill="#ffffff" fill-rule="evenodd" fill-opacity="1"/>
<defs>
  <clipPath id="clip102">
    <rect x="210" y="123" width="2143" height="1301"/>
  </clipPath>
</defs>
<polyline clip-path="url(#clip102)" style="stroke:#000000; stroke-linecap:butt; stroke-linejoin:round; stroke-width:2; stroke-opacity:0.1; fill:none" points="
  399.142,1423.18 399.142,123.472 
  "/>
<polyline clip-path="url(#clip102)" style="stroke:#000000; stroke-linecap:butt; stroke-linejoin:round; stroke-width:2; stroke-opacity:0.1; fill:none" points="
  742.811,1423.18 742.811,123.472 
  "/>
<polyline clip-path="url(#clip102)" style="stroke:#000000; stroke-linecap:butt; stroke-linejoin:round; stroke-width:2; stroke-opacity:0.1; fill:none" points="
  1086.48,1423.18 1086.48,123.472 
  "/>
<polyline clip-path="url(#clip102)" style="stroke:#000000; stroke-linecap:butt; stroke-linejoin:round; stroke-width:2; stroke-opacity:0.1; fill:none" points="
  1430.15,1423.18 1430.15,123.472 
  "/>
<polyline clip-path="url(#clip102)" style="stroke:#000000; stroke-linecap:butt; stroke-linejoin:round; stroke-width:2; stroke-opacity:0.1; fill:none" points="
  1773.82,1423.18 1773.82,123.472 
  "/>
<polyline clip-path="url(#clip102)" style="stroke:#000000; stroke-linecap:butt; stroke-linejoin:round; stroke-width:2; stroke-opacity:0.1; fill:none" points="
  2117.48,1423.18 2117.48,123.472 
  "/>
<polyline clip-path="url(#clip100)" style="stroke:#000000; stroke-linecap:butt; stroke-linejoin:round; stroke-width:4; stroke-opacity:1; fill:none" points="
  210.376,1423.18 2352.76,1423.18 
  "/>
<polyline clip-path="url(#clip100)" style="stroke:#000000; stroke-linecap:butt; stroke-linejoin:round; stroke-width:4; stroke-opacity:1; fill:none" points="
  399.142,1423.18 399.142,1404.28 
  "/>
<polyline clip-path="url(#clip100)" style="stroke:#000000; stroke-linecap:butt; stroke-linejoin:round; stroke-width:4; stroke-opacity:1; fill:none" points="
  742.811,1423.18 742.811,1404.28 
  "/>
<polyline clip-path="url(#clip100)" style="stroke:#000000; stroke-linecap:butt; stroke-linejoin:round; stroke-width:4; stroke-opacity:1; fill:none" points="
  1086.48,1423.18 1086.48,1404.28 
  "/>
<polyline clip-path="url(#clip100)" style="stroke:#000000; stroke-linecap:butt; stroke-linejoin:round; stroke-width:4; stroke-opacity:1; fill:none" points="
  1430.15,1423.18 1430.15,1404.28 
  "/>
<polyline clip-path="url(#clip100)" style="stroke:#000000; stroke-linecap:butt; stroke-linejoin:round; stroke-width:4; stroke-opacity:1; fill:none" points="
  1773.82,1423.18 1773.82,1404.28 
  "/>
<polyline clip-path="url(#clip100)" style="stroke:#000000; stroke-linecap:butt; stroke-linejoin:round; stroke-width:4; stroke-opacity:1; fill:none" points="
  2117.48,1423.18 2117.48,1404.28 
  "/>
<path clip-path="url(#clip100)" d="M369.085 1468.75 L398.76 1468.75 L398.76 1472.69 L369.085 1472.69 L369.085 1468.75 Z" fill="#000000" fill-rule="evenodd" fill-opacity="1" /><path clip-path="url(#clip100)" d="M412.881 1481.64 L429.2 1481.64 L429.2 1485.58 L407.256 1485.58 L407.256 1481.64 Q409.918 1478.89 414.501 1474.26 Q419.107 1469.61 420.288 1468.27 Q422.533 1465.74 423.413 1464.01 Q424.316 1462.25 424.316 1460.56 Q424.316 1457.8 422.371 1456.07 Q420.45 1454.33 417.348 1454.33 Q415.149 1454.33 412.695 1455.09 Q410.265 1455.86 407.487 1457.41 L407.487 1452.69 Q410.311 1451.55 412.765 1450.97 Q415.219 1450.39 417.256 1450.39 Q422.626 1450.39 425.82 1453.08 Q429.015 1455.77 429.015 1460.26 Q429.015 1462.39 428.205 1464.31 Q427.418 1466.2 425.311 1468.8 Q424.732 1469.47 421.631 1472.69 Q418.529 1475.88 412.881 1481.64 Z" fill="#000000" fill-rule="evenodd" fill-opacity="1" /><path clip-path="url(#clip100)" d="M712.568 1468.75 L742.244 1468.75 L742.244 1472.69 L712.568 1472.69 L712.568 1468.75 Z" fill="#000000" fill-rule="evenodd" fill-opacity="1" /><path clip-path="url(#clip100)" d="M753.146 1481.64 L760.785 1481.64 L760.785 1455.28 L752.475 1456.95 L752.475 1452.69 L760.739 1451.02 L765.415 1451.02 L765.415 1481.64 L773.054 1481.64 L773.054 1485.58 L753.146 1485.58 L753.146 1481.64 Z" fill="#000000" fill-rule="evenodd" fill-opacity="1" /><path clip-path="url(#clip100)" d="M1086.48 1454.1 Q1082.87 1454.1 1081.04 1457.66 Q1079.23 1461.2 1079.23 1468.33 Q1079.23 1475.44 1081.04 1479.01 Q1082.87 1482.55 1086.48 1482.55 Q1090.11 1482.55 1091.92 1479.01 Q1093.75 1475.44 1093.75 1468.33 Q1093.75 1461.2 1091.92 1457.66 Q1090.11 1454.1 1086.48 1454.1 M1086.48 1450.39 Q1092.29 1450.39 1095.34 1455 Q1098.42 1459.58 1098.42 1468.33 Q1098.42 1477.06 1095.34 1481.67 Q1092.29 1486.25 1086.48 1486.25 Q1080.67 1486.25 1077.59 1481.67 Q1074.53 1477.06 1074.53 1468.33 Q1074.53 1459.58 1077.59 1455 Q1080.67 1450.39 1086.48 1450.39 Z" fill="#000000" fill-rule="evenodd" fill-opacity="1" /><path clip-path="url(#clip100)" d="M1420.53 1481.64 L1428.17 1481.64 L1428.17 1455.28 L1419.86 1456.95 L1419.86 1452.69 L1428.12 1451.02 L1432.8 1451.02 L1432.8 1481.64 L1440.44 1481.64 L1440.44 1485.58 L1420.53 1485.58 L1420.53 1481.64 Z" fill="#000000" fill-rule="evenodd" fill-opacity="1" /><path clip-path="url(#clip100)" d="M1768.47 1481.64 L1784.79 1481.64 L1784.79 1485.58 L1762.84 1485.58 L1762.84 1481.64 Q1765.51 1478.89 1770.09 1474.26 Q1774.7 1469.61 1775.88 1468.27 Q1778.12 1465.74 1779 1464.01 Q1779.9 1462.25 1779.9 1460.56 Q1779.9 1457.8 1777.96 1456.07 Q1776.04 1454.33 1772.94 1454.33 Q1770.74 1454.33 1768.28 1455.09 Q1765.85 1455.86 1763.08 1457.41 L1763.08 1452.69 Q1765.9 1451.55 1768.35 1450.97 Q1770.81 1450.39 1772.84 1450.39 Q1778.21 1450.39 1781.41 1453.08 Q1784.6 1455.77 1784.6 1460.26 Q1784.6 1462.39 1783.79 1464.31 Q1783.01 1466.2 1780.9 1468.8 Q1780.32 1469.47 1777.22 1472.69 Q1774.12 1475.88 1768.47 1481.64 Z" fill="#000000" fill-rule="evenodd" fill-opacity="1" /><path clip-path="url(#clip100)" d="M2121.73 1466.95 Q2125.09 1467.66 2126.96 1469.93 Q2128.86 1472.2 2128.86 1475.53 Q2128.86 1480.65 2125.34 1483.45 Q2121.82 1486.25 2115.34 1486.25 Q2113.17 1486.25 2110.85 1485.81 Q2108.56 1485.39 2106.11 1484.54 L2106.11 1480.02 Q2108.05 1481.16 2110.37 1481.74 Q2112.68 1482.32 2115.2 1482.32 Q2119.6 1482.32 2121.89 1480.58 Q2124.21 1478.84 2124.21 1475.53 Q2124.21 1472.48 2122.06 1470.77 Q2119.93 1469.03 2116.11 1469.03 L2112.08 1469.03 L2112.08 1465.19 L2116.29 1465.19 Q2119.74 1465.19 2121.57 1463.82 Q2123.4 1462.43 2123.4 1459.84 Q2123.4 1457.18 2121.5 1455.77 Q2119.63 1454.33 2116.11 1454.33 Q2114.19 1454.33 2111.99 1454.75 Q2109.79 1455.16 2107.15 1456.04 L2107.15 1451.88 Q2109.81 1451.14 2112.13 1450.77 Q2114.46 1450.39 2116.52 1450.39 Q2121.85 1450.39 2124.95 1452.83 Q2128.05 1455.23 2128.05 1459.35 Q2128.05 1462.22 2126.41 1464.21 Q2124.76 1466.18 2121.73 1466.95 Z" fill="#000000" fill-rule="evenodd" fill-opacity="1" /><path clip-path="url(#clip100)" d="M1243.72 1549.81 Q1243.72 1543.44 1241.08 1539.94 Q1238.47 1536.44 1233.73 1536.44 Q1229.02 1536.44 1226.38 1539.94 Q1223.77 1543.44 1223.77 1549.81 Q1223.77 1556.14 1226.38 1559.64 Q1229.02 1563.14 1233.73 1563.14 Q1238.47 1563.14 1241.08 1559.64 Q1243.72 1556.14 1243.72 1549.81 M1249.58 1563.62 Q1249.58 1572.72 1245.54 1577.15 Q1241.49 1581.6 1233.15 1581.6 Q1230.07 1581.6 1227.33 1581.13 Q1224.59 1580.68 1222.01 1579.72 L1222.01 1574.03 Q1224.59 1575.43 1227.11 1576.1 Q1229.62 1576.76 1232.23 1576.76 Q1237.99 1576.76 1240.86 1573.74 Q1243.72 1570.75 1243.72 1564.67 L1243.72 1561.77 Q1241.91 1564.92 1239.07 1566.48 Q1236.24 1568.04 1232.3 1568.04 Q1225.74 1568.04 1221.73 1563.05 Q1217.72 1558.05 1217.72 1549.81 Q1217.72 1541.53 1221.73 1536.53 Q1225.74 1531.54 1232.3 1531.54 Q1236.24 1531.54 1239.07 1533.1 Q1241.91 1534.66 1243.72 1537.81 L1243.72 1532.4 L1249.58 1532.4 L1249.58 1563.62 Z" fill="#000000" fill-rule="evenodd" fill-opacity="1" /><path clip-path="url(#clip100)" d="M1275.71 1518.58 Q1271.44 1525.9 1269.38 1533.06 Q1267.31 1540.23 1267.31 1547.58 Q1267.31 1554.93 1269.38 1562.16 Q1271.48 1569.35 1275.71 1576.64 L1270.62 1576.64 Q1265.84 1569.16 1263.46 1561.93 Q1261.1 1554.71 1261.1 1547.58 Q1261.1 1540.48 1263.46 1533.29 Q1265.81 1526.09 1270.62 1518.58 L1275.71 1518.58 Z" fill="#000000" fill-rule="evenodd" fill-opacity="1" /><path clip-path="url(#clip100)" d="M1285.04 1520.52 L1291.94 1520.52 L1303.75 1538.19 L1315.62 1520.52 L1322.53 1520.52 L1307.25 1543.34 L1323.55 1568.04 L1316.64 1568.04 L1303.27 1547.83 L1289.81 1568.04 L1282.87 1568.04 L1299.84 1542.68 L1285.04 1520.52 Z" fill="#000000" fill-rule="evenodd" fill-opacity="1" /><path clip-path="url(#clip100)" d="M1330.8 1518.58 L1335.9 1518.58 Q1340.67 1526.09 1343.03 1533.29 Q1345.41 1540.48 1345.41 1547.58 Q1345.41 1554.71 1343.03 1561.93 Q1340.67 1569.16 1335.9 1576.64 L1330.8 1576.64 Q1335.04 1569.35 1337.11 1562.16 Q1339.21 1554.93 1339.21 1547.58 Q1339.21 1540.23 1337.11 1533.06 Q1335.04 1525.9 1330.8 1518.58 Z" fill="#000000" fill-rule="evenodd" fill-opacity="1" /><polyline clip-path="url(#clip102)" style="stroke:#000000; stroke-linecap:butt; stroke-linejoin:round; stroke-width:2; stroke-opacity:0.1; fill:none" points="
  210.376,1156.61 2352.76,1156.61 
  "/>
<polyline clip-path="url(#clip102)" style="stroke:#000000; stroke-linecap:butt; stroke-linejoin:round; stroke-width:2; stroke-opacity:0.1; fill:none" points="
  210.376,827.769 2352.76,827.769 
  "/>
<polyline clip-path="url(#clip102)" style="stroke:#000000; stroke-linecap:butt; stroke-linejoin:round; stroke-width:2; stroke-opacity:0.1; fill:none" points="
  210.376,498.927 2352.76,498.927 
  "/>
<polyline clip-path="url(#clip102)" style="stroke:#000000; stroke-linecap:butt; stroke-linejoin:round; stroke-width:2; stroke-opacity:0.1; fill:none" points="
  210.376,170.085 2352.76,170.085 
  "/>
<polyline clip-path="url(#clip100)" style="stroke:#000000; stroke-linecap:butt; stroke-linejoin:round; stroke-width:4; stroke-opacity:1; fill:none" points="
  210.376,1423.18 210.376,123.472 
  "/>
<polyline clip-path="url(#clip100)" style="stroke:#000000; stroke-linecap:butt; stroke-linejoin:round; stroke-width:4; stroke-opacity:1; fill:none" points="
  210.376,1156.61 229.273,1156.61 
  "/>
<polyline clip-path="url(#clip100)" style="stroke:#000000; stroke-linecap:butt; stroke-linejoin:round; stroke-width:4; stroke-opacity:1; fill:none" points="
  210.376,827.769 229.273,827.769 
  "/>
<polyline clip-path="url(#clip100)" style="stroke:#000000; stroke-linecap:butt; stroke-linejoin:round; stroke-width:4; stroke-opacity:1; fill:none" points="
  210.376,498.927 229.273,498.927 
  "/>
<polyline clip-path="url(#clip100)" style="stroke:#000000; stroke-linecap:butt; stroke-linejoin:round; stroke-width:4; stroke-opacity:1; fill:none" points="
  210.376,170.085 229.273,170.085 
  "/>
<path clip-path="url(#clip100)" d="M114.26 1157.06 L143.936 1157.06 L143.936 1161 L114.26 1161 L114.26 1157.06 Z" fill="#000000" fill-rule="evenodd" fill-opacity="1" /><path clip-path="url(#clip100)" d="M158.056 1169.96 L174.376 1169.96 L174.376 1173.89 L152.431 1173.89 L152.431 1169.96 Q155.093 1167.2 159.677 1162.57 Q164.283 1157.92 165.464 1156.58 Q167.709 1154.05 168.589 1152.32 Q169.491 1150.56 169.491 1148.87 Q169.491 1146.11 167.547 1144.38 Q165.626 1142.64 162.524 1142.64 Q160.325 1142.64 157.871 1143.4 Q155.44 1144.17 152.663 1145.72 L152.663 1141 Q155.487 1139.86 157.94 1139.28 Q160.394 1138.71 162.431 1138.71 Q167.802 1138.71 170.996 1141.39 Q174.19 1144.08 174.19 1148.57 Q174.19 1150.7 173.38 1152.62 Q172.593 1154.52 170.487 1157.11 Q169.908 1157.78 166.806 1161 Q163.704 1164.19 158.056 1169.96 Z" fill="#000000" fill-rule="evenodd" fill-opacity="1" /><path clip-path="url(#clip100)" d="M162.431 813.568 Q158.82 813.568 156.991 817.132 Q155.186 820.674 155.186 827.804 Q155.186 834.91 156.991 838.475 Q158.82 842.017 162.431 842.017 Q166.065 842.017 167.871 838.475 Q169.7 834.91 169.7 827.804 Q169.7 820.674 167.871 817.132 Q166.065 813.568 162.431 813.568 M162.431 809.864 Q168.241 809.864 171.297 814.47 Q174.376 819.054 174.376 827.804 Q174.376 836.53 171.297 841.137 Q168.241 845.72 162.431 845.72 Q156.621 845.72 153.542 841.137 Q150.487 836.53 150.487 827.804 Q150.487 819.054 153.542 814.47 Q156.621 809.864 162.431 809.864 Z" fill="#000000" fill-rule="evenodd" fill-opacity="1" /><path clip-path="url(#clip100)" d="M158.056 512.272 L174.376 512.272 L174.376 516.207 L152.431 516.207 L152.431 512.272 Q155.093 509.517 159.677 504.888 Q164.283 500.235 165.464 498.892 Q167.709 496.369 168.589 494.633 Q169.491 492.874 169.491 491.184 Q169.491 488.43 167.547 486.693 Q165.626 484.957 162.524 484.957 Q160.325 484.957 157.871 485.721 Q155.44 486.485 152.663 488.036 L152.663 483.314 Q155.487 482.18 157.94 481.601 Q160.394 481.022 162.431 481.022 Q167.802 481.022 170.996 483.707 Q174.19 486.392 174.19 490.883 Q174.19 493.013 173.38 494.934 Q172.593 496.832 170.487 499.425 Q169.908 500.096 166.806 503.314 Q163.704 506.508 158.056 512.272 Z" fill="#000000" fill-rule="evenodd" fill-opacity="1" /><path clip-path="url(#clip100)" d="M164.792 156.879 L152.987 175.328 L164.792 175.328 L164.792 156.879 M163.565 152.805 L169.445 152.805 L169.445 175.328 L174.376 175.328 L174.376 179.217 L169.445 179.217 L169.445 187.365 L164.792 187.365 L164.792 179.217 L149.191 179.217 L149.191 174.703 L163.565 152.805 Z" fill="#000000" fill-rule="evenodd" fill-opacity="1" /><path clip-path="url(#clip100)" d="M16.4842 793.362 L16.4842 786.455 L36.0269 773.278 L16.4842 760.197 L16.4842 753.29 L41.3741 770.095 L64.0042 770.095 L64.0042 776.557 L41.3741 776.557 L16.4842 793.362 Z" fill="#000000" fill-rule="evenodd" fill-opacity="1" /><path clip-path="url(#clip100)" d="M1100.06 12.096 L1108.86 12.096 L1125.63 36.9686 L1142.28 12.096 L1151.07 12.096 L1129.68 43.7741 L1129.68 72.576 L1121.45 72.576 L1121.45 43.7741 L1100.06 12.096 Z" fill="#000000" fill-rule="evenodd" fill-opacity="1" /><path clip-path="url(#clip100)" d="M1179.75 27.2059 L1187.65 27.2059 L1201.82 65.2844 L1216 27.2059 L1223.9 27.2059 L1206.89 72.576 L1196.76 72.576 L1179.75 27.2059 Z" fill="#000000" fill-rule="evenodd" fill-opacity="1" /><path clip-path="url(#clip100)" d="M1263.11 28.5427 L1263.11 35.5912 Q1259.95 33.9709 1256.55 33.1607 Q1253.15 32.3505 1249.5 32.3505 Q1243.95 32.3505 1241.16 34.0519 Q1238.4 35.7533 1238.4 39.156 Q1238.4 41.7486 1240.39 43.2475 Q1242.37 44.7058 1248.37 46.0426 L1250.92 46.6097 Q1258.86 48.3111 1262.18 51.4303 Q1265.54 54.509 1265.54 60.0587 Q1265.54 66.3781 1260.52 70.0644 Q1255.54 73.7508 1246.79 73.7508 Q1243.14 73.7508 1239.17 73.0216 Q1235.24 72.3329 1230.87 70.9151 L1230.87 63.2184 Q1235 65.3654 1239.01 66.4591 Q1243.02 67.5124 1246.95 67.5124 Q1252.22 67.5124 1255.05 65.73 Q1257.89 63.9071 1257.89 60.6258 Q1257.89 57.5877 1255.82 55.9673 Q1253.8 54.3469 1246.87 52.8481 L1244.28 52.2405 Q1237.35 50.7821 1234.27 47.7845 Q1231.19 44.7463 1231.19 39.4801 Q1231.19 33.0797 1235.73 29.5959 Q1240.27 26.1121 1248.61 26.1121 Q1252.74 26.1121 1256.39 26.7198 Q1260.04 27.3274 1263.11 28.5427 Z" fill="#000000" fill-rule="evenodd" fill-opacity="1" /><path clip-path="url(#clip100)" d="M1333.64 49.3643 Q1333.64 41.2625 1330.28 36.8065 Q1326.96 32.3505 1320.92 32.3505 Q1314.92 32.3505 1311.56 36.8065 Q1308.24 41.2625 1308.24 49.3643 Q1308.24 57.4256 1311.56 61.8816 Q1314.92 66.3376 1320.92 66.3376 Q1326.96 66.3376 1330.28 61.8816 Q1333.64 57.4256 1333.64 49.3643 M1341.09 66.9452 Q1341.09 78.5308 1335.95 84.1616 Q1330.8 89.8329 1320.19 89.8329 Q1316.26 89.8329 1312.78 89.2252 Q1309.29 88.6581 1306.01 87.4428 L1306.01 80.1917 Q1309.29 81.9741 1312.49 82.8248 Q1315.69 83.6755 1319.02 83.6755 Q1326.35 83.6755 1329.99 79.8271 Q1333.64 76.0193 1333.64 68.282 L1333.64 64.5957 Q1331.33 68.6061 1327.73 70.5911 Q1324.12 72.576 1319.1 72.576 Q1310.75 72.576 1305.65 66.2161 Q1300.54 59.8562 1300.54 49.3643 Q1300.54 38.832 1305.65 32.472 Q1310.75 26.1121 1319.1 26.1121 Q1324.12 26.1121 1327.73 28.0971 Q1331.33 30.082 1333.64 34.0924 L1333.64 27.2059 L1341.09 27.2059 L1341.09 66.9452 Z" fill="#000000" fill-rule="evenodd" fill-opacity="1" /><path clip-path="url(#clip100)" d="M1374.35 9.62495 Q1368.92 18.942 1366.29 28.0566 Q1363.66 37.1711 1363.66 46.5287 Q1363.66 55.8863 1366.29 65.0818 Q1368.96 74.2369 1374.35 83.5134 L1367.87 83.5134 Q1361.79 73.9938 1358.76 64.7983 Q1355.76 55.6027 1355.76 46.5287 Q1355.76 37.4952 1358.76 28.3401 Q1361.75 19.1851 1367.87 9.62495 L1374.35 9.62495 Z" fill="#000000" fill-rule="evenodd" fill-opacity="1" /><path clip-path="url(#clip100)" d="M1386.22 12.096 L1395.01 12.096 L1410.04 34.5785 L1425.15 12.096 L1433.94 12.096 L1414.5 41.141 L1435.24 72.576 L1426.45 72.576 L1409.43 46.8528 L1392.3 72.576 L1383.47 72.576 L1405.06 40.2903 L1386.22 12.096 Z" fill="#000000" fill-rule="evenodd" fill-opacity="1" /><path clip-path="url(#clip100)" d="M1444.47 9.62495 L1450.95 9.62495 Q1457.03 19.1851 1460.03 28.3401 Q1463.07 37.4952 1463.07 46.5287 Q1463.07 55.6027 1460.03 64.7983 Q1457.03 73.9938 1450.95 83.5134 L1444.47 83.5134 Q1449.86 74.2369 1452.49 65.0818 Q1455.17 55.8863 1455.17 46.5287 Q1455.17 37.1711 1452.49 28.0566 Q1449.86 18.942 1444.47 9.62495 Z" fill="#000000" fill-rule="evenodd" fill-opacity="1" /><circle clip-path="url(#clip102)" cx="1153.23" cy="644.808" r="14.4" fill="#009af9" fill-rule="evenodd" fill-opacity="1" stroke="#000000" stroke-opacity="1" stroke-width="3.2"/>
<circle clip-path="url(#clip102)" cx="1269.64" cy="768.363" r="14.4" fill="#009af9" fill-rule="evenodd" fill-opacity="1" stroke="#000000" stroke-opacity="1" stroke-width="3.2"/>
<circle clip-path="url(#clip102)" cx="1701.99" cy="615.244" r="14.4" fill="#009af9" fill-rule="evenodd" fill-opacity="1" stroke="#000000" stroke-opacity="1" stroke-width="3.2"/>
<circle clip-path="url(#clip102)" cx="1432.25" cy="775.072" r="14.4" fill="#009af9" fill-rule="evenodd" fill-opacity="1" stroke="#000000" stroke-opacity="1" stroke-width="3.2"/>
<circle clip-path="url(#clip102)" cx="1736.85" cy="636.434" r="14.4" fill="#009af9" fill-rule="evenodd" fill-opacity="1" stroke="#000000" stroke-opacity="1" stroke-width="3.2"/>
<circle clip-path="url(#clip102)" cx="996.922" cy="857.841" r="14.4" fill="#009af9" fill-rule="evenodd" fill-opacity="1" stroke="#000000" stroke-opacity="1" stroke-width="3.2"/>
<circle clip-path="url(#clip102)" cx="1056.96" cy="945.028" r="14.4" fill="#009af9" fill-rule="evenodd" fill-opacity="1" stroke="#000000" stroke-opacity="1" stroke-width="3.2"/>
<circle clip-path="url(#clip102)" cx="2131.29" cy="300.2" r="14.4" fill="#009af9" fill-rule="evenodd" fill-opacity="1" stroke="#000000" stroke-opacity="1" stroke-width="3.2"/>
<circle clip-path="url(#clip102)" cx="1493.45" cy="576.36" r="14.4" fill="#009af9" fill-rule="evenodd" fill-opacity="1" stroke="#000000" stroke-opacity="1" stroke-width="3.2"/>
<circle clip-path="url(#clip102)" cx="986.951" cy="872.384" r="14.4" fill="#009af9" fill-rule="evenodd" fill-opacity="1" stroke="#000000" stroke-opacity="1" stroke-width="3.2"/>
<circle clip-path="url(#clip102)" cx="1548.87" cy="481.511" r="14.4" fill="#009af9" fill-rule="evenodd" fill-opacity="1" stroke="#000000" stroke-opacity="1" stroke-width="3.2"/>
<circle clip-path="url(#clip102)" cx="1102.07" cy="1011.15" r="14.4" fill="#009af9" fill-rule="evenodd" fill-opacity="1" stroke="#000000" stroke-opacity="1" stroke-width="3.2"/>
<circle clip-path="url(#clip102)" cx="1510.48" cy="618.845" r="14.4" fill="#009af9" fill-rule="evenodd" fill-opacity="1" stroke="#000000" stroke-opacity="1" stroke-width="3.2"/>
<circle clip-path="url(#clip102)" cx="1297.03" cy="965.97" r="14.4" fill="#009af9" fill-rule="evenodd" fill-opacity="1" stroke="#000000" stroke-opacity="1" stroke-width="3.2"/>
<circle clip-path="url(#clip102)" cx="511.021" cy="1386.4" r="14.4" fill="#009af9" fill-rule="evenodd" fill-opacity="1" stroke="#000000" stroke-opacity="1" stroke-width="3.2"/>
<circle clip-path="url(#clip102)" cx="1947.18" cy="171" r="14.4" fill="#009af9" fill-rule="evenodd" fill-opacity="1" stroke="#000000" stroke-opacity="1" stroke-width="3.2"/>
<circle clip-path="url(#clip102)" cx="1621.09" cy="428.547" r="14.4" fill="#009af9" fill-rule="evenodd" fill-opacity="1" stroke="#000000" stroke-opacity="1" stroke-width="3.2"/>
<circle clip-path="url(#clip102)" cx="1172.94" cy="912.21" r="14.4" fill="#009af9" fill-rule="evenodd" fill-opacity="1" stroke="#000000" stroke-opacity="1" stroke-width="3.2"/>
<circle clip-path="url(#clip102)" cx="2012.4" cy="160.256" r="14.4" fill="#009af9" fill-rule="evenodd" fill-opacity="1" stroke="#000000" stroke-opacity="1" stroke-width="3.2"/>
<circle clip-path="url(#clip102)" cx="982.663" cy="643.429" r="14.4" fill="#009af9" fill-rule="evenodd" fill-opacity="1" stroke="#000000" stroke-opacity="1" stroke-width="3.2"/>
<circle clip-path="url(#clip102)" cx="1389.9" cy="969" r="14.4" fill="#009af9" fill-rule="evenodd" fill-opacity="1" stroke="#000000" stroke-opacity="1" stroke-width="3.2"/>
<circle clip-path="url(#clip102)" cx="1574.66" cy="502.345" r="14.4" fill="#009af9" fill-rule="evenodd" fill-opacity="1" stroke="#000000" stroke-opacity="1" stroke-width="3.2"/>
<circle clip-path="url(#clip102)" cx="1324.88" cy="741.415" r="14.4" fill="#009af9" fill-rule="evenodd" fill-opacity="1" stroke="#000000" stroke-opacity="1" stroke-width="3.2"/>
<circle clip-path="url(#clip102)" cx="1645.4" cy="670.956" r="14.4" fill="#009af9" fill-rule="evenodd" fill-opacity="1" stroke="#000000" stroke-opacity="1" stroke-width="3.2"/>
<circle clip-path="url(#clip102)" cx="1683.16" cy="560.451" r="14.4" fill="#009af9" fill-rule="evenodd" fill-opacity="1" stroke="#000000" stroke-opacity="1" stroke-width="3.2"/>
<circle clip-path="url(#clip102)" cx="1347.08" cy="1098.63" r="14.4" fill="#009af9" fill-rule="evenodd" fill-opacity="1" stroke="#000000" stroke-opacity="1" stroke-width="3.2"/>
<circle clip-path="url(#clip102)" cx="1200.98" cy="746.752" r="14.4" fill="#009af9" fill-rule="evenodd" fill-opacity="1" stroke="#000000" stroke-opacity="1" stroke-width="3.2"/>
<circle clip-path="url(#clip102)" cx="1080" cy="838.83" r="14.4" fill="#009af9" fill-rule="evenodd" fill-opacity="1" stroke="#000000" stroke-opacity="1" stroke-width="3.2"/>
<circle clip-path="url(#clip102)" cx="1817.5" cy="436.843" r="14.4" fill="#009af9" fill-rule="evenodd" fill-opacity="1" stroke="#000000" stroke-opacity="1" stroke-width="3.2"/>
<circle clip-path="url(#clip102)" cx="1342.1" cy="858.813" r="14.4" fill="#009af9" fill-rule="evenodd" fill-opacity="1" stroke="#000000" stroke-opacity="1" stroke-width="3.2"/>
<circle clip-path="url(#clip102)" cx="1367.71" cy="642.214" r="14.4" fill="#009af9" fill-rule="evenodd" fill-opacity="1" stroke="#000000" stroke-opacity="1" stroke-width="3.2"/>
<circle clip-path="url(#clip102)" cx="1217.16" cy="816.912" r="14.4" fill="#009af9" fill-rule="evenodd" fill-opacity="1" stroke="#000000" stroke-opacity="1" stroke-width="3.2"/>
<circle clip-path="url(#clip102)" cx="1064.47" cy="1020.97" r="14.4" fill="#009af9" fill-rule="evenodd" fill-opacity="1" stroke="#000000" stroke-opacity="1" stroke-width="3.2"/>
<circle clip-path="url(#clip102)" cx="1479.62" cy="657.076" r="14.4" fill="#009af9" fill-rule="evenodd" fill-opacity="1" stroke="#000000" stroke-opacity="1" stroke-width="3.2"/>
<circle clip-path="url(#clip102)" cx="1149.16" cy="423.752" r="14.4" fill="#009af9" fill-rule="evenodd" fill-opacity="1" stroke="#000000" stroke-opacity="1" stroke-width="3.2"/>
<circle clip-path="url(#clip102)" cx="1919.92" cy="493.908" r="14.4" fill="#009af9" fill-rule="evenodd" fill-opacity="1" stroke="#000000" stroke-opacity="1" stroke-width="3.2"/>
<circle clip-path="url(#clip102)" cx="1621.26" cy="887.342" r="14.4" fill="#009af9" fill-rule="evenodd" fill-opacity="1" stroke="#000000" stroke-opacity="1" stroke-width="3.2"/>
<circle clip-path="url(#clip102)" cx="1741.54" cy="556.016" r="14.4" fill="#009af9" fill-rule="evenodd" fill-opacity="1" stroke="#000000" stroke-opacity="1" stroke-width="3.2"/>
<circle clip-path="url(#clip102)" cx="2139.24" cy="264.658" r="14.4" fill="#009af9" fill-rule="evenodd" fill-opacity="1" stroke="#000000" stroke-opacity="1" stroke-width="3.2"/>
<circle clip-path="url(#clip102)" cx="1282.36" cy="601.142" r="14.4" fill="#009af9" fill-rule="evenodd" fill-opacity="1" stroke="#000000" stroke-opacity="1" stroke-width="3.2"/>
<circle clip-path="url(#clip102)" cx="1745.22" cy="603.434" r="14.4" fill="#009af9" fill-rule="evenodd" fill-opacity="1" stroke="#000000" stroke-opacity="1" stroke-width="3.2"/>
<circle clip-path="url(#clip102)" cx="871.253" cy="890.133" r="14.4" fill="#009af9" fill-rule="evenodd" fill-opacity="1" stroke="#000000" stroke-opacity="1" stroke-width="3.2"/>
<circle clip-path="url(#clip102)" cx="2015.24" cy="714.568" r="14.4" fill="#009af9" fill-rule="evenodd" fill-opacity="1" stroke="#000000" stroke-opacity="1" stroke-width="3.2"/>
<circle clip-path="url(#clip102)" cx="1580.42" cy="583.667" r="14.4" fill="#009af9" fill-rule="evenodd" fill-opacity="1" stroke="#000000" stroke-opacity="1" stroke-width="3.2"/>
<circle clip-path="url(#clip102)" cx="1717.21" cy="577.808" r="14.4" fill="#009af9" fill-rule="evenodd" fill-opacity="1" stroke="#000000" stroke-opacity="1" stroke-width="3.2"/>
<circle clip-path="url(#clip102)" cx="2292.12" cy="420.703" r="14.4" fill="#009af9" fill-rule="evenodd" fill-opacity="1" stroke="#000000" stroke-opacity="1" stroke-width="3.2"/>
<circle clip-path="url(#clip102)" cx="826.911" cy="1047.07" r="14.4" fill="#009af9" fill-rule="evenodd" fill-opacity="1" stroke="#000000" stroke-opacity="1" stroke-width="3.2"/>
<circle clip-path="url(#clip102)" cx="753.181" cy="1262" r="14.4" fill="#009af9" fill-rule="evenodd" fill-opacity="1" stroke="#000000" stroke-opacity="1" stroke-width="3.2"/>
<circle clip-path="url(#clip102)" cx="1177.75" cy="722.139" r="14.4" fill="#009af9" fill-rule="evenodd" fill-opacity="1" stroke="#000000" stroke-opacity="1" stroke-width="3.2"/>
<circle clip-path="url(#clip102)" cx="1668.84" cy="347.273" r="14.4" fill="#009af9" fill-rule="evenodd" fill-opacity="1" stroke="#000000" stroke-opacity="1" stroke-width="3.2"/>
<circle clip-path="url(#clip102)" cx="1283.66" cy="691.43" r="14.4" fill="#009af9" fill-rule="evenodd" fill-opacity="1" stroke="#000000" stroke-opacity="1" stroke-width="3.2"/>
<circle clip-path="url(#clip102)" cx="1223.49" cy="787.755" r="14.4" fill="#009af9" fill-rule="evenodd" fill-opacity="1" stroke="#000000" stroke-opacity="1" stroke-width="3.2"/>
<circle clip-path="url(#clip102)" cx="941.862" cy="704.75" r="14.4" fill="#009af9" fill-rule="evenodd" fill-opacity="1" stroke="#000000" stroke-opacity="1" stroke-width="3.2"/>
<circle clip-path="url(#clip102)" cx="1095.07" cy="887.542" r="14.4" fill="#009af9" fill-rule="evenodd" fill-opacity="1" stroke="#000000" stroke-opacity="1" stroke-width="3.2"/>
<circle clip-path="url(#clip102)" cx="1445.45" cy="645.046" r="14.4" fill="#009af9" fill-rule="evenodd" fill-opacity="1" stroke="#000000" stroke-opacity="1" stroke-width="3.2"/>
<circle clip-path="url(#clip102)" cx="792.812" cy="1114.45" r="14.4" fill="#009af9" fill-rule="evenodd" fill-opacity="1" stroke="#000000" stroke-opacity="1" stroke-width="3.2"/>
<circle clip-path="url(#clip102)" cx="1844.18" cy="453.805" r="14.4" fill="#009af9" fill-rule="evenodd" fill-opacity="1" stroke="#000000" stroke-opacity="1" stroke-width="3.2"/>
<circle clip-path="url(#clip102)" cx="2024.37" cy="349.472" r="14.4" fill="#009af9" fill-rule="evenodd" fill-opacity="1" stroke="#000000" stroke-opacity="1" stroke-width="3.2"/>
<circle clip-path="url(#clip102)" cx="1312" cy="675.03" r="14.4" fill="#009af9" fill-rule="evenodd" fill-opacity="1" stroke="#000000" stroke-opacity="1" stroke-width="3.2"/>
<circle clip-path="url(#clip102)" cx="887.293" cy="902.479" r="14.4" fill="#009af9" fill-rule="evenodd" fill-opacity="1" stroke="#000000" stroke-opacity="1" stroke-width="3.2"/>
<circle clip-path="url(#clip102)" cx="1886.44" cy="655.387" r="14.4" fill="#009af9" fill-rule="evenodd" fill-opacity="1" stroke="#000000" stroke-opacity="1" stroke-width="3.2"/>
<circle clip-path="url(#clip102)" cx="1490.38" cy="775.665" r="14.4" fill="#009af9" fill-rule="evenodd" fill-opacity="1" stroke="#000000" stroke-opacity="1" stroke-width="3.2"/>
<circle clip-path="url(#clip102)" cx="1259.66" cy="490.798" r="14.4" fill="#009af9" fill-rule="evenodd" fill-opacity="1" stroke="#000000" stroke-opacity="1" stroke-width="3.2"/>
<circle clip-path="url(#clip102)" cx="1686.49" cy="638.039" r="14.4" fill="#009af9" fill-rule="evenodd" fill-opacity="1" stroke="#000000" stroke-opacity="1" stroke-width="3.2"/>
<circle clip-path="url(#clip102)" cx="1274.48" cy="764.099" r="14.4" fill="#009af9" fill-rule="evenodd" fill-opacity="1" stroke="#000000" stroke-opacity="1" stroke-width="3.2"/>
<circle clip-path="url(#clip102)" cx="724.987" cy="838.764" r="14.4" fill="#009af9" fill-rule="evenodd" fill-opacity="1" stroke="#000000" stroke-opacity="1" stroke-width="3.2"/>
<circle clip-path="url(#clip102)" cx="1406.59" cy="530.181" r="14.4" fill="#009af9" fill-rule="evenodd" fill-opacity="1" stroke="#000000" stroke-opacity="1" stroke-width="3.2"/>
<circle clip-path="url(#clip102)" cx="1029.76" cy="782.413" r="14.4" fill="#009af9" fill-rule="evenodd" fill-opacity="1" stroke="#000000" stroke-opacity="1" stroke-width="3.2"/>
<circle clip-path="url(#clip102)" cx="1991.78" cy="338.515" r="14.4" fill="#009af9" fill-rule="evenodd" fill-opacity="1" stroke="#000000" stroke-opacity="1" stroke-width="3.2"/>
<circle clip-path="url(#clip102)" cx="1643.31" cy="401.912" r="14.4" fill="#009af9" fill-rule="evenodd" fill-opacity="1" stroke="#000000" stroke-opacity="1" stroke-width="3.2"/>
<circle clip-path="url(#clip102)" cx="2120.69" cy="329.168" r="14.4" fill="#009af9" fill-rule="evenodd" fill-opacity="1" stroke="#000000" stroke-opacity="1" stroke-width="3.2"/>
<circle clip-path="url(#clip102)" cx="1393.39" cy="702.249" r="14.4" fill="#009af9" fill-rule="evenodd" fill-opacity="1" stroke="#000000" stroke-opacity="1" stroke-width="3.2"/>
<circle clip-path="url(#clip102)" cx="1120.85" cy="1168.7" r="14.4" fill="#009af9" fill-rule="evenodd" fill-opacity="1" stroke="#000000" stroke-opacity="1" stroke-width="3.2"/>
<circle clip-path="url(#clip102)" cx="645.447" cy="979.897" r="14.4" fill="#009af9" fill-rule="evenodd" fill-opacity="1" stroke="#000000" stroke-opacity="1" stroke-width="3.2"/>
<circle clip-path="url(#clip102)" cx="638.861" cy="950.343" r="14.4" fill="#009af9" fill-rule="evenodd" fill-opacity="1" stroke="#000000" stroke-opacity="1" stroke-width="3.2"/>
<circle clip-path="url(#clip102)" cx="1105.96" cy="729.813" r="14.4" fill="#009af9" fill-rule="evenodd" fill-opacity="1" stroke="#000000" stroke-opacity="1" stroke-width="3.2"/>
<circle clip-path="url(#clip102)" cx="1600.7" cy="227.918" r="14.4" fill="#009af9" fill-rule="evenodd" fill-opacity="1" stroke="#000000" stroke-opacity="1" stroke-width="3.2"/>
<circle clip-path="url(#clip102)" cx="1169.08" cy="918.656" r="14.4" fill="#009af9" fill-rule="evenodd" fill-opacity="1" stroke="#000000" stroke-opacity="1" stroke-width="3.2"/>
<circle clip-path="url(#clip102)" cx="1598.38" cy="289.007" r="14.4" fill="#009af9" fill-rule="evenodd" fill-opacity="1" stroke="#000000" stroke-opacity="1" stroke-width="3.2"/>
<circle clip-path="url(#clip102)" cx="1669.95" cy="324.379" r="14.4" fill="#009af9" fill-rule="evenodd" fill-opacity="1" stroke="#000000" stroke-opacity="1" stroke-width="3.2"/>
<circle clip-path="url(#clip102)" cx="1508.68" cy="668.867" r="14.4" fill="#009af9" fill-rule="evenodd" fill-opacity="1" stroke="#000000" stroke-opacity="1" stroke-width="3.2"/>
<circle clip-path="url(#clip102)" cx="1970.57" cy="423.614" r="14.4" fill="#009af9" fill-rule="evenodd" fill-opacity="1" stroke="#000000" stroke-opacity="1" stroke-width="3.2"/>
<circle clip-path="url(#clip102)" cx="1055.09" cy="878.327" r="14.4" fill="#009af9" fill-rule="evenodd" fill-opacity="1" stroke="#000000" stroke-opacity="1" stroke-width="3.2"/>
<circle clip-path="url(#clip102)" cx="271.009" cy="1180.29" r="14.4" fill="#009af9" fill-rule="evenodd" fill-opacity="1" stroke="#000000" stroke-opacity="1" stroke-width="3.2"/>
<circle clip-path="url(#clip102)" cx="1325.21" cy="660.967" r="14.4" fill="#009af9" fill-rule="evenodd" fill-opacity="1" stroke="#000000" stroke-opacity="1" stroke-width="3.2"/>
<circle clip-path="url(#clip102)" cx="1462.5" cy="801.121" r="14.4" fill="#009af9" fill-rule="evenodd" fill-opacity="1" stroke="#000000" stroke-opacity="1" stroke-width="3.2"/>
<circle clip-path="url(#clip102)" cx="1500.43" cy="858.669" r="14.4" fill="#009af9" fill-rule="evenodd" fill-opacity="1" stroke="#000000" stroke-opacity="1" stroke-width="3.2"/>
<circle clip-path="url(#clip102)" cx="1251.21" cy="889.937" r="14.4" fill="#009af9" fill-rule="evenodd" fill-opacity="1" stroke="#000000" stroke-opacity="1" stroke-width="3.2"/>
<circle clip-path="url(#clip102)" cx="1426.11" cy="996.996" r="14.4" fill="#009af9" fill-rule="evenodd" fill-opacity="1" stroke="#000000" stroke-opacity="1" stroke-width="3.2"/>
<circle clip-path="url(#clip102)" cx="1231.44" cy="719.995" r="14.4" fill="#009af9" fill-rule="evenodd" fill-opacity="1" stroke="#000000" stroke-opacity="1" stroke-width="3.2"/>
<circle clip-path="url(#clip102)" cx="1361.23" cy="516.332" r="14.4" fill="#009af9" fill-rule="evenodd" fill-opacity="1" stroke="#000000" stroke-opacity="1" stroke-width="3.2"/>
<circle clip-path="url(#clip102)" cx="1210.25" cy="749.197" r="14.4" fill="#009af9" fill-rule="evenodd" fill-opacity="1" stroke="#000000" stroke-opacity="1" stroke-width="3.2"/>
<circle clip-path="url(#clip102)" cx="1245.89" cy="798.884" r="14.4" fill="#009af9" fill-rule="evenodd" fill-opacity="1" stroke="#000000" stroke-opacity="1" stroke-width="3.2"/>
<circle clip-path="url(#clip102)" cx="960.523" cy="1118.99" r="14.4" fill="#009af9" fill-rule="evenodd" fill-opacity="1" stroke="#000000" stroke-opacity="1" stroke-width="3.2"/>
<circle clip-path="url(#clip102)" cx="1088.21" cy="902.457" r="14.4" fill="#009af9" fill-rule="evenodd" fill-opacity="1" stroke="#000000" stroke-opacity="1" stroke-width="3.2"/>
<circle clip-path="url(#clip102)" cx="628.168" cy="842.342" r="14.4" fill="#009af9" fill-rule="evenodd" fill-opacity="1" stroke="#000000" stroke-opacity="1" stroke-width="3.2"/>
<circle clip-path="url(#clip102)" cx="553.513" cy="1051.07" r="14.4" fill="#009af9" fill-rule="evenodd" fill-opacity="1" stroke="#000000" stroke-opacity="1" stroke-width="3.2"/>
<circle clip-path="url(#clip102)" cx="1246.25" cy="514.266" r="14.4" fill="#009af9" fill-rule="evenodd" fill-opacity="1" stroke="#000000" stroke-opacity="1" stroke-width="3.2"/>
<circle clip-path="url(#clip102)" cx="1470.97" cy="874.512" r="14.4" fill="#009af9" fill-rule="evenodd" fill-opacity="1" stroke="#000000" stroke-opacity="1" stroke-width="3.2"/>
<circle clip-path="url(#clip102)" cx="1379.44" cy="883.76" r="14.4" fill="#009af9" fill-rule="evenodd" fill-opacity="1" stroke="#000000" stroke-opacity="1" stroke-width="3.2"/>
</svg>